<svg width="70" height="58" viewBox="0 0 70 58" fill="none" xmlns="http://www.w3.org/2000/svg">
<rect x="0.5" y="0.5" width="69" height="50.5556" rx="7.5" stroke="#406AFF"/>
<path d="M7.25977 33.3628C7.25977 36.8824 7.25977 38.2511 7.25977 38.4955" stroke="#406AFF" stroke-linecap="round"/>
<path d="M10.3701 34.9028C10.3701 37.3665 10.3701 38.3247 10.3701 38.4958" stroke="#406AFF" stroke-linecap="round"/>
<path d="M13.4805 35.9292C13.4805 37.689 13.4805 38.3734 13.4805 38.4956" stroke="#406AFF" stroke-linecap="round"/>
<path d="M16.5918 33.876C16.5918 37.0436 16.5918 38.2755 16.5918 38.4954" stroke="#406AFF" stroke-linecap="round"/>
<path d="M19.7031 30.7964C19.7031 36.0758 19.7031 38.1289 19.7031 38.4955" stroke="#406AFF" stroke-linecap="round"/>
<path d="M50.2969 33.3628C50.2969 36.8824 50.2969 38.2511 50.2969 38.4955" stroke="#406AFF" stroke-linecap="round"/>
<path d="M53.4082 34.9028C53.4082 37.3665 53.4082 38.3247 53.4082 38.4958" stroke="#406AFF" stroke-linecap="round"/>
<path d="M56.5195 35.9292C56.5195 37.689 56.5195 38.3734 56.5195 38.4956" stroke="#406AFF" stroke-linecap="round"/>
<path d="M59.6299 33.876C59.6299 37.0436 59.6299 38.2755 59.6299 38.4954" stroke="#406AFF" stroke-linecap="round"/>
<path d="M62.7402 30.7964C62.7402 36.0758 62.7402 38.1289 62.7402 38.4955" stroke="#406AFF" stroke-linecap="round"/>
<path d="M28.5186 33.876C28.5186 37.0436 28.5186 38.2755 28.5186 38.4954" stroke="#406AFF" stroke-linecap="round"/>
<path d="M31.6289 31.3096C31.6289 36.237 31.6289 38.1532 31.6289 38.4954" stroke="#406AFF" stroke-linecap="round"/>
<path d="M34.7402 28.7432C34.7402 35.4304 34.7402 38.031 34.7402 38.4954" stroke="#406AFF" stroke-linecap="round"/>
<path d="M37.8516 25.6636C37.8516 34.4626 37.8516 37.8844 37.8516 38.4954" stroke="#406AFF" stroke-linecap="round"/>
<path d="M40.9629 28.23C40.9629 35.2692 40.9629 38.0066 40.9629 38.4955" stroke="#406AFF" stroke-linecap="round"/>
<path d="M7.25977 30.2834L13.482 33.1064L19.7042 28.2303L28.519 31.3099L38.1116 22.3276L43.0375 26.9471L56.519 33.363L63.0005 27.4604" stroke="#406AFF" stroke-linecap="round"/>
<path d="M35.0007 45.6418C42.258 45.6418 48.1673 39.814 48.1673 32.5931C48.1673 25.3722 42.258 19.5444 35.0007 19.5444C27.7433 19.5444 21.834 25.3722 21.834 32.5931C21.834 39.814 27.7433 45.6418 35.0007 45.6418Z" stroke="white" stroke-width="3"/>
<path d="M44.1673 32.5931C44.1673 37.5667 40.0873 41.6418 35.0007 41.6418C29.914 41.6418 25.834 37.5667 25.834 32.5931C25.834 27.6196 29.914 23.5444 35.0007 23.5444C40.0873 23.5444 44.1673 27.6196 44.1673 32.5931Z" stroke="white" stroke-width="5"/>
<path d="M46.1673 32.5931C46.1673 38.6903 41.1726 43.6418 35.0007 43.6418C28.8287 43.6418 23.834 38.6903 23.834 32.5931C23.834 26.4959 28.8287 21.5444 35.0007 21.5444C41.1726 21.5444 46.1673 26.4959 46.1673 32.5931Z" stroke="#406AFF"/>
<ellipse cx="7.25969" cy="30.2834" rx="1.03704" ry="1.02655" fill="#406AFF"/>
<ellipse cx="13.4814" cy="32.8498" rx="1.03704" ry="1.02655" fill="#406AFF"/>
<ellipse cx="19.7031" cy="28.2302" rx="1.03704" ry="1.02655" fill="#406AFF"/>
<ellipse cx="28.5185" cy="31.3098" rx="1.03704" ry="1.02655" fill="#406AFF"/>
<ellipse cx="56.5175" cy="33.363" rx="1.03704" ry="1.02655" fill="#406AFF"/>
<ellipse cx="62.7402" cy="27.717" rx="1.03704" ry="1.02655" fill="#406AFF"/>
<rect x="7.24023" y="6.146" width="55.5185" height="7.21239" rx="3.60619" stroke="#406AFF"/>
<path d="M58.1012 7.7334C57.157 7.7334 56.3887 8.4973 56.3887 9.43619C56.3887 10.3751 57.157 11.139 58.1012 11.139C59.0456 11.139 59.8138 10.3751 59.8138 9.43619C59.8138 8.4973 59.0456 7.7334 58.1012 7.7334ZM58.1012 10.8246C57.3313 10.8246 56.7048 10.2018 56.7048 9.4362C56.7048 8.67062 57.3313 8.04776 58.1012 8.04776C58.8712 8.04776 59.4977 8.67061 59.4977 9.43619C59.4977 10.2018 58.8712 10.8246 58.1012 10.8246Z" fill="#406AFF"/>
<path d="M60.2309 11.332L59.3245 10.4308C59.2628 10.3694 59.1628 10.3694 59.101 10.4308C59.0392 10.4922 59.0392 10.5917 59.101 10.6531L60.0074 11.5542C60.0382 11.5849 60.0787 11.6003 60.1191 11.6003C60.1595 11.6003 60.2 11.5849 60.2309 11.5542C60.2926 11.4929 60.2926 11.3933 60.2309 11.332Z" fill="#406AFF"/>
<path d="M41.4814 44.3984H49.2592L61.1851 58.0002H53.1481L41.4814 44.3984Z" fill="white"/>
<path d="M53.7647 55.8672L41.6274 42.2005L43.5851 40.4693L55.7363 54.1516C56.2127 54.6881 56.1634 55.5041 55.6259 55.9795C55.0823 56.4602 54.2466 56.4098 53.7647 55.8672Z" fill="white" stroke="#406AFF"/>
</svg>
