<svg width="13" height="15" viewBox="0 0 13 15" xmlns="http://www.w3.org/2000/svg">
<path d="M12.7714 12.0208C11.5562 11.2543 11.3043 10.1738 11.3043 8.01735V5.94835C11.3043 3.80798 9.63187 2.02658 7.4182 1.63399C7.55074 1.46459 7.63043 1.25872 7.63043 1.0345C7.63043 0.463196 7.12428 0 6.5 0C5.87572 0 5.36957 0.463196 5.36957 1.0345C5.36957 1.25872 5.44926 1.46459 5.58209 1.63399C3.36813 2.02658 1.69565 3.80798 1.69565 5.94835V8.01735C1.69565 10.1738 1.44385 11.2543 0.22863 12.0208C0.0833696 12.1127 0 12.2671 0 12.4284C0 12.7059 0.246152 12.9312 0.549674 12.9312H12.45C12.7538 12.9312 13 12.7059 13 12.4284C13 12.2671 12.9166 12.1127 12.7714 12.0208ZM5.1333 4.03997C4.45674 4.45868 3.95652 5.1461 3.95652 5.94835C3.95652 6.23388 3.7033 6.4656 3.3913 6.4656C3.0793 6.4656 2.82609 6.23388 2.82609 5.94835C2.82609 4.79334 3.51509 3.79815 4.48754 3.19246C4.57798 3.13633 4.68678 3.10349 4.80435 3.10349C5.11635 3.10349 5.36957 3.33522 5.36957 3.62074C5.36957 3.79376 5.27574 3.94609 5.1333 4.03997Z" />
<path d="M7.63001 13.9657C7.63001 14.537 7.12386 15.0002 6.49958 15.0002C5.87529 15.0002 5.36914 14.537 5.36914 13.9657V13.707H7.63001V13.9657Z" />
</svg>
