<svg width="34" height="34" viewBox="0 0 34 34" xmlns="http://www.w3.org/2000/svg">
<path d="M25.7414 30.813C25.6976 30.7376 25.6393 30.6715 25.5699 30.6186C25.5006 30.5657 25.4215 30.5269 25.3372 30.5046C25.2528 30.4822 25.1649 30.4767 25.0784 30.4883C24.992 30.4999 24.9087 30.5285 24.8332 30.5723L24.8075 30.5868C24.7302 30.6295 24.6622 30.6873 24.6075 30.7567C24.5527 30.8262 24.5124 30.9058 24.4889 30.991C24.4653 31.0761 24.459 31.1652 24.4703 31.2528C24.4816 31.3405 24.5102 31.425 24.5546 31.5014C24.5989 31.5779 24.6581 31.6447 24.7286 31.698C24.7991 31.7513 24.8795 31.7899 24.9652 31.8118C25.0508 31.8336 25.14 31.8381 25.2274 31.825C25.3148 31.8119 25.3987 31.7815 25.4742 31.7356L25.4999 31.7212C25.5754 31.6774 25.6416 31.6192 25.6946 31.5499C25.7476 31.4806 25.7864 31.4015 25.8088 31.3171C25.8312 31.2328 25.8368 31.1449 25.8253 31.0584C25.8137 30.9719 25.7852 30.8885 25.7414 30.813Z"/>
<path d="M31.7215 8.49985C30.0403 5.58805 27.5334 3.24016 24.5179 1.7531C21.5023 0.266033 18.1135 -0.293425 14.78 0.145471C11.4465 0.584368 8.31804 2.00191 5.79017 4.21883C3.2623 6.43576 1.44859 9.3525 0.578404 12.6002C-0.232062 15.6276 -0.190067 18.82 0.699752 21.825C1.58957 24.83 3.29259 27.5306 5.62074 29.6286C7.94888 31.7265 10.8116 33.1403 13.8926 33.7136C16.9737 34.2869 20.1533 33.9975 23.0803 32.8774C23.1642 32.848 23.2413 32.8021 23.3072 32.7423C23.373 32.6825 23.4262 32.6101 23.4635 32.5294C23.5008 32.4487 23.5216 32.3614 23.5245 32.2725C23.5275 32.1837 23.5126 32.0951 23.4807 32.0121C23.4488 31.9291 23.4005 31.8534 23.3388 31.7894C23.2771 31.7254 23.2031 31.6744 23.1213 31.6395C23.0396 31.6046 22.9516 31.5865 22.8627 31.5862C22.7738 31.5859 22.6857 31.6035 22.6037 31.6379C20.137 32.5962 17.4667 32.91 14.845 32.5497C12.2232 32.1893 9.73662 31.1668 7.61987 29.5785L8.21515 26.4721L8.50155 26.3791C9.02229 26.2092 9.4544 25.8397 9.70314 25.3517C9.95189 24.8637 9.99697 24.2969 9.8285 23.7757L9.61911 23.1275C9.57018 22.9787 9.57018 22.8182 9.61911 22.6694C9.71041 22.3911 9.7415 22.0965 9.71032 21.8052C9.67914 21.514 9.58639 21.2327 9.43823 20.98C9.29007 20.7273 9.08988 20.509 8.85094 20.3395C8.612 20.17 8.33976 20.0533 8.05229 19.9971L6.55286 19.7042L3.6599 17.5052C3.57448 17.4404 3.47462 17.3971 3.36886 17.3793C3.2631 17.3614 3.15458 17.3694 3.05258 17.4025L1.3558 17.9529C1.32075 17.3488 1.32075 16.7431 1.3558 16.139C1.42238 16.2016 1.46651 16.2433 1.49298 16.2714C1.55981 16.3814 1.65584 16.4708 1.77042 16.5296C1.885 16.5884 2.01363 16.6142 2.14201 16.6043C2.54129 16.5838 2.93891 16.5385 3.33257 16.4687C3.89416 16.3885 4.45013 16.2922 4.45574 16.2914C4.56565 16.273 4.66916 16.2271 4.75672 16.1582C4.84427 16.0892 4.91308 15.9994 4.95679 15.8968C5.0005 15.7943 5.01771 15.6824 5.00684 15.5715C4.99597 15.4606 4.95736 15.3542 4.89458 15.2621L4.08349 14.0675L5.24998 13.2332C5.32773 13.1776 5.39258 13.1059 5.44012 13.023L7.24842 9.8661L7.97687 9.0855C8.34169 8.69291 8.58654 8.20411 8.6825 7.67684C8.77845 7.14957 8.72151 6.60586 8.5184 6.10991C8.27326 5.51989 7.8493 5.02158 7.30618 4.68509C10.0201 2.54896 13.3643 1.37047 16.8178 1.33323L15.6313 2.82063L11.2333 4.36258C11.145 4.39354 11.0644 4.44277 10.9965 4.50706C10.9286 4.57134 10.8751 4.64923 10.8393 4.73563L9.61108 7.71363C9.56764 7.81798 9.55155 7.9317 9.56432 8.04401C9.5771 8.15632 9.61832 8.26351 9.68409 8.35544L11.4779 10.8681C11.1773 11.1732 10.9085 11.5082 10.6757 11.8677C10.5449 12.0539 10.4214 12.2296 10.3355 12.3274C10.2609 12.4133 10.1871 12.4967 10.1133 12.5793C9.68628 13.0182 9.32645 13.5178 9.04549 14.0619C8.73843 14.6975 8.60693 15.4036 8.66463 16.1071C8.72232 16.8105 8.96711 17.4858 9.37361 18.0628C9.76874 18.6094 10.3048 19.0386 10.9246 19.3047C11.5444 19.5707 12.2247 19.6636 12.8931 19.5735C13.1121 19.5438 13.3288 19.5001 13.5422 19.4427C14.1118 19.3015 14.2923 19.2879 14.4744 19.4587C14.5635 19.539 14.5715 19.5574 14.5699 19.8398C14.5614 20.0607 14.5814 20.2818 14.6292 20.4977C14.7336 20.8469 14.9272 21.163 15.1908 21.4147C15.2842 21.5061 15.3651 21.6094 15.4315 21.7219C15.5175 21.9432 15.5549 22.1804 15.541 22.4174C15.5272 22.6544 15.4625 22.8857 15.3513 23.0954L15.2999 23.2559C15.1225 24.174 15.2966 25.1252 15.7877 25.921C15.908 26.1849 16.0212 26.4344 16.095 26.655C16.6919 28.4272 17.1379 28.8332 17.4989 28.9961C17.6811 29.0784 17.879 29.1202 18.079 29.1188C19.0438 28.9708 19.9116 28.4489 20.4946 27.6659C20.7135 27.385 20.8551 27.0517 20.9053 26.6992C20.919 26.5966 20.9477 26.4966 20.9904 26.4023C21.0534 26.3018 21.1265 26.208 21.2086 26.1223C21.4569 25.8675 21.6428 25.5586 21.7517 25.2198C21.8296 24.9449 21.9864 24.6989 22.2026 24.5122L22.3494 24.3518C22.6721 24.0362 22.8863 23.6263 22.961 23.1812C23.0357 22.7361 22.967 22.2788 22.765 21.8752C22.562 21.2197 22.9174 20.8009 23.7758 20.0011C24.1675 19.6616 24.5212 19.2807 24.8308 18.8651C24.984 18.6839 25.0899 18.4676 25.1389 18.2354C25.1879 18.0032 25.1785 17.7626 25.1116 17.5349C24.8709 16.9773 24.2604 16.8843 23.7702 16.8089C23.5716 16.7902 23.3765 16.7446 23.1902 16.6733C22.7718 16.3045 22.4592 15.831 22.2844 15.3014C22.2363 15.1931 22.1882 15.0872 22.14 14.9805C22.0534 14.796 21.9675 14.573 21.8761 14.3387C21.6662 13.6731 21.3331 13.0529 20.8941 12.5103C20.339 12.074 19.6839 11.7831 18.9879 11.664C18.7537 11.6006 18.5322 11.5404 18.3862 11.4867C18.264 11.4416 18.1312 11.4335 18.0044 11.4634C17.7495 11.5067 17.5077 11.6068 17.2968 11.7562C17.1928 11.8422 17.1115 11.9524 17.0601 12.0771C16.7897 11.9342 16.5283 11.775 16.2771 11.6006L16.2642 11.5918C16.3206 11.3775 16.2995 11.1502 16.2049 10.9499C15.8342 10.1653 14.6004 10.2279 14.3597 10.2472C14.2217 10.2584 14.0468 10.2648 13.8623 10.2712C13.5719 10.2817 13.2518 10.2929 12.9341 10.329L12.9501 10.2833C13.0683 9.95487 13.2848 9.67085 13.5702 9.46988C13.8556 9.26891 14.196 9.16075 14.545 9.16011H14.9229C15.099 9.16011 15.268 9.09012 15.3926 8.96555C15.5172 8.84097 15.5871 8.67201 15.5871 8.49584C15.5871 8.31966 15.5172 8.1507 15.3926 8.02612C15.268 7.90155 15.099 7.83156 14.9229 7.83156H14.545C14.0306 7.83311 13.5251 7.96551 13.0759 8.21632C12.6268 8.46712 12.2489 8.82807 11.9778 9.26521L10.983 7.8805L11.9537 5.51784L16.2514 4.01119C16.3692 3.96983 16.4729 3.89615 16.5507 3.79859L18.4608 1.40223C20.9527 1.63445 23.3526 2.46038 25.4596 3.81085C27.5666 5.16131 29.3193 6.99698 30.571 9.16412C31.2593 10.3563 31.7856 11.6348 32.1362 12.966L31.8546 13.2171C31.6725 13.38 31.526 13.5787 31.4242 13.8008C31.3225 14.023 31.2677 14.2637 31.2634 14.508C31.2634 14.5136 31.2634 14.5184 31.2634 14.524L30.8045 13.2629C30.7364 13.0754 30.635 12.9017 30.5052 12.7502L29.6869 11.7923C29.5305 11.609 29.3361 11.4619 29.1173 11.361C28.8984 11.2602 28.6603 11.2081 28.4193 11.2083H27.4181C27.244 11.2082 27.0731 11.2554 26.9236 11.3448C26.7742 11.4342 26.6517 11.5624 26.5694 11.7159C26.4871 11.8693 26.4479 12.0422 26.4561 12.2162C26.4643 12.3902 26.5195 12.5586 26.6159 12.7037L26.7169 12.8561C26.0674 13.4144 25.3254 13.855 24.5243 14.1582L23.1533 11.5268V10.9403C23.1535 10.8504 23.1354 10.7613 23.1001 10.6785C23.0648 10.5958 23.013 10.5211 22.9479 10.459L21.7116 9.27885C21.6427 9.21356 21.5607 9.16377 21.4709 9.13283L20.3582 8.74213C20.2754 8.71118 20.1874 8.69704 20.0991 8.70056C20.0108 8.70407 19.9241 8.72515 19.8441 8.76258C19.764 8.80001 19.6923 8.85302 19.633 8.91852C19.5737 8.98402 19.5281 9.06069 19.4988 9.14404C19.4695 9.22739 19.4571 9.31575 19.4624 9.40394C19.4677 9.49213 19.4905 9.57838 19.5295 9.65765C19.5685 9.73692 19.6229 9.80761 19.6896 9.86558C19.7563 9.92355 19.8338 9.96764 19.9178 9.99527L20.8957 10.3386L21.8255 11.2235V11.6888C21.8256 11.7958 21.8514 11.9012 21.9009 11.9961L23.6194 15.2854C23.694 15.4286 23.8182 15.5398 23.9689 15.598C24.1195 15.6562 24.2862 15.6574 24.4377 15.6015L24.9383 15.4169C26.1083 14.9835 27.1714 14.3033 28.0551 13.4225C28.1633 13.3136 28.2304 13.1705 28.2451 13.0177C28.2597 12.8648 28.2209 12.7116 28.1353 12.5842L28.1 12.5312H28.4209C28.4699 12.5311 28.5183 12.5417 28.5628 12.5622C28.6072 12.5827 28.6467 12.6127 28.6785 12.6499L29.4968 13.6078C29.5232 13.6387 29.5439 13.674 29.5577 13.7121L30.4611 16.1992C30.4995 16.3039 30.5637 16.3973 30.6478 16.4706C30.7318 16.544 30.833 16.5951 30.9419 16.619C31.0509 16.643 31.1641 16.6392 31.2712 16.6079C31.3783 16.5765 31.4757 16.5187 31.5546 16.4398L31.9846 16.0098C32.2572 15.7347 32.4473 15.3887 32.5333 15.011C32.8733 17.6962 32.5144 20.4236 31.4913 22.9294C30.4683 25.4352 28.8158 27.6346 26.6937 29.3145C26.6199 29.3664 26.5574 29.4328 26.5101 29.5096C26.4628 29.5865 26.4316 29.6721 26.4185 29.7614C26.4053 29.8507 26.4106 29.9417 26.4338 30.0289C26.457 30.1161 26.4977 30.1976 26.5535 30.2685C26.6092 30.3395 26.6789 30.3983 26.7581 30.4414C26.8374 30.4846 26.9246 30.5111 27.0144 30.5194C27.1042 30.5278 27.1948 30.5177 27.2807 30.4898C27.3665 30.462 27.4457 30.417 27.5136 30.3575C30.7265 27.8285 32.9204 24.2264 33.6934 20.2112C34.4663 16.1961 33.7666 12.0369 31.7223 8.49584L31.7215 8.49985ZM3.13281 18.7728L5.87174 20.8587C5.9526 20.9201 6.04647 20.9621 6.14611 20.9814L7.79717 21.3023C7.89996 21.3222 7.99734 21.3637 8.08287 21.4241C8.16839 21.4845 8.24009 21.5624 8.2932 21.6526C8.34631 21.7428 8.37963 21.8433 8.39093 21.9474C8.40223 22.0514 8.39126 22.1567 8.35875 22.2562C8.22155 22.6731 8.22155 23.123 8.35875 23.5399L8.56894 24.1873C8.62913 24.3735 8.61302 24.5759 8.52413 24.7502C8.43525 24.9245 8.28085 25.0565 8.09481 25.1171L7.43454 25.3313C7.32151 25.3681 7.22041 25.4346 7.14181 25.5238C7.06321 25.6129 7.00998 25.7216 6.98768 25.8383L6.45658 28.6118C5.26124 27.517 4.24092 26.2453 3.43125 24.8411C2.4443 23.1358 1.78959 21.2588 1.50181 19.3095L3.13281 18.7728ZM7.00373 8.18295L6.22232 9.01971C6.18751 9.05702 6.15709 9.09821 6.13167 9.14246L4.35706 12.2376L2.78062 13.3648C2.63971 13.466 2.54404 13.6184 2.51405 13.7894C2.48407 13.9603 2.52215 14.1361 2.62016 14.2793L3.20983 15.1442C2.86967 15.1947 2.56802 15.2364 2.36183 15.2589L2.23829 15.1442C2.07783 14.9974 1.86122 14.8016 1.5339 14.5152C2.07861 11.1215 3.72204 8.00042 6.21189 5.63095C6.45223 5.70675 6.67307 5.83421 6.85892 6.0044C7.04477 6.17459 7.19113 6.38338 7.28773 6.61613C7.39475 6.87666 7.42487 7.16239 7.37454 7.4395C7.32421 7.71661 7.19553 7.9735 7.00373 8.17974V8.18295ZM12.419 11.8124C12.898 11.6555 13.4011 11.5849 13.9048 11.6038C14.1062 11.5966 14.2963 11.5902 14.4664 11.5757C14.5606 11.5683 14.6553 11.5683 14.7496 11.5757C14.6908 11.727 14.6894 11.8946 14.7457 12.0468C14.802 12.1991 14.9121 12.3254 15.0552 12.402C15.1796 12.4686 15.3529 12.5842 15.5366 12.7069C16.0194 13.0953 16.5893 13.3607 17.1973 13.4803C17.3665 13.4912 17.536 13.463 17.6926 13.3977C17.8491 13.3324 17.9885 13.2319 18.0998 13.104L18.1279 13.0759C18.2011 13.016 18.2617 12.9421 18.306 12.8585C18.4119 12.889 18.5234 12.9195 18.6381 12.95C19.0881 13.041 19.5212 13.2015 19.9218 13.4257C20.234 13.8483 20.4735 14.3201 20.6302 14.8217C20.7296 15.08 20.8243 15.3239 20.9302 15.5501C20.9759 15.6472 21.0201 15.7475 21.0658 15.8486C21.3294 16.6165 21.8125 17.2901 22.4553 17.786C22.7957 17.9755 23.1726 18.0904 23.5608 18.123L23.7052 18.1454C23.4531 18.4657 23.171 18.7612 22.8629 19.0279C22.0405 19.7933 21.0177 20.7464 21.4886 22.2667C21.7108 22.9847 21.7212 23.0625 21.3634 23.4516L21.227 23.5984C20.8742 23.9297 20.6159 24.3489 20.4785 24.8131C20.4243 24.9737 20.3315 25.1186 20.2082 25.235C20.0676 25.3856 19.9431 25.5505 19.8367 25.7268C19.716 25.9464 19.6346 26.1853 19.596 26.4328C19.584 26.5723 19.5362 26.7063 19.4573 26.8219C19.2152 27.1083 18.9328 27.358 18.6189 27.5632C18.4575 27.6873 18.2647 27.764 18.0621 27.7846C17.7306 27.3127 17.4881 26.7841 17.3465 26.225C17.251 25.941 17.1179 25.649 16.9895 25.3658C16.6682 24.8566 16.5165 24.2586 16.5563 23.6578L16.606 23.5054C16.7697 23.1453 16.858 22.7557 16.8656 22.3603C16.8732 21.9649 16.7998 21.5721 16.6501 21.2061C16.5316 20.9498 16.3686 20.7165 16.1688 20.5169C16.0656 20.42 15.9798 20.306 15.9153 20.18C15.8949 20.0692 15.8876 19.9563 15.8936 19.8438C15.9174 19.5928 15.8833 19.3397 15.7939 19.1039C15.7045 18.8681 15.5621 18.6561 15.3777 18.484C15.0812 18.239 14.7241 18.0785 14.3441 18.0194C13.964 17.9602 13.575 18.0046 13.2181 18.1479C13.0597 18.191 12.899 18.2247 12.7367 18.2489C12.3039 18.3135 11.8618 18.2579 11.4585 18.0881C11.0553 17.9183 10.7065 17.6409 10.4502 17.2862C10.182 16.9017 10.0214 16.4524 9.98518 15.9849C9.94892 15.5175 10.0383 15.0488 10.2441 14.6275C10.473 14.199 10.7627 13.8059 11.1041 13.4602C11.1843 13.3736 11.2589 13.2861 11.3368 13.1963C11.4659 13.0471 11.6087 12.8449 11.7595 12.6347C11.9483 12.3361 12.1695 12.0593 12.419 11.8092V11.8124Z"/>
<path d="M27.2266 22.8591L26.9057 21.6557C26.8716 21.5272 26.7996 21.4119 26.6992 21.3247C26.5987 21.2376 26.4744 21.1826 26.3423 21.1668C26.2103 21.1511 26.0766 21.1753 25.9584 21.2365C25.8403 21.2976 25.7433 21.3928 25.6799 21.5097C25.6069 21.6437 25.5419 21.7857 25.4785 21.9236C25.3928 22.1371 25.2815 22.3394 25.1472 22.5262C25.03 22.6229 24.8984 22.7009 24.7573 22.7572C24.5056 22.8448 24.2761 22.9864 24.085 23.1722C23.8939 23.3579 23.7457 23.5832 23.651 23.8322C23.56 24.1363 23.5449 24.458 23.6068 24.7693C23.6449 24.898 23.639 25.0358 23.59 25.1608L23.5836 25.176C23.3849 25.5076 23.2756 25.885 23.2663 26.2714C23.257 26.6578 23.3481 27.04 23.5306 27.3806C23.6444 27.5835 23.8074 27.7544 24.0047 27.8775C24.202 28.0006 24.4272 28.072 24.6594 28.085C24.7188 28.0851 24.7781 28.0803 24.8367 28.0706C25.5138 27.9599 26.0232 27.2555 26.4412 25.8523L27.2226 23.2193C27.2571 23.1019 27.2585 22.9772 27.2266 22.8591ZM25.1664 25.4737C25.0631 25.8975 24.8916 26.3018 24.6586 26.6707C24.6458 26.6546 24.6329 26.6369 24.6185 26.6161C24.4917 26.4356 24.6811 25.9903 24.807 25.6951L24.8134 25.6798C24.9612 25.3307 24.9992 24.9448 24.9225 24.5735C24.8936 24.4604 24.8936 24.3417 24.9225 24.2286C24.9482 24.1483 25.1039 24.0681 25.3389 23.9526C25.4432 23.902 25.5572 23.8475 25.6727 23.7801L25.1664 25.4737Z" />
<path d="M17.9272 7.88711L17.8823 7.87106C17.7993 7.83931 17.7109 7.8245 17.6221 7.82753C17.5333 7.83055 17.4461 7.85136 17.3655 7.8887C17.2849 7.92603 17.2126 7.97915 17.1529 8.0449C17.0932 8.11066 17.0473 8.18771 17.0179 8.27152C16.9885 8.35533 16.9762 8.44418 16.9818 8.53282C16.9873 8.62146 17.0106 8.70808 17.0502 8.78758C17.0897 8.86708 17.1449 8.93782 17.2123 8.99564C17.2797 9.05346 17.358 9.09717 17.4426 9.1242L17.4876 9.14024C17.5705 9.172 17.659 9.1868 17.7477 9.18378C17.8365 9.18075 17.9237 9.15995 18.0043 9.12262C18.0849 9.08528 18.1572 9.03217 18.2169 8.96641C18.2766 8.90066 18.3225 8.82361 18.3519 8.7398C18.3813 8.656 18.3936 8.56715 18.3881 8.47851C18.3825 8.38987 18.3593 8.30324 18.3197 8.22374C18.2801 8.14424 18.225 8.07349 18.1575 8.01567C18.0901 7.95785 18.0118 7.91413 17.9272 7.88711Z"/>
</svg>
