<svg width="13" height="13" viewBox="0 0 13 13" fill="none" xmlns="http://www.w3.org/2000/svg">
<g clip-path="url(#clip0_6_17483)">
<path d="M12.7333 6.51295C12.7333 6.08015 12.6975 5.64502 12.6211 5.21924H6.49414V7.67097H10.0028C9.85716 8.4617 9.38934 9.1612 8.70433 9.60569V11.1965H10.7976C12.0268 10.0876 12.7333 8.45001 12.7333 6.51295Z" fill="#4285F4"/>
<path d="M6.49415 12.7337C8.24606 12.7337 9.72349 12.1699 10.7999 11.1967L8.70671 9.60585C8.12433 9.9942 7.37249 10.2141 6.49654 10.2141C4.80191 10.2141 3.36506 9.09351 2.84951 7.58691H0.689453V9.22686C1.79215 11.3768 4.03813 12.7337 6.49415 12.7337Z" fill="#4285F4"/>
<path d="M2.84669 7.58692C2.5746 6.79619 2.5746 5.93996 2.84669 5.14923V3.50928H0.689025C-0.232279 5.30831 -0.232279 7.42784 0.689025 9.22687L2.84669 7.58692Z" fill="#4285F4"/>
<path d="M6.49415 2.51952C7.42023 2.50548 8.31528 2.84704 8.98597 3.47401L10.8405 1.65627C9.66621 0.575443 8.10763 -0.0187748 6.49415 -5.92308e-05C4.03813 -5.92308e-05 1.79215 1.35682 0.689453 3.5091L2.84712 5.14905C3.36028 3.64011 4.79952 2.51952 6.49415 2.51952Z" fill="#4285F4"/>
</g>
<defs>
<clipPath id="clip0_6_17483">
<rect width="12.7336" height="12.7336" fill="white"/>
</clipPath>
</defs>
</svg>
