<svg width="16" height="15" viewBox="0 0 16 15" xmlns="http://www.w3.org/2000/svg">
<path d="M13.9205 2.56089C13.5784 2.22455 13.1722 1.95775 12.7252 1.77572C12.2782 1.59369 11.799 1.5 11.3151 1.5C10.8312 1.5 10.3521 1.59369 9.90504 1.77572C9.45801 1.95775 9.05185 2.22455 8.70976 2.56089L7.99982 3.25857L7.28988 2.56089C6.5989 1.88184 5.66172 1.50035 4.68453 1.50035C3.70733 1.50035 2.77016 1.88184 2.07917 2.56089C1.38819 3.23994 1 4.16092 1 5.12124C1 6.08157 1.38819 7.00255 2.07917 7.6816L2.78911 8.37928L7.99982 13.5L13.2105 8.37928L13.9205 7.6816C14.2627 7.34543 14.5342 6.94628 14.7194 6.50697C14.9047 6.06765 15 5.59678 15 5.12124C15 4.64571 14.9047 4.17484 14.7194 3.73552C14.5342 3.29621 14.2627 2.89706 13.9205 2.56089V2.56089Z" stroke-width="1.5" stroke-linecap="round" stroke-linejoin="round"/>
</svg>
