<svg width="17" height="17" viewBox="0 0 17 17" fill="none" xmlns="http://www.w3.org/2000/svg">
<path d="M16.7348 7.4341C16.5988 7.3474 15.5261 6.7065 15.1011 6.511L14.5741 5.236C14.7305 4.8144 15.0314 3.6329 15.0841 3.4272C15.1052 3.33358 15.1022 3.23615 15.0755 3.14399C15.0487 3.05183 14.999 2.96795 14.9311 2.9002L14.0998 2.074C14.0322 2.00577 13.9484 1.95591 13.8561 1.92914C13.7639 1.90237 13.6664 1.89956 13.5728 1.921C13.4164 1.9567 12.2128 2.261 11.764 2.431L10.489 1.904C10.3037 1.496 9.67979 0.4505 9.56589 0.2703C9.51554 0.187832 9.44487 0.119671 9.36063 0.0723431C9.27639 0.0250154 9.18141 0.00010589 9.08479 0L7.91519 0C7.81914 4.81165e-05 7.72467 0.024388 7.64055 0.0707556C7.55644 0.117123 7.48541 0.184012 7.43409 0.2652C7.34739 0.4012 6.70649 1.4739 6.51099 1.8989L5.23599 2.4259C4.8144 2.2695 3.6329 1.9686 3.4272 1.9159C3.33358 1.89479 3.23615 1.89775 3.14399 1.92451C3.05183 1.95126 2.96795 2.00094 2.9002 2.0689L2.074 2.9002C2.00577 2.96777 1.95591 3.05163 1.92914 3.14385C1.90236 3.23607 1.89956 3.33359 1.921 3.4272C1.9567 3.5836 2.261 4.7872 2.431 5.236L1.904 6.511C1.496 6.6963 0.4505 7.3202 0.2703 7.4341C0.187832 7.48444 0.119671 7.55512 0.0723431 7.63936C0.0250153 7.7236 0.00010589 7.81857 0 7.9152L0 9.08309C4.81165e-05 9.17914 0.024388 9.27362 0.0707556 9.35774C0.117123 9.44185 0.184012 9.51287 0.2652 9.56419C0.4012 9.65089 1.4739 10.2918 1.8989 10.4873L2.4259 11.7623C2.2695 12.1839 1.9686 13.3654 1.9159 13.5711C1.89479 13.6647 1.89775 13.7621 1.92451 13.8543C1.95126 13.9465 2.00094 14.0303 2.0689 14.0981L2.8951 14.9243C2.96267 14.9925 3.04653 15.0424 3.13875 15.0692C3.23097 15.0959 3.32849 15.0987 3.4221 15.0773C3.5785 15.0416 4.7821 14.7373 5.2309 14.5673L6.50589 15.0943C6.69119 15.5023 7.31509 16.5478 7.42899 16.728C7.47958 16.8115 7.55097 16.8805 7.63619 16.9282C7.72141 16.9758 7.81754 17.0006 7.91519 17H9.08309C9.17914 16.9999 9.27362 16.9756 9.35773 16.9292C9.44185 16.8829 9.51287 16.816 9.56419 16.7348C9.65089 16.5988 10.2918 15.5261 10.4873 15.1011L11.7623 14.5741C12.1839 14.7305 13.3654 15.0314 13.5711 15.0841C13.6647 15.1052 13.7621 15.1022 13.8543 15.0755C13.9465 15.0487 14.0303 14.9991 14.0981 14.9311L14.9243 14.1049C14.9925 14.0373 15.0424 13.9535 15.0691 13.8612C15.0959 13.769 15.0987 13.6715 15.0773 13.5779C15.0416 13.4215 14.7373 12.2179 14.5673 11.7691L15.0943 10.4941C15.5023 10.3088 16.5478 9.68489 16.728 9.57099C16.8115 9.52041 16.8805 9.44901 16.9282 9.36379C16.9758 9.27857 17.0006 9.18244 17 9.08479V7.9152C17.0007 7.81899 16.9767 7.72422 16.9303 7.63996C16.8839 7.55571 16.8165 7.48482 16.7348 7.4341ZM8.49999 12.2009C7.76735 12.2002 7.05136 11.9823 6.44257 11.5747C5.83378 11.1671 5.35952 10.5882 5.07977 9.91103C4.80002 9.2339 4.72735 8.48902 4.87094 7.77059C5.01453 7.05216 5.36794 6.39244 5.88647 5.87486C6.405 5.35728 7.06536 5.00509 7.78406 4.86281C8.50275 4.72054 9.24749 4.79458 9.92411 5.07557C10.6007 5.35656 11.1788 5.83188 11.5853 6.44143C11.9918 7.05097 12.2084 7.76735 12.2077 8.5C12.2054 9.48202 11.8139 10.4231 11.1188 11.1168C10.4238 11.8106 9.48202 12.2004 8.49999 12.2009Z" fill="#728094"/>
</svg>
