<svg width="30" height="30" viewBox="0 0 30 30" xmlns="http://www.w3.org/2000/svg">
<mask id="mask0_385_16079" style="mask-type:alpha" maskUnits="userSpaceOnUse" x="0" y="0" width="30" height="30">
<circle cx="15" cy="15" r="15" fill="#C4C4C4"/>
</mask>
<g mask="url(#mask0_385_16079)">
<path d="M15.0037 0H14.9963C6.72563 0 0 6.7275 0 15C0 18.2812 1.0575 21.3225 2.85563 23.7919L4.28571 26.0714L6.75188 27.5213C9.12375 29.0925 11.9531 30 15.0037 30C23.2744 30 30 23.2706 30 15C30 6.72938 23.2744 0 15.0037 0Z"/>
<path d="M22.4344 20.6564C22.1011 21.6113 20.7781 22.4033 19.7228 22.6346C19.0009 22.7905 18.0578 22.9149 14.8833 21.5798C10.8228 19.8732 8.20788 15.6873 8.00408 15.4157C7.80891 15.1441 6.36328 13.1992 6.36328 11.1878C6.36328 9.17628 7.37021 8.19682 7.77609 7.77631C8.10943 7.43113 8.66039 7.27344 9.1889 7.27344C9.35989 7.27344 9.51361 7.2822 9.65178 7.28921C10.0577 7.30673 10.2615 7.33126 10.5292 7.98131C10.8625 8.79606 11.6743 10.8075 11.771 11.0143C11.8694 11.221 11.9679 11.5014 11.8297 11.773C11.7002 12.0533 11.5862 12.1777 11.3824 12.416C11.1786 12.6543 10.9851 12.8365 10.7813 13.0923C10.5948 13.3149 10.3841 13.5532 10.619 13.9649C10.8539 14.3679 11.6656 15.7118 12.8608 16.7911C14.4032 18.1841 15.6536 18.6292 16.101 18.8184C16.4343 18.9586 16.8315 18.9253 17.0751 18.6625C17.3842 18.3243 17.7659 17.7636 18.1545 17.2117C18.4309 16.8157 18.7798 16.7666 19.1459 16.9068C19.519 17.0382 21.4931 18.0282 21.899 18.2332C22.3049 18.4399 22.5726 18.538 22.671 18.7115C22.7678 18.885 22.7678 19.6997 22.4344 20.6564Z" fill="#FAFAFA"/>
</g>
</svg>
