<svg width="7" height="10" viewBox="0 0 7 10" xmlns="http://www.w3.org/2000/svg">
<path fill-rule="evenodd" clip-rule="evenodd" d="M3.73959 1.60394C3.30358 1.53464 2.85517 1.61056 2.47378 1.81827C2.09239 2.02598 1.80264 2.35207 1.65584 2.73878C1.4997 3.15009 1.01332 3.36622 0.569463 3.22153C0.12561 3.07685 -0.107629 2.62612 0.048508 2.21481C0.328838 1.47635 0.882152 0.853653 1.61045 0.457011C2.33875 0.0603678 3.19503 -0.0846224 4.02764 0.0477196C4.86025 0.180062 5.61544 0.581196 6.15947 1.18007C6.70334 1.77878 7.00108 2.53648 7 3.31906C6.99974 4.57967 5.9907 5.41683 5.25805 5.86945C4.86575 6.11181 4.47952 6.2902 4.19471 6.4075C4.0511 6.46665 3.93024 6.5115 3.84329 6.5422C3.79974 6.55757 3.76449 6.56946 3.73892 6.57789L3.70791 6.58795L3.69812 6.59105L3.69471 6.59212L3.69338 6.59253C3.69313 6.59261 3.69231 6.59286 3.4229 5.8439L3.69338 6.59253C3.24701 6.73041 2.76347 6.50719 2.61468 6.09355C2.46608 5.68046 2.70649 5.23399 3.15174 5.09548C3.15202 5.0954 3.15147 5.09557 3.15174 5.09548C3.15188 5.09544 3.15283 5.09514 3.15297 5.0951L3.1681 5.09018C3.18244 5.08546 3.20574 5.07762 3.23671 5.06669C3.29879 5.04478 3.39083 5.01071 3.5027 4.96464C3.72886 4.87149 4.02392 4.73422 4.31291 4.55569C4.94274 4.16659 5.29611 3.74124 5.29611 3.31857L5.29611 3.3174C5.29677 2.90746 5.14085 2.51053 4.85596 2.19692C4.57107 1.8833 4.17559 1.67324 3.73959 1.60394Z"/>
<path fill-rule="evenodd" clip-rule="evenodd" d="M2.64355 9.21037C2.64355 8.77436 3.02498 8.4209 3.4955 8.4209H3.50458C3.9751 8.4209 4.35652 8.77436 4.35652 9.21037C4.35652 9.64639 3.9751 9.99985 3.50458 9.99985H3.4955C3.02498 9.99985 2.64355 9.64639 2.64355 9.21037Z"/>
</svg>
