<svg width="11" height="11" viewBox="0 0 11 11" fill="none" xmlns="http://www.w3.org/2000/svg">
<path d="M4.84415 0C2.17316 0 0 2.17316 0 4.84415C0 7.51529 2.17316 9.68829 4.84415 9.68829C7.51529 9.68829 9.68829 7.51529 9.68829 4.84415C9.68829 2.17316 7.51529 0 4.84415 0ZM4.84415 8.79401C2.66622 8.79401 0.894305 7.02209 0.894305 4.84417C0.894305 2.66624 2.66622 0.894305 4.84415 0.894305C7.02207 0.894305 8.79399 2.66622 8.79399 4.84415C8.79399 7.02207 7.02207 8.79401 4.84415 8.79401Z" fill="#728094"/>
<path d="M10.8699 10.2367L8.30627 7.67301C8.13158 7.49832 7.84867 7.49832 7.67399 7.67301C7.4993 7.84755 7.4993 8.13075 7.67399 8.30529L10.2377 10.869C10.325 10.9563 10.4393 11 10.5538 11C10.6681 11 10.7826 10.9563 10.8699 10.869C11.0446 10.6944 11.0446 10.4112 10.8699 10.2367Z" fill="#728094"/>
</svg>
