<svg width="27" height="23" viewBox="0 0 27 23" fill="none" xmlns="http://www.w3.org/2000/svg">
<path d="M1.52441 4.43311H18.9776" stroke="#787F94" stroke-linecap="round"/>
<path d="M22.8276 8C24.7606 8 26.3276 6.43295 26.3276 4.49997C26.3276 2.567 24.7606 1 22.8276 1C20.8946 1 19.3276 2.567 19.3276 4.49997C19.3276 6.43295 20.8946 8 22.8276 8Z" stroke="#787F94"/>
<path d="M25.3775 18.3945H7.92432" stroke="#787F94" stroke-linecap="round"/>
<path d="M4.49998 21.9614C6.43296 21.9614 8 20.3945 8 18.4615C8 16.5285 6.43296 14.9614 4.49998 14.9614C2.56699 14.9614 1 16.5285 1 18.4615C1 20.3945 2.56699 21.9614 4.49998 21.9614Z" stroke="#787F94"/>
</svg>
