<svg width="11" height="11" viewBox="0 0 11 11" fill="none" xmlns="http://www.w3.org/2000/svg">
<path d="M4.97317 6.88115C4.97317 6.57269 5.01456 6.32685 5.09732 6.14364C5.18008 5.96042 5.3431 5.75981 5.58637 5.5418C5.83216 5.32148 5.98765 5.16493 6.05286 5.07216C6.15318 4.93069 6.20334 4.77762 6.20334 4.61296C6.20334 4.39496 6.1444 4.22913 6.02653 4.11549C5.91116 3.99953 5.74062 3.94155 5.5149 3.94155C5.29921 3.94155 5.12491 3.99837 4.99198 4.11201C4.86157 4.22333 4.79636 4.37524 4.79636 4.56774H3.8822C3.88722 4.15724 4.0377 3.83255 4.33364 3.59367C4.63209 3.35479 5.02584 3.23535 5.5149 3.23535C6.019 3.23535 6.4115 3.35363 6.69239 3.59019C6.9758 3.82675 7.1175 4.15724 7.1175 4.58165C7.1175 4.95968 6.92689 5.33191 6.54568 5.69835L6.08295 6.11929C5.91743 6.29323 5.83216 6.54718 5.82714 6.88115H4.97317ZM4.90922 7.96306C4.90922 7.82622 4.95562 7.71606 5.04841 7.63257C5.14121 7.54676 5.26661 7.50385 5.42461 7.50385C5.58512 7.50385 5.71177 7.54792 5.80457 7.63605C5.89736 7.72186 5.94376 7.83086 5.94376 7.96306C5.94376 8.09061 5.89862 8.1973 5.80833 8.28311C5.71804 8.36892 5.59014 8.41182 5.42461 8.41182C5.25908 8.41182 5.13118 8.36892 5.04089 8.28311C4.95311 8.1973 4.90922 8.09061 4.90922 7.96306Z" fill="#333248"/>
<circle cx="5.5" cy="5.5" r="5" stroke="#333248"/>
</svg>
