<svg width="34" height="28" viewBox="0 0 34 28" xmlns="http://www.w3.org/2000/svg">
<path fill-rule="evenodd" clip-rule="evenodd" d="M33.3756 0.598618C33.5971 0.80646 33.6082 1.15452 33.4003 1.37604L22.1411 13.376C21.9482 13.5816 21.6311 13.6081 21.4068 13.4373L9.37097 4.2747L1.413 13.3621C1.21288 13.5906 0.865398 13.6136 0.63688 13.4135C0.408361 13.2134 0.385338 12.8659 0.585457 12.6374L8.88175 3.16368C9.07224 2.94616 9.39862 2.91327 9.62867 3.0884L21.6784 12.2616L32.5981 0.623376C32.806 0.40186 33.154 0.390775 33.3756 0.598618Z" />
<path fill-rule="evenodd" clip-rule="evenodd" d="M1.99922 18.4497C2.30298 18.4497 2.54922 18.696 2.54922 18.9997V26.9997C2.54922 27.3035 2.30298 27.5497 1.99922 27.5497C1.69546 27.5497 1.44922 27.3035 1.44922 26.9997V18.9997C1.44922 18.696 1.69546 18.4497 1.99922 18.4497Z" />
<path fill-rule="evenodd" clip-rule="evenodd" d="M6.99922 14.4497C7.30298 14.4497 7.54922 14.696 7.54922 14.9997L7.54922 26.9997C7.54922 27.3035 7.30298 27.5497 6.99922 27.5497C6.69546 27.5497 6.44922 27.3035 6.44922 26.9997L6.44922 14.9997C6.44922 14.696 6.69546 14.4497 6.99922 14.4497Z" />
<path fill-rule="evenodd" clip-rule="evenodd" d="M11.9992 10.4497C12.303 10.4497 12.5492 10.696 12.5492 10.9997L12.5492 26.9997C12.5492 27.3035 12.303 27.5497 11.9992 27.5497C11.6955 27.5497 11.4492 27.3035 11.4492 26.9997L11.4492 10.9997C11.4492 10.696 11.6955 10.4497 11.9992 10.4497Z" />
<path fill-rule="evenodd" clip-rule="evenodd" d="M16.9992 16.4497C17.303 16.4497 17.5492 16.696 17.5492 16.9997V26.9997C17.5492 27.3035 17.303 27.5497 16.9992 27.5497C16.6955 27.5497 16.4492 27.3035 16.4492 26.9997V16.9997C16.4492 16.696 16.6955 16.4497 16.9992 16.4497Z" />
<path fill-rule="evenodd" clip-rule="evenodd" d="M21.9992 19.4497C22.303 19.4497 22.5492 19.696 22.5492 19.9997V26.9997C22.5492 27.3035 22.303 27.5497 21.9992 27.5497C21.6955 27.5497 21.4492 27.3035 21.4492 26.9997V19.9997C21.4492 19.696 21.6955 19.4497 21.9992 19.4497Z" />
<path fill-rule="evenodd" clip-rule="evenodd" d="M26.9992 17.4497C27.303 17.4497 27.5492 17.696 27.5492 17.9997V26.9997C27.5492 27.3035 27.303 27.5497 26.9992 27.5497C26.6955 27.5497 26.4492 27.3035 26.4492 26.9997V17.9997C26.4492 17.696 26.6955 17.4497 26.9992 17.4497Z" />
<path fill-rule="evenodd" clip-rule="evenodd" d="M31.9992 12.4497C32.303 12.4497 32.5492 12.696 32.5492 12.9997V26.9997C32.5492 27.3035 32.303 27.5497 31.9992 27.5497C31.6955 27.5497 31.4492 27.3035 31.4492 26.9997V12.9997C31.4492 12.696 31.6955 12.4497 31.9992 12.4497Z" />
<circle cx="18" cy="8.99951" r="9" fill="white"/>
<path fill-rule="evenodd" clip-rule="evenodd" d="M18 15.9995C21.866 15.9995 25 12.8655 25 8.99951C25 5.13352 21.866 1.99951 18 1.99951C14.134 1.99951 11 5.13352 11 8.99951C11 12.8655 14.134 15.9995 18 15.9995ZM18 16.9995C22.4183 16.9995 26 13.4178 26 8.99951C26 4.58123 22.4183 0.999512 18 0.999512C13.5817 0.999512 10 4.58123 10 8.99951C10 13.4178 13.5817 16.9995 18 16.9995Z" />
<path fill-rule="evenodd" clip-rule="evenodd" d="M14.13 10.1293L13 8.99936L14.13 7.86932L15.26 8.99929L14.13 10.1293ZM16.0578 8.20149L16.1439 8.11564L17.9999 6.25966L19.9429 8.20261L21.0728 7.0727L17.9999 3.99951L14.9286 7.07097L16.0578 8.20149ZM21.0729 10.9265L19.9432 9.7968L19.8559 9.88338L17.9999 11.7394L16.0579 9.79741L14.9264 10.9258L17.9999 13.9995L21.0729 10.9265ZM21.87 10.1299L23 8.99991L21.8701 7.86995L20.7402 8.99985L21.87 10.1299Z" />
<path d="M19.1449 8.99919H19.1454L17.9988 7.85254L17.1514 8.69994H17.1513L17.054 8.79734L16.8532 8.99819L16.8516 8.99974L16.8532 9.00139L17.9988 10.147L19.1454 9.00039L19.146 8.99974L19.1449 8.99919Z" />
<path fill-rule="evenodd" clip-rule="evenodd" d="M17.9988 7.85254L17.1514 8.69994L16.8532 8.99814L16.8516 8.99974L16.8532 9.00139L16.9524 9.10064L17.7354 9.88367L17.9988 10.147L19.1449 9.00089L19.146 8.99974L17.9988 7.85254Z" />
</svg>
