<svg width="34" height="34" viewBox="0 0 34 34" xmlns="http://www.w3.org/2000/svg">
<path d="M32.0542 19.2029H31.5974V15.9386C31.5963 15.1264 31.2419 14.3478 30.6121 13.7735C29.9823 13.1993 29.1284 12.8764 28.2377 12.8756H15.7339C15.7339 12.8616 15.7339 12.8476 15.7339 12.8328C15.7334 12.0104 15.5089 11.201 15.0805 10.4772C14.6522 9.75348 14.0334 9.13811 13.2798 8.68635C12.5262 8.23459 11.6613 7.9606 10.7629 7.88898C9.86446 7.81736 8.96059 7.95037 8.13245 8.27604C8.00339 8.32695 7.90178 8.42254 7.85 8.54176C7.79821 8.661 7.80048 8.79409 7.85632 8.91179C7.91215 9.0295 8.01696 9.12215 8.14771 9.16937C8.27845 9.2166 8.42441 9.21453 8.55348 9.16361C9.22023 8.90156 9.94792 8.79461 10.6712 8.85237C11.3945 8.91013 12.0907 9.1308 12.6974 9.49455C13.304 9.85829 13.8021 10.3537 14.1469 10.9364C14.4917 11.5191 14.6724 12.1708 14.6728 12.8328C14.6728 12.8468 14.6728 12.8616 14.6728 12.8756H12.1757L10.7609 10.3807C10.7163 10.3018 10.6487 10.2355 10.5656 10.1893C10.4825 10.143 10.387 10.1186 10.2896 10.1186C10.1922 10.1186 10.0967 10.143 10.0135 10.1893C9.93041 10.2355 9.86284 10.3018 9.81826 10.3807L8.40689 12.8771H5.91227C5.91227 12.8631 5.91227 12.8491 5.91227 12.8344C5.90959 11.968 6.21823 11.1247 6.79097 10.4336C6.83288 10.3829 6.86343 10.3251 6.88087 10.2636C6.8983 10.2021 6.90229 10.1381 6.8926 10.0752C6.8829 10.0123 6.85971 9.95174 6.82436 9.89705C6.78901 9.84226 6.74219 9.79447 6.68656 9.7562C6.63094 9.71802 6.5676 9.69016 6.50017 9.67426C6.43273 9.65835 6.36253 9.65472 6.29356 9.66356C6.22459 9.6724 6.1582 9.69355 6.09819 9.72579C6.03818 9.75804 5.98572 9.80069 5.9438 9.85149C5.23157 10.7099 4.84775 11.7578 4.85118 12.8344C4.85118 12.8484 4.85118 12.8631 4.85118 12.8771H3.35883C2.46836 12.8782 1.61469 13.2012 0.985026 13.7754C0.355366 14.3496 0.00112761 15.1281 0 15.9401V29.9587C0.00112761 30.7707 0.355366 31.5492 0.985026 32.1234C1.61469 32.6977 2.46836 33.0206 3.35883 33.0217H21.5465C21.6872 33.0217 21.8221 32.9707 21.9216 32.88C22.0211 32.7893 22.077 32.6662 22.077 32.5378C22.077 32.4096 22.0211 32.2865 21.9216 32.1958C21.8221 32.1051 21.6872 32.0541 21.5465 32.0541H3.35883C2.74853 32.0541 2.16322 31.833 1.73167 31.4395C1.30012 31.0459 1.05768 30.5121 1.05768 29.9556V28.4012H4.73441C4.85982 28.4015 4.98405 28.3792 5.09991 28.3354C5.21577 28.2916 5.32097 28.2273 5.40942 28.1462L6.36653 27.2735H7.82052C7.93611 27.4454 8.11012 27.5782 8.31608 27.6517C8.52204 27.7252 8.74868 27.7353 8.96153 27.6805C9.17438 27.6257 9.36179 27.5091 9.49526 27.3483C9.62873 27.1875 9.70096 26.9913 9.70096 26.7896C9.70096 26.5879 9.62873 26.3918 9.49526 26.2309C9.36179 26.0702 9.17438 25.9535 8.96153 25.8987C8.74868 25.844 8.52204 25.8541 8.31608 25.9276C8.11012 26.0011 7.93611 26.1339 7.82052 26.3058H6.32903C6.20363 26.3056 6.0794 26.3279 5.96354 26.3716C5.84767 26.4154 5.74247 26.4796 5.65403 26.5607L4.69691 27.4336H1.06109V25.1385H11.187C11.3026 25.3104 11.4766 25.4432 11.6826 25.5167C11.8885 25.5901 12.1152 25.6003 12.328 25.5455C12.5409 25.4907 12.7283 25.374 12.8618 25.2133C12.9952 25.0525 13.0675 24.8563 13.0675 24.6546C13.0675 24.4529 12.9952 24.2568 12.8618 24.0959C12.7283 23.9352 12.5409 23.8185 12.328 23.7637C12.1152 23.709 11.8885 23.7191 11.6826 23.7926C11.4766 23.8661 11.3026 23.9989 11.187 24.1708H1.06109V21.8462H5.7009L6.75176 22.8044C6.84021 22.8855 6.94541 22.9498 7.06127 22.9936C7.17713 23.0374 7.30136 23.0597 7.42677 23.0594H14.2808C14.3964 23.2314 14.5704 23.3642 14.7764 23.4376C14.9823 23.5111 15.209 23.5212 15.4218 23.4665C15.6347 23.4117 15.8221 23.295 15.9555 23.1342C16.089 22.9735 16.1612 22.7772 16.1612 22.5756C16.1612 22.3739 16.089 22.1778 15.9555 22.0169C15.8221 21.8561 15.6347 21.7394 15.4218 21.6847C15.209 21.63 14.9823 21.6401 14.7764 21.7135C14.5704 21.787 14.3964 21.9198 14.2808 22.0918H7.47023L6.41937 21.1335C6.33092 21.0524 6.22572 20.9881 6.10986 20.9443C5.994 20.9006 5.86977 20.8783 5.74437 20.8786H1.05683V19.2176H6.13642L7.09608 20.0904C7.18453 20.1715 7.28973 20.2358 7.40559 20.2796C7.52145 20.3233 7.64568 20.3456 7.77109 20.3454H9.15263C9.26823 20.5173 9.44223 20.6501 9.64819 20.7236C9.85415 20.7971 10.0808 20.8072 10.2936 20.7525C10.5065 20.6977 10.6939 20.581 10.8274 20.4202C10.9608 20.2594 11.0331 20.0632 11.0331 19.8616C11.0331 19.6599 10.9608 19.4637 10.8274 19.3029C10.6939 19.1421 10.5065 19.0255 10.2936 18.9707C10.0808 18.9159 9.85415 18.926 9.64819 18.9995C9.44223 19.073 9.26823 19.2058 9.15263 19.3777H7.81455L6.85744 18.505C6.76899 18.4239 6.6638 18.3596 6.54793 18.3158C6.43207 18.272 6.30784 18.2497 6.18244 18.25H1.06109V15.9409C1.06109 15.3844 1.30353 14.8506 1.73508 14.457C2.16663 14.0635 2.75194 13.8424 3.36224 13.8424H28.2386C28.8489 13.8424 29.4342 14.0635 29.8657 14.457C30.2973 14.8506 30.5397 15.3844 30.5397 15.9409V19.2052H21.1229C20.6073 19.2059 20.113 19.3929 19.7484 19.7254C19.3838 20.0578 19.1787 20.5086 19.178 20.9788V24.9247C19.1787 25.3949 19.3838 25.8457 19.7484 26.1782C20.113 26.5106 20.6073 26.6977 21.1229 26.6983H30.5338V29.9626C30.5338 30.5191 30.2913 31.0529 29.8598 31.4464C29.4282 31.84 28.8429 32.0611 28.2326 32.0611H24.3403C24.1996 32.0611 24.0646 32.1121 23.9651 32.2028C23.8656 32.2935 23.8097 32.4166 23.8097 32.5448C23.8097 32.6732 23.8656 32.7962 23.9651 32.887C24.0646 32.9777 24.1996 33.0287 24.3403 33.0287H28.2386C29.1292 33.0278 29.9831 32.7049 30.6129 32.1307C31.2428 31.5565 31.5971 30.7779 31.5983 29.9657V26.7014H32.0551C32.5707 26.7008 33.065 26.5137 33.4296 26.1813C33.7942 25.8488 33.9993 25.398 34 24.9279V20.9819C33.9993 20.5117 33.7942 20.0609 33.4296 19.7285C33.065 19.396 32.5707 19.209 32.0551 19.2083L32.0542 19.2029ZM10.293 11.6577L10.9825 12.8771H9.60349L10.293 11.6577ZM32.9389 24.9223C32.9387 25.136 32.8455 25.3409 32.6798 25.4921C32.5141 25.6431 32.2894 25.7281 32.0551 25.7283H21.1229C20.8886 25.7281 20.6639 25.6431 20.4982 25.4921C20.3325 25.3409 20.2393 25.136 20.2391 24.9223V20.9765C20.2393 20.7628 20.3325 20.5579 20.4982 20.4067C20.6639 20.2557 20.8886 20.1707 21.1229 20.1705H32.0542C32.2886 20.1707 32.5132 20.2557 32.6789 20.4067C32.8446 20.5579 32.9378 20.7628 32.9381 20.9765V24.9223H32.9389Z"/>
<path d="M23.7735 21.0303C23.3895 21.0303 23.0142 21.1341 22.6949 21.3287C22.3756 21.5232 22.1268 21.7997 21.9798 22.1232C21.8329 22.4467 21.7944 22.8027 21.8693 23.1461C21.9442 23.4896 22.1292 23.8051 22.4007 24.0527C22.6722 24.3003 23.0182 24.4689 23.3948 24.5372C23.7714 24.6055 24.1617 24.5705 24.5165 24.4365C24.8713 24.3024 25.1745 24.0755 25.3878 23.7844C25.6012 23.4932 25.715 23.1509 25.715 22.8007C25.7143 22.3314 25.5096 21.8814 25.1456 21.5495C24.7817 21.2177 24.2882 21.0309 23.7735 21.0303ZM23.7735 23.6036C23.5994 23.6036 23.4292 23.5566 23.2844 23.4683C23.1396 23.3801 23.0268 23.2547 22.9601 23.108C22.8935 22.9613 22.8761 22.7998 22.91 22.6441C22.944 22.4884 23.0279 22.3453 23.151 22.233C23.2741 22.1208 23.431 22.0443 23.6018 22.0134C23.7726 21.9824 23.9496 21.9982 24.1104 22.059C24.2713 22.1197 24.4088 22.2227 24.5056 22.3547C24.6023 22.4867 24.6539 22.642 24.6539 22.8007C24.6537 23.0136 24.5609 23.2177 24.3958 23.3682C24.2308 23.5188 24.0069 23.6034 23.7735 23.6036Z"/>
<path d="M18.9459 9.77172C19.0812 9.7996 19.223 9.77803 19.3411 9.71172C19.4591 9.64538 19.544 9.5395 19.5774 9.41679C19.6109 9.29408 19.5902 9.16429 19.52 9.05527C19.4497 8.94625 19.3355 8.86667 19.2016 8.83359C18.5237 8.67814 17.8965 8.37709 17.3721 7.95555C16.8478 7.53401 16.4417 7.00423 16.1876 6.4104C15.9336 5.81658 15.839 5.17595 15.9117 4.54199C15.9844 3.90804 16.2224 3.29914 16.6057 2.76613C16.9891 2.23311 17.5066 1.79144 18.1153 1.47799C18.7239 1.16454 19.4059 0.988392 20.1044 0.964257C20.8029 0.940122 21.4976 1.0687 22.1305 1.33925C22.7634 1.6098 23.3161 2.01448 23.7426 2.51952C23.2179 2.76328 22.7399 3.08268 22.3269 3.46538C22.0169 3.28015 21.6544 3.18129 21.2837 3.18093H19.9013C19.8027 3.18091 19.706 3.206 19.6221 3.25337C19.5383 3.30074 19.4705 3.36852 19.4266 3.44906L18.8854 4.44234H17.8746C17.7339 4.44234 17.599 4.49332 17.4995 4.58405C17.4 4.67478 17.3441 4.79784 17.3441 4.92616C17.3441 5.05447 17.4 5.17753 17.4995 5.26826C17.599 5.35899 17.7339 5.40997 17.8746 5.40997H18.3544L18.0476 5.97267C18.0072 6.04641 17.9882 6.12835 17.9923 6.21068C17.9964 6.29303 18.0235 6.37305 18.0711 6.44314C18.1186 6.51324 18.1851 6.57107 18.2641 6.61116C18.343 6.65124 18.432 6.67224 18.5224 6.67216H20.7724C20.7673 6.76232 20.7638 6.85248 20.7638 6.94418C20.7629 7.9833 21.1193 8.99653 21.783 9.84118C22.4467 10.6858 23.3843 11.3194 24.4636 11.6526C25.5429 11.9858 26.7096 12.0018 27.7995 11.6985C28.8894 11.3953 29.8474 10.7878 30.5389 9.96192C31.2303 9.13594 31.6202 8.13301 31.6536 7.09435C31.6871 6.05567 31.3625 5.03359 30.7255 4.17202C30.0884 3.31045 29.1711 2.65278 28.1027 2.29164C27.0342 1.93049 25.8685 1.88407 24.7696 2.15889C24.272 1.49611 23.6054 0.953358 22.8271 0.577246C22.0488 0.201134 21.1821 0.00289646 20.3012 -0.000445318C19.4204 -0.0037871 18.5519 0.187867 17.7702 0.558061C16.9885 0.928254 16.317 1.46593 15.8134 2.12491C15.3098 2.78389 14.989 3.54449 14.8788 4.34141C14.7685 5.13833 14.872 5.94775 15.1803 6.70017C15.4886 7.45258 15.9926 8.12552 16.6489 8.66119C17.3053 9.19687 18.0944 9.57927 18.9485 9.7756L18.9459 9.77172ZM19.3806 5.70375L20.2329 4.14933H21.2837C21.413 4.14908 21.5407 4.17566 21.657 4.22705C21.33 4.67993 21.0869 5.17884 20.9377 5.70375H19.3806ZM30.5889 6.9434C30.5889 7.73367 30.332 8.50619 29.8505 9.16327C29.369 9.82039 28.6847 10.3325 27.8841 10.6349C27.0835 10.9373 26.2025 11.0164 25.3526 10.8622C24.5026 10.7081 23.7219 10.3276 23.1091 9.7688C22.4963 9.20996 22.079 8.498 21.91 7.72292C21.7409 6.94784 21.8277 6.14445 22.1593 5.41434C22.4909 4.68423 23.0525 4.06019 23.7731 3.62115C24.4936 3.1821 25.3408 2.94776 26.2074 2.94776C27.369 2.949 28.4827 3.37035 29.3041 4.11942C30.1255 4.86848 30.5876 5.88407 30.5889 6.9434Z"/>
<path d="M25.29 9.11263C25.29 9.11263 26.2769 9.10874 26.5497 9.10874C26.8602 9.10897 27.1634 9.02269 27.4186 8.86145C27.6739 8.70021 27.869 8.4717 27.978 8.20652C28.0869 7.94135 28.1044 7.65215 28.0281 7.37765C27.9518 7.10317 27.7854 6.85647 27.5511 6.67062C27.6751 6.47925 27.7412 6.26134 27.7428 6.03908C27.7444 5.81681 27.6813 5.59813 27.56 5.40532C27.4388 5.21252 27.2636 5.05245 27.0524 4.94146C26.8413 4.83046 26.6016 4.7725 26.3579 4.77345H25.284C25.1434 4.77345 25.0086 4.82438 24.9092 4.91503C24.8097 5.0057 24.7539 5.12866 24.7539 5.25687V8.62919C24.7539 8.75741 24.8097 8.88038 24.9092 8.97103C25.0086 9.06169 25.1434 9.11263 25.284 9.11263H25.29ZM26.5513 8.14111H25.8201V7.29395H26.5513C26.6141 7.2915 26.6767 7.30065 26.7355 7.32085C26.7942 7.34105 26.8479 7.37188 26.8932 7.4115C26.9385 7.4511 26.9746 7.49868 26.9993 7.55134C27.0239 7.604 27.0366 7.66066 27.0366 7.71792C27.0366 7.77517 27.0239 7.83184 26.9993 7.8845C26.9746 7.93716 26.9385 7.98472 26.8932 8.02433C26.8479 8.06394 26.7942 8.09477 26.7355 8.11498C26.6767 8.13518 26.6141 8.14434 26.5513 8.14189V8.14111ZM26.3638 5.7403C26.4488 5.7403 26.5304 5.77109 26.5905 5.82589C26.6506 5.88069 26.6843 5.95503 26.6843 6.03253C26.6843 6.11004 26.6506 6.18437 26.5905 6.23917C26.5304 6.29398 26.4488 6.32476 26.3638 6.32476H25.8201V5.73953L26.3638 5.7403Z"/>
</svg>
