<svg width="60" height="20" xmlns="http://www.w3.org/2000/svg"><path d="M16.908 14V6.18h2.556c.849 0 1.486.175 1.913.526.43.351.644.87.644 1.558a1.6 1.6 0 01-.312.972c-.207.28-.49.496-.848.65.422.118.755.344.999.677.247.329.37.723.37 1.181 0 .702-.227 1.253-.682 1.654-.454.402-1.097.602-1.928.602h-2.712zm1.031-3.658v2.815h1.703c.48 0 .857-.124 1.133-.37.28-.252.419-.595.419-1.032 0-.942-.512-1.413-1.536-1.413h-1.719zm0-.827h1.558c.45 0 .81-.113 1.08-.338.271-.226.407-.532.407-.919 0-.43-.125-.74-.376-.934-.25-.197-.632-.296-1.144-.296H17.94v2.487zM24.685 14h-.994V8.188h.994V14zm-1.074-7.353a.6.6 0 01.145-.408c.1-.111.247-.167.44-.167.194 0 .34.056.44.167.101.11.151.247.151.408 0 .161-.05.295-.15.403-.1.107-.247.16-.44.16-.194 0-.34-.053-.441-.16a.58.58 0 01-.145-.403zm3.61 1.541l.031.731c.445-.559 1.024-.838 1.74-.838 1.229 0 1.848.693 1.86 2.079V14h-.995v-3.846c-.003-.419-.1-.728-.29-.929-.186-.2-.478-.3-.875-.3-.322 0-.605.085-.849.257a1.751 1.751 0 00-.57.677V14h-.993V8.188h.94zM35.936 14c-.057-.115-.103-.319-.14-.612-.461.48-1.012.72-1.653.72-.573 0-1.044-.162-1.413-.484a1.584 1.584 0 01-.548-1.235c0-.605.23-1.074.688-1.408.462-.336 1.11-.504 1.944-.504h.967v-.457c0-.347-.104-.623-.312-.827-.207-.208-.514-.312-.918-.312-.355 0-.652.09-.892.269-.24.179-.36.396-.36.65h-.999c0-.29.102-.57.306-.838.208-.272.487-.487.838-.645a2.837 2.837 0 011.166-.236c.67 0 1.194.168 1.574.505.38.333.576.793.59 1.38v2.675c0 .534.068.958.205 1.273V14h-1.042zm-1.648-.757c.311 0 .606-.08.886-.242.28-.161.481-.37.607-.628V11.18h-.78c-1.217 0-1.825.357-1.825 1.069 0 .311.104.555.311.73.208.176.475.264.8.264zm4.984-5.055l.032.731c.444-.559 1.024-.838 1.74-.838 1.229 0 1.848.693 1.859 2.079V14h-.994v-3.846c-.003-.419-.1-.728-.29-.929-.186-.2-.478-.3-.875-.3-.323 0-.605.085-.849.257a1.75 1.75 0 00-.57.677V14h-.993V8.188h.94zm7.46 5.108c.355 0 .665-.107.93-.322.265-.215.411-.483.44-.806h.94c-.018.334-.133.65-.344.951-.211.3-.494.54-.848.72-.351.179-.724.268-1.118.268-.79 0-1.421-.263-1.89-.79-.466-.53-.699-1.252-.699-2.17v-.166c0-.565.104-1.068.312-1.509.208-.44.505-.782.892-1.026.39-.243.85-.365 1.38-.365.652 0 1.192.195 1.622.585.433.39.664.897.693 1.52h-.94a1.354 1.354 0 00-.43-.923 1.313 1.313 0 00-.945-.366c-.505 0-.897.183-1.176.548-.276.362-.414.886-.414 1.574v.188c0 .67.138 1.185.414 1.547.276.362.67.542 1.181.542zm5.839.811c-.788 0-1.429-.257-1.923-.773-.494-.52-.741-1.212-.741-2.079v-.182c0-.577.109-1.09.327-1.542.222-.455.53-.809.924-1.063a2.324 2.324 0 011.29-.387c.755 0 1.342.249 1.761.747.419.497.628 1.21.628 2.137v.414h-3.937c.015.573.181 1.037.5 1.391.322.35.73.526 1.224.526.351 0 .649-.071.892-.214a2.24 2.24 0 00.64-.57l.606.473c-.487.748-1.217 1.122-2.191 1.122zm-.124-5.21c-.4 0-.737.147-1.01.44-.272.29-.44.7-.504 1.226h2.91v-.076c-.028-.505-.164-.895-.407-1.17-.244-.28-.573-.42-.989-.42z"/><g opacity=".9"><path d="M3.364 9.384l2.137-2.136 2.137 2.137L8.88 8.142 5.5 4.762l-3.379 3.38 1.243 1.242zM0 10.261l1.242-1.243 1.244 1.243-1.244 1.243L0 10.26zM3.364 11.14l2.137 2.137 2.137-2.138 1.243 1.242-3.38 3.38-3.38-3.377 1.243-1.244zM8.514 10.261l1.242-1.243L11 10.26l-1.243 1.245-1.242-1.244z"/><path d="M6.761 10.263L5.501 9l-.932.932-.108.107-.22.221 1.26 1.26 1.26-1.257v-.001z"/></g></svg>