<svg width="150" height="20" fill="none" xmlns="http://www.w3.org/2000/svg"><path d="M36.58 2.97h3.136v16.454h3V2.971h3.137V.229H36.58V2.97zm23.194 16.454c-.3-.712-.327-1.398-.327-2.33v-2.962c0-2.002-.491-3.455-1.991-4.086 1.336-.63 1.963-1.92 1.963-3.894V4.644c0-2.962-1.336-4.415-4.445-4.415h-4.527v19.195h3V11.61h1.036c1.364 0 1.964.658 1.964 2.44v3.017c0 1.563.109 1.865.272 2.358h3.055zM54.892 2.971c1.064 0 1.527.603 1.527 1.974v1.892c0 1.536-.681 2.03-1.8 2.03h-1.172V2.97h1.445zM71.347.229h-4.39l-3.055 19.195h2.754l.518-3.482h3.682l.518 3.482h3.028L71.347.23zm-2.345 3.4l1.445 9.708h-2.89l1.445-9.708zm10.07 15.795h4.745c3 0 4.473-1.672 4.473-4.744V4.973c0-3.072-1.473-4.744-4.473-4.744H79.07v19.195zm4.69-16.453c.955 0 1.528.493 1.528 1.865v9.981c0 1.372-.573 1.865-1.528 1.865h-1.69V2.971h1.69zm12.715 0h5.182V.229h-8.182v19.195h8.182v-2.742h-5.182v-5.621h4.118V8.317h-4.118V2.971zm10.314 16.453h7.936v-2.742h-4.936V.23h-3v19.195zm12.514 0h3V.23h-3v19.195zM127.58.23V2.97h5.427l-5.7 13.766v2.688h8.782v-2.743h-5.7l5.7-13.766V.229h-8.509zm16.558 2.742h5.182V.229h-8.182v19.195h8.182v-2.742h-5.182v-5.621h4.118V8.317h-4.118V2.971z" fill="#07061E"/><path d="M15.702 14.72L9.09 5.846 2.48 14.72" stroke="#4671FF" stroke-width="4" stroke-linecap="round" stroke-linejoin="round"/></svg>