<svg width="21" height="21" fill="none" xmlns="http://www.w3.org/2000/svg"><path d="M6.954 1H2.083C1.485 1 1 1.485 1 2.083v4.871c0 .598.485 1.083 1.083 1.083h4.871c.598 0 1.083-.485 1.083-1.083V2.083C8.037 1.485 7.552 1 6.954 1zM6.954 12.963H2.083c-.598 0-1.083.485-1.083 1.083v4.871C1 19.515 1.485 20 2.083 20h4.871c.598 0 1.083-.485 1.083-1.083v-4.872c0-.597-.485-1.082-1.083-1.082zM18.917 1h-4.872c-.597 0-1.082.485-1.082 1.083v4.871c0 .598.485 1.083 1.083 1.083h4.871c.598 0 1.083-.485 1.083-1.083V2.083C20 1.485 19.515 1 18.917 1z" stroke="#000" stroke-width="1.5" stroke-linecap="round" stroke-linejoin="round"/><path fill="#000" d="M3.815 3.815h1.407v1.407H3.815zM3.815 15.778h1.407v1.407H3.815zM15.778 3.815h1.407v1.407h-1.407z"/><path d="M17.185 20H20v-2.815M15.778 12.963h-2.815v2.815M12.963 17.185V20h2.815M20 15.778v-2.815h-2.815" stroke="#000" stroke-width="1.5"/></svg>