<?xml version="1.0" encoding="utf-8"?><svg viewBox="0 0 70 58" xmlns="http://www.w3.org/2000/svg" xmlns:xlink="http://www.w3.org/1999/xlink"><style>:root>svg{display:none}:root>svg:target{display:block}</style><svg fill="none" viewBox="0 0 18 18" id="alert" xmlns="http://www.w3.org/2000/svg"><path clip-rule="evenodd" d="M5.895 1.5h6.21L16.5 5.895v6.21L12.105 16.5h-6.21L1.5 12.105v-6.21L5.895 1.5v0z" stroke="#E9A128" stroke-width="1.5" stroke-linecap="round" stroke-linejoin="round"/><path d="M9 6v3" stroke="#E9A128" stroke-width="1.5" stroke-linecap="round" stroke-linejoin="round"/><circle cx="9" cy="12" r=".75" fill="#E9A128"/></svg><svg viewBox="0 0 12 10" id="apply-arrow" xmlns="http://www.w3.org/2000/svg"><path d="M11.528 4.839c0-.147-.085-.281-.22-.318L.702.432A.325.325 0 00.31.53a.352.352 0 00-.037.403l2.344 3.906L.274 8.744a.352.352 0 00.061.428.341.341 0 00.367.073L11.32 5.168a.347.347 0 00.207-.33z"/></svg><svg viewBox="0 0 8 5" id="arrow" xmlns="http://www.w3.org/2000/svg"><path d="M1 1l3 3 3-3"/></svg><svg fill="none" viewBox="0 0 6 10" id="arrow-back" xmlns="http://www.w3.org/2000/svg"><path d="M5 9L1 5l4-4" stroke="#7F8BA9" stroke-width="2" stroke-linecap="round" stroke-linejoin="round"/></svg><svg fill="none" viewBox="0 0 8 5" id="arrow-dropdown" xmlns="http://www.w3.org/2000/svg"><path d="M1 1l3 2.705L7 1" stroke="#272734" stroke-width="1.2" stroke-linecap="round" stroke-linejoin="round"/></svg><svg fill="none" viewBox="0 0 8 9" id="arrow-lose" xmlns="http://www.w3.org/2000/svg"><path d="M7 4.5L4 8 1 4.5M4 1v6.5" stroke="#FF5F5F" stroke-width="1.2" stroke-linecap="round" stroke-linejoin="round"/></svg><svg fill="none" viewBox="0 0 8 9" id="arrow-profit" xmlns="http://www.w3.org/2000/svg"><path d="M1 4.5L4 1l3 3.5M4 8V1.5" stroke="#38CB89" stroke-width="1.2" stroke-linecap="round" stroke-linejoin="round"/></svg><svg fill="none" viewBox="0 0 11 11" id="ask" xmlns="http://www.w3.org/2000/svg"><path d="M4.973 6.881c0-.308.042-.554.124-.737.083-.184.246-.384.49-.602.245-.22.4-.377.466-.47.1-.141.15-.294.15-.459 0-.218-.059-.384-.176-.498-.116-.115-.286-.173-.512-.173-.216 0-.39.056-.523.17a.568.568 0 00-.196.456h-.914c.005-.41.156-.735.452-.974.298-.24.692-.359 1.18-.359.505 0 .897.119 1.178.355.284.237.425.567.425.992 0 .378-.19.75-.571 1.116l-.463.421c-.166.174-.25.428-.256.762h-.854zM4.91 7.963c0-.137.047-.247.14-.33a.532.532 0 01.376-.13.53.53 0 01.38.133c.092.086.139.195.139.327a.424.424 0 01-.136.32c-.09.086-.218.129-.383.129-.166 0-.294-.043-.384-.129a.43.43 0 01-.132-.32z" fill="#272734"/><circle cx="5.5" cy="5.5" r="5" stroke="#272734"/></svg><svg viewBox="0 0 13 15" id="bell" xmlns="http://www.w3.org/2000/svg"><path d="M12.771 12.02c-1.215-.766-1.467-1.846-1.467-4.003V5.948c0-2.14-1.672-3.921-3.886-4.314a.968.968 0 00.212-.6C7.63.465 7.124 0 6.5 0c-.624 0-1.13.463-1.13 1.034 0 .225.08.43.212.6-2.214.393-3.886 2.174-3.886 4.314v2.07c0 2.156-.252 3.236-1.467 4.003a.483.483 0 00-.229.407c0 .278.246.503.55.503h11.9c.304 0 .55-.225.55-.503a.483.483 0 00-.229-.407zM5.133 4.04c-.676.419-1.176 1.106-1.176 1.908 0 .286-.254.518-.566.518-.312 0-.565-.232-.565-.518 0-1.155.69-2.15 1.662-2.756a.6.6 0 01.316-.089c.312 0 .566.232.566.518a.504.504 0 01-.237.419zM7.63 13.966C7.63 14.537 7.124 15 6.5 15c-.625 0-1.13-.463-1.13-1.034v-.259h2.26v.259z"/></svg><svg fill="none" viewBox="0 0 60 20" id="binance-icon" xmlns="http://www.w3.org/2000/svg"><path d="M16.908 14V6.18h2.556c.849 0 1.486.175 1.913.526.43.351.644.87.644 1.558a1.6 1.6 0 01-.312.972c-.207.28-.49.496-.848.65.422.118.755.344.999.677.247.329.37.723.37 1.181 0 .702-.227 1.253-.682 1.654-.454.402-1.097.602-1.928.602h-2.712zm1.031-3.658v2.815h1.703c.48 0 .857-.124 1.133-.37.28-.252.419-.595.419-1.032 0-.942-.512-1.413-1.536-1.413h-1.719zm0-.827h1.558c.45 0 .81-.113 1.08-.338.271-.226.407-.532.407-.919 0-.43-.125-.74-.376-.934-.25-.197-.632-.296-1.144-.296H17.94v2.487zM24.685 14h-.994V8.188h.994V14zm-1.074-7.353a.6.6 0 01.145-.408c.1-.111.247-.167.44-.167.194 0 .34.056.44.167.101.11.151.247.151.408 0 .161-.05.295-.15.403-.1.107-.247.16-.44.16-.194 0-.34-.053-.441-.16a.58.58 0 01-.145-.403zm3.61 1.541l.031.731c.445-.559 1.024-.838 1.74-.838 1.229 0 1.848.693 1.86 2.079V14h-.995v-3.846c-.003-.419-.1-.728-.29-.929-.186-.2-.478-.3-.875-.3-.322 0-.605.085-.849.257a1.751 1.751 0 00-.57.677V14h-.993V8.188h.94zM35.936 14c-.057-.115-.103-.319-.14-.612-.461.48-1.012.72-1.653.72-.573 0-1.044-.162-1.413-.484a1.584 1.584 0 01-.548-1.235c0-.605.23-1.074.688-1.408.462-.336 1.11-.504 1.944-.504h.967v-.457c0-.347-.104-.623-.312-.827-.207-.208-.514-.312-.918-.312-.355 0-.652.09-.892.269-.24.179-.36.396-.36.65h-.999c0-.29.102-.57.306-.838.208-.272.487-.487.838-.645a2.837 2.837 0 011.166-.236c.67 0 1.194.168 1.574.505.38.333.576.793.59 1.38v2.675c0 .534.068.958.205 1.273V14h-1.042zm-1.648-.757c.311 0 .606-.08.886-.242.28-.161.481-.37.607-.628V11.18h-.78c-1.217 0-1.825.357-1.825 1.069 0 .311.104.555.311.73.208.176.475.264.8.264zm4.984-5.055l.032.731c.444-.559 1.024-.838 1.74-.838 1.229 0 1.848.693 1.859 2.079V14h-.994v-3.846c-.003-.419-.1-.728-.29-.929-.186-.2-.478-.3-.875-.3-.323 0-.605.085-.849.257a1.75 1.75 0 00-.57.677V14h-.993V8.188h.94zm7.46 5.108c.355 0 .665-.107.93-.322.265-.215.411-.483.44-.806h.94c-.018.334-.133.65-.344.951-.211.3-.494.54-.848.72-.351.179-.724.268-1.118.268-.79 0-1.421-.263-1.89-.79-.466-.53-.699-1.252-.699-2.17v-.166c0-.565.104-1.068.312-1.509.208-.44.505-.782.892-1.026.39-.243.85-.365 1.38-.365.652 0 1.192.195 1.622.585.433.39.664.897.693 1.52h-.94a1.354 1.354 0 00-.43-.923 1.313 1.313 0 00-.945-.366c-.505 0-.897.183-1.176.548-.276.362-.414.886-.414 1.574v.188c0 .67.138 1.185.414 1.547.276.362.67.542 1.181.542zm5.839.811c-.788 0-1.429-.257-1.923-.773-.494-.52-.741-1.212-.741-2.079v-.182c0-.577.109-1.09.327-1.542.222-.455.53-.809.924-1.063a2.324 2.324 0 011.29-.387c.755 0 1.342.249 1.761.747.419.497.628 1.21.628 2.137v.414h-3.937c.015.573.181 1.037.5 1.391.322.35.73.526 1.224.526.351 0 .649-.071.892-.214a2.24 2.24 0 00.64-.57l.606.473c-.487.748-1.217 1.122-2.191 1.122zm-.124-5.21c-.4 0-.737.147-1.01.44-.272.29-.44.7-.504 1.226h2.91v-.076c-.028-.505-.164-.895-.407-1.17-.244-.28-.573-.42-.989-.42z" fill="#728094"/><g opacity=".9" fill="#FDC228"><path d="M3.364 9.384l2.137-2.136 2.137 2.137L8.88 8.142 5.5 4.762l-3.379 3.38 1.243 1.242zM0 10.261l1.242-1.243 1.244 1.243-1.244 1.243L0 10.26zM3.364 11.14l2.137 2.137 2.137-2.138 1.243 1.242-3.38 3.38-3.38-3.377 1.243-1.244zM8.514 10.261l1.242-1.243L11 10.26l-1.243 1.245-1.242-1.244z"/><path d="M6.761 10.263L5.501 9l-.932.932-.108.107-.22.221 1.26 1.26 1.26-1.257v-.001z"/></g></svg><svg viewBox="0 0 60 20" id="binance-icon-black" xmlns="http://www.w3.org/2000/svg"><path d="M16.908 14V6.18h2.556c.849 0 1.486.175 1.913.526.43.351.644.87.644 1.558a1.6 1.6 0 01-.312.972c-.207.28-.49.496-.848.65.422.118.755.344.999.677.247.329.37.723.37 1.181 0 .702-.227 1.253-.682 1.654-.454.402-1.097.602-1.928.602h-2.712zm1.031-3.658v2.815h1.703c.48 0 .857-.124 1.133-.37.28-.252.419-.595.419-1.032 0-.942-.512-1.413-1.536-1.413h-1.719zm0-.827h1.558c.45 0 .81-.113 1.08-.338.271-.226.407-.532.407-.919 0-.43-.125-.74-.376-.934-.25-.197-.632-.296-1.144-.296H17.94v2.487zM24.685 14h-.994V8.188h.994V14zm-1.074-7.353a.6.6 0 01.145-.408c.1-.111.247-.167.44-.167.194 0 .34.056.44.167.101.11.151.247.151.408 0 .161-.05.295-.15.403-.1.107-.247.16-.44.16-.194 0-.34-.053-.441-.16a.58.58 0 01-.145-.403zm3.61 1.541l.031.731c.445-.559 1.024-.838 1.74-.838 1.229 0 1.848.693 1.86 2.079V14h-.995v-3.846c-.003-.419-.1-.728-.29-.929-.186-.2-.478-.3-.875-.3-.322 0-.605.085-.849.257a1.751 1.751 0 00-.57.677V14h-.993V8.188h.94zM35.936 14c-.057-.115-.103-.319-.14-.612-.461.48-1.012.72-1.653.72-.573 0-1.044-.162-1.413-.484a1.584 1.584 0 01-.548-1.235c0-.605.23-1.074.688-1.408.462-.336 1.11-.504 1.944-.504h.967v-.457c0-.347-.104-.623-.312-.827-.207-.208-.514-.312-.918-.312-.355 0-.652.09-.892.269-.24.179-.36.396-.36.65h-.999c0-.29.102-.57.306-.838.208-.272.487-.487.838-.645a2.837 2.837 0 011.166-.236c.67 0 1.194.168 1.574.505.38.333.576.793.59 1.38v2.675c0 .534.068.958.205 1.273V14h-1.042zm-1.648-.757c.311 0 .606-.08.886-.242.28-.161.481-.37.607-.628V11.18h-.78c-1.217 0-1.825.357-1.825 1.069 0 .311.104.555.311.73.208.176.475.264.8.264zm4.984-5.055l.032.731c.444-.559 1.024-.838 1.74-.838 1.229 0 1.848.693 1.859 2.079V14h-.994v-3.846c-.003-.419-.1-.728-.29-.929-.186-.2-.478-.3-.875-.3-.323 0-.605.085-.849.257a1.75 1.75 0 00-.57.677V14h-.993V8.188h.94zm7.46 5.108c.355 0 .665-.107.93-.322.265-.215.411-.483.44-.806h.94c-.018.334-.133.65-.344.951-.211.3-.494.54-.848.72-.351.179-.724.268-1.118.268-.79 0-1.421-.263-1.89-.79-.466-.53-.699-1.252-.699-2.17v-.166c0-.565.104-1.068.312-1.509.208-.44.505-.782.892-1.026.39-.243.85-.365 1.38-.365.652 0 1.192.195 1.622.585.433.39.664.897.693 1.52h-.94a1.354 1.354 0 00-.43-.923 1.313 1.313 0 00-.945-.366c-.505 0-.897.183-1.176.548-.276.362-.414.886-.414 1.574v.188c0 .67.138 1.185.414 1.547.276.362.67.542 1.181.542zm5.839.811c-.788 0-1.429-.257-1.923-.773-.494-.52-.741-1.212-.741-2.079v-.182c0-.577.109-1.09.327-1.542.222-.455.53-.809.924-1.063a2.324 2.324 0 011.29-.387c.755 0 1.342.249 1.761.747.419.497.628 1.21.628 2.137v.414h-3.937c.015.573.181 1.037.5 1.391.322.35.73.526 1.224.526.351 0 .649-.071.892-.214a2.24 2.24 0 00.64-.57l.606.473c-.487.748-1.217 1.122-2.191 1.122zm-.124-5.21c-.4 0-.737.147-1.01.44-.272.29-.44.7-.504 1.226h2.91v-.076c-.028-.505-.164-.895-.407-1.17-.244-.28-.573-.42-.989-.42z"/><g opacity=".9"><path d="M3.364 9.384l2.137-2.136 2.137 2.137L8.88 8.142 5.5 4.762l-3.379 3.38 1.243 1.242zM0 10.261l1.242-1.243 1.244 1.243-1.244 1.243L0 10.26zM3.364 11.14l2.137 2.137 2.137-2.138 1.243 1.242-3.38 3.38-3.38-3.377 1.243-1.244zM8.514 10.261l1.242-1.243L11 10.26l-1.243 1.245-1.242-1.244z"/><path d="M6.761 10.263L5.501 9l-.932.932-.108.107-.22.221 1.26 1.26 1.26-1.257v-.001z"/></g></svg><svg viewBox="0 0 9 9" id="check-green" xmlns="http://www.w3.org/2000/svg"><path d="M4.5 0A4.505 4.505 0 000 4.5C0 6.981 2.019 9 4.5 9S9 6.981 9 4.5 6.981 0 4.5 0zm2.584 3.74L4.257 6.567a.632.632 0 01-.45.186.632.632 0 01-.45-.186l-1.441-1.44a.632.632 0 010-.9.632.632 0 01.9 0l.99.99L6.185 2.84c.12-.12.28-.186.45-.186a.637.637 0 01.45 1.086z"/></svg><svg viewBox="0 0 9 9" id="close" xmlns="http://www.w3.org/2000/svg"><rect width="1.808" height="10.849" rx=".904" transform="rotate(44.916 3.86 9.338)"/><rect width="1.808" height="10.849" rx=".904" transform="scale(-1.00248 -.99751) rotate(-45 -13.823 6.932)"/></svg><svg viewBox="0 0 16 16" id="comment" xmlns="http://www.w3.org/2000/svg"><path d="M14.933 10.311a1.54 1.54 0 01-1.54 1.541H4.147l-3.082 3.082V2.608a1.54 1.54 0 011.541-1.541h10.785a1.54 1.54 0 011.541 1.54v7.704z"/></svg><svg viewBox="0 0 15 15" id="complain" xmlns="http://www.w3.org/2000/svg"><path d="M7.862 8.075h.074v-.074l.057-5v-.076H6.957l.001.076.067 5 .001.074h.837zm-.799 1.904a.735.735 0 00-.138.454c0 .176.045.33.138.454l.002.002a.528.528 0 00.433.186c.181 0 .33-.06.432-.186l.001-.001a.718.718 0 00.144-.455.719.719 0 00-.143-.455.515.515 0 00-.434-.198.515.515 0 00-.435.199zM7 10.433c0-.164.041-.3.123-.41h.75a.644.644 0 01.127.41c0 .164-.043.3-.128.409-.085.105-.21.158-.374.158-.165 0-.29-.053-.375-.158a.66.66 0 01-.123-.41z"/><rect x=".4" y=".4" width="14.2" height="14.2" rx="1.6"/></svg><svg fill="none" viewBox="0 0 13 13" id="copy" xmlns="http://www.w3.org/2000/svg"><path d="M10.9 4.85H5.95a1.1 1.1 0 00-1.1 1.1v4.95a1.1 1.1 0 001.1 1.1h4.95a1.1 1.1 0 001.1-1.1V5.95a1.1 1.1 0 00-1.1-1.1z" stroke="#728094" stroke-width="1.5" stroke-linecap="round" stroke-linejoin="round"/><path d="M2.65 8.15H2.1A1.1 1.1 0 011 7.05V2.1A1.1 1.1 0 012.1 1h4.95a1.1 1.1 0 011.1 1.1v.55" stroke="#728094" stroke-width="1.5" stroke-linecap="round" stroke-linejoin="round"/></svg><svg fill="none" viewBox="0 0 70 52" id="copytrading" xmlns="http://www.w3.org/2000/svg"><rect x=".5" y=".5" width="69" height="51" rx="7.5" stroke="#406AFF"/><path d="M34.778 40.384l-7.426-5.864a.324.324 0 00-.525.255v3.78h-6.734a.324.324 0 000 .65h7.058a.324.324 0 00.324-.325v-3.435l6.57 5.189-6.628 4.986v-3.28a.325.325 0 00-.325-.325h-7.484c-2.914 0-4.675-1.73-5.228-4.554.193.164.427.342.704.52 1.99 1.278 4.06 1.224 5.238 1.224a.325.325 0 000-.65c-.919 0-2.957.103-4.86-1.102-.86-.546-1.258-1.1-1.261-1.105-.184-.262-.598-.125-.59.196.002.062.05 1.54.802 3.04.706 1.406 2.18 3.081 5.195 3.081h7.16v3.605c0 .267.306.42.519.26l7.485-5.63a.325.325 0 00.006-.516zM36.42 12.06l7.427 5.865a.324.324 0 00.524-.256v-3.78h6.51a.324.324 0 000-.65h-6.834a.324.324 0 00-.324.325V17l-6.57-5.189 6.629-4.986v3.28c0 .179.145.324.324.324h7.485c2.913 0 4.674 1.732 5.227 4.555a6.469 6.469 0 00-.703-.52c-1.991-1.278-4.061-1.225-5.239-1.225a.324.324 0 000 .65c.919 0 2.958-.103 4.86 1.103.86.546 1.258 1.1 1.261 1.104.184.263.599.126.59-.195a7.955 7.955 0 00-.802-3.04c-.706-1.406-2.18-3.082-5.194-3.082H44.43V6.175a.324.324 0 00-.519-.26l-7.485 5.63a.325.325 0 00-.006.515z" fill="#406AFF"/><path d="M24.928 9.75c0 .116-.07.283-.325.484-.252.199-.637.393-1.145.563-1.01.338-2.43.553-4.013.553-1.584 0-3.003-.215-4.014-.553-.507-.17-.893-.364-1.144-.563-.255-.201-.326-.368-.326-.484 0-.117.07-.283.326-.485.251-.198.636-.393 1.144-.562 1.01-.338 2.43-.553 4.014-.553 1.583 0 3.002.215 4.014.553.507.17.892.364 1.144.562.255.202.325.368.325.485z" stroke="#406AFF" stroke-width=".7"/><path d="M13.937 16.9c0 1.077 2.611 1.522 5.833 1.522.976 0 1.572-.08 2.38-.222M24.954 13c0 1.077-2.704 1.95-5.926 1.95-.769 0-1.503-.05-2.175-.14M24.954 20.8c0 1.077-2.704 1.95-5.926 1.95-.769 0-1.503-.05-2.175-.14" stroke="#406AFF" stroke-width=".7" stroke-linecap="round"/><path d="M24.955 24.7c0 1.077-2.288 1.95-5.51 1.95-3.22 0-5.508-.873-5.508-1.95M13.961 9.75V24.7M24.98 9.75V24.7" stroke="#406AFF" stroke-width=".7"/><path d="M30.114 24.375c0 2.859-2.311 5.175-5.16 5.175-2.848 0-5.159-2.316-5.159-5.175 0-2.86 2.311-5.175 5.16-5.175 2.848 0 5.159 2.316 5.159 5.175z" fill="#fff" stroke="#406AFF" stroke-width=".7"/><path d="M23.812 23.894l1.126-1.13 1.128 1.13.655-.657-1.783-1.787-1.782 1.787.656.657zm-1.774.464l.656-.657.655.657-.655.658-.656-.658zm1.774.465l1.126 1.13 1.128-1.131.655.657-1.783 1.788-1.782-1.787v-.001l.656-.656zm2.716-.464l.655-.658.656.658-.656.657-.655-.657z" fill="#406AFF"/><path d="M25.604 24.358l-.665-.667-.492.493-.056.056-.117.117v.002l.665.667.665-.667v-.001z" fill="#406AFF"/><path d="M53.447 25.35c0 .116-.07.283-.326.484-.251.199-.637.393-1.144.563-1.011.338-2.43.553-4.014.553-1.583 0-3.002-.215-4.014-.553-.507-.17-.892-.364-1.144-.563-.255-.201-.325-.368-.325-.484 0-.117.07-.283.325-.485.252-.198.637-.392 1.144-.562 1.012-.338 2.43-.553 4.014-.553s3.003.215 4.014.553c.507.17.893.364 1.144.563.255.201.325.367.325.484z" stroke="#406AFF" stroke-width=".7"/><path d="M42.455 32.5c0 1.077 2.612 1.522 5.833 1.522.977 0 1.573-.08 2.381-.222M53.473 28.6c0 1.077-2.705 1.95-5.926 1.95-.77 0-1.504-.05-2.176-.14M53.473 36.4c0 1.077-2.705 1.95-5.926 1.95-.77 0-1.504-.05-2.176-.14" stroke="#406AFF" stroke-width=".7" stroke-linecap="round"/><path d="M53.474 40.3c0 1.077-2.288 1.95-5.51 1.95-3.221 0-5.509-.873-5.509-1.95M42.48 25.35V40.3M53.498 25.35V40.3" stroke="#406AFF" stroke-width=".7"/><path d="M58.632 39.975c0 2.859-2.31 5.175-5.159 5.175-2.848 0-5.16-2.316-5.16-5.175 0-2.86 2.312-5.175 5.16-5.175 2.849 0 5.16 2.316 5.16 5.175z" fill="#fff" stroke="#406AFF" stroke-width=".7"/><path fill-rule="evenodd" clip-rule="evenodd" d="M51.705 39.604l1.91-.889 1.853.911-1.855-3.226-1.908 3.204zm.006.985l1.908 1.22 1.946-1.22-1.929 2.96-1.925-2.96z" fill="#406AFF"/><path fill-rule="evenodd" clip-rule="evenodd" d="M53.624 39.15l-1.99.924 1.99 1.219 1.934-1.194-1.934-.95z" fill="#406AFF"/></svg><svg fill="none" viewBox="0 0 13 14" id="date-icon" xmlns="http://www.w3.org/2000/svg"><path d="M10.778 2.2H2.222C1.547 2.2 1 2.737 1 3.4v8.4c0 .663.547 1.2 1.222 1.2h8.556c.675 0 1.222-.537 1.222-1.2V3.4c0-.663-.547-1.2-1.222-1.2zM8.945 1v2.4M4.055 1v2.4M1 5.8h11" stroke="#728094" stroke-width="1.2" stroke-linecap="round" stroke-linejoin="round"/></svg><svg fill="none" viewBox="0 0 21 21" id="delete-post-img" xmlns="http://www.w3.org/2000/svg"><circle cx="10.278" cy="10.278" r="7.268" transform="rotate(-45 10.278 10.278)" fill="#728094"/><path fill="#fff" d="M7.941 11.68l3.738-3.738.934.935-3.738 3.737z"/><path fill="#fff" d="M8.877 7.942l3.738 3.738-.934.934-3.738-3.738z"/></svg><svg fill="none" viewBox="0 0 70 58" id="dex-wallet" xmlns="http://www.w3.org/2000/svg"><rect x=".5" y=".5" width="69" height="50.556" rx="7.5" stroke="#406AFF"/><path d="M7.26 33.363v5.133M10.37 34.903v3.593M13.48 35.93v2.566M16.592 33.876v4.62M19.703 30.796v7.7M50.297 33.363v5.133M53.408 34.903v3.593M56.52 35.93v2.566M59.63 33.876v4.62M62.74 30.796v7.7M28.519 33.876v4.62M31.629 31.31v7.185M34.74 28.743v9.752M37.852 25.664v12.831M40.963 28.23v10.265M7.26 30.283l6.222 2.823 6.222-4.876 8.815 3.08 9.593-8.982 4.925 4.62 13.482 6.415 6.482-5.903" stroke="#406AFF" stroke-linecap="round"/><path d="M35 45.642c7.258 0 13.167-5.828 13.167-13.049 0-7.22-5.909-13.049-13.166-13.049-7.258 0-13.167 5.828-13.167 13.05 0 7.22 5.91 13.048 13.167 13.048z" stroke="#fff" stroke-width="3"/><path d="M44.167 32.593c0 4.974-4.08 9.049-9.166 9.049-5.087 0-9.167-4.075-9.167-9.049 0-4.973 4.08-9.049 9.167-9.049 5.086 0 9.166 4.076 9.166 9.05z" stroke="#fff" stroke-width="5"/><path d="M46.167 32.593c0 6.097-4.994 11.049-11.166 11.049-6.172 0-11.167-4.952-11.167-11.049 0-6.097 4.995-11.049 11.167-11.049s11.166 4.952 11.166 11.05z" stroke="#406AFF"/><ellipse cx="7.26" cy="30.283" rx="1.037" ry="1.027" fill="#406AFF"/><ellipse cx="13.481" cy="32.85" rx="1.037" ry="1.027" fill="#406AFF"/><ellipse cx="19.703" cy="28.23" rx="1.037" ry="1.027" fill="#406AFF"/><ellipse cx="28.518" cy="31.31" rx="1.037" ry="1.027" fill="#406AFF"/><ellipse cx="56.517" cy="33.363" rx="1.037" ry="1.027" fill="#406AFF"/><ellipse cx="62.74" cy="27.717" rx="1.037" ry="1.027" fill="#406AFF"/><rect x="7.24" y="6.146" width="55.519" height="7.212" rx="3.606" stroke="#406AFF"/><path d="M58.101 7.733a1.71 1.71 0 00-1.712 1.703A1.71 1.71 0 0058.1 11.14a1.71 1.71 0 001.713-1.703A1.71 1.71 0 0058.1 7.733zm0 3.092c-.77 0-1.396-.623-1.396-1.389 0-.765.626-1.388 1.396-1.388.77 0 1.397.623 1.397 1.388 0 .766-.627 1.389-1.397 1.389z" fill="#406AFF"/><path d="M60.23 11.332l-.905-.901a.159.159 0 00-.224 0 .156.156 0 000 .222l.906.901a.158.158 0 00.224-.222z" fill="#406AFF"/><path d="M41.481 44.398h7.778L61.185 58h-8.037L41.481 44.398z" fill="#fff"/><path d="M53.765 55.867L41.627 42.201l1.958-1.732 12.151 13.683a1.29 1.29 0 01-.11 1.828c-.544.48-1.38.43-1.861-.113z" fill="#fff" stroke="#406AFF"/></svg><svg viewBox="0 0 34 34" id="earth" xmlns="http://www.w3.org/2000/svg"><path d="M25.741 30.813a.664.664 0 00-.908-.24l-.025.014a.663.663 0 00.157 1.225.664.664 0 00.51-.076l.025-.015a.666.666 0 00.241-.908z"/><path d="M31.721 8.5A17 17 0 00.7 21.825a17.003 17.003 0 0022.38 11.052.665.665 0 10-.476-1.24A15.571 15.571 0 017.62 29.579l.595-3.106.287-.093a2.069 2.069 0 001.326-2.603l-.209-.648a.733.733 0 010-.459 2.067 2.067 0 00-1.567-2.672l-1.5-.293-2.892-2.199a.664.664 0 00-.607-.102l-1.697.55a15.659 15.659 0 010-1.814c.066.063.11.104.137.132a.697.697 0 00.649.333c.4-.02.797-.066 1.19-.135.562-.08 1.118-.177 1.124-.178a.664.664 0 00.439-1.029l-.812-1.194 1.167-.835a.665.665 0 00.19-.21l1.808-3.157.729-.78a2.808 2.808 0 00.541-2.976 3.055 3.055 0 00-1.212-1.425 15.651 15.651 0 019.512-3.352L15.63 2.821l-4.398 1.542a.664.664 0 00-.394.373L9.611 7.714a.664.664 0 00.073.641l1.794 2.513c-.3.305-.57.64-.802 1-.131.186-.255.362-.34.46l-.223.251a6.216 6.216 0 00-1.068 1.483 3.958 3.958 0 00.329 4 3.73 3.73 0 003.52 1.511c.218-.03.435-.073.648-.13.57-.142.75-.155.932.016.09.08.098.098.096.38-.009.222.011.443.06.659a2.1 2.1 0 00.56.917c.094.091.175.194.242.307a1.653 1.653 0 01-.08 1.373l-.052.16a3.728 3.728 0 00.488 2.666c.12.264.233.513.307.734.597 1.772 1.043 2.178 1.404 2.341.182.082.38.124.58.123a3.714 3.714 0 002.416-1.453c.218-.281.36-.614.41-.967a1.06 1.06 0 01.085-.297c.063-.1.137-.194.219-.28.248-.255.434-.563.543-.902.078-.275.234-.521.45-.708l.147-.16a2.13 2.13 0 00.416-2.477c-.203-.655.152-1.074 1.01-1.874.393-.34.746-.72 1.056-1.136a1.434 1.434 0 00.28-1.33c-.24-.558-.85-.65-1.34-.726a2.2 2.2 0 01-.58-.136 3.141 3.141 0 01-.907-1.372l-.144-.32c-.087-.185-.172-.408-.264-.642a5.57 5.57 0 00-.982-1.829 4.243 4.243 0 00-1.906-.846 8.306 8.306 0 01-.602-.177.663.663 0 00-.382-.024 1.723 1.723 0 00-.707.293.824.824 0 00-.237.321 7.598 7.598 0 01-.783-.476l-.013-.01a.942.942 0 00-.06-.641c-.37-.785-1.604-.722-1.844-.703-.138.011-.313.018-.498.024-.29.01-.61.022-.928.058l.016-.046a1.698 1.698 0 011.595-1.123h.378a.664.664 0 000-1.328h-.378a3.032 3.032 0 00-2.567 1.433l-.995-1.385.97-2.362 4.298-1.507a.664.664 0 00.3-.212l1.91-2.397a15.663 15.663 0 0112.11 7.762 15.498 15.498 0 011.565 3.802l-.281.251a1.776 1.776 0 00-.592 1.291v.016l-.459-1.261a1.658 1.658 0 00-.299-.513l-.818-.958a1.666 1.666 0 00-1.268-.584h-1a.962.962 0 00-.803 1.496l.1.152a7.36 7.36 0 01-2.192 1.302l-1.37-2.631v-.587a.664.664 0 00-.206-.481l-1.236-1.18a.665.665 0 00-.241-.146l-1.113-.39a.664.664 0 10-.44 1.252l.978.344.93.884v.466c0 .107.025.212.075.307l1.718 3.29a.664.664 0 00.819.316l.5-.185a8.692 8.692 0 003.117-1.995.665.665 0 00.08-.838l-.035-.053h.32a.337.337 0 01.258.119l.819.958c.026.03.047.066.06.104l.904 2.487a.663.663 0 001.094.24l.43-.43c.272-.274.462-.62.548-.998a15.723 15.723 0 01-5.84 14.303.665.665 0 10.82 1.044 17.003 17.003 0 004.21-21.862l-.002.004zM3.133 18.773l2.739 2.086c.08.061.174.103.274.122l1.651.321a.739.739 0 01.562.954 2.053 2.053 0 000 1.284l.21.647a.739.739 0 01-.474.93l-.66.214a.664.664 0 00-.447.507l-.531 2.774a15.848 15.848 0 01-3.026-3.77 15.588 15.588 0 01-1.93-5.532l1.632-.537zm3.87-10.59l-.78.837a.667.667 0 00-.091.122l-1.775 3.096-1.576 1.127a.664.664 0 00-.16.914l.589.865c-.34.05-.642.092-.848.115l-.124-.115a41.13 41.13 0 00-.704-.629 15.699 15.699 0 014.678-8.884 1.727 1.727 0 011.076.985 1.474 1.474 0 01-.284 1.564v.003zm5.416 3.63a4.26 4.26 0 011.486-.21c.201-.006.391-.013.561-.027a1.81 1.81 0 01.284 0 .664.664 0 00.305.826c.125.067.298.182.482.305a3.828 3.828 0 001.66.773 1.103 1.103 0 00.903-.376l.028-.028a.711.711 0 00.178-.218c.106.031.217.061.332.092.45.091.883.252 1.284.476.312.422.552.894.708 1.396.1.258.194.502.3.728.046.097.09.197.136.299a4.148 4.148 0 001.39 1.937c.34.19.717.304 1.105.337l.144.022c-.252.32-.534.616-.842.883-.822.765-1.845 1.718-1.374 3.239.222.718.232.796-.126 1.185l-.136.146c-.353.332-.611.75-.748 1.215-.055.16-.148.306-.27.422-.141.15-.266.316-.372.492-.121.22-.202.458-.241.706a.814.814 0 01-.139.389 3.872 3.872 0 01-.838.741c-.162.124-.354.201-.557.222-.331-.472-.574-1-.716-1.56-.095-.284-.228-.576-.357-.86a2.848 2.848 0 01-.433-1.707l.05-.153a2.901 2.901 0 00.044-2.299 2.395 2.395 0 00-.481-.69 1.233 1.233 0 01-.254-.336 1.435 1.435 0 01-.021-.336 1.648 1.648 0 00-.516-1.36 2.139 2.139 0 00-2.16-.336c-.158.043-.319.077-.481.1a2.386 2.386 0 01-2.287-.962 2.63 2.63 0 01-.206-2.659c.229-.428.519-.821.86-1.167.08-.086.155-.174.233-.264.129-.149.272-.351.422-.561.19-.299.41-.576.66-.826v.003z"/><path d="M27.227 22.86l-.321-1.204a.664.664 0 00-1.226-.146c-.073.134-.138.276-.201.414a2.853 2.853 0 01-.332.602 1.467 1.467 0 01-.39.231 1.825 1.825 0 00-1.106 1.075 1.945 1.945 0 00-.044.937.603.603 0 01-.017.392l-.006.015a2.236 2.236 0 00-.053 2.205 1.383 1.383 0 001.128.704c.06 0 .12-.005.178-.014.677-.111 1.186-.816 1.604-2.219l.782-2.633a.664.664 0 00.004-.36zm-2.06 2.614a4.028 4.028 0 01-.508 1.197 1.022 1.022 0 01-.04-.055c-.127-.18.062-.626.188-.92l.006-.016c.148-.35.186-.735.11-1.107a.697.697 0 010-.344c.025-.08.18-.16.416-.276.104-.051.218-.105.334-.173l-.507 1.694zM17.927 7.887l-.045-.016a.665.665 0 10-.44 1.253l.046.016a.664.664 0 10.44-1.253z"/></svg><svg fill-rule="evenodd" clip-rule="evenodd" viewBox="0 0 24 24" id="eye-hidden" xmlns="http://www.w3.org/2000/svg"><path d="M8.137 15.147A4.912 4.912 0 016.991 12c0-2.76 2.241-5 5-5 1.201 0 2.291.435 3.148 1.145l1.897-1.897C15.595 5.51 13.914 5 12.001 5 5.886 5 1.976 10.355 1.159 11.584c.529.834 2.379 3.527 5.113 5.428l1.865-1.865zm6.294-6.294A3.925 3.925 0 0011.991 8c-2.207 0-4 1.792-4 4 0 .923.324 1.765.854 2.439l5.586-5.586zm7.56-6.146L2.699 22l-.708-.707 3.548-3.548c-2.298-1.612-4.234-3.885-5.548-6.169C2.409 7.473 6.934 4 12.001 4c2.065 0 4.021.566 5.782 1.501L21.284 2l.707.707zm-2.465 3.879l-.734.734c2.236 1.619 3.628 3.604 4.061 4.274C22.114 12.897 18.307 19 12.001 19c-1.425 0-2.749-.368-3.951-.938l-.748.748c1.475.742 3.057 1.19 4.699 1.19 5.274 0 9.758-4.006 11.999-8.436a16.217 16.217 0 00-4.474-4.978zM15.991 12c0-.554-.113-1.082-.317-1.562l.734-.734c.361.69.583 1.464.583 2.296 0 2.759-2.24 5-5 5a4.943 4.943 0 01-2.295-.583l.734-.735A4.001 4.001 0 0015.991 12z"/></svg><svg fill-rule="evenodd" clip-rule="evenodd" viewBox="0 0 24 24" id="eye-show" xmlns="http://www.w3.org/2000/svg"><path d="M12.01 20C6.945 20 2.424 15.789 0 11.576 2.418 7.473 6.943 4 12.01 4c5.135 0 9.635 3.453 11.999 7.564C21.768 15.994 17.283 20 12.01 20zM1.168 11.584C2.011 12.915 6.186 19 12.01 19c6.305 0 10.112-6.103 10.851-7.405C22.089 10.397 18.255 5 12.01 5 5.894 5 1.985 10.355 1.168 11.584zM12 7c2.76 0 5 2.24 5 5s-2.24 5-5 5-5-2.24-5-5 2.24-5 5-5zm0 1c2.208 0 4 1.792 4 4s-1.792 4-4 4-4-1.792-4-4 1.792-4 4-4z"/></svg><svg fill="none" viewBox="0 0 6 10" id="facebook" xmlns="http://www.w3.org/2000/svg"><path d="M3.39 10V5.439h1.538l.23-1.778H3.39V2.526c0-.515.143-.866.886-.866h.946V.07C5.058.048 4.496 0 3.842 0 2.478 0 1.543.828 1.543 2.35v1.31H0V5.44h1.543V10H3.39z" fill="#3B5998"/></svg><svg viewBox="0 0 30 30" id="facebook-share" xmlns="http://www.w3.org/2000/svg"><path d="M30 15c0-8.285-6.715-15-15-15S0 6.715 0 15s6.715 15 15 15c.088 0 .176 0 .264-.006V18.322H12.04v-3.756h3.223v-2.765c0-3.205 1.957-4.951 4.816-4.951 1.371 0 2.549.1 2.889.146v3.352H21c-1.553 0-1.857.738-1.857 1.822v2.39h3.72l-.486 3.756h-3.234V29.42C25.413 27.62 30 21.85 30 15z"/></svg><svg viewBox="0 0 17 8" id="filter-icon" xmlns="http://www.w3.org/2000/svg"><path d="M8.5 6.667A2.833 2.833 0 108.5 1a2.833 2.833 0 000 5.667zM.744 3.833H4.96M12.049 3.833h4.214"/></svg><svg fill="none" viewBox="0 0 13 13" id="google" xmlns="http://www.w3.org/2000/svg"><g clip-path="url(#baclip0_6_17483)" fill="#4285F4"><path d="M12.733 6.513a7.34 7.34 0 00-.112-1.294H6.494v2.452h3.509a2.944 2.944 0 01-1.299 1.935v1.59h2.094c1.229-1.108 1.935-2.746 1.935-4.683z"/><path d="M6.494 12.734c1.752 0 3.23-.564 4.306-1.537L8.707 9.606c-.583.388-1.335.608-2.21.608-1.695 0-3.132-1.12-3.647-2.627H.69v1.64c1.102 2.15 3.348 3.507 5.804 3.507z"/><path d="M2.847 7.587a3.742 3.742 0 010-2.438V3.51H.689a6.26 6.26 0 000 5.718l2.158-1.64z"/><path d="M6.494 2.52a3.57 3.57 0 012.492.954l1.854-1.818A6.313 6.313 0 006.495 0C4.038 0 1.792 1.357.69 3.51l2.158 1.64c.513-1.51 1.953-2.63 3.647-2.63z"/></g><defs><clipPath id="baclip0_6_17483"><path fill="#fff" d="M0 0h12.734v12.734H0z"/></clipPath></defs></svg><svg viewBox="0 0 30 30" id="google-share" xmlns="http://www.w3.org/2000/svg"><path fill-rule="evenodd" clip-rule="evenodd" d="M15 0C6.716 0 0 6.716 0 15c0 8.284 6.716 15 15 15 8.284 0 15-6.716 15-15 0-8.284-6.716-15-15-15zm.903 16.614l-.79-.595-.013-.011c-.24-.193-.556-.448-.556-.907 0-.453.304-.746.581-1.014l.034-.032c.919-.704 1.837-1.453 1.837-3.031 0-1.623-1.05-2.476-1.553-2.881H16.8l1.425-.87h-4.316c-1.184 0-2.89.272-4.14 1.275-.942.79-1.401 1.879-1.401 2.859 0 1.664 1.314 3.351 3.636 3.351.218 0 .458-.02.7-.042l-.034.077c-.096.224-.184.43-.184.755 0 .633.32 1.031.618 1.402l.039.048-.065.004c-1.001.067-2.792.186-4.12.98-1.292.747-1.686 1.834-1.686 2.602 0 1.58 1.532 3.052 4.71 3.052 3.766 0 5.76-2.026 5.76-4.032 0-1.474-.875-2.2-1.84-2.99zm-2.87-2.453c-1.884 0-2.737-2.369-2.737-3.798 0-.557.108-1.13.48-1.58.352-.427.964-.704 1.535-.704 1.817 0 2.76 2.39 2.76 3.927 0 .384-.044 1.066-.548 1.558a2.274 2.274 0 01-1.49.597zm.022 8.581c-2.343 0-3.854-1.09-3.854-2.605s1.4-2.028 1.883-2.197c.92-.301 2.103-.343 2.3-.343.219 0 .328 0 .503.021 1.665 1.153 2.389 1.728 2.389 2.819 0 1.32-1.118 2.305-3.22 2.305zm8.379-8.614v-2.134H20.35v2.134H18.16v1.066h2.191v2.146h1.084v-2.146h2.202v-1.066h-2.202z"/></svg><svg fill="none" viewBox="0 0 70 52" id="invest" xmlns="http://www.w3.org/2000/svg"><path d="M19.363 18.163c-.132.157-.29.283-.474.379a1.268 1.268 0 01-.6.143c-.286 0-.536-.07-.75-.211a1.383 1.383 0 01-.49-.595 2.05 2.05 0 01-.174-.851c0-.333.063-.633.188-.9.127-.266.306-.47.538-.61.232-.142.502-.213.811-.213.49 0 .877.185 1.159.554.284.367.426.868.426 1.504v.184c0 .969-.19 1.676-.573 2.123-.381.444-.957.672-1.728.683h-.122v-.533h.133c.52-.009.92-.144 1.2-.406.279-.265.431-.682.456-1.251zm-.971 0a.964.964 0 00.582-.195c.18-.13.31-.29.392-.482v-.253c0-.415-.09-.752-.269-1.012-.18-.26-.407-.39-.681-.39-.278 0-.5.108-.669.322-.168.212-.252.492-.252.84 0 .34.081.62.242.841a.777.777 0 00.655.329zM23.978 18.227c0 .741-.126 1.291-.379 1.651-.252.36-.646.54-1.182.54-.53 0-.922-.175-1.176-.526-.255-.353-.386-.88-.395-1.579v-.844c0-.732.126-1.275.378-1.63.252-.356.648-.534 1.186-.534.534 0 .927.172 1.18.516.251.342.38.87.388 1.586v.82zm-.63-.864c0-.536-.076-.925-.226-1.17-.15-.245-.387-.368-.712-.368-.323 0-.558.122-.706.365-.147.244-.223.62-.228 1.125v1.012c0 .537.077.935.232 1.192.157.256.393.383.709.383.311 0 .542-.12.692-.362.152-.241.231-.622.238-1.142v-1.035zM24.731 16.33c0-.298.094-.544.283-.738a.984.984 0 01.733-.29c.302 0 .546.098.732.294.189.193.283.445.283.755v.243c0 .3-.095.547-.286.738a.977.977 0 01-.723.284c-.295 0-.54-.095-.732-.284-.194-.191-.29-.445-.29-.762v-.24zm.47.264c0 .177.05.325.15.44.1.115.234.172.402.172.162 0 .291-.056.389-.168.1-.112.15-.264.15-.458v-.25a.662.662 0 00-.147-.44.494.494 0 00-.398-.175.494.494 0 00-.4.175.683.683 0 00-.146.454v.25zm1.946 2.536c0-.299.095-.544.283-.735a.984.984 0 01.733-.29.99.99 0 01.733.287c.19.191.286.445.286.762v.242c0 .299-.095.545-.286.739a.975.975 0 01-.726.287c-.296 0-.54-.095-.733-.284-.193-.191-.29-.445-.29-.762v-.246zm.47.267c0 .18.05.328.15.444.1.114.235.17.403.17a.495.495 0 00.392-.167c.098-.114.146-.268.146-.461v-.253c0-.18-.05-.327-.15-.441a.494.494 0 00-.395-.17.507.507 0 00-.395.17c-.1.112-.15.263-.15.455v.253zm-1.72.577l-.358-.226 2.423-3.89.358.226-2.423 3.89z" fill="#406AFF"/><rect x=".5" y=".5" width="69" height="51" rx="7.5" stroke="#406AFF"/><rect x="10.223" y="9.6" width="24.278" height="16.55" rx="4.5" stroke="#406AFF"/><path d="M48.992 17.097l1.888-1.893 1.889 1.894 1.098-1.102L50.88 13l-2.987 2.995 1.099 1.102zm-2.973.778l1.098-1.102 1.099 1.102-1.099 1.102-1.098-1.102zm2.973.778l1.888 1.893 1.889-1.894 1.099 1.101-2.988 2.997-2.987-2.995-.002-.002 1.1-1.1zm4.552-.778l1.098-1.101 1.099 1.101-1.099 1.102-1.098-1.102z" fill="#406AFF"/><path d="M51.993 17.874l-1.114-1.118-.824.827-.095.095-.195.195-.001.002.001.002 1.114 1.117 1.115-1.119z" fill="#406AFF"/><rect y=".708" width="4.193" height="4.193" rx="1.5" transform="rotate(45.082 -36.372 34.71)" stroke="#406AFF"/><rect y=".708" width="4.193" height="4.193" rx="1.5" transform="rotate(45.082 -25.566 60.744)" stroke="#406AFF"/><rect y=".708" width="4.193" height="4.193" rx="1.5" transform="rotate(45.082 -14.548 87.292)" stroke="#406AFF"/><path stroke="#406AFF" d="M16.204 39.15h16.204M37.593 39.15h16.852M59.13 17.875c0 4.572-3.695 8.275-8.25 8.275s-8.25-3.703-8.25-8.275c0-4.571 3.695-8.275 8.25-8.275s8.25 3.704 8.25 8.275z"/></svg><svg fill="none" viewBox="0 0 17 11" id="letter" xmlns="http://www.w3.org/2000/svg"><path d="M16.889 1.037l-4.83 4.637 4.71 4.526c.143-.235.23-.505.23-.797V1.597c0-.198-.042-.385-.11-.56zM15.337 0H1.663C1.387 0 1.13.071.9.186l7.26 6.97c.211.203.577.203.784 0L16.17.224A1.695 1.695 0 0015.337 0zM.14.96a1.53 1.53 0 00-.14.637v7.806c0 .287.085.553.224.786l4.761-4.575L.14.96z" fill="#8190A6"/><path d="M11.271 6.43l-1.54 1.483a1.723 1.723 0 01-2.355 0L5.772 6.369l-4.71 4.519c.187.07.389.112.6.112h13.675c.207 0 .403-.041.586-.108L11.271 6.43z" fill="#8190A6"/></svg><svg viewBox="0 0 16 15" id="like" xmlns="http://www.w3.org/2000/svg"><path d="M13.92 2.56a3.69 3.69 0 00-1.195-.784 3.74 3.74 0 00-4.015.785L8 3.259l-.71-.698A3.718 3.718 0 004.685 1.5c-.978 0-1.915.38-2.606 1.06A3.59 3.59 0 001 5.12c0 .96.388 1.882 1.08 2.56l.71.698L8 13.5l5.21-5.12.71-.698c.343-.337.614-.736.8-1.175a3.565 3.565 0 000-2.771 3.617 3.617 0 00-.8-1.175z"/></svg><svg viewBox="0 0 30 30" id="linkedin-share" xmlns="http://www.w3.org/2000/svg"><path d="M15 0C6.717 0 0 6.717 0 15c0 8.283 6.717 15 15 15 8.283 0 15-6.717 15-15 0-8.283-6.717-15-15-15zm-4.359 22.676H6.988v-10.99h3.653v10.99zM8.815 10.184H8.79c-1.226 0-2.019-.844-2.019-1.898 0-1.079.817-1.9 2.067-1.9 1.25 0 2.019.821 2.043 1.9 0 1.054-.793 1.898-2.067 1.898zm14.999 12.492H20.16v-5.88c0-1.478-.529-2.485-1.85-2.485-1.01 0-1.61.68-1.875 1.336-.097.234-.12.563-.12.891v6.138h-3.653s.048-9.96 0-10.99h3.653v1.555c.485-.749 1.354-1.814 3.292-1.814 2.404 0 4.206 1.571 4.206 4.947v6.302z"/></svg><svg viewBox="0 0 15 16" id="log-out" xmlns="http://www.w3.org/2000/svg"><path fill-rule="evenodd" clip-rule="evenodd" d="M8.644 15a.3.3 0 00.3.3h3.612c.954 0 1.744-.752 1.744-1.7V2.4c0-.948-.79-1.7-1.744-1.7H8.944a.3.3 0 000 .6h3.612c.64 0 1.144.501 1.144 1.1v11.2c0 .599-.503 1.1-1.144 1.1H8.944a.3.3 0 00-.3.3z"/><path fill-rule="evenodd" clip-rule="evenodd" d="M6.562 11.009a.3.3 0 00.425.006l2.889-2.8a.3.3 0 000-.43l-2.89-2.8a.3.3 0 10-.417.43L9.236 8l-2.667 2.585a.3.3 0 00-.007.424z"/><path fill-rule="evenodd" clip-rule="evenodd" d="M.7 8a.3.3 0 00.3.3h8.667a.3.3 0 100-.6H1a.3.3 0 00-.3.3z"/><path fill-rule="evenodd" clip-rule="evenodd" d="M8.644 15a.3.3 0 00.3.3h3.612c.954 0 1.744-.752 1.744-1.7V2.4c0-.948-.79-1.7-1.744-1.7H8.944a.3.3 0 000 .6h3.612c.64 0 1.144.501 1.144 1.1v11.2c0 .599-.503 1.1-1.144 1.1H8.944a.3.3 0 00-.3.3z"/><path fill-rule="evenodd" clip-rule="evenodd" d="M6.562 11.009a.3.3 0 00.425.006l2.889-2.8a.3.3 0 000-.43l-2.89-2.8a.3.3 0 10-.417.43L9.236 8l-2.667 2.585a.3.3 0 00-.007.424z"/><path fill-rule="evenodd" clip-rule="evenodd" d="M.7 8a.3.3 0 00.3.3h8.667a.3.3 0 100-.6H1a.3.3 0 00-.3.3z"/></svg><svg viewBox="0 0 30 30" id="phone-share" xmlns="http://www.w3.org/2000/svg"><mask id="bha" style="mask-type:alpha" maskUnits="userSpaceOnUse" x="0" y="0" width="30" height="30"><circle cx="15" cy="15" r="15" fill="#C4C4C4"/></mask><g mask="url(#bha)"><path d="M15.004 0h-.008C6.726 0 0 6.728 0 15c0 3.281 1.058 6.323 2.856 8.792l1.43 2.28 2.466 1.45A14.87 14.87 0 0015.004 30C23.274 30 30 23.27 30 15S23.274 0 15.004 0z"/><path d="M22.434 20.656c-.333.955-1.656 1.747-2.711 1.979-.722.155-1.665.28-4.84-1.055-4.06-1.707-6.675-5.893-6.879-6.164-.195-.272-1.64-2.217-1.64-4.228 0-2.012 1.006-2.991 1.412-3.412.333-.345.884-.503 1.413-.503.17 0 .325.01.463.016.406.018.61.042.877.692.334.815 1.145 2.826 1.242 3.033.098.207.197.487.059.759-.13.28-.244.405-.448.643-.203.238-.397.42-.6.676-.187.223-.398.461-.163.873.235.403 1.047 1.747 2.242 2.826 1.542 1.393 2.793 1.838 3.24 2.027.333.14.73.107.974-.155.31-.339.69-.9 1.08-1.451.276-.396.625-.445.99-.305.374.131 2.348 1.121 2.754 1.326.406.207.674.305.772.479.097.173.097.988-.237 1.944z" fill="#FAFAFA"/></g></svg><svg viewBox="0 0 24 19" id="photo" xmlns="http://www.w3.org/2000/svg"><path d="M24 5.963c0-.695-.295-1.363-.82-1.855a2.9 2.9 0 00-1.981-.768h-3.4l-.362-1.354a2.616 2.616 0 00-.994-1.43A2.925 2.925 0 0014.72 0H9.28c-.624 0-1.23.195-1.723.555-.492.36-.842.864-.994 1.431L6.202 3.34h-3.4a2.9 2.9 0 00-1.982.768A2.542 2.542 0 000 5.963v10.413c0 .345.072.686.213 1.004.141.319.347.608.607.852.26.243.57.436.91.568.339.132.703.2 1.071.2H21.2c.368 0 .732-.068 1.072-.2.34-.132.648-.325.909-.568a2.62 2.62 0 00.607-.852c.14-.318.213-.66.213-1.004V5.963zm-1.12 10.413c0 .418-.177.818-.493 1.113a1.74 1.74 0 01-1.188.462H2.8a1.74 1.74 0 01-1.188-.462 1.525 1.525 0 01-.493-1.113V5.963c0-.417.178-.817.493-1.113A1.74 1.74 0 012.8 4.39H6.64c.125 0 .246-.04.345-.112a.523.523 0 00.198-.288l.468-1.75a1.57 1.57 0 01.596-.858c.296-.215.66-.333 1.034-.333h5.44c.374 0 .738.118 1.034.333.295.216.505.518.596.859l.468 1.75c.03.113.1.213.199.285.098.072.22.11.344.11H21.2c.446 0 .873.166 1.188.462.316.295.493.695.493 1.113v10.415z"/><path d="M12 5.096a6.17 6.17 0 00-3.268.928 5.604 5.604 0 00-2.166 2.473 5.186 5.186 0 00-.335 3.183 5.412 5.412 0 001.61 2.821 6.016 6.016 0 003.012 1.508 6.253 6.253 0 003.399-.314 5.816 5.816 0 002.64-2.029 5.265 5.265 0 00.99-3.06c-.004-1.46-.626-2.86-1.728-3.891-1.102-1.032-2.595-1.614-4.153-1.62zm0 9.993a4.994 4.994 0 01-2.645-.752 4.537 4.537 0 01-1.754-2.001 4.198 4.198 0 01-.27-2.577 4.38 4.38 0 011.302-2.284 4.87 4.87 0 012.439-1.22 5.062 5.062 0 012.75.253c.87.338 1.615.91 2.138 1.643.523.733.802 1.596.802 2.478-.004 1.181-.507 2.314-1.4 3.149a4.946 4.946 0 01-3.361 1.31z"/></svg><svg viewBox="0 0 34 34" id="pizza" xmlns="http://www.w3.org/2000/svg"><path d="M29.766 13.436a.497.497 0 00-.38-.028l-13.193 4.398L20.59 4.613a.498.498 0 00-.315-.63A15.402 15.402 0 00.103 20.376 15.405 15.405 0 0023.501 31.7a15.404 15.404 0 006.514-17.975.498.498 0 00-.25-.288zM25.589 28.78a14.406 14.406 0 11-6.106-24.002l-.359 1.076A13.27 13.27 0 002.742 22.587 13.273 13.273 0 0025.76 26.89a.498.498 0 00-.777-.622A12.278 12.278 0 1118.811 6.8l-3.878 11.637a.499.499 0 00.63.63l11.635-3.88a12.287 12.287 0 01-1.05 9.356.5.5 0 00.75.641.5.5 0 00.121-.162 13.28 13.28 0 001.127-10.154l1.076-.36A14.406 14.406 0 0125.59 28.78z"/><path d="M33.974 9.766a15.472 15.472 0 00-9.74-9.742.498.498 0 00-.628.315l-4.717 14.14a.5.5 0 00.63.63l12.118-4.04 2.022-.676a.497.497 0 00.315-.63v.003zm-2.186.204a13.218 13.218 0 00-4.528-5.997.499.499 0 10-.593.8 12.228 12.228 0 014.176 5.516l-10.69 3.564 3.562-10.696c.357.136.71.288 1.053.456a.498.498 0 00.437-.896 13.208 13.208 0 00-1.176-.507l.359-1.077a14.48 14.48 0 018.475 8.476l-1.075.36zM12.712 13.272a2.642 2.642 0 00-.08-.657.499.499 0 00-.964.249 1.628 1.628 0 11-1.17-1.171.498.498 0 00.248-.965 2.627 2.627 0 101.97 2.545l-.004-.001z"/><path d="M25.02 9.014a1.563 1.563 0 103.126 0 1.563 1.563 0 00-3.127 0zm1.562-.567a.567.567 0 110 1.132.567.567 0 010-1.132zM18.599 22.89a2.095 2.095 0 100 4.19 2.095 2.095 0 000-4.19zm0 3.194a1.099 1.099 0 111.098-1.099A1.1 1.1 0 0118.6 26.08v.004zM10.614 20.226a2.095 2.095 0 100 4.189 2.095 2.095 0 000-4.19zm0 3.193a1.098 1.098 0 110-2.197 1.098 1.098 0 010 2.197zM24.95 19.656a1.562 1.562 0 10-3.124 0 1.562 1.562 0 003.125 0zm-1.562.567a.567.567 0 11.402-.164.567.567 0 01-.402.167v-.003zM13.808 26.081a1.562 1.562 0 100 3.124 1.562 1.562 0 000-3.124zm0 2.13a.567.567 0 110-1.135.567.567 0 010 1.134zM23.612 9.1a.498.498 0 00-.669.224l-.532 1.064a.499.499 0 10.89.445l.533-1.064a.498.498 0 00-.222-.669zM25.338 5.467l-.533-.533a.498.498 0 00-.704.705l.532.532a.498.498 0 10.705-.704zM13.054 9.459l1.064.532a.498.498 0 00.445-.89L13.5 8.567a.498.498 0 00-.445.89zM16.469 9.511a.498.498 0 00.498-.498v-.532a.498.498 0 00-.996 0v.532a.498.498 0 00.498.498zM5.07 16.91l1.063.533a.498.498 0 00.446-.89l-1.064-.533a.498.498 0 00-.446.89zM8.52 18.062v.533a.498.498 0 00.996 0v-.533a.498.498 0 00-.996 0zM14.375 13.272v.532a.498.498 0 00.996 0v-.532a.498.498 0 10-.996 0zM12.03 17.178a.498.498 0 10-.704.704l.532.533a.498.498 0 00.704-.705l-.532-.532zM6.176 19.84a.498.498 0 00-.705 0l-.532.532a.498.498 0 10.704.705l.533-.533a.498.498 0 000-.704zM6.89 22.89h-.533a.498.498 0 000 .997h.533a.498.498 0 000-.996zM15.585 20.905l-.533.532a.498.498 0 10.705.705l.532-.533a.498.498 0 00-.704-.704zM13.809 23.952a.498.498 0 000 .996h.532a.498.498 0 000-.996h-.532zM10.084 26.081a.498.498 0 00-.498.498v.533a.498.498 0 10.996 0v-.533a.499.499 0 00-.498-.498zM18.064 28.21h-.533a.498.498 0 000 .996h.533a.498.498 0 000-.997zM19.66 21.754a.498.498 0 00.498-.498v-1.064a.498.498 0 10-.996 0v1.064a.498.498 0 00.498.498zM23.21 23.566a.498.498 0 10-.705.704l.533.533a.498.498 0 00.704-.705l-.532-.532zM25.519 21.823h-.533a.498.498 0 000 .996h.533a.498.498 0 100-.996zM26.549 18.063v-.533a.499.499 0 00-.996 0v.533a.498.498 0 10.996 0z"/></svg><svg viewBox="0 0 9 9" id="plus" xmlns="http://www.w3.org/2000/svg"><path fill-rule="evenodd" clip-rule="evenodd" d="M4.5 0c.439 0 .794.356.794.794v7.412a.794.794 0 01-1.588 0V.794C3.706.356 4.062 0 4.5 0z"/><path fill-rule="evenodd" clip-rule="evenodd" d="M0 4.5c0-.438.356-.794.794-.794h7.412a.794.794 0 010 1.588H.794A.794.794 0 010 4.5z"/></svg><svg viewBox="0 0 7 10" id="question" xmlns="http://www.w3.org/2000/svg"><path fill-rule="evenodd" clip-rule="evenodd" d="M3.74 1.604a2 2 0 00-1.266.214 1.773 1.773 0 00-.818.92c-.156.412-.643.628-1.087.484-.443-.145-.677-.596-.52-1.007A3.385 3.385 0 011.61.457a3.818 3.818 0 012.418-.41A3.65 3.65 0 016.159 1.18c.544.599.842 1.356.841 2.14 0 1.26-1.01 2.097-1.742 2.55a7.45 7.45 0 01-1.52.708l-.03.01-.01.003-.003.001h-.002l-.27-.748.27.749c-.446.137-.93-.086-1.078-.5-.149-.413.091-.859.537-.998h.001l.015-.005.069-.023a5.705 5.705 0 001.076-.511c.63-.39.983-.815.983-1.237v-.002c0-.41-.155-.806-.44-1.12a1.912 1.912 0 00-1.116-.593zM2.644 9.21c0-.436.381-.79.851-.79h.01c.47 0 .852.354.852.79 0 .436-.382.79-.852.79h-.01c-.47 0-.851-.354-.851-.79z"/></svg><svg viewBox="0 0 34 34" id="rocket" xmlns="http://www.w3.org/2000/svg"><path d="M28.515 13.192V11.96A17.509 17.509 0 0024.693 1.06a2.83 2.83 0 00-4.42 0A17.506 17.506 0 0016.45 11.96v1.233a6.04 6.04 0 00-5.483 6.005v3.84h1.371l.165-.22a4.959 4.959 0 013.947-1.977h1.562c.24.331.506.644.794.936l.16.159h1.323v1.142a3.279 3.279 0 00-2.647 3.997 2.76 2.76 0 00-1.674 1.992H2.742a1.647 1.647 0 01-1.645-1.648V6.032H0v21.386a2.745 2.745 0 002.742 2.742h13.216a2.742 2.742 0 003.175 2.15 4.17 4.17 0 006.705 0 2.738 2.738 0 001.975-4.992 3.278 3.278 0 00-3.133-4.284v-1.1h1.321l.159-.159a8.09 8.09 0 00.795-.936h1.561a4.96 4.96 0 013.949 1.975l.164.218H34v-3.837a6.04 6.04 0 00-5.483-6.005l-.002.002zM21.13 1.748a1.734 1.734 0 012.71 0c.424.539.813 1.103 1.166 1.691a3.822 3.822 0 01-5.042 0 16.26 16.26 0 011.166-1.69zm-3.582 10.21A16.394 16.394 0 0119.417 4.4a4.882 4.882 0 006.133 0 16.396 16.396 0 011.866 7.559v4.132c-.002.49-.056.979-.16 1.458h-9.55a6.997 6.997 0 01-.16-1.458l.002-4.132zm-1.096 7.79a6.062 6.062 0 00-4.388 1.892v-2.445a4.942 4.942 0 014.388-4.904v1.801c-.001 1.27.3 2.521.879 3.651l-.88.004zm8.225 4.387a2.17 2.17 0 012.103 2.784 2.656 2.656 0 00-2.817 1.313l.946.556a1.627 1.627 0 011.412-.819 1.647 1.647 0 011.644 1.645 1.623 1.623 0 01-2.21 1.539l-.482-.179-.21.47a2.78 2.78 0 01-2.58 1.462c-1.51 0-2.742-.984-2.742-2.193h-1.097c.002.182.02.364.057.543-.019 0-.038.005-.057.005a1.642 1.642 0 01-.584-3.179 3.287 3.287 0 002.781 1.534v-1.097a2.194 2.194 0 010-4.387h.549v-2.198h2.193v2.194l1.094.007zm.865-3.29h-6.12a6.914 6.914 0 01-1.393-2.194h8.91a6.919 6.919 0 01-1.394 2.194h-.003zm7.36.794a6.065 6.065 0 00-4.387-1.893h-.879c.58-1.13.88-2.381.88-3.65V14.29a4.94 4.94 0 014.387 4.904v2.444z"/><path d="M8.773 26.873H9.87v1.097H8.773v-1.096zM3.29 26.873h1.096v1.097H3.289v-1.096zM3.29 20.84v4.936h1.096V20.84l.658.875.874-.659-2.084-2.781-2.08 2.785.874.658.661-.878zM25.227 15.356h1.096v1.097h-1.096v-1.097zM23.031 15.356h1.097v1.097h-1.097v-1.097zM20.838 15.356h1.097v1.097h-1.097v-1.097zM18.645 15.356h1.096v1.097h-1.096v-1.097zM9.87 15.357l.658.874.874-.658-2.083-2.782-2.08 2.785.873.658.658-.874v10.416h1.097l.003-10.42zM22.483 14.258a3.839 3.839 0 100-7.677 3.839 3.839 0 000 7.677zm0-6.58a2.741 2.741 0 110 5.482 2.741 2.741 0 010-5.483z"/><path d="M22.483 12.065a1.645 1.645 0 100-3.29 1.645 1.645 0 000 3.29zm0-2.193a.548.548 0 110 1.095.548.548 0 010-1.095zM3.837 17.004a1.647 1.647 0 001.645-1.645 1.618 1.618 0 00-.165-.705l3.299-3.299c.22.107.46.163.705.165a1.647 1.647 0 001.645-1.645 1.617 1.617 0 00-.166-.705L13 6.967a1.63 1.63 0 002.224-.85 1.645 1.645 0 10-3.164-.63c0 .244.057.485.165.705l-2.202 2.202a1.63 1.63 0 00-.705-.165 1.647 1.647 0 00-1.645 1.646c.001.244.058.485.166.704l-3.296 3.3a1.63 1.63 0 00-1.868.317 1.645 1.645 0 001.163 2.808zM13.71 4.939a.548.548 0 110 1.096.548.548 0 010-1.096zM9.32 9.325a.548.548 0 110 1.097.548.548 0 010-1.097zM3.838 14.81zM22.647 3.179a.397.397 0 100-.795.397.397 0 000 .795z"/></svg><svg fill="none" viewBox="0 0 13 13" id="search" xmlns="http://www.w3.org/2000/svg"><path d="M5.725 0A5.731 5.731 0 000 5.725a5.731 5.731 0 005.725 5.725 5.731 5.731 0 005.725-5.725A5.731 5.731 0 005.725 0zm0 10.393a4.673 4.673 0 01-4.668-4.668 4.673 4.673 0 014.668-4.668 4.673 4.673 0 014.668 4.668 4.673 4.673 0 01-4.668 4.668z" fill="#8C97A7"/><path d="M12.845 12.098l-3.03-3.03a.528.528 0 10-.747.747l3.03 3.03a.527.527 0 00.747 0 .528.528 0 000-.747z" fill="#8C97A7"/></svg><svg fill="none" viewBox="0 0 11 11" id="search-icon" xmlns="http://www.w3.org/2000/svg"><path d="M4.844 0A4.85 4.85 0 000 4.844a4.85 4.85 0 004.844 4.844 4.85 4.85 0 004.844-4.844A4.85 4.85 0 004.844 0zm0 8.794a3.954 3.954 0 01-3.95-3.95 3.954 3.954 0 013.95-3.95 3.954 3.954 0 013.95 3.95 3.954 3.954 0 01-3.95 3.95z" fill="#728094"/><path d="M10.87 10.237L8.306 7.673a.447.447 0 10-.632.632l2.564 2.564a.446.446 0 00.632 0 .447.447 0 000-.632z" fill="#728094"/></svg><svg fill="none" viewBox="0 0 27 23" id="settings" xmlns="http://www.w3.org/2000/svg"><path d="M1.524 4.433h17.454" stroke="#787F94" stroke-linecap="round"/><path d="M22.828 8a3.5 3.5 0 100-7 3.5 3.5 0 000 7z" stroke="#787F94"/><path d="M25.378 18.395H7.924" stroke="#787F94" stroke-linecap="round"/><path d="M4.5 21.961a3.5 3.5 0 100-7 3.5 3.5 0 000 7z" stroke="#787F94"/></svg><svg viewBox="0 0 18 18" id="share" xmlns="http://www.w3.org/2000/svg"><path d="M3 9v5.6c0 .371.158.727.44.99.28.262.662.41 1.06.41h9c.398 0 .78-.148 1.06-.41.282-.263.44-.619.44-.99V9M12 5L9 2 6 5M9 2v10"/></svg><svg viewBox="0 0 34 34" id="terminal" xmlns="http://www.w3.org/2000/svg"><path d="M30.823 4.731h-6.108V2.733a.497.497 0 00-.5-.519.502.502 0 00-.5.519V4.73h-2.069a.5.5 0 00-.48.498.498.498 0 00.48.498h2.07v2.11h-.375a.952.952 0 00-.95.946v5.864a.946.946 0 00.95.947h.375v3.95a.497.497 0 00.5.518.501.501 0 00.499-.518v-3.95h.375a.952.952 0 00.95-.948V8.783a.946.946 0 00-.95-.947h-.375V5.727h6.108c.577.001 1.13.23 1.539.637.408.407.637.959.638 1.534v17.046H1V7.898c0-.575.23-1.127.637-1.534a2.183 2.183 0 011.54-.637h8.756V6.7h-.374a.952.952 0 00-.95.946v5.862a.946.946 0 00.949.947h.375v4.401a.497.497 0 00.5.479.5.5 0 00.499-.479v-4.4h.374a.953.953 0 00.878-.585.944.944 0 00.073-.363V7.646a.946.946 0 00-.95-.946h-.375v-.973h2.069a.5.5 0 00.48-.498.498.498 0 00-.48-.498h-2.069v-.246a.497.497 0 00-.5-.518.501.501 0 00-.499.518v.246H3.176c-.842.001-1.65.335-2.245.929A3.165 3.165 0 000 7.898v17.545c0 .84.336 1.644.931 2.238a3.184 3.184 0 002.245.928h7.605v2.533l-1.61 1.862h-.639a.5.5 0 00-.48.498.498.498 0 00.48.498h16.89a.5.5 0 00.5-.498.497.497 0 00-.5-.498h-.594l-1.609-1.862V28.61h7.605c.842-.001 1.65-.335 2.245-.929.595-.594.93-1.399.931-2.238V7.898c0-.84-.336-1.645-.931-2.238a3.184 3.184 0 00-2.245-.929h-.001zm-5.783 9.866h-1.653V8.833h1.65v5.764h.003zM13.258 13.46h-1.65V7.696h1.65v5.764zm17.565 14.153h-10.11a.502.502 0 00-.52.498.497.497 0 00.52.498h1.507v2.22h-1.244a.5.5 0 00-.5.498.497.497 0 00.5.498h1.517l1.02 1.179H10.493l1.015-1.182h1.518a.5.5 0 00.5-.498.497.497 0 00-.5-.498H11.78V28.61h6.804a.5.5 0 00.48-.498.498.498 0 00-.48-.499H3.176a2.184 2.184 0 01-2.119-1.672h31.885a2.174 2.174 0 01-2.119 1.672z"/><path d="M27.097 13.636a.497.497 0 00.49.259.5.5 0 00.187-.057l2.3-1.237-.165.433a.499.499 0 00.834.528.499.499 0 00.1-.173l.56-1.472a.496.496 0 00-.29-.643l-1.564-.596a.501.501 0 00-.697.478.496.496 0 00.342.453l.363.138L27.3 12.96a.498.498 0 00-.202.675zM5.217 14.521a.5.5 0 00-.5.499v1.202a.946.946 0 00.95.947h.376v2.652a.497.497 0 00.5.498.5.5 0 00.5-.498v-2.652h.374a.952.952 0 00.95-.947v-5.864a.946.946 0 00-.95-.947h-.375v-.796a.497.497 0 00-.5-.498.5.5 0 00-.499.498v.796H5.67a.952.952 0 00-.95.947v2.539a.497.497 0 00.5.518.501.501 0 00.5-.518v-2.49h1.65v5.764H5.715v-1.153a.498.498 0 00-.5-.497zM17.45 13.47h.375v2.652a.497.497 0 00.5.518.501.501 0 00.5-.518V13.47h.374a.952.952 0 00.95-.947V8.617a.497.497 0 00-.5-.479.5.5 0 00-.5.479v3.857H17.5V3.455h1.65v3.039a.498.498 0 00.5.478.5.5 0 00.5-.478v-3.09a.946.946 0 00-.95-.947h-.375V.478a.498.498 0 00-.5-.478.5.5 0 00-.499.478v1.981h-.375a.952.952 0 00-.95.944v9.118a.946.946 0 00.95.946v.003zM2.952 23.364a.497.497 0 00.656.262l6.446-2.75.586 1.53a.498.498 0 00.704.26l10.649-5.725a.499.499 0 00-.474-.876L11.37 21.52l-.568-1.484a.498.498 0 00-.663-.28L3.214 22.71a.5.5 0 00-.262.654z"/></svg><svg fill="none" viewBox="0 0 11 11" id="tooltip" xmlns="http://www.w3.org/2000/svg"><path d="M4.973 6.881c0-.308.042-.554.124-.737.083-.184.246-.384.49-.602.245-.22.4-.377.466-.47.1-.141.15-.294.15-.459 0-.218-.059-.384-.176-.498-.116-.115-.286-.173-.512-.173-.216 0-.39.056-.523.17a.568.568 0 00-.196.456h-.914c.005-.41.156-.735.452-.974.298-.24.692-.359 1.18-.359.505 0 .897.119 1.178.355.284.237.425.567.425.992 0 .378-.19.75-.571 1.116l-.463.421c-.166.174-.25.428-.256.762h-.854zM4.91 7.963c0-.137.047-.247.14-.33a.532.532 0 01.376-.13.53.53 0 01.38.133c.092.086.139.195.139.327a.424.424 0 01-.136.32c-.09.086-.218.129-.383.129-.166 0-.294-.043-.384-.129a.43.43 0 01-.132-.32z" fill="#333248"/><circle cx="5.5" cy="5.5" r="5" stroke="#333248"/></svg><svg fill="none" viewBox="0 0 9 6" id="tradelize" xmlns="http://www.w3.org/2000/svg"><path d="M8 5L4.5 1 1 5" stroke="#306AFF" stroke-width="2" stroke-linecap="round" stroke-linejoin="round"/></svg><svg viewBox="0 0 34 28" id="tranding" xmlns="http://www.w3.org/2000/svg"><path fill-rule="evenodd" clip-rule="evenodd" d="M33.376.599a.55.55 0 01.024.777l-11.259 12a.55.55 0 01-.734.061L9.37 4.275l-7.958 9.087a.55.55 0 01-.828-.725l8.297-9.473a.55.55 0 01.747-.076l12.05 9.174L32.598.623A.55.55 0 0133.375.6zM2 18.45a.55.55 0 01.55.55v8a.55.55 0 11-1.1 0v-8a.55.55 0 01.55-.55zM7 14.45a.55.55 0 01.55.55v12a.55.55 0 11-1.1 0V15a.55.55 0 01.55-.55z"/><path fill-rule="evenodd" clip-rule="evenodd" d="M12 10.45a.55.55 0 01.55.55v16a.55.55 0 11-1.1 0V11a.55.55 0 01.55-.55zM17 16.45a.55.55 0 01.55.55v10a.55.55 0 11-1.1 0V17a.55.55 0 01.55-.55zM22 19.45a.55.55 0 01.55.55v7a.55.55 0 11-1.1 0v-7a.55.55 0 01.55-.55zM27 17.45a.55.55 0 01.55.55v9a.55.55 0 11-1.1 0v-9a.55.55 0 01.55-.55zM32 12.45a.55.55 0 01.55.55v14a.55.55 0 11-1.1 0V13a.55.55 0 01.55-.55z"/><circle cx="18" cy="9" r="9" fill="#fff"/><path fill-rule="evenodd" clip-rule="evenodd" d="M18 16a7 7 0 100-14 7 7 0 000 14zm0 1a8 8 0 100-16 8 8 0 000 16z"/><path fill-rule="evenodd" clip-rule="evenodd" d="M14.13 10.13L13 9l1.13-1.13L15.26 9l-1.13 1.13zM16.058 8.2l.086-.085L18 6.26l1.943 1.943 1.13-1.13L18 4 14.929 7.07l1.129 1.13zm5.015 2.726l-1.13-1.13-.087.086L18 11.74l-1.942-1.942-1.132 1.129L18 13.999l3.073-3.072zm.797-.797L23 9l-1.13-1.13L20.74 9l1.13 1.13z"/><path d="M19.145 9L18 7.852l-.848.847-.097.097-.2.201-.002.002.001.001L18 10.147 19.145 9h.001-.001z"/><path fill-rule="evenodd" clip-rule="evenodd" d="M17.999 7.853l-.848.847-.298.298-.001.002.001.001.1.1.782.783.264.263 1.146-1.146.001-.001-1.147-1.147z"/></svg><svg viewBox="0 0 30 30" id="twitter-share" xmlns="http://www.w3.org/2000/svg"><path d="M15 0C6.717 0 0 6.717 0 15c0 8.283 6.717 15 15 15 8.283 0 15-6.717 15-15 0-8.283-6.717-15-15-15zm6.849 11.695c.006.148.01.296.01.445 0 4.55-3.463 9.796-9.796 9.796a9.746 9.746 0 01-5.278-1.546c.27.032.544.047.822.047 1.613 0 3.097-.55 4.276-1.474a3.447 3.447 0 01-3.217-2.39 3.425 3.425 0 001.555-.06 3.444 3.444 0 01-2.762-3.375v-.044c.465.258.995.414 1.56.43a3.44 3.44 0 01-1.066-4.596 9.775 9.775 0 007.097 3.598 3.444 3.444 0 015.867-3.14 6.906 6.906 0 002.186-.836 3.456 3.456 0 01-1.514 1.905 6.866 6.866 0 001.977-.543 6.994 6.994 0 01-1.717 1.783z"/></svg><svg viewBox="0 0 34 34" id="wallet" xmlns="http://www.w3.org/2000/svg"><path d="M32.054 19.203h-.457v-3.264c0-.813-.355-1.591-.985-2.165a3.534 3.534 0 00-2.374-.898H15.734v-.043c0-.823-.225-1.632-.653-2.356a5.17 5.17 0 00-1.801-1.79 5.797 5.797 0 00-2.517-.798 5.918 5.918 0 00-2.63.387.507.507 0 00-.283.266.444.444 0 00.006.37c.056.117.161.21.292.257.13.048.276.046.405-.005a4.765 4.765 0 012.118-.312c.724.058 1.42.279 2.026.643.607.363 1.105.859 1.45 1.441.345.583.525 1.235.526 1.897v.043h-2.497L10.76 10.38a.505.505 0 00-.195-.192.568.568 0 00-.553 0 .505.505 0 00-.195.192l-1.411 2.496H5.912v-.043a3.74 3.74 0 01.879-2.4.442.442 0 00.033-.537.502.502 0 00-.137-.14.554.554 0 00-.393-.093.565.565 0 00-.196.062.517.517 0 00-.154.125 4.643 4.643 0 00-1.093 2.983v.043H3.36a3.535 3.535 0 00-2.374.898C.355 14.35.001 15.128 0 15.94V29.96c.001.812.355 1.59.985 2.164.63.575 1.483.898 2.374.899h18.188c.14 0 .275-.051.375-.142.1-.09.155-.214.155-.342a.463.463 0 00-.155-.342.558.558 0 00-.375-.142H3.359c-.61 0-1.196-.221-1.627-.615a2.01 2.01 0 01-.674-1.483V28.4h3.676c.126 0 .25-.022.366-.066a.96.96 0 00.31-.189l.957-.873H7.82c.115.172.29.305.495.379.206.073.433.083.646.028.212-.054.4-.17.533-.332a.874.874 0 00.206-.558.874.874 0 00-.206-.56 1.024 1.024 0 00-.533-.331 1.108 1.108 0 00-.646.029.998.998 0 00-.495.378H6.329c-.125 0-.25.022-.365.066a.96.96 0 00-.31.189l-.957.873H1.06v-2.296h10.126c.116.172.29.305.496.379.206.073.432.083.645.029.213-.055.4-.172.534-.333a.874.874 0 00.206-.558.874.874 0 00-.206-.56 1.024 1.024 0 00-.534-.331 1.108 1.108 0 00-.645.029.998.998 0 00-.496.378H1.061v-2.325h4.64l1.05.958a.96.96 0 00.31.19c.116.043.24.066.366.065h6.854c.115.172.29.305.495.379.206.073.433.083.646.029.213-.055.4-.172.534-.333a.873.873 0 00.205-.558.874.874 0 00-.206-.56 1.022 1.022 0 00-.533-.331 1.109 1.109 0 00-.646.029.998.998 0 00-.495.378H7.47l-1.052-.958a.96.96 0 00-.31-.19 1.03 1.03 0 00-.365-.065H1.057v-1.661h5.08l.96.872a.96.96 0 00.309.19c.115.043.24.066.365.065h1.382c.115.172.29.305.495.379.206.073.433.083.646.029.213-.055.4-.172.533-.333a.874.874 0 00.206-.558.874.874 0 00-.206-.56 1.023 1.023 0 00-.533-.331 1.107 1.107 0 00-.646.029.998.998 0 00-.495.378H7.815l-.958-.873a.96.96 0 00-.31-.19 1.028 1.028 0 00-.365-.065h-5.12v-2.31c0-.556.242-1.09.673-1.483a2.419 2.419 0 011.627-.615H28.24c.61 0 1.195.221 1.627.615.431.394.674.927.674 1.484v3.264h-9.417c-.516 0-1.01.188-1.375.52a1.7 1.7 0 00-.57 1.254v3.946c0 .47.206.92.57 1.253.365.333.86.52 1.375.52h9.41v3.265a2.01 2.01 0 01-.673 1.483 2.419 2.419 0 01-1.627.615H24.34a.558.558 0 00-.375.142.463.463 0 00-.155.342c0 .128.056.251.155.342.1.09.235.142.375.142h3.899c.89-.001 1.744-.324 2.374-.898.63-.575.984-1.353.985-2.165V26.7h.457c.516 0 1.01-.187 1.375-.52a1.7 1.7 0 00.57-1.253v-3.946a1.7 1.7 0 00-.57-1.253 2.047 2.047 0 00-1.375-.52v-.006zm-21.761-7.545l.69 1.22h-1.38l.69-1.22zm22.646 13.264a.773.773 0 01-.26.57.93.93 0 01-.624.236H21.123a.93.93 0 01-.625-.236.773.773 0 01-.259-.57v-3.945c0-.214.093-.42.26-.57a.93.93 0 01.624-.236h10.931a.93.93 0 01.625.236.773.773 0 01.26.57v3.945z"/><path d="M23.773 21.03c-.383 0-.759.104-1.078.299-.32.194-.568.47-.715.794-.147.324-.186.68-.11 1.023.074.344.26.66.53.907.272.247.618.416.995.484.376.069.767.034 1.122-.1.354-.135.657-.361.87-.653.214-.29.328-.633.328-.983 0-.47-.205-.92-.57-1.252a2.043 2.043 0 00-1.372-.519zm0 2.574a.941.941 0 01-.489-.136.824.824 0 01-.324-.36.738.738 0 01-.05-.464.784.784 0 01.241-.411.91.91 0 01.45-.22.959.959 0 01.51.046c.16.06.298.164.395.296a.754.754 0 01.148.446.77.77 0 01-.258.567.926.926 0 01-.623.236zM18.946 9.772a.574.574 0 00.395-.06.489.489 0 00.236-.295.447.447 0 00-.057-.362.527.527 0 00-.318-.221 4.538 4.538 0 01-1.83-.878 4.017 4.017 0 01-1.184-1.546 3.675 3.675 0 01-.276-1.868c.072-.634.31-1.243.694-1.776.383-.533.9-.975 1.51-1.288a4.706 4.706 0 011.988-.514 4.747 4.747 0 012.027.375c.632.27 1.185.675 1.612 1.18a5.474 5.474 0 00-1.416.946 2.042 2.042 0 00-1.043-.284H19.9a.569.569 0 00-.279.072.503.503 0 00-.195.196l-.542.993h-1.01a.558.558 0 00-.375.142.463.463 0 00-.156.342c0 .128.056.252.155.342.1.091.235.142.376.142h.48l-.307.563a.448.448 0 00.023.47c.048.07.114.128.193.168a.57.57 0 00.258.061h2.25a4.676 4.676 0 001.01 3.169c.665.845 1.602 1.478 2.682 1.812 1.079.333 2.246.349 3.335.045a5.478 5.478 0 002.74-1.736 4.7 4.7 0 001.115-2.868 4.654 4.654 0 00-.928-2.922c-.638-.862-1.555-1.52-2.623-1.88a5.945 5.945 0 00-3.333-.133A5.31 5.31 0 0022.827.577 5.866 5.866 0 0020.301 0a5.872 5.872 0 00-2.53.558 5.32 5.32 0 00-1.958 1.567 4.713 4.713 0 00-.934 2.216 4.557 4.557 0 00.301 2.36 4.974 4.974 0 001.469 1.96 5.631 5.631 0 002.3 1.115l-.003-.004zm.435-4.068l.852-1.555h1.05a.92.92 0 01.374.078c-.327.453-.57.952-.72 1.477h-1.556zm11.208 1.24a3.75 3.75 0 01-.738 2.22 4.32 4.32 0 01-1.967 1.47c-.8.303-1.681.382-2.531.228a4.526 4.526 0 01-2.244-1.093 3.9 3.9 0 01-1.199-2.046 3.67 3.67 0 01.25-2.309 4.1 4.1 0 011.613-1.793 4.688 4.688 0 012.434-.673c1.162.001 2.276.422 3.097 1.171.822.75 1.284 1.765 1.285 2.824z"/><path d="M25.29 9.113l1.26-.004c.31 0 .613-.086.869-.248.255-.16.45-.39.559-.654.109-.266.126-.555.05-.83a1.377 1.377 0 00-.477-.706c.124-.192.19-.41.192-.632a1.172 1.172 0 00-.183-.634 1.324 1.324 0 00-.508-.464 1.483 1.483 0 00-.694-.168h-1.074c-.14 0-.275.051-.375.142a.463.463 0 00-.155.342v3.372c0 .128.056.251.155.342.1.09.234.142.375.142h.006zm1.261-.972h-.73v-.847h.73a.507.507 0 01.342.118c.046.04.082.087.106.14a.393.393 0 01-.106.472.507.507 0 01-.342.118zm-.187-2.4c.085 0 .166.03.226.085a.28.28 0 01.094.207.28.28 0 01-.094.206.337.337 0 01-.226.086h-.544V5.74h.544z"/></svg><svg fill="none" viewBox="0 0 70 58" id="wallet_copy" xmlns="http://www.w3.org/2000/svg"><rect x=".5" y=".5" width="69" height="50.556" rx="7.5" stroke="#406AFF"/><path d="M7.26 33.363v5.133M10.37 34.903v3.593M13.48 35.93v2.566M16.592 33.876v4.62M19.703 30.796v7.7M50.297 33.363v5.133M53.408 34.903v3.593M56.52 35.93v2.566M59.63 33.876v4.62M62.74 30.796v7.7M28.519 33.876v4.62M31.629 31.31v7.185M34.74 28.743v9.752M37.852 25.664v12.831M40.963 28.23v10.265M7.26 30.283l6.222 2.823 6.222-4.876 8.815 3.08 9.593-8.982 4.925 4.62 13.482 6.415 6.482-5.903" stroke="#406AFF" stroke-linecap="round"/><path d="M35 45.642c7.258 0 13.167-5.828 13.167-13.049 0-7.22-5.909-13.049-13.166-13.049-7.258 0-13.167 5.828-13.167 13.05 0 7.22 5.91 13.048 13.167 13.048z" stroke="#fff" stroke-width="3"/><path d="M44.167 32.593c0 4.974-4.08 9.049-9.166 9.049-5.087 0-9.167-4.075-9.167-9.049 0-4.973 4.08-9.049 9.167-9.049 5.086 0 9.166 4.076 9.166 9.05z" stroke="#fff" stroke-width="5"/><path d="M46.167 32.593c0 6.097-4.994 11.049-11.166 11.049-6.172 0-11.167-4.952-11.167-11.049 0-6.097 4.995-11.049 11.167-11.049s11.166 4.952 11.166 11.05z" stroke="#406AFF"/><ellipse cx="7.26" cy="30.283" rx="1.037" ry="1.027" fill="#406AFF"/><ellipse cx="13.481" cy="32.85" rx="1.037" ry="1.027" fill="#406AFF"/><ellipse cx="19.703" cy="28.23" rx="1.037" ry="1.027" fill="#406AFF"/><ellipse cx="28.518" cy="31.31" rx="1.037" ry="1.027" fill="#406AFF"/><ellipse cx="56.517" cy="33.363" rx="1.037" ry="1.027" fill="#406AFF"/><ellipse cx="62.74" cy="27.717" rx="1.037" ry="1.027" fill="#406AFF"/><rect x="7.24" y="6.146" width="55.519" height="7.212" rx="3.606" stroke="#406AFF"/><path d="M58.101 7.733a1.71 1.71 0 00-1.712 1.703A1.71 1.71 0 0058.1 11.14a1.71 1.71 0 001.713-1.703A1.71 1.71 0 0058.1 7.733zm0 3.092c-.77 0-1.396-.623-1.396-1.389 0-.765.626-1.388 1.396-1.388.77 0 1.397.623 1.397 1.388 0 .766-.627 1.389-1.397 1.389z" fill="#406AFF"/><path d="M60.23 11.332l-.905-.901a.159.159 0 00-.224 0 .156.156 0 000 .222l.906.901a.158.158 0 00.224-.222z" fill="#406AFF"/><path d="M41.481 44.398h7.778L61.185 58h-8.037L41.481 44.398z" fill="#fff"/><path d="M53.765 55.867L41.627 42.201l1.958-1.732 12.151 13.683a1.29 1.29 0 01-.11 1.828c-.544.48-1.38.43-1.861-.113z" fill="#fff" stroke="#406AFF"/></svg><svg fill="none" viewBox="0 0 13 13" id="wechat" xmlns="http://www.w3.org/2000/svg"><g clip-path="url(#byclip0_6_17490)"><path d="M12.885 1.95C12.885.873 12.02 0 10.953 0h-9.02A1.941 1.941 0 000 1.95v9.1C0 12.127.865 13 1.933 13h9.02a1.941 1.941 0 001.932-1.95v-9.1z" fill="#2DC100"/><path d="M8.623 8.152c-1.04-.055-1.944-.373-2.678-1.091-.742-.726-1.08-1.616-.988-2.719-.406.05-.777.107-1.149.138a.708.708 0 01-.39-.066c-.362-.206-.708-.438-1.12-.698.076.344.125.646.211.935.064.213.035.332-.16.47-1.248.89-1.775 2.22-1.38 3.59.364 1.268 1.258 2.037 2.474 2.438 1.66.546 3.524-.011 4.533-1.34.365-.48.588-1.02.647-1.657zm-4.786.427a.482.482 0 01-.461.484.468.468 0 01-.485-.454.462.462 0 01.456-.482.475.475 0 01.49.452zm2.497.484a.482.482 0 01-.468-.477.47.47 0 01.48-.461c.265.003.466.209.463.475a.464.464 0 01-.475.463z" fill="#fff"/><path d="M10.96 1.61c-.33.149-.632.37-.953.404-.32.034-.657-.152-.993-.187-1.02-.105-1.935.182-2.69.886-1.434 1.338-1.229 3.39.43 4.488 1.476.974 3.639.65 4.679-.703.907-1.18.8-2.748-.307-3.74-.32-.286-.436-.522-.23-.9.037-.07.042-.16.064-.247zM7.21 5.273a.39.39 0 01.39.375.392.392 0 01-.387.407.396.396 0 01-.392-.405.392.392 0 01.39-.377zm2.417.781a.39.39 0 01-.385-.374.383.383 0 01.38-.404c.21 0 .376.16.384.371a.387.387 0 01-.38.407z" fill="#fff"/></g><defs><clipPath id="byclip0_6_17490"><path fill="#fff" transform="matrix(1 0 0 -1 0 13)" d="M0 0h12.885v13H0z"/></clipPath></defs></svg></svg>