<?xml version="1.0" encoding="utf-8"?><svg viewBox="0 0 34 34" xmlns="http://www.w3.org/2000/svg" xmlns:xlink="http://www.w3.org/1999/xlink"><style>:root>svg{display:none}:root>svg:target{display:block}</style><svg viewBox="0 0 12 10" id="apply-arrow" xmlns="http://www.w3.org/2000/svg"><path d="M11.528 4.839c0-.147-.085-.281-.22-.318L.702.432A.325.325 0 00.31.53a.352.352 0 00-.037.403l2.344 3.906L.274 8.744a.352.352 0 00.061.428.341.341 0 00.367.073L11.32 5.168a.347.347 0 00.207-.33z"/></svg><svg viewBox="0 0 8 5" id="arrow" xmlns="http://www.w3.org/2000/svg"><path d="M1 1l3 3 3-3"/></svg><svg fill="none" viewBox="0 0 6 10" id="arrow-back" xmlns="http://www.w3.org/2000/svg"><path d="M5 9L1 5l4-4" stroke="#7F8BA9" stroke-width="2" stroke-linecap="round" stroke-linejoin="round"/></svg><svg viewBox="0 0 8 9" id="arrow-lose" xmlns="http://www.w3.org/2000/svg"><path d="M7 4.5L4 8 1 4.5M4 1v6.5" stroke="#FF5F5F" stroke-width="1.2" stroke-linecap="round" stroke-linejoin="round"/></svg><svg viewBox="0 0 8 9" id="arrow-profit" xmlns="http://www.w3.org/2000/svg"><path d="M1 4.5L4 1l3 3.5M4 8V1.5" stroke="#38CB89" stroke-width="1.2" stroke-linecap="round" stroke-linejoin="round"/></svg><svg viewBox="0 0 13 15" id="bell" xmlns="http://www.w3.org/2000/svg"><path d="M12.771 12.02c-1.215-.766-1.467-1.846-1.467-4.003V5.948c0-2.14-1.672-3.921-3.886-4.314a.968.968 0 00.212-.6C7.63.465 7.124 0 6.5 0c-.624 0-1.13.463-1.13 1.034 0 .225.08.43.212.6-2.214.393-3.886 2.174-3.886 4.314v2.07c0 2.156-.252 3.236-1.467 4.003a.483.483 0 00-.229.407c0 .278.246.503.55.503h11.9c.304 0 .55-.225.55-.503a.483.483 0 00-.229-.407zM5.133 4.04c-.676.419-1.176 1.106-1.176 1.908 0 .286-.254.518-.566.518-.312 0-.565-.232-.565-.518 0-1.155.69-2.15 1.662-2.756a.6.6 0 01.316-.089c.312 0 .566.232.566.518a.504.504 0 01-.237.419zM7.63 13.966C7.63 14.537 7.124 15 6.5 15c-.625 0-1.13-.463-1.13-1.034v-.259h2.26v.259z"/></svg><svg fill="none" viewBox="0 0 9 9" id="check-green" xmlns="http://www.w3.org/2000/svg"><path d="M4.5 0A4.505 4.505 0 000 4.5C0 6.981 2.019 9 4.5 9S9 6.981 9 4.5 6.981 0 4.5 0zm2.584 3.74L4.257 6.567a.632.632 0 01-.45.186.632.632 0 01-.45-.186l-1.441-1.44a.632.632 0 010-.9.632.632 0 01.9 0l.99.99L6.185 2.84c.12-.12.28-.186.45-.186a.637.637 0 01.45 1.086z" fill="#65BE69"/></svg><svg fill="none" viewBox="0 0 9 9" id="close" xmlns="http://www.w3.org/2000/svg"><rect width="1.808" height="10.849" rx=".904" transform="rotate(44.916 3.86 9.338)" fill="#E9A128"/><rect width="1.808" height="10.849" rx=".904" transform="scale(-1.00248 -.99751) rotate(-45 -13.823 6.932)" fill="#E9A128"/></svg><svg viewBox="0 0 16 16" id="comment" xmlns="http://www.w3.org/2000/svg"><path d="M14.933 10.311a1.54 1.54 0 01-1.54 1.541H4.147l-3.082 3.082V2.608a1.54 1.54 0 011.541-1.541h10.785a1.54 1.54 0 011.541 1.54v7.704z"/></svg><svg viewBox="0 0 15 15" id="complain" xmlns="http://www.w3.org/2000/svg"><path d="M7.854 8.799h.099v-.1l.065-5.698V2.9H6.932l.001.101.06 5.699v.099h.862zm-.81 1.165h0a.76.76 0 00-.144.469c0 .18.046.34.143.469h0l.003.003a.553.553 0 00.452.195.553.553 0 00.452-.195h0v-.002a.743.743 0 00.15-.47.744.744 0 00-.149-.47.54.54 0 00-.453-.208.54.54 0 00-.454.209zM7 10.433c0-.164.041-.3.123-.41h.75a.644.644 0 01.127.41c0 .164-.043.3-.128.409-.085.105-.21.158-.374.158-.165 0-.29-.053-.375-.158a.66.66 0 01-.123-.41z" stroke="#728094" stroke-width=".2"/><rect x=".65" y=".65" width="13.7" height="13.7" rx="1.35" stroke="#728094" stroke-width="1.3"/></svg><svg fill="none" viewBox="0 0 13 13" id="copy" xmlns="http://www.w3.org/2000/svg"><path d="M10.9 4.85H5.95a1.1 1.1 0 00-1.1 1.1v4.95a1.1 1.1 0 001.1 1.1h4.95a1.1 1.1 0 001.1-1.1V5.95a1.1 1.1 0 00-1.1-1.1z" stroke="#728094" stroke-width="1.5" stroke-linecap="round" stroke-linejoin="round"/><path d="M2.65 8.15H2.1A1.1 1.1 0 011 7.05V2.1A1.1 1.1 0 012.1 1h4.95a1.1 1.1 0 011.1 1.1v.55" stroke="#728094" stroke-width="1.5" stroke-linecap="round" stroke-linejoin="round"/></svg><svg fill="none" viewBox="0 0 13 14" id="date-icon" xmlns="http://www.w3.org/2000/svg"><path d="M10.778 2.2H2.222C1.547 2.2 1 2.737 1 3.4v8.4c0 .663.547 1.2 1.222 1.2h8.556c.675 0 1.222-.537 1.222-1.2V3.4c0-.663-.547-1.2-1.222-1.2zM8.945 1v2.4M4.055 1v2.4M1 5.8h11" stroke="#728094" stroke-width="1.2" stroke-linecap="round" stroke-linejoin="round"/></svg><svg viewBox="0 0 34 34" id="earth" xmlns="http://www.w3.org/2000/svg"><path d="M25.741 30.814a.664.664 0 00-.908-.241l-.025.014a.663.663 0 00.157 1.225.664.664 0 00.51-.076l.025-.014a.666.666 0 00.241-.909z"/><path d="M31.721 8.5A17 17 0 00.7 21.826a17.003 17.003 0 0022.38 11.052.665.665 0 10-.476-1.24A15.571 15.571 0 017.62 29.58l.595-3.106.287-.093a2.069 2.069 0 001.326-2.604l-.209-.648a.733.733 0 010-.458 2.067 2.067 0 00-1.567-2.672l-1.5-.293-2.892-2.2a.664.664 0 00-.607-.102l-1.697.55a15.659 15.659 0 010-1.813c.066.062.11.104.137.132a.697.697 0 00.649.333c.4-.02.797-.066 1.19-.136.562-.08 1.118-.176 1.124-.177a.664.664 0 00.439-1.03l-.812-1.194 1.167-.834a.665.665 0 00.19-.21l1.808-3.157.729-.781a2.808 2.808 0 00.541-2.976 3.055 3.055 0 00-1.212-1.424 15.651 15.651 0 019.512-3.352L15.63 2.82l-4.398 1.542a.664.664 0 00-.394.373L9.611 7.714a.664.664 0 00.073.642l1.794 2.513c-.3.305-.57.64-.802 1-.131.185-.255.361-.34.459-.075.086-.149.17-.223.252a6.216 6.216 0 00-1.068 1.482 3.958 3.958 0 00.329 4.001 3.73 3.73 0 003.52 1.511c.218-.03.435-.073.648-.13.57-.142.75-.156.932.015.09.08.098.099.096.381-.009.221.011.442.06.658a2.1 2.1 0 00.56.917c.094.092.175.195.242.307a1.653 1.653 0 01-.08 1.374l-.052.16a3.728 3.728 0 00.488 2.666c.12.263.233.513.307.733.597 1.773 1.043 2.179 1.404 2.342.182.082.38.124.58.122a3.714 3.714 0 002.416-1.453c.218-.28.36-.614.41-.966a1.06 1.06 0 01.085-.297c.063-.1.137-.194.219-.28.248-.255.434-.564.543-.903.078-.275.234-.52.45-.707l.147-.16a2.13 2.13 0 00.416-2.477c-.203-.656.152-1.075 1.01-1.874.393-.34.746-.72 1.056-1.136a1.434 1.434 0 00.28-1.33c-.24-.558-.85-.651-1.34-.727a2.2 2.2 0 01-.58-.135 3.141 3.141 0 01-.907-1.372l-.144-.321c-.087-.184-.172-.408-.264-.642a5.57 5.57 0 00-.982-1.828 4.243 4.243 0 00-1.906-.846 8.306 8.306 0 01-.602-.178.663.663 0 00-.382-.023 1.723 1.723 0 00-.707.293.824.824 0 00-.237.32 7.598 7.598 0 01-.783-.476l-.013-.009a.942.942 0 00-.06-.642c-.37-.784-1.604-.722-1.844-.702-.138.01-.313.017-.498.024-.29.01-.61.021-.928.057l.016-.045a1.698 1.698 0 011.595-1.123h.378a.664.664 0 000-1.329h-.378a3.032 3.032 0 00-2.567 1.434l-.995-1.385.97-2.363 4.298-1.506a.664.664 0 00.3-.213l1.91-2.396a15.663 15.663 0 0112.11 7.762 15.498 15.498 0 011.565 3.802l-.281.25a1.776 1.776 0 00-.592 1.291v.017l-.459-1.262a1.658 1.658 0 00-.299-.512l-.818-.958a1.666 1.666 0 00-1.268-.584h-1a.962.962 0 00-.803 1.495l.1.153a7.36 7.36 0 01-2.192 1.302l-1.37-2.632v-.586a.664.664 0 00-.206-.482l-1.236-1.18a.665.665 0 00-.241-.146l-1.113-.39a.664.664 0 10-.44 1.253l.978.343.93.885v.465c0 .107.025.213.075.308l1.718 3.289a.664.664 0 00.819.316l.5-.185a8.692 8.692 0 003.117-1.994.665.665 0 00.08-.838l-.035-.053h.32a.337.337 0 01.258.118l.819.958c.026.031.047.066.06.105l.904 2.487a.663.663 0 001.094.24l.43-.43c.272-.275.462-.62.548-.999a15.723 15.723 0 01-5.84 14.304.665.665 0 10.82 1.043 17.003 17.003 0 004.21-21.862l-.002.004zM3.133 18.773l2.739 2.086c.08.062.174.104.274.123l1.651.32a.739.739 0 01.562.955 2.053 2.053 0 000 1.283l.21.648a.739.739 0 01-.474.93l-.66.214a.664.664 0 00-.447.507l-.531 2.773a15.848 15.848 0 01-3.026-3.77 15.588 15.588 0 01-1.93-5.532l1.632-.537zm3.87-10.59l-.78.837a.667.667 0 00-.091.123l-1.775 3.095-1.576 1.127a.664.664 0 00-.16.915l.589.865c-.34.05-.642.092-.848.114l-.124-.114a41.13 41.13 0 00-.704-.63 15.699 15.699 0 014.678-8.884 1.727 1.727 0 011.076.986 1.474 1.474 0 01-.284 1.563v.003zm5.416 3.63a4.26 4.26 0 011.486-.209c.201-.007.391-.013.561-.028a1.81 1.81 0 01.284 0 .664.664 0 00.305.826c.125.067.298.183.482.305a3.828 3.828 0 001.66.774 1.103 1.103 0 00.903-.377l.028-.028a.711.711 0 00.178-.217c.106.03.217.061.332.091.45.091.883.252 1.284.476.312.423.552.895.708 1.396.1.259.194.502.3.729.046.097.09.197.136.298a4.148 4.148 0 001.39 1.938c.34.189.717.304 1.105.337l.144.022c-.252.32-.534.616-.842.882-.822.766-1.845 1.719-1.374 3.24.222.717.232.795-.126 1.184l-.136.147c-.353.331-.611.75-.748 1.215-.055.16-.148.305-.27.421-.141.151-.266.316-.372.492-.121.22-.202.459-.241.706a.814.814 0 01-.139.39 3.872 3.872 0 01-.838.74c-.162.125-.354.202-.557.222-.331-.472-.574-1-.716-1.56-.095-.284-.228-.576-.357-.859a2.848 2.848 0 01-.433-1.708l.05-.152a2.901 2.901 0 00.044-2.3 2.395 2.395 0 00-.481-.689 1.233 1.233 0 01-.254-.337 1.435 1.435 0 01-.021-.336 1.648 1.648 0 00-.516-1.36 2.139 2.139 0 00-2.16-.336c-.158.044-.319.077-.481.101a2.386 2.386 0 01-2.287-.962 2.63 2.63 0 01-.206-2.659c.229-.428.519-.822.86-1.167.08-.087.155-.174.233-.264.129-.15.272-.352.422-.562.19-.298.41-.575.66-.825v.003z"/><path d="M27.227 22.86l-.321-1.204a.664.664 0 00-1.226-.146c-.073.134-.138.276-.201.414a2.853 2.853 0 01-.332.603 1.467 1.467 0 01-.39.23 1.825 1.825 0 00-1.106 1.076 1.945 1.945 0 00-.044.937.603.603 0 01-.017.391l-.006.015a2.236 2.236 0 00-.053 2.205 1.383 1.383 0 001.128.704c.06 0 .12-.004.178-.014.677-.11 1.186-.815 1.604-2.218l.782-2.633a.664.664 0 00.004-.36zm-2.06 2.614a4.028 4.028 0 01-.508 1.197 1.022 1.022 0 01-.04-.054c-.127-.18.062-.626.188-.921l.006-.016c.148-.349.186-.735.11-1.106a.697.697 0 010-.345c.025-.08.18-.16.416-.276.104-.05.218-.105.334-.172l-.507 1.693zM17.927 7.888l-.045-.016a.665.665 0 10-.44 1.253l.046.016a.664.664 0 10.44-1.253z"/></svg><svg fill-rule="evenodd" clip-rule="evenodd" viewBox="0 0 24 24" id="eye-hidden" xmlns="http://www.w3.org/2000/svg"><path d="M8.137 15.147A4.912 4.912 0 016.991 12c0-2.76 2.241-5 5-5 1.201 0 2.291.435 3.148 1.145l1.897-1.897C15.595 5.51 13.914 5 12.001 5 5.886 5 1.976 10.355 1.159 11.584c.529.834 2.379 3.527 5.113 5.428l1.865-1.865zm6.294-6.294A3.925 3.925 0 0011.991 8c-2.207 0-4 1.792-4 4 0 .923.324 1.765.854 2.439l5.586-5.586zm7.56-6.146L2.699 22l-.708-.707 3.548-3.548c-2.298-1.612-4.234-3.885-5.548-6.169C2.409 7.473 6.934 4 12.001 4c2.065 0 4.021.566 5.782 1.501L21.284 2l.707.707zm-2.465 3.879l-.734.734c2.236 1.619 3.628 3.604 4.061 4.274C22.114 12.897 18.307 19 12.001 19c-1.425 0-2.749-.368-3.951-.938l-.748.748c1.475.742 3.057 1.19 4.699 1.19 5.274 0 9.758-4.006 11.999-8.436a16.217 16.217 0 00-4.474-4.978zM15.991 12c0-.554-.113-1.082-.317-1.562l.734-.734c.361.69.583 1.464.583 2.296 0 2.759-2.24 5-5 5a4.943 4.943 0 01-2.295-.583l.734-.735A4.001 4.001 0 0015.991 12z"/></svg><svg fill-rule="evenodd" clip-rule="evenodd" viewBox="0 0 24 24" id="eye-show" xmlns="http://www.w3.org/2000/svg"><path d="M12.01 20C6.945 20 2.424 15.789 0 11.576 2.418 7.473 6.943 4 12.01 4c5.135 0 9.635 3.453 11.999 7.564C21.768 15.994 17.283 20 12.01 20zM1.168 11.584C2.011 12.915 6.186 19 12.01 19c6.305 0 10.112-6.103 10.851-7.405C22.089 10.397 18.255 5 12.01 5 5.894 5 1.985 10.355 1.168 11.584zM12 7c2.76 0 5 2.24 5 5s-2.24 5-5 5-5-2.24-5-5 2.24-5 5-5zm0 1c2.208 0 4 1.792 4 4s-1.792 4-4 4-4-1.792-4-4 1.792-4 4-4z"/></svg><svg fill="none" viewBox="0 0 6 10" id="facebook" xmlns="http://www.w3.org/2000/svg"><path d="M3.39 10V5.439h1.538l.23-1.778H3.39V2.526c0-.515.143-.866.886-.866h.946V.07C5.058.048 4.496 0 3.842 0 2.478 0 1.543.828 1.543 2.35v1.31H0V5.44h1.543V10H3.39z" fill="#3B5998"/></svg><svg fill="none" viewBox="0 0 17 8" id="filter-icon" xmlns="http://www.w3.org/2000/svg"><path d="M8.5 6.667A2.833 2.833 0 108.5 1a2.833 2.833 0 000 5.667zM.744 3.833H4.96M12.049 3.833h4.214" stroke="#333248" stroke-width="1.2" stroke-linecap="round" stroke-linejoin="round"/></svg><svg fill="none" viewBox="0 0 13 13" id="google" xmlns="http://www.w3.org/2000/svg"><g clip-path="url(#arclip0_6_17483)" fill="#4285F4"><path d="M12.733 6.513a7.34 7.34 0 00-.112-1.294H6.494v2.452h3.509a2.944 2.944 0 01-1.299 1.935v1.59h2.094c1.229-1.108 1.935-2.746 1.935-4.683z"/><path d="M6.494 12.734c1.752 0 3.23-.564 4.306-1.537L8.707 9.606c-.583.388-1.335.608-2.21.608-1.695 0-3.132-1.12-3.647-2.627H.69v1.64c1.102 2.15 3.348 3.507 5.804 3.507z"/><path d="M2.847 7.587a3.742 3.742 0 010-2.438V3.51H.689a6.26 6.26 0 000 5.718l2.158-1.64z"/><path d="M6.494 2.52a3.57 3.57 0 012.492.954l1.854-1.818A6.313 6.313 0 006.495 0C4.038 0 1.792 1.357.69 3.51l2.158 1.64c.513-1.51 1.953-2.63 3.647-2.63z"/></g><defs><clipPath id="arclip0_6_17483"><path fill="#fff" d="M0 0h12.734v12.734H0z"/></clipPath></defs></svg><svg fill="none" viewBox="0 0 17 11" id="letter" xmlns="http://www.w3.org/2000/svg"><path d="M16.889 1.037l-4.83 4.637 4.71 4.526c.143-.235.23-.505.23-.797V1.597c0-.198-.042-.385-.11-.56zM15.337 0H1.663C1.387 0 1.13.071.9.186l7.26 6.97c.211.203.577.203.784 0L16.17.224A1.695 1.695 0 0015.337 0zM.14.96a1.53 1.53 0 00-.14.637v7.806c0 .287.085.553.224.786l4.761-4.575L.14.96z" fill="#8190A6"/><path d="M11.271 6.43l-1.54 1.483a1.723 1.723 0 01-2.355 0L5.772 6.369l-4.71 4.519c.187.07.389.112.6.112h13.675c.207 0 .403-.041.586-.108L11.271 6.43z" fill="#8190A6"/></svg><svg viewBox="0 0 16 15" id="like" xmlns="http://www.w3.org/2000/svg"><path d="M13.92 2.56a3.69 3.69 0 00-1.195-.784 3.74 3.74 0 00-4.015.785L8 3.259l-.71-.698A3.718 3.718 0 004.685 1.5c-.978 0-1.915.38-2.606 1.06A3.59 3.59 0 001 5.12c0 .96.388 1.882 1.08 2.56l.71.698L8 13.5l5.21-5.12.71-.698c.343-.337.614-.736.8-1.175a3.565 3.565 0 000-2.771 3.617 3.617 0 00-.8-1.175z"/></svg><svg viewBox="0 0 34 34" id="pizza" xmlns="http://www.w3.org/2000/svg"><path d="M29.766 13.436a.497.497 0 00-.38-.027l-13.193 4.398L20.59 4.613a.498.498 0 00-.315-.63A15.402 15.402 0 00.103 20.377 15.405 15.405 0 0023.501 31.7a15.404 15.404 0 006.514-17.975.498.498 0 00-.25-.288zm-4.177 15.345a14.406 14.406 0 11-6.106-24.003l-.359 1.076A13.27 13.27 0 002.742 22.588 13.273 13.273 0 0025.76 26.89a.498.498 0 00-.777-.623A12.278 12.278 0 1118.811 6.8l-3.878 11.637a.499.499 0 00.63.63l11.635-3.879a12.287 12.287 0 01-1.05 9.355.5.5 0 00.75.642.5.5 0 00.121-.162 13.28 13.28 0 001.127-10.155l1.076-.359a14.406 14.406 0 01-3.633 14.272z"/><path d="M33.974 9.766a15.472 15.472 0 00-9.74-9.741.498.498 0 00-.628.315l-4.717 14.139a.5.5 0 00.63.63l12.118-4.04 2.022-.675a.497.497 0 00.315-.63v.002zm-2.186.204a13.218 13.218 0 00-4.528-5.997.499.499 0 10-.593.8 12.228 12.228 0 014.176 5.517l-10.69 3.564 3.562-10.696c.357.136.71.287 1.053.455a.498.498 0 00.437-.895 13.208 13.208 0 00-1.176-.508l.359-1.076a14.48 14.48 0 018.475 8.475l-1.075.361zM12.712 13.272a2.642 2.642 0 00-.08-.656.499.499 0 00-.964.248 1.628 1.628 0 11-1.17-1.17.498.498 0 00.248-.965 2.627 2.627 0 101.97 2.544h-.004z"/><path d="M25.02 9.014a1.563 1.563 0 103.126 0 1.563 1.563 0 00-3.127 0zm1.562-.567a.567.567 0 110 1.132.567.567 0 010-1.132zM18.599 22.891a2.095 2.095 0 100 4.19 2.095 2.095 0 000-4.19zm0 3.194a1.099 1.099 0 111.098-1.099 1.1 1.1 0 01-1.098 1.095v.004zM10.614 20.227a2.095 2.095 0 100 4.189 2.095 2.095 0 000-4.19zm0 3.193a1.098 1.098 0 110-2.197 1.098 1.098 0 010 2.197zM24.95 19.656a1.562 1.562 0 10-3.124 0 1.562 1.562 0 003.125 0zm-1.562.567a.567.567 0 11.402-.164.567.567 0 01-.402.167v-.003zM13.808 26.081a1.562 1.562 0 100 3.125 1.562 1.562 0 000-3.125zm0 2.13a.567.567 0 110-1.135.567.567 0 010 1.135zM23.612 9.1a.498.498 0 00-.669.224l-.532 1.064a.499.499 0 10.89.446l.533-1.065a.498.498 0 00-.222-.668zM25.338 5.467l-.533-.532a.498.498 0 00-.704.704l.532.533a.498.498 0 10.705-.705zM13.054 9.46l1.064.532a.498.498 0 00.445-.891L13.5 8.568a.498.498 0 00-.445.891zM16.469 9.512a.498.498 0 00.498-.498V8.48a.498.498 0 00-.996 0v.533a.498.498 0 00.498.498zM5.07 16.911l1.063.533a.498.498 0 00.446-.891l-1.064-.533a.498.498 0 00-.446.891zM8.52 18.063v.532a.498.498 0 00.996 0v-.532a.498.498 0 00-.996 0zM14.375 13.273v.532a.498.498 0 00.996 0v-.532a.498.498 0 10-.996 0zM12.03 17.178a.498.498 0 10-.704.704l.532.533a.498.498 0 00.704-.704l-.532-.533zM6.176 19.84a.498.498 0 00-.705 0l-.532.533a.498.498 0 10.704.704l.533-.532a.498.498 0 000-.705zM6.89 22.891h-.533a.498.498 0 000 .996h.533a.498.498 0 000-.996zM15.585 20.905l-.533.533a.498.498 0 10.705.704l.532-.532a.498.498 0 00-.704-.705zM13.809 23.952a.498.498 0 000 .996h.532a.498.498 0 000-.996h-.532zM10.084 26.081a.498.498 0 00-.498.499v.532a.498.498 0 10.996 0v-.532a.499.499 0 00-.498-.498zM18.064 28.21h-.533a.498.498 0 000 .996h.533a.498.498 0 000-.996zM19.66 21.754a.498.498 0 00.498-.498v-1.064a.498.498 0 10-.996 0v1.064a.498.498 0 00.498.498zM23.21 23.566a.498.498 0 10-.705.704l.533.533a.498.498 0 00.704-.705l-.532-.532zM25.519 21.823h-.533a.498.498 0 000 .996h.533a.498.498 0 100-.996zM26.549 18.063v-.532a.499.499 0 00-.996 0v.532a.498.498 0 10.996 0z"/></svg><svg viewBox="0 0 34 34" id="rocket" xmlns="http://www.w3.org/2000/svg"><path d="M28.515 13.193v-1.234a17.509 17.509 0 00-3.822-10.897 2.83 2.83 0 00-4.42 0 17.506 17.506 0 00-3.824 10.897v1.234a6.04 6.04 0 00-5.483 6.005v3.839h1.371l.165-.219a4.959 4.959 0 013.947-1.978h1.562c.24.332.506.645.794.936l.16.16h1.323v1.141a3.279 3.279 0 00-2.647 3.997 2.76 2.76 0 00-1.674 1.992H2.742a1.647 1.647 0 01-1.645-1.648V6.033H0v21.385a2.745 2.745 0 002.742 2.742h13.216a2.742 2.742 0 003.175 2.15 4.17 4.17 0 006.705 0c.16.03.322.046.484.047a2.738 2.738 0 001.49-5.039 3.278 3.278 0 00-3.132-4.284v-1.1h1.321l.159-.158a8.09 8.09 0 00.795-.937h1.561a4.96 4.96 0 013.949 1.975l.164.219H34v-3.838a6.04 6.04 0 00-5.483-6.005l-.002.003zM21.13 1.749a1.734 1.734 0 012.71 0c.424.538.813 1.103 1.166 1.69a3.822 3.822 0 01-5.042 0 16.26 16.26 0 011.166-1.69zm-3.582 10.21a16.393 16.393 0 011.869-7.558 4.882 4.882 0 006.133 0 16.396 16.396 0 011.866 7.558v4.133c-.002.49-.056.978-.16 1.457h-9.55a6.997 6.997 0 01-.16-1.457l.002-4.133zm-1.096 7.788a6.062 6.062 0 00-4.388 1.893v-2.445a4.942 4.942 0 014.388-4.903v1.8c-.001 1.27.3 2.521.879 3.652l-.88.003zm8.225 4.388a2.17 2.17 0 012.103 2.785 2.656 2.656 0 00-2.817 1.312l.946.556a1.627 1.627 0 011.412-.818 1.647 1.647 0 011.644 1.645 1.623 1.623 0 01-2.21 1.538l-.482-.178-.21.47a2.78 2.78 0 01-2.58 1.462c-1.51 0-2.742-.984-2.742-2.194h-1.097c.002.183.02.365.057.544-.019 0-.038.004-.057.004a1.642 1.642 0 01-.584-3.178 3.287 3.287 0 002.781 1.533V28.52a2.194 2.194 0 010-4.388h.549v-2.197h2.193v2.193l1.094.007zm.865-3.29h-6.12a6.914 6.914 0 01-1.393-2.194h8.91a6.919 6.919 0 01-1.394 2.194h-.003zm7.36.795a6.065 6.065 0 00-4.387-1.893h-.879c.58-1.13.88-2.382.88-3.651v-1.804a4.94 4.94 0 014.387 4.903v2.445z"/><path d="M8.773 26.874H9.87v1.097H8.773v-1.097zM3.29 26.874h1.096v1.097H3.289v-1.097zM3.29 20.84v4.937h1.096V20.84l.658.874.874-.658-2.084-2.782-2.08 2.785.874.658.661-.877zM25.227 15.357h1.096v1.097h-1.096v-1.097zM23.031 15.357h1.097v1.097h-1.097v-1.097zM20.838 15.357h1.097v1.097h-1.097v-1.097zM18.645 15.357h1.096v1.097h-1.096v-1.097zM9.87 15.357l.658.875.874-.659-2.083-2.781-2.08 2.785.873.658.658-.874v10.416h1.097l.003-10.42zM22.483 14.259a3.839 3.839 0 100-7.678 3.839 3.839 0 000 7.678zm0-6.581a2.741 2.741 0 110 5.482 2.741 2.741 0 010-5.482z"/><path d="M22.483 12.066a1.645 1.645 0 100-3.29 1.645 1.645 0 000 3.29zm0-2.194a.548.548 0 110 1.096.548.548 0 010-1.096zM3.837 17.005a1.647 1.647 0 001.645-1.646 1.618 1.618 0 00-.165-.704l3.299-3.3c.22.108.46.164.705.165a1.647 1.647 0 001.645-1.645 1.617 1.617 0 00-.166-.705L13 6.968a1.63 1.63 0 002.224-.851 1.645 1.645 0 10-3.164-.63c0 .245.057.486.165.705l-2.202 2.202a1.63 1.63 0 00-.705-.164 1.647 1.647 0 00-1.645 1.645c.001.245.058.486.166.705l-3.296 3.299a1.63 1.63 0 00-1.868.317 1.645 1.645 0 001.163 2.809zM13.71 4.938a.548.548 0 110 1.097.548.548 0 010-1.097zM9.32 9.326a.548.548 0 110 1.097.548.548 0 010-1.097zm-5.483 5.483zM22.647 3.18a.397.397 0 100-.795.397.397 0 000 .794z"/></svg><svg fill="none" viewBox="0 0 13 13" id="search" xmlns="http://www.w3.org/2000/svg"><path d="M5.725 0A5.731 5.731 0 000 5.725a5.731 5.731 0 005.725 5.725 5.731 5.731 0 005.725-5.725A5.731 5.731 0 005.725 0zm0 10.393a4.673 4.673 0 01-4.668-4.668 4.673 4.673 0 014.668-4.668 4.673 4.673 0 014.668 4.668 4.673 4.673 0 01-4.668 4.668z" fill="#8C97A7"/><path d="M12.845 12.098l-3.03-3.03a.528.528 0 10-.747.747l3.03 3.03a.527.527 0 00.747 0 .528.528 0 000-.747z" fill="#8C97A7"/></svg><svg viewBox="0 0 27 23" id="settings" xmlns="http://www.w3.org/2000/svg"><path d="M1.523 4.433h17.454M22.525 8.246c1.765 0 3.197-1.622 3.197-3.623C25.721 2.622 24.29 1 22.524 1c-1.766 0-3.197 1.622-3.197 3.623 0 2 1.431 3.623 3.197 3.623zM25.377 18.395H7.924M4.433 21.827a3.433 3.433 0 100-6.866 3.433 3.433 0 000 6.866z"/></svg><svg viewBox="0 0 18 18" id="share" xmlns="http://www.w3.org/2000/svg"><path d="M3 9v5.6c0 .371.158.727.44.99.28.262.662.41 1.06.41h9c.398 0 .78-.148 1.06-.41.282-.263.44-.619.44-.99V9M12 5L9 2 6 5M9 2v10"/></svg><svg viewBox="0 0 34 34" id="terminal" xmlns="http://www.w3.org/2000/svg"><path d="M30.823 4.732h-6.108V2.733a.497.497 0 00-.5-.518.502.502 0 00-.5.518v1.999h-2.069a.5.5 0 00-.48.498.498.498 0 00.48.498h2.07v2.11h-.375a.952.952 0 00-.95.946v5.864a.946.946 0 00.95.946h.375v3.95a.497.497 0 00.5.519.501.501 0 00.499-.518v-3.951h.375a.952.952 0 00.95-.947V8.783a.946.946 0 00-.95-.947h-.375V5.728h6.108c.577 0 1.13.23 1.539.636.408.407.637.96.638 1.535v17.046H1V7.899c0-.576.23-1.128.637-1.535a2.183 2.183 0 011.54-.636h8.756V6.7h-.374a.952.952 0 00-.95.947v5.862a.946.946 0 00.949.947h.375v4.4a.497.497 0 00.5.48.5.5 0 00.499-.48v-4.4h.374a.953.953 0 00.878-.584.944.944 0 00.073-.363V7.647a.946.946 0 00-.95-.947h-.375v-.972h2.069a.5.5 0 00.48-.498.498.498 0 00-.48-.498h-2.069v-.246a.497.497 0 00-.5-.519.501.501 0 00-.499.519v.246H3.176c-.842 0-1.65.335-2.245.928A3.165 3.165 0 000 7.9v17.544c0 .84.336 1.645.931 2.239a3.184 3.184 0 002.245.928h7.605v2.532l-1.61 1.863h-.639a.5.5 0 00-.48.498.498.498 0 00.48.498h16.89a.5.5 0 00.5-.498.497.497 0 00-.5-.498h-.594l-1.609-1.863V28.61h7.605c.842 0 1.65-.335 2.245-.928.595-.594.93-1.4.931-2.239V7.9c0-.84-.336-1.645-.931-2.239a3.184 3.184 0 00-2.245-.928h-.001zm-5.783 9.866h-1.653V8.832h1.65v5.764h.003zM13.258 13.46h-1.65V7.696h1.65v5.764zm17.565 14.154h-10.11a.502.502 0 00-.52.498.497.497 0 00.52.498h1.507v2.22h-1.244a.5.5 0 00-.5.497.497.497 0 00.5.498h1.517l1.02 1.18H10.493l1.015-1.182h1.518a.5.5 0 00.5-.498.497.497 0 00-.5-.498H11.78V28.61h6.804a.5.5 0 00.48-.498.498.498 0 00-.48-.498H3.176a2.184 2.184 0 01-2.119-1.672h31.885a2.174 2.174 0 01-2.119 1.672z"/><path d="M27.097 13.636a.497.497 0 00.49.26.5.5 0 00.187-.058l2.3-1.236-.165.433a.499.499 0 00.834.527.499.499 0 00.1-.173l.56-1.472a.496.496 0 00-.29-.643l-1.564-.595a.501.501 0 00-.697.477.496.496 0 00.342.454l.363.138L27.3 12.96a.498.498 0 00-.202.674v.001zM5.217 14.522a.5.5 0 00-.5.498v1.203a.946.946 0 00.95.947h.376v2.652a.497.497 0 00.5.498.5.5 0 00.5-.498V17.17h.374a.952.952 0 00.95-.947v-5.864a.946.946 0 00-.95-.947h-.375v-.796a.497.497 0 00-.5-.498.5.5 0 00-.499.498v.796H5.67a.952.952 0 00-.95.947v2.539a.497.497 0 00.5.518.501.501 0 00.5-.518v-2.49h1.65v5.764H5.715v-1.153a.498.498 0 00-.5-.497zM17.45 13.47h.375v2.653a.497.497 0 00.5.518.501.501 0 00.5-.518V13.47h.374a.952.952 0 00.95-.947V8.617a.497.497 0 00-.5-.478.5.5 0 00-.5.478v3.857H17.5V3.456h1.65v3.038a.498.498 0 00.5.479.5.5 0 00.5-.479v-3.09a.946.946 0 00-.95-.947h-.375V.48a.498.498 0 00-.5-.479.5.5 0 00-.499.479v1.98h-.375a.952.952 0 00-.95.945v9.117a.946.946 0 00.95.947v.002zM2.952 23.364a.497.497 0 00.656.262l6.446-2.75.586 1.53a.498.498 0 00.704.26l10.649-5.724a.499.499 0 00-.474-.876L11.37 21.52l-.568-1.484a.498.498 0 00-.663-.28L3.214 22.71a.5.5 0 00-.262.654z"/></svg><svg fill="none" viewBox="0 0 11 11" id="tooltip" xmlns="http://www.w3.org/2000/svg"><path d="M4.973 6.881c0-.308.042-.554.124-.737.083-.184.246-.384.49-.602.245-.22.4-.377.466-.47.1-.141.15-.294.15-.459 0-.218-.059-.384-.176-.498-.116-.115-.286-.173-.512-.173-.216 0-.39.056-.523.17a.568.568 0 00-.196.456h-.914c.005-.41.156-.735.452-.974.298-.24.692-.359 1.18-.359.505 0 .897.119 1.178.355.284.237.425.567.425.992 0 .378-.19.75-.571 1.116l-.463.421c-.166.174-.25.428-.256.762h-.854zM4.91 7.963c0-.137.047-.247.14-.33a.532.532 0 01.376-.13.53.53 0 01.38.133c.092.086.139.195.139.327a.424.424 0 01-.136.32c-.09.086-.218.129-.383.129-.166 0-.294-.043-.384-.129a.43.43 0 01-.132-.32z" fill="#333248"/><circle cx="5.5" cy="5.5" r="5" stroke="#333248"/></svg><svg viewBox="0 0 34 28" id="tranding" xmlns="http://www.w3.org/2000/svg"><path d="M.586 12.638a.55.55 0 10.828.724l-.828-.724zm8.71-9.112l.333-.437a.55.55 0 00-.746.075l.413.362zM21.741 13l-.333.438a.55.55 0 00.734-.062L21.74 13zM33.4 1.376A.55.55 0 1032.6.624l.802.752zM1.414 13.362L9.71 3.89l-.827-.725-8.297 9.474.828.724zm7.55-9.398l12.444 9.474.666-.876L9.629 3.09l-.666.875zm13.178 9.412l11.26-12-.803-.752-11.26 12 .803.752z" fill="#728094"/><path d="M2 19v8M7 15v12M12 11v16M17 17v10M22 20v7M27 18v9M32 13v14" stroke="#728094" stroke-width="1.1" stroke-linecap="round"/><circle cx="18" cy="9" r="9" fill="#fff"/><circle cx="18" cy="9" r="7.5" stroke="#728094"/><path d="M19.943 10.68l.246.247-2.19 2.19-2.188-2.19.246-.246 1.501 1.5.442.443.442-.442 1.501-1.501zm-1.501-4.862L18 5.376l-.442.442-1.5 1.5-.246-.246L18 4.884l2.189 2.19-.246.245-1.501-1.5zM13.884 9l.246-.246.246.246-.246.246L13.884 9zm7.74 0l.246-.246.246.246-.246.247L21.624 9z" fill="#406AFF" stroke="#728094" stroke-width="1.25"/><mask id="bba" fill="#fff"><path d="M19.145 9L18 7.853l-.848.847-.097.098-.2.2-.002.002.001.002L18 10.148 19.145 9h.001L19.145 9z"/></mask><path d="M19.145 9L18 7.853l-.848.847-.097.098-.2.2-.002.002.001.002L18 10.148 19.145 9h.001L19.145 9z" fill="#406AFF"/><path d="M19.145 9v1.25h3.018L20.03 8.116 19.145 9zM18 7.853l.884-.884-.884-.884-.884.884.884.884zm-.848.847v1.25h.518l.366-.366-.884-.884zm0 0V7.45h-.518l-.366.367.884.883zm-.097.098l.884.884-.884-.884zm-.2.2l.869.898.007-.006.007-.008L16.853 9zM16.851 9l-.87-.898-.898.87.87.898.898-.87zm.001.002l-.897.87.007.007.006.007.884-.884zM18 10.148l-.884.883.884.884.884-.884-.884-.883zM19.145 9l.884.884.037-.037.033-.04-.954-.807zm.001 0l.954.807 1.009-1.191-1.383-.724L19.146 9zm-.001 1.249v-2.5 2.5zm.884-2.134l-1.146-1.147-1.768 1.768 1.147 1.147 1.767-1.768zm-2.914-1.147l-.848.848 1.768 1.767.848-.847-1.768-1.768zm.036.481v2.5-2.5zm-.884.367l-.097.097 1.768 1.767.097-.097-1.768-1.767zm-.097.097l-.2.2 1.767 1.768.201-.2-1.768-1.768zm-.187.187l-.001.001 1.74 1.796v-.002l-1.739-1.795zm-.029 1.77l.002.001 1.795-1.74-.002-.002-1.795 1.74zm.015.015l1.146 1.145 1.768-1.767-1.146-1.146-1.768 1.768zm2.914 1.145l1.146-1.146-1.767-1.768-1.147 1.147 1.768 1.767zm1.216-1.222l-1.907-1.617v.001l1.907 1.616zm-.373-1.916h-.001l-1.16 2.214h.001l1.16-2.214z" fill="#728094" mask="url(#bba)"/></svg><svg viewBox="0 0 34 34" id="wallet" xmlns="http://www.w3.org/2000/svg"><path d="M32.054 19.203h-.457V15.94c0-.812-.355-1.59-.985-2.165a3.535 3.535 0 00-2.374-.898H15.734v-.043c0-.822-.225-1.632-.653-2.355a5.17 5.17 0 00-1.801-1.791 5.797 5.797 0 00-2.517-.798 5.918 5.918 0 00-2.63.388.507.507 0 00-.283.265.444.444 0 00.006.37c.056.118.161.21.292.258.13.047.276.045.405-.006a4.765 4.765 0 012.118-.311c.724.058 1.42.278 2.026.642.607.364 1.105.86 1.45 1.442.345.583.525 1.234.526 1.896v.043h-2.497l-1.415-2.495a.505.505 0 00-.195-.191.57.57 0 00-.553 0 .505.505 0 00-.195.191l-1.411 2.497H5.912v-.043a3.74 3.74 0 01.879-2.4.442.442 0 00.033-.537.502.502 0 00-.137-.141.555.555 0 00-.393-.093.565.565 0 00-.196.062.517.517 0 00-.154.126 4.643 4.643 0 00-1.093 2.983v.043H3.36a3.535 3.535 0 00-2.374.898C.355 14.35.001 15.129 0 15.94v14.018c.001.812.355 1.59.985 2.165.63.574 1.483.897 2.374.898h18.188c.14 0 .275-.05.375-.142.1-.09.155-.213.155-.342a.463.463 0 00-.155-.342.558.558 0 00-.375-.141H3.359c-.61 0-1.196-.221-1.627-.615a2.01 2.01 0 01-.674-1.484v-1.554h3.676c.126 0 .25-.022.366-.066a.958.958 0 00.31-.19l.957-.872H7.82c.115.172.29.305.495.378.206.074.433.084.646.029.212-.055.4-.172.533-.332a.874.874 0 00.206-.559.874.874 0 00-.206-.559 1.024 1.024 0 00-.533-.332 1.108 1.108 0 00-.646.03.998.998 0 00-.495.377H6.329c-.125 0-.25.022-.365.066a.96.96 0 00-.31.19l-.957.872H1.06V25.14h10.126c.116.172.29.305.496.378.206.074.432.084.645.029.213-.055.4-.171.534-.332a.874.874 0 00.206-.559.874.874 0 00-.206-.559 1.024 1.024 0 00-.534-.332 1.108 1.108 0 00-.645.03.998.998 0 00-.496.377H1.061v-2.324h4.64l1.05.958a.96.96 0 00.31.19c.116.043.24.065.366.065h6.854c.115.172.29.305.495.378.206.074.433.084.646.029.213-.055.4-.171.534-.332a.874.874 0 00.205-.559.874.874 0 00-.206-.559 1.023 1.023 0 00-.533-.332 1.11 1.11 0 00-.646.029.998.998 0 00-.495.378H7.47l-1.052-.958a.958.958 0 00-.31-.19 1.03 1.03 0 00-.365-.065H1.057v-1.66h5.08l.96.872a.96.96 0 00.309.19c.115.043.24.065.365.065h1.382c.115.172.29.305.495.378.206.074.433.084.646.029.213-.055.4-.172.533-.332a.874.874 0 00.206-.559.874.874 0 00-.206-.559 1.023 1.023 0 00-.533-.332 1.107 1.107 0 00-.646.029.998.998 0 00-.495.378H7.815l-.958-.872a.958.958 0 00-.31-.19 1.028 1.028 0 00-.365-.066h-5.12v-2.309c0-.556.242-1.09.673-1.484a2.419 2.419 0 011.627-.614H28.24c.61 0 1.195.221 1.627.614.431.394.674.928.674 1.484v3.265h-9.417c-.516 0-1.01.187-1.375.52a1.7 1.7 0 00-.57 1.253v3.946c0 .47.206.921.57 1.254.365.332.86.52 1.375.52h9.41v3.264a2.01 2.01 0 01-.673 1.484 2.419 2.419 0 01-1.627.615H24.34a.558.558 0 00-.375.141.463.463 0 00-.155.342c0 .129.056.252.155.343.1.09.235.141.375.141h3.899c.89 0 1.744-.324 2.374-.898.63-.574.984-1.353.985-2.165v-3.264h.457c.516 0 1.01-.188 1.375-.52a1.7 1.7 0 00.57-1.254v-3.946a1.7 1.7 0 00-.57-1.253 2.047 2.047 0 00-1.375-.52v-.006zm-21.761-7.545l.69 1.22h-1.38l.69-1.22zm22.646 13.265a.773.773 0 01-.26.57.93.93 0 01-.624.236H21.123a.93.93 0 01-.625-.236.773.773 0 01-.259-.57v-3.946c0-.214.093-.419.26-.57a.93.93 0 01.624-.236h10.931a.93.93 0 01.625.236.773.773 0 01.26.57v3.946z"/><path d="M23.773 21.03c-.383 0-.759.105-1.078.3-.32.194-.568.47-.715.794-.147.323-.186.68-.11 1.023.074.343.26.659.53.906.272.248.618.416.995.485.376.068.767.033 1.122-.101.354-.134.657-.361.87-.652.214-.291.328-.634.328-.984 0-.47-.205-.92-.57-1.251a2.043 2.043 0 00-1.372-.52zm0 2.574a.941.941 0 01-.489-.135.824.824 0 01-.324-.36.738.738 0 01-.05-.464.784.784 0 01.241-.412.91.91 0 01.45-.22.96.96 0 01.51.046c.16.061.298.164.395.296a.754.754 0 01.148.446.77.77 0 01-.258.568.926.926 0 01-.623.235zM18.946 9.772a.574.574 0 00.395-.06.489.489 0 00.236-.295.447.447 0 00-.057-.361.527.527 0 00-.318-.222 4.539 4.539 0 01-1.83-.878 4.017 4.017 0 01-1.184-1.545 3.675 3.675 0 01-.276-1.869c.072-.633.31-1.242.694-1.775.383-.533.9-.975 1.51-1.289a4.706 4.706 0 011.988-.513 4.747 4.747 0 012.027.375c.632.27 1.185.675 1.612 1.18a5.474 5.474 0 00-1.416.946 2.042 2.042 0 00-1.043-.285H19.9a.569.569 0 00-.279.073.503.503 0 00-.195.196l-.542.993h-1.01a.558.558 0 00-.375.142.463.463 0 00-.156.342c0 .128.056.251.155.342.1.09.235.141.376.141h.48l-.307.563a.448.448 0 00.023.47c.048.07.114.129.193.169a.57.57 0 00.258.06h2.25a4.676 4.676 0 001.01 3.169c.665.845 1.602 1.479 2.682 1.812 1.079.333 2.246.35 3.335.046a5.478 5.478 0 002.74-1.737 4.7 4.7 0 001.115-2.867 4.654 4.654 0 00-.928-2.922c-.638-.862-1.555-1.52-2.623-1.88a5.945 5.945 0 00-3.333-.134A5.31 5.31 0 0022.827.578 5.866 5.866 0 0020.301 0a5.872 5.872 0 00-2.53.559 5.32 5.32 0 00-1.958 1.566 4.713 4.713 0 00-.934 2.217A4.557 4.557 0 0015.18 6.7a4.974 4.974 0 001.469 1.96 5.631 5.631 0 002.3 1.115l-.003-.004zm.435-4.068l.852-1.554h1.05a.92.92 0 01.374.078c-.327.452-.57.951-.72 1.476h-1.556zm11.208 1.24a3.75 3.75 0 01-.738 2.22 4.32 4.32 0 01-1.967 1.471c-.8.303-1.681.382-2.531.228a4.526 4.526 0 01-2.244-1.094 3.9 3.9 0 01-1.199-2.046 3.67 3.67 0 01.25-2.308 4.1 4.1 0 011.613-1.793 4.688 4.688 0 012.434-.674c1.162.001 2.276.423 3.097 1.172.822.749 1.284 1.765 1.285 2.824z"/><path d="M25.29 9.114l1.26-.004c.31 0 .613-.086.869-.248.255-.16.45-.39.559-.655.109-.265.126-.554.05-.828a1.377 1.377 0 00-.477-.707c.124-.192.19-.41.192-.632a1.172 1.172 0 00-.183-.634 1.324 1.324 0 00-.508-.464 1.483 1.483 0 00-.694-.168h-1.074c-.14 0-.275.051-.375.142a.463.463 0 00-.155.342V8.63c0 .128.056.251.155.342.1.09.234.142.375.142h.006zm1.261-.972h-.73v-.847h.73a.507.507 0 01.342.117c.046.04.082.088.106.14a.393.393 0 01-.106.473.507.507 0 01-.342.118zm-.187-2.4c.085 0 .166.03.226.085a.28.28 0 01.094.207.28.28 0 01-.094.206.337.337 0 01-.226.086h-.544V5.74h.544z"/></svg><svg fill="none" viewBox="0 0 13 13" id="wechat" xmlns="http://www.w3.org/2000/svg"><g clip-path="url(#bdclip0_6_17490)"><path d="M12.885 1.95C12.885.873 12.02 0 10.953 0h-9.02A1.941 1.941 0 000 1.95v9.1C0 12.127.865 13 1.933 13h9.02a1.941 1.941 0 001.932-1.95v-9.1z" fill="#2DC100"/><path d="M8.623 8.152c-1.04-.055-1.944-.373-2.678-1.091-.742-.726-1.08-1.616-.988-2.719-.406.05-.777.107-1.149.138a.708.708 0 01-.39-.066c-.362-.206-.708-.438-1.12-.698.076.344.125.646.211.935.064.213.035.332-.16.47-1.248.89-1.775 2.22-1.38 3.59.364 1.268 1.258 2.037 2.474 2.438 1.66.546 3.524-.011 4.533-1.34.365-.48.588-1.02.647-1.657zm-4.786.427a.482.482 0 01-.461.484.468.468 0 01-.485-.454.462.462 0 01.456-.482.475.475 0 01.49.452zm2.497.484a.482.482 0 01-.468-.477.47.47 0 01.48-.461c.265.003.466.209.463.475a.464.464 0 01-.475.463z" fill="#fff"/><path d="M10.96 1.61c-.33.149-.632.37-.953.404-.32.034-.657-.152-.993-.187-1.02-.105-1.935.182-2.69.886-1.434 1.338-1.229 3.39.43 4.488 1.476.974 3.639.65 4.679-.703.907-1.18.8-2.748-.307-3.74-.32-.286-.436-.522-.23-.9.037-.07.042-.16.064-.247zM7.21 5.273a.39.39 0 01.39.375.392.392 0 01-.387.407.396.396 0 01-.392-.405.392.392 0 01.39-.377zm2.417.781a.39.39 0 01-.385-.374.383.383 0 01.38-.404c.21 0 .376.16.384.371a.387.387 0 01-.38.407z" fill="#fff"/></g><defs><clipPath id="bdclip0_6_17490"><path fill="#fff" transform="matrix(1 0 0 -1 0 13)" d="M0 0h12.885v13H0z"/></clipPath></defs></svg></svg>