<svg width="70" height="52" viewBox="0 0 70 52" fill="none" xmlns="http://www.w3.org/2000/svg">
<path d="M19.363 18.1626C19.2312 18.3198 19.0733 18.4463 18.8893 18.542C18.7075 18.6377 18.5075 18.6855 18.2894 18.6855C18.0031 18.6855 17.7532 18.6149 17.5396 18.4736C17.3283 18.3324 17.1647 18.1341 17.0488 17.8789C16.9329 17.6214 16.875 17.3377 16.875 17.0278C16.875 16.6951 16.9375 16.3955 17.0625 16.1289C17.1897 15.8623 17.3692 15.6584 17.601 15.5171C17.8327 15.3758 18.1031 15.3052 18.4121 15.3052C18.9029 15.3052 19.2892 15.4897 19.5709 15.8589C19.8549 16.2257 19.9969 16.7271 19.9969 17.3628V17.5474C19.9969 18.5158 19.8061 19.2233 19.4244 19.6699C19.0426 20.1143 18.4666 20.3421 17.6964 20.3535H17.5737V19.8203H17.7066C18.2269 19.8112 18.6268 19.6756 18.9063 19.4136C19.1858 19.1493 19.338 18.7323 19.363 18.1626ZM18.3917 18.1626C18.603 18.1626 18.7972 18.0977 18.9745 17.9678C19.154 17.8379 19.2846 17.6772 19.3664 17.4858V17.2329C19.3664 16.8182 19.2767 16.481 19.0972 16.2212C18.9177 15.9614 18.6905 15.8315 18.4155 15.8315C18.1383 15.8315 17.9156 15.9386 17.7475 16.1528C17.5794 16.3647 17.4953 16.645 17.4953 16.9937C17.4953 17.3332 17.576 17.6134 17.7373 17.8345C17.9009 18.0532 18.119 18.1626 18.3917 18.1626Z" fill="#406AFF"/>
<path d="M23.9778 18.2275C23.9778 18.9681 23.8516 19.5184 23.5994 19.8784C23.3472 20.2384 22.953 20.4185 22.4168 20.4185C21.8874 20.4185 21.4954 20.243 21.2409 19.8921C20.9865 19.5389 20.8547 19.0125 20.8456 18.313V17.4688C20.8456 16.7373 20.9717 16.1938 21.2239 15.8384C21.4761 15.4829 21.8715 15.3052 22.41 15.3052C22.9439 15.3052 23.337 15.4772 23.5892 15.8213C23.8414 16.1631 23.9709 16.6917 23.9778 17.4072V18.2275ZM23.3472 17.3628C23.3472 16.8273 23.2722 16.4377 23.1223 16.1938C22.9723 15.9478 22.7349 15.8247 22.41 15.8247C22.0873 15.8247 21.8522 15.9466 21.7045 16.1904C21.5568 16.4342 21.4807 16.8091 21.4761 17.3149V18.3267C21.4761 18.8644 21.5534 19.262 21.7079 19.5195C21.8647 19.7747 22.101 19.9023 22.4168 19.9023C22.7281 19.9023 22.9587 19.7816 23.1087 19.54C23.2609 19.2985 23.3404 18.918 23.3472 18.3984V17.3628Z" fill="#406AFF"/>
<path d="M24.731 16.3306C24.731 16.0321 24.8253 15.786 25.0139 15.5923C25.2047 15.3986 25.449 15.3018 25.7466 15.3018C26.0488 15.3018 26.2931 15.3997 26.4794 15.5957C26.668 15.7894 26.7623 16.0412 26.7623 16.3511V16.5938C26.7623 16.8945 26.6668 17.1406 26.476 17.332C26.2874 17.5212 26.0465 17.6157 25.7534 17.6157C25.4581 17.6157 25.2138 17.5212 25.0207 17.332C24.8275 17.1406 24.731 16.8866 24.731 16.5698V16.3306ZM25.2013 16.5938C25.2013 16.7715 25.2513 16.9185 25.3513 17.0347C25.4512 17.1486 25.5853 17.2056 25.7534 17.2056C25.9148 17.2056 26.0443 17.1497 26.142 17.0381C26.242 16.9264 26.2919 16.7738 26.2919 16.5801V16.3306C26.2919 16.1528 26.2431 16.0059 26.1454 15.8896C26.0477 15.7734 25.9148 15.7153 25.7466 15.7153C25.5785 15.7153 25.4456 15.7734 25.3479 15.8896C25.2502 16.0059 25.2013 16.1574 25.2013 16.3442V16.5938ZM27.1474 19.1299C27.1474 18.8314 27.2417 18.5864 27.4303 18.395C27.6212 18.2013 27.8654 18.1045 28.1631 18.1045C28.4607 18.1045 28.705 18.2002 28.8958 18.3916C29.0867 18.583 29.1821 18.8371 29.1821 19.1538V19.3965C29.1821 19.695 29.0867 19.9411 28.8958 20.1348C28.7072 20.3262 28.4653 20.4219 28.1699 20.4219C27.8745 20.4219 27.6302 20.3273 27.4371 20.1382C27.244 19.9468 27.1474 19.6927 27.1474 19.376V19.1299ZM27.6177 19.3965C27.6177 19.5765 27.6677 19.7246 27.7677 19.8408C27.8677 19.9548 28.0017 20.0117 28.1699 20.0117C28.3335 20.0117 28.4641 19.9559 28.5618 19.8442C28.6595 19.7303 28.7084 19.5765 28.7084 19.3828V19.1299C28.7084 18.9499 28.6584 18.8029 28.5584 18.689C28.4607 18.575 28.3289 18.5181 28.1631 18.5181C28.0017 18.5181 27.87 18.575 27.7677 18.689C27.6677 18.8006 27.6177 18.9521 27.6177 19.1436V19.3965ZM25.8966 19.9741L25.5387 19.7485L27.962 15.8589L28.3198 16.0845L25.8966 19.9741Z" fill="#406AFF"/>
<rect x="0.5" y="0.5" width="69" height="51" rx="7.5" stroke="#406AFF"/>
<rect x="10.2227" y="9.6001" width="24.2778" height="16.55" rx="4.5" stroke="#406AFF"/>
<path d="M48.9915 17.097L50.8796 15.2036L52.7686 17.098L53.8672 15.9963L50.8796 13L47.893 15.9953L48.9915 17.097ZM46.0186 17.8748L47.1172 16.7731L48.2158 17.8748L47.1171 18.9765L46.0186 17.8748ZM48.9915 18.6529L50.8796 20.5463L52.7685 18.652L53.8677 19.7532L53.8672 19.7538L50.8796 22.75L47.8929 19.7548L47.8913 19.7532L48.9915 18.6529ZM53.5436 17.8754L54.6422 16.7737L55.7408 17.8754L54.6421 18.9772L53.5436 17.8754Z" fill="#406AFF"/>
<path d="M51.9933 17.8743H51.9938L50.879 16.7563L50.0551 17.5826H50.0551L49.9604 17.6775L49.7652 17.8734L49.7637 17.8749L49.7652 17.8765L50.879 18.9935L51.9938 17.8755L51.9943 17.8749L51.9933 17.8743Z" fill="#406AFF"/>
<rect y="0.708115" width="4.1926" height="4.1926" rx="1.5" transform="matrix(0.706097 0.708115 -0.706097 0.708115 13.8887 35.9567)" stroke="#406AFF"/>
<rect y="0.708115" width="4.1926" height="4.1926" rx="1.5" transform="matrix(0.706097 0.708115 -0.706097 0.708115 35.5 35.9567)" stroke="#406AFF"/>
<rect y="0.708115" width="4.1926" height="4.1926" rx="1.5" transform="matrix(0.706097 0.708115 -0.706097 0.708115 57.5371 35.9567)" stroke="#406AFF"/>
<line x1="16.2041" y1="39.1499" x2="32.4078" y2="39.1499" stroke="#406AFF"/>
<line x1="37.5928" y1="39.1499" x2="54.4446" y2="39.1499" stroke="#406AFF"/>
<path d="M59.1299 17.8751C59.1299 22.4466 55.4349 26.1501 50.8799 26.1501C46.3249 26.1501 42.6299 22.4466 42.6299 17.8751C42.6299 13.3036 46.3249 9.6001 50.8799 9.6001C55.4349 9.6001 59.1299 13.3036 59.1299 17.8751Z" stroke="#406AFF"/>
</svg>
