<svg width="9" height="9" viewBox="0 0 9 9" xmlns="http://www.w3.org/2000/svg">
<path d="M4.5 0C2.01871 0 0 2.01866 0 4.49998C0 6.9813 2.01871 9 4.5 9C6.98129 9 9 6.9813 9 4.49998C9 2.01866 6.98133 0 4.5 0ZM7.08398 3.73989L4.25686 6.567C4.13665 6.68721 3.97686 6.75337 3.80687 6.75337C3.63689 6.75337 3.4771 6.68721 3.35689 6.567L1.91602 5.12614C1.79581 5.00593 1.7296 4.84614 1.7296 4.67616C1.7296 4.50613 1.79581 4.34633 1.91602 4.22613C2.03618 4.10592 2.19598 4.03971 2.36601 4.03971C2.53599 4.03971 2.69583 4.10592 2.81599 4.22617L3.80683 5.21695L6.18391 2.83988C6.30412 2.71967 6.46392 2.65351 6.6339 2.65351C6.80388 2.65351 6.96368 2.71967 7.08389 2.83988C7.3321 3.08809 7.3321 3.49177 7.08398 3.73989Z"/>
</svg>
