<svg width="15" height="15" viewBox="0 0 15 15" xmlns="http://www.w3.org/2000/svg">
<path d="M7.86172 8.075H7.93588L7.93671 8.00084L7.9928 3.00084L7.99365 2.925H7.91781H7.03196H6.95595L6.95697 3.00101L7.02417 8.00101L7.02516 8.075H7.09916H7.86172ZM7.06347 9.97862L7.06339 9.97872C6.96957 10.1032 6.925 10.2563 6.925 10.4329C6.925 10.6094 6.96957 10.7625 7.06339 10.887L7.06336 10.887L7.06496 10.889C7.16748 11.0158 7.316 11.075 7.49772 11.075C7.67943 11.075 7.82796 11.0158 7.93047 10.889L7.93048 10.889L7.93124 10.888C8.02857 10.7635 8.075 10.61 8.075 10.4329C8.075 10.2559 8.02869 10.1026 7.93161 9.97814C7.82977 9.8438 7.68104 9.77981 7.49772 9.77981C7.31418 9.77981 7.16531 9.84395 7.06347 9.97862ZM7 10.4329C7 10.2693 7.0411 10.1329 7.12329 10.0239H7.87215C7.95738 10.1329 8 10.2693 8 10.4329C8 10.5965 7.95738 10.7328 7.87215 10.8419C7.78691 10.9473 7.6621 11 7.49772 11C7.33333 11 7.20852 10.9473 7.12329 10.8419C7.0411 10.7328 7 10.5965 7 10.4329Z"  stroke-width="0.15"/>
<rect x="0.4" y="0.4" width="14.2" height="14.2" rx="1.6" stroke-width="0.8"/>
</svg>
