<svg width="15" height="15" viewBox="0 0 15 15" xmlns="http://www.w3.org/2000/svg">
<path d="M7.85388 8.7987H7.95277L7.95387 8.69983L8.0178 3.00112L8.01894 2.9H7.91781H7.03196H6.93092L6.93197 3.00104L6.99133 8.69975L6.99236 8.7987H7.09132H7.85388ZM7.04353 9.96354L7.04343 9.96367C6.94573 10.0933 6.9 10.252 6.9 10.4329C6.9 10.6137 6.94573 10.7724 7.04343 10.902L7.04338 10.9021L7.04552 10.9047C7.15379 11.0386 7.31023 11.1 7.49772 11.1C7.68521 11.1 7.84164 11.0386 7.94991 10.9047L7.94992 10.9047L7.95094 10.9034C8.0523 10.7737 8.1 10.6146 8.1 10.4329C8.1 10.2514 8.05246 10.0925 7.95143 9.96291C7.84406 9.82136 7.68735 9.75481 7.49772 9.75481C7.3078 9.75481 7.15091 9.82155 7.04353 9.96354ZM7 10.4329C7 10.2693 7.0411 10.1329 7.12329 10.0239H7.87215C7.95738 10.1329 8 10.2693 8 10.4329C8 10.5965 7.95738 10.7328 7.87215 10.8419C7.78691 10.9473 7.6621 11 7.49772 11C7.33333 11 7.20852 10.9473 7.12329 10.8419C7.0411 10.7328 7 10.5965 7 10.4329Z"  stroke="#728094" stroke-width="0.2"/>
<rect x="0.65" y="0.65" width="13.7" height="13.7" rx="1.35" stroke="#728094" stroke-width="1.3"/>
</svg>
