<svg width="70" height="52" viewBox="0 0 70 52" fill="none" xmlns="http://www.w3.org/2000/svg">
<rect x="0.5" y="0.5" width="69" height="51" rx="7.5" stroke="#406AFF"/>
<path d="M34.778 40.3844L27.3515 34.5201C27.1398 34.353 26.827 34.5042 26.827 34.7754V38.5555H20.0928C19.9138 38.5555 19.7688 38.701 19.7688 38.8805C19.7688 39.06 19.9138 39.2054 20.0928 39.2054H27.151C27.33 39.2054 27.475 39.06 27.475 38.8805V35.4449L34.0459 40.6336L27.4166 45.6197V42.3405C27.4166 42.161 27.2715 42.0155 27.0925 42.0155H19.6076C16.6941 42.0155 14.9334 40.2842 14.3803 37.4608C14.5729 37.6251 14.8066 37.8034 15.0838 37.9813C17.0742 39.2588 19.1447 39.2055 20.3221 39.2055C20.5011 39.2055 20.6462 39.06 20.6462 38.8805C20.6462 38.701 20.5011 38.5556 20.3221 38.5556C19.4033 38.5556 17.3647 38.6585 15.4623 37.4527C14.6016 36.907 14.2041 36.3531 14.2008 36.3485C14.0172 36.0855 13.6028 36.2226 13.6115 36.5436C13.6131 36.6058 13.661 38.0847 14.4134 39.5837C15.1191 40.9896 16.593 42.6654 19.6075 42.6654H26.7685V46.2696C26.7685 46.537 27.0738 46.6897 27.2869 46.5295L34.7718 40.8998C34.8523 40.8393 34.9002 40.7446 34.9014 40.6437C34.9026 40.5426 34.857 40.4469 34.778 40.3844Z" fill="#406AFF"/>
<path d="M36.4203 12.0604L43.8468 17.9247C44.0585 18.0918 44.3712 17.9406 44.3712 17.6694V13.8893H50.8802C51.0592 13.8893 51.2042 13.7438 51.2042 13.5643C51.2042 13.3849 51.0592 13.2394 50.8802 13.2394H44.0472C43.8682 13.2394 43.7232 13.3849 43.7232 13.5643V17L37.1524 11.8113L43.7817 6.8251V10.1043C43.7817 10.2838 43.9267 10.4293 44.1057 10.4293H51.5907C54.5041 10.4293 56.2649 12.1606 56.8179 14.9841C56.6253 14.8198 56.3916 14.6414 56.1145 14.4635C54.124 13.186 52.0536 13.2394 50.8761 13.2394C50.6971 13.2394 50.5521 13.3848 50.5521 13.5643C50.5521 13.7438 50.6971 13.8893 50.8761 13.8893C51.7949 13.8893 53.8336 13.7863 55.7359 14.9922C56.5967 15.5378 56.9941 16.0917 56.9974 16.0964C57.1811 16.3593 57.5955 16.2222 57.5868 15.9013C57.5851 15.839 57.5372 14.3601 56.7848 12.8611C56.0791 11.4552 54.6052 9.7794 51.5907 9.7794H44.4298V6.17525C44.4298 5.90782 44.1245 5.75509 43.9114 5.9153L36.4264 11.5451C36.3459 11.6056 36.298 11.7003 36.2969 11.8012C36.2956 11.9022 36.3412 11.998 36.4203 12.0604Z" fill="#406AFF"/>
<path d="M24.928 9.7498C24.928 9.86627 24.8577 10.0326 24.6026 10.2342C24.3512 10.4329 23.9659 10.6271 23.4585 10.7967C22.4474 11.1347 21.0283 11.3498 19.4447 11.3498C17.8611 11.3498 16.4419 11.1347 15.4308 10.7967C14.9235 10.6271 14.5381 10.4329 14.2868 10.2342C14.0316 10.0326 13.9613 9.86627 13.9613 9.7498C13.9613 9.63334 14.0316 9.46705 14.2868 9.26537C14.5381 9.06672 14.9235 8.8725 15.4308 8.70289C16.4419 8.36489 17.8611 8.1498 19.4447 8.1498C21.0283 8.1498 22.4474 8.36489 23.4585 8.70289C23.9659 8.8725 24.3512 9.06672 24.6026 9.26537C24.8577 9.46705 24.928 9.63334 24.928 9.7498Z" stroke="#406AFF" stroke-width="0.7"/>
<path d="M13.9365 16.8999C13.9365 17.9769 16.5482 18.4218 19.7699 18.4218C20.7462 18.4218 21.3423 18.3416 22.1508 18.1999" stroke="#406AFF" stroke-width="0.7" stroke-linecap="round"/>
<path d="M24.9544 13C24.9544 14.077 22.2496 14.95 19.0279 14.95C18.259 14.95 17.5248 14.9003 16.8525 14.8099" stroke="#406AFF" stroke-width="0.7" stroke-linecap="round"/>
<path d="M24.9544 20.7998C24.9544 21.8768 22.2496 22.7498 19.0279 22.7498C18.259 22.7498 17.5248 22.7001 16.8525 22.6097" stroke="#406AFF" stroke-width="0.7" stroke-linecap="round"/>
<path d="M24.955 24.6997C24.955 25.7767 22.6674 26.6497 19.4458 26.6497C16.2241 26.6497 13.9365 25.7767 13.9365 24.6997" stroke="#406AFF" stroke-width="0.7"/>
<line x1="13.9613" y1="9.75" x2="13.9613" y2="24.7" stroke="#406AFF" stroke-width="0.7"/>
<line x1="24.9799" y1="9.75" x2="24.9799" y2="24.7" stroke="#406AFF" stroke-width="0.7"/>
<path d="M30.1138 24.3746C30.1138 27.2336 27.803 29.5496 24.9546 29.5496C22.1061 29.5496 19.7953 27.2336 19.7953 24.3746C19.7953 21.5156 22.1061 19.1996 24.9546 19.1996C27.803 19.1996 30.1138 21.5156 30.1138 24.3746Z" fill="white" stroke="#406AFF" stroke-width="0.7"/>
<path d="M23.8119 23.8942L24.9384 22.7645L26.0655 23.8948L26.721 23.2374L24.9384 21.4497L23.1564 23.2368L23.8119 23.8942ZM22.0381 24.3583L22.6936 23.7009L23.349 24.3582L22.6936 25.0156L22.0381 24.3583ZM23.8119 24.8225L24.9384 25.9522L26.0655 24.822L26.7213 25.479L26.721 25.4793L24.9384 27.267L23.1564 25.4799L23.1555 25.479L23.8119 24.8225ZM26.5279 24.3586L27.1834 23.7013L27.8388 24.3586L27.1833 25.016L26.5279 24.3586Z" fill="#406AFF"/>
<path d="M25.6037 24.358H25.604L24.9389 23.6909L24.4473 24.1839H24.4473L24.3908 24.2405L24.2744 24.3574L24.2734 24.3583L24.2744 24.3592L24.9389 25.0257L25.604 24.3587L25.6044 24.3583L25.6037 24.358Z" fill="#406AFF"/>
<path d="M53.4465 25.3499C53.4465 25.4664 53.3763 25.6327 53.1211 25.8343C52.8698 26.033 52.4844 26.2272 51.977 26.3968C50.9659 26.7348 49.5468 26.9499 47.9632 26.9499C46.3796 26.9499 44.9605 26.7348 43.9494 26.3968C43.442 26.2272 43.0567 26.033 42.8053 25.8343C42.5501 25.6327 42.4799 25.4664 42.4799 25.3499C42.4799 25.2334 42.5501 25.0671 42.8053 24.8655C43.0567 24.6668 43.442 24.4726 43.9494 24.303C44.9605 23.965 46.3796 23.7499 47.9632 23.7499C49.5468 23.7499 50.9659 23.965 51.977 24.303C52.4844 24.4726 52.8698 24.6668 53.1211 24.8655C53.3763 25.0671 53.4465 25.2334 53.4465 25.3499Z" stroke="#406AFF" stroke-width="0.7"/>
<path d="M42.4551 32.5C42.4551 33.577 45.0668 34.0219 48.2884 34.0219C49.2647 34.0219 49.8608 33.9417 50.6694 33.8" stroke="#406AFF" stroke-width="0.7" stroke-linecap="round"/>
<path d="M53.4729 28.6001C53.4729 29.6771 50.7681 30.5501 47.5465 30.5501C46.7775 30.5501 46.0433 30.5004 45.3711 30.41" stroke="#406AFF" stroke-width="0.7" stroke-linecap="round"/>
<path d="M53.4729 36.3999C53.4729 37.4769 50.7681 38.3499 47.5465 38.3499C46.7775 38.3499 46.0433 38.3002 45.3711 38.2098" stroke="#406AFF" stroke-width="0.7" stroke-linecap="round"/>
<path d="M53.4736 40.2998C53.4736 41.3768 51.186 42.2498 47.9643 42.2498C44.7427 42.2498 42.4551 41.3768 42.4551 40.2998" stroke="#406AFF" stroke-width="0.7"/>
<line x1="42.4799" y1="25.3501" x2="42.4799" y2="40.3001" stroke="#406AFF" stroke-width="0.7"/>
<line x1="53.4984" y1="25.3501" x2="53.4984" y2="40.3001" stroke="#406AFF" stroke-width="0.7"/>
<path d="M58.6324 39.9747C58.6324 42.8337 56.3216 45.1497 53.4731 45.1497C50.6247 45.1497 48.3139 42.8337 48.3139 39.9747C48.3139 37.1157 50.6247 34.7997 53.4731 34.7997C56.3216 34.7997 58.6324 37.1157 58.6324 39.9747Z" fill="white" stroke="#406AFF" stroke-width="0.7"/>
<path fill-rule="evenodd" clip-rule="evenodd" d="M51.7051 39.6036L53.6157 38.7151L55.4676 39.6263L53.6128 36.3999L51.7051 39.6036ZM51.711 40.5894L53.6187 41.8086L55.5646 40.5894L53.6363 43.5499L51.711 40.5894Z" fill="#406AFF"/>
<path fill-rule="evenodd" clip-rule="evenodd" d="M53.6238 39.1494L51.6338 40.0736L53.6238 41.2928L55.558 40.0995L53.6238 39.1494Z" fill="#406AFF"/>
</svg>
