<svg width="13" height="13" viewBox="0 0 13 13" fill="none" xmlns="http://www.w3.org/2000/svg">
<path d="M10.8994 4.84985H5.94937C5.34185 4.84985 4.84937 5.34234 4.84937 5.94985V10.8999C4.84937 11.5074 5.34185 11.9999 5.94937 11.9999H10.8994C11.5069 11.9999 11.9994 11.5074 11.9994 10.8999V5.94985C11.9994 5.34234 11.5069 4.84985 10.8994 4.84985Z" stroke="#728094" stroke-width="1.5" stroke-linecap="round" stroke-linejoin="round"/>
<path d="M2.65 8.15H2.1C1.80826 8.15 1.52847 8.03411 1.32218 7.82782C1.11589 7.62153 1 7.34174 1 7.05V2.1C1 1.80826 1.11589 1.52847 1.32218 1.32218C1.52847 1.11589 1.80826 1 2.1 1H7.05C7.34174 1 7.62153 1.11589 7.82782 1.32218C8.03411 1.52847 8.15 1.80826 8.15 2.1V2.65" stroke="#728094" stroke-width="1.5" stroke-linecap="round" stroke-linejoin="round"/>
</svg>
