<svg width="34" height="34" viewBox="0 0 34 34"  xmlns="http://www.w3.org/2000/svg">
<path d="M25.7414 30.8135C25.6976 30.7381 25.6393 30.672 25.5699 30.6191C25.5006 30.5662 25.4215 30.5274 25.3372 30.5051C25.2528 30.4827 25.1649 30.4772 25.0784 30.4888C24.992 30.5004 24.9087 30.529 24.8332 30.5728L24.8075 30.5873C24.7302 30.63 24.6622 30.6878 24.6075 30.7572C24.5527 30.8267 24.5124 30.9063 24.4889 30.9915C24.4653 31.0766 24.459 31.1657 24.4703 31.2533C24.4816 31.341 24.5102 31.4255 24.5546 31.5019C24.5989 31.5784 24.6581 31.6452 24.7286 31.6985C24.7991 31.7518 24.8795 31.7904 24.9652 31.8123C25.0508 31.8341 25.14 31.8386 25.2274 31.8255C25.3148 31.8124 25.3987 31.782 25.4742 31.7361L25.4999 31.7217C25.5754 31.6779 25.6416 31.6197 25.6946 31.5504C25.7476 31.4811 25.7864 31.402 25.8088 31.3176C25.8312 31.2333 25.8368 31.1454 25.8253 31.0589C25.8137 30.9724 25.7852 30.889 25.7414 30.8135Z"/>
<path d="M31.7215 8.50034C30.0403 5.58854 27.5334 3.24065 24.5179 1.75359C21.5023 0.266521 18.1135 -0.292937 14.78 0.145959C11.4465 0.584856 8.31804 2.0024 5.79017 4.21932C3.2623 6.43625 1.44859 9.35299 0.578404 12.6007C-0.232062 15.6281 -0.190067 18.8205 0.699752 21.8255C1.58957 24.8305 3.29259 27.5311 5.62074 29.6291C7.94888 31.727 10.8116 33.1408 13.8926 33.7141C16.9737 34.2874 20.1533 33.998 23.0803 32.8779C23.1642 32.8485 23.2413 32.8026 23.3072 32.7428C23.373 32.683 23.4262 32.6106 23.4635 32.5299C23.5008 32.4492 23.5216 32.3619 23.5245 32.273C23.5275 32.1842 23.5126 32.0956 23.4807 32.0126C23.4488 31.9296 23.4005 31.8539 23.3388 31.7899C23.2771 31.7259 23.2031 31.6749 23.1213 31.64C23.0396 31.6051 22.9516 31.587 22.8627 31.5867C22.7738 31.5864 22.6857 31.604 22.6037 31.6384C20.137 32.5967 17.4667 32.9105 14.845 32.5502C12.2232 32.1898 9.73662 31.1673 7.61987 29.579L8.21515 26.4726L8.50155 26.3796C9.02229 26.2097 9.4544 25.8402 9.70314 25.3522C9.95189 24.8642 9.99697 24.2974 9.8285 23.7762L9.61911 23.128C9.57018 22.9792 9.57018 22.8187 9.61911 22.6699C9.71041 22.3916 9.7415 22.097 9.71032 21.8057C9.67914 21.5145 9.58639 21.2332 9.43823 20.9805C9.29007 20.7278 9.08988 20.5095 8.85094 20.34C8.612 20.1705 8.33976 20.0538 8.05229 19.9976L6.55286 19.7047L3.6599 17.5057C3.57448 17.4409 3.47462 17.3976 3.36886 17.3798C3.2631 17.3619 3.15458 17.3699 3.05258 17.403L1.3558 17.9534C1.32075 17.3493 1.32075 16.7436 1.3558 16.1395C1.42238 16.2021 1.46651 16.2438 1.49298 16.2719C1.55981 16.3819 1.65584 16.4713 1.77042 16.5301C1.885 16.5889 2.01363 16.6147 2.14201 16.6048C2.54129 16.5843 2.93891 16.539 3.33257 16.4692C3.89416 16.389 4.45013 16.2927 4.45574 16.2919C4.56565 16.2735 4.66916 16.2276 4.75672 16.1587C4.84427 16.0897 4.91308 15.9999 4.95679 15.8973C5.0005 15.7948 5.01771 15.6829 5.00684 15.572C4.99597 15.4611 4.95736 15.3547 4.89458 15.2626L4.08349 14.068L5.24998 13.2337C5.32773 13.1781 5.39258 13.1064 5.44012 13.0235L7.24842 9.86659L7.97687 9.08599C8.34169 8.6934 8.58654 8.2046 8.6825 7.67733C8.77845 7.15006 8.72151 6.60635 8.5184 6.1104C8.27326 5.52038 7.8493 5.02207 7.30618 4.68558C10.0201 2.54945 13.3643 1.37096 16.8178 1.33372L15.6313 2.82112L11.2333 4.36307C11.145 4.39403 11.0644 4.44326 10.9965 4.50755C10.9286 4.57183 10.8751 4.64972 10.8393 4.73612L9.61108 7.71412C9.56764 7.81847 9.55155 7.93219 9.56432 8.0445C9.5771 8.15681 9.61832 8.264 9.68409 8.35593L11.4779 10.8686C11.1773 11.1737 10.9085 11.5087 10.6757 11.8682C10.5449 12.0544 10.4214 12.2301 10.3355 12.3279C10.2609 12.4138 10.1871 12.4972 10.1133 12.5798C9.68628 13.0187 9.32645 13.5183 9.04549 14.0624C8.73843 14.698 8.60693 15.4041 8.66463 16.1076C8.72232 16.811 8.96711 17.4863 9.37361 18.0633C9.76874 18.6099 10.3048 19.0391 10.9246 19.3052C11.5444 19.5712 12.2247 19.6641 12.8931 19.574C13.1121 19.5443 13.3288 19.5006 13.5422 19.4432C14.1118 19.302 14.2923 19.2884 14.4744 19.4592C14.5635 19.5395 14.5715 19.5579 14.5699 19.8403C14.5614 20.0612 14.5814 20.2823 14.6292 20.4982C14.7336 20.8474 14.9272 21.1635 15.1908 21.4152C15.2842 21.5066 15.3651 21.6099 15.4315 21.7224C15.5175 21.9437 15.5549 22.1809 15.541 22.4179C15.5272 22.6549 15.4625 22.8862 15.3513 23.0959L15.2999 23.2564C15.1225 24.1745 15.2966 25.1257 15.7877 25.9215C15.908 26.1854 16.0212 26.4349 16.095 26.6555C16.6919 28.4277 17.1379 28.8337 17.4989 28.9966C17.6811 29.0789 17.879 29.1207 18.079 29.1193C19.0438 28.9713 19.9116 28.4494 20.4946 27.6664C20.7135 27.3855 20.8551 27.0522 20.9053 26.6997C20.919 26.5971 20.9477 26.4971 20.9904 26.4028C21.0534 26.3023 21.1265 26.2085 21.2086 26.1228C21.4569 25.868 21.6428 25.5591 21.7517 25.2203C21.8296 24.9454 21.9864 24.6994 22.2026 24.5127L22.3494 24.3523C22.6721 24.0367 22.8863 23.6268 22.961 23.1817C23.0357 22.7366 22.967 22.2793 22.765 21.8757C22.562 21.2202 22.9174 20.8014 23.7758 20.0016C24.1675 19.6621 24.5212 19.2812 24.8308 18.8656C24.984 18.6844 25.0899 18.4681 25.1389 18.2359C25.1879 18.0037 25.1785 17.7631 25.1116 17.5354C24.8709 16.9778 24.2604 16.8848 23.7702 16.8094C23.5716 16.7907 23.3765 16.7451 23.1902 16.6738C22.7718 16.305 22.4592 15.8315 22.2844 15.3019C22.2363 15.1936 22.1882 15.0877 22.14 14.981C22.0534 14.7965 21.9675 14.5735 21.8761 14.3392C21.6662 13.6736 21.3331 13.0534 20.8941 12.5108C20.339 12.0745 19.6839 11.7836 18.9879 11.6645C18.7537 11.6011 18.5322 11.5409 18.3862 11.4872C18.264 11.4421 18.1312 11.434 18.0044 11.4639C17.7495 11.5072 17.5077 11.6073 17.2968 11.7567C17.1928 11.8427 17.1115 11.9529 17.0601 12.0776C16.7897 11.9347 16.5283 11.7755 16.2771 11.6011L16.2642 11.5923C16.3206 11.378 16.2995 11.1507 16.2049 10.9504C15.8342 10.1658 14.6004 10.2284 14.3597 10.2477C14.2217 10.2589 14.0468 10.2653 13.8623 10.2717C13.5719 10.2822 13.2518 10.2934 12.9341 10.3295L12.9501 10.2838C13.0683 9.95536 13.2848 9.67134 13.5702 9.47037C13.8556 9.2694 14.196 9.16124 14.545 9.1606H14.9229C15.099 9.1606 15.268 9.09061 15.3926 8.96604C15.5172 8.84146 15.5871 8.6725 15.5871 8.49633C15.5871 8.32015 15.5172 8.15119 15.3926 8.02661C15.268 7.90204 15.099 7.83205 14.9229 7.83205H14.545C14.0306 7.8336 13.5251 7.966 13.0759 8.21681C12.6268 8.46761 12.2489 8.82856 11.9778 9.2657L10.983 7.88099L11.9537 5.51833L16.2514 4.01168C16.3692 3.97032 16.4729 3.89664 16.5507 3.79908L18.4608 1.40272C20.9527 1.63494 23.3526 2.46087 25.4596 3.81134C27.5666 5.1618 29.3193 6.99747 30.571 9.16461C31.2593 10.3568 31.7856 11.6353 32.1362 12.9665L31.8546 13.2176C31.6725 13.3805 31.526 13.5792 31.4242 13.8013C31.3225 14.0235 31.2677 14.2642 31.2634 14.5085C31.2634 14.5141 31.2634 14.5189 31.2634 14.5245L30.8045 13.2634C30.7364 13.0759 30.635 12.9022 30.5052 12.7507L29.6869 11.7928C29.5305 11.6095 29.3361 11.4624 29.1173 11.3615C28.8984 11.2607 28.6603 11.2086 28.4193 11.2088H27.4181C27.244 11.2087 27.0731 11.2559 26.9236 11.3453C26.7742 11.4347 26.6517 11.5629 26.5694 11.7164C26.4871 11.8698 26.4479 12.0427 26.4561 12.2167C26.4643 12.3907 26.5195 12.5591 26.6159 12.7042L26.7169 12.8566C26.0674 13.4149 25.3254 13.8555 24.5243 14.1587L23.1533 11.5273V10.9408C23.1535 10.8509 23.1354 10.7618 23.1001 10.679C23.0648 10.5963 23.013 10.5216 22.9479 10.4595L21.7116 9.27934C21.6427 9.21405 21.5607 9.16426 21.4709 9.13332L20.3582 8.74262C20.2754 8.71167 20.1874 8.69753 20.0991 8.70105C20.0108 8.70456 19.9241 8.72564 19.8441 8.76307C19.764 8.8005 19.6923 8.85351 19.633 8.91901C19.5737 8.98451 19.5281 9.06118 19.4988 9.14453C19.4695 9.22788 19.4571 9.31624 19.4624 9.40443C19.4677 9.49262 19.4905 9.57887 19.5295 9.65814C19.5685 9.73741 19.6229 9.8081 19.6896 9.86607C19.7563 9.92404 19.8338 9.96813 19.9178 9.99576L20.8957 10.3391L21.8255 11.224V11.6893C21.8256 11.7963 21.8514 11.9017 21.9009 11.9966L23.6194 15.2859C23.694 15.4291 23.8182 15.5403 23.9689 15.5985C24.1195 15.6567 24.2862 15.6579 24.4377 15.602L24.9383 15.4174C26.1083 14.984 27.1714 14.3038 28.0551 13.423C28.1633 13.3141 28.2304 13.171 28.2451 13.0182C28.2597 12.8653 28.2209 12.7121 28.1353 12.5847L28.1 12.5317H28.4209C28.4699 12.5316 28.5183 12.5422 28.5628 12.5627C28.6072 12.5832 28.6467 12.6132 28.6785 12.6504L29.4968 13.6083C29.5232 13.6392 29.5439 13.6745 29.5577 13.7126L30.4611 16.1997C30.4995 16.3044 30.5637 16.3978 30.6478 16.4711C30.7318 16.5445 30.833 16.5956 30.9419 16.6195C31.0509 16.6435 31.1641 16.6397 31.2712 16.6084C31.3783 16.577 31.4757 16.5192 31.5546 16.4403L31.9846 16.0103C32.2572 15.7352 32.4473 15.3892 32.5333 15.0115C32.8733 17.6967 32.5144 20.4241 31.4913 22.9299C30.4683 25.4357 28.8158 27.6351 26.6937 29.315C26.6199 29.3669 26.5574 29.4333 26.5101 29.5101C26.4628 29.587 26.4316 29.6726 26.4185 29.7619C26.4053 29.8512 26.4106 29.9422 26.4338 30.0294C26.457 30.1166 26.4977 30.1981 26.5535 30.269C26.6092 30.34 26.6789 30.3988 26.7581 30.4419C26.8374 30.4851 26.9246 30.5116 27.0144 30.5199C27.1042 30.5283 27.1948 30.5182 27.2807 30.4903C27.3665 30.4625 27.4457 30.4175 27.5136 30.358C30.7265 27.829 32.9204 24.2269 33.6934 20.2117C34.4663 16.1966 33.7666 12.0374 31.7223 8.49633L31.7215 8.50034ZM3.13281 18.7733L5.87174 20.8592C5.9526 20.9206 6.04647 20.9626 6.14611 20.9819L7.79717 21.3028C7.89996 21.3227 7.99734 21.3642 8.08287 21.4246C8.16839 21.485 8.24009 21.5629 8.2932 21.6531C8.34631 21.7433 8.37963 21.8438 8.39093 21.9479C8.40223 22.0519 8.39126 22.1572 8.35875 22.2567C8.22155 22.6736 8.22155 23.1235 8.35875 23.5404L8.56894 24.1878C8.62913 24.374 8.61302 24.5764 8.52413 24.7507C8.43525 24.925 8.28085 25.057 8.09481 25.1176L7.43454 25.3318C7.32151 25.3686 7.22041 25.4351 7.14181 25.5243C7.06321 25.6134 7.00998 25.7221 6.98768 25.8388L6.45658 28.6123C5.26124 27.5175 4.24092 26.2458 3.43125 24.8416C2.4443 23.1363 1.78959 21.2593 1.50181 19.31L3.13281 18.7733ZM7.00373 8.18344L6.22232 9.0202C6.18751 9.05751 6.15709 9.0987 6.13167 9.14295L4.35706 12.2381L2.78062 13.3653C2.63971 13.4665 2.54404 13.6189 2.51405 13.7899C2.48407 13.9608 2.52215 14.1366 2.62016 14.2798L3.20983 15.1447C2.86967 15.1952 2.56802 15.2369 2.36183 15.2594L2.23829 15.1447C2.07783 14.9979 1.86122 14.8021 1.5339 14.5157C2.07861 11.122 3.72204 8.00091 6.21189 5.63144C6.45223 5.70724 6.67307 5.8347 6.85892 6.00489C7.04477 6.17508 7.19113 6.38387 7.28773 6.61662C7.39475 6.87715 7.42487 7.16288 7.37454 7.43999C7.32421 7.7171 7.19553 7.97399 7.00373 8.18023V8.18344ZM12.419 11.8129C12.898 11.656 13.4011 11.5854 13.9048 11.6043C14.1062 11.5971 14.2963 11.5907 14.4664 11.5762C14.5606 11.5688 14.6553 11.5688 14.7496 11.5762C14.6908 11.7275 14.6894 11.8951 14.7457 12.0473C14.802 12.1996 14.9121 12.3259 15.0552 12.4025C15.1796 12.4691 15.3529 12.5847 15.5366 12.7074C16.0194 13.0958 16.5893 13.3612 17.1973 13.4808C17.3665 13.4917 17.536 13.4635 17.6926 13.3982C17.8491 13.3329 17.9885 13.2324 18.0998 13.1045L18.1279 13.0764C18.2011 13.0165 18.2617 12.9426 18.306 12.859C18.4119 12.8895 18.5234 12.92 18.6381 12.9505C19.0881 13.0415 19.5212 13.202 19.9218 13.4262C20.234 13.8488 20.4735 14.3206 20.6302 14.8222C20.7296 15.0805 20.8243 15.3244 20.9302 15.5506C20.9759 15.6477 21.0201 15.748 21.0658 15.8491C21.3294 16.617 21.8125 17.2906 22.4553 17.7865C22.7957 17.976 23.1726 18.0909 23.5608 18.1235L23.7052 18.1459C23.4531 18.4662 23.171 18.7617 22.8629 19.0284C22.0405 19.7938 21.0177 20.7469 21.4886 22.2672C21.7108 22.9852 21.7212 23.063 21.3634 23.4521L21.227 23.5989C20.8742 23.9302 20.6159 24.3494 20.4785 24.8136C20.4243 24.9742 20.3315 25.1191 20.2082 25.2355C20.0676 25.3861 19.9431 25.551 19.8367 25.7273C19.716 25.9469 19.6346 26.1858 19.596 26.4333C19.584 26.5728 19.5362 26.7068 19.4573 26.8224C19.2152 27.1088 18.9328 27.3585 18.6189 27.5637C18.4575 27.6878 18.2647 27.7645 18.0621 27.7851C17.7306 27.3132 17.4881 26.7846 17.3465 26.2255C17.251 25.9415 17.1179 25.6495 16.9895 25.3663C16.6682 24.8571 16.5165 24.2591 16.5563 23.6583L16.606 23.5059C16.7697 23.1458 16.858 22.7562 16.8656 22.3608C16.8732 21.9654 16.7998 21.5726 16.6501 21.2066C16.5316 20.9503 16.3686 20.717 16.1688 20.5174C16.0656 20.4205 15.9798 20.3065 15.9153 20.1805C15.8949 20.0697 15.8876 19.9568 15.8936 19.8443C15.9174 19.5933 15.8833 19.3402 15.7939 19.1044C15.7045 18.8686 15.5621 18.6566 15.3777 18.4845C15.0812 18.2395 14.7241 18.079 14.3441 18.0199C13.964 17.9607 13.575 18.0051 13.2181 18.1484C13.0597 18.1915 12.899 18.2252 12.7367 18.2494C12.3039 18.314 11.8618 18.2584 11.4585 18.0886C11.0553 17.9188 10.7065 17.6414 10.4502 17.2867C10.182 16.9022 10.0214 16.4529 9.98518 15.9854C9.94892 15.518 10.0383 15.0493 10.2441 14.628C10.473 14.1995 10.7627 13.8064 11.1041 13.4607C11.1843 13.3741 11.2589 13.2866 11.3368 13.1968C11.4659 13.0476 11.6087 12.8454 11.7595 12.6352C11.9483 12.3366 12.1695 12.0598 12.419 11.8097V11.8129Z"/>
<path d="M27.2266 22.8596L26.9057 21.6562C26.8716 21.5277 26.7996 21.4124 26.6992 21.3252C26.5987 21.2381 26.4744 21.1831 26.3423 21.1673C26.2103 21.1516 26.0766 21.1758 25.9584 21.237C25.8403 21.2981 25.7433 21.3933 25.6799 21.5102C25.6069 21.6442 25.5419 21.7862 25.4785 21.9241C25.3928 22.1376 25.2815 22.3399 25.1472 22.5267C25.03 22.6234 24.8984 22.7014 24.7573 22.7577C24.5056 22.8453 24.2761 22.9869 24.085 23.1727C23.8939 23.3584 23.7457 23.5837 23.651 23.8327C23.56 24.1368 23.5449 24.4585 23.6068 24.7698C23.6449 24.8985 23.639 25.0363 23.59 25.1613L23.5836 25.1765C23.3849 25.5081 23.2756 25.8855 23.2663 26.2719C23.257 26.6583 23.3481 27.0405 23.5306 27.3811C23.6444 27.584 23.8074 27.7549 24.0047 27.878C24.202 28.0011 24.4272 28.0725 24.6594 28.0855C24.7188 28.0856 24.7781 28.0808 24.8367 28.0711C25.5138 27.9604 26.0232 27.256 26.4412 25.8528L27.2226 23.2198C27.2571 23.1024 27.2585 22.9777 27.2266 22.8596ZM25.1664 25.4742C25.0631 25.898 24.8916 26.3023 24.6586 26.6712C24.6458 26.6551 24.6329 26.6374 24.6185 26.6166C24.4917 26.4361 24.6811 25.9908 24.807 25.6956L24.8134 25.6803C24.9612 25.3312 24.9992 24.9453 24.9225 24.574C24.8936 24.4609 24.8936 24.3422 24.9225 24.2291C24.9482 24.1488 25.1039 24.0686 25.3389 23.9531C25.4432 23.9025 25.5572 23.848 25.6727 23.7806L25.1664 25.4742Z"/>
<path d="M17.9272 7.88809L17.8823 7.87204C17.7993 7.84029 17.7109 7.82548 17.6221 7.82851C17.5333 7.83153 17.4461 7.85233 17.3655 7.88967C17.2849 7.927 17.2126 7.98012 17.1529 8.04587C17.0932 8.11163 17.0473 8.18868 17.0179 8.27249C16.9885 8.3563 16.9762 8.44515 16.9818 8.53379C16.9873 8.62243 17.0106 8.70905 17.0502 8.78855C17.0897 8.86805 17.1449 8.9388 17.2123 8.99662C17.2797 9.05444 17.358 9.09815 17.4426 9.12518L17.4876 9.14122C17.5705 9.17298 17.659 9.18778 17.7477 9.18476C17.8365 9.18173 17.9237 9.16093 18.0043 9.1236C18.0849 9.08626 18.1572 9.03315 18.2169 8.96739C18.2766 8.90164 18.3225 8.82458 18.3519 8.74077C18.3813 8.65697 18.3936 8.56812 18.3881 8.47948C18.3825 8.39084 18.3593 8.30421 18.3197 8.22471C18.2801 8.14521 18.225 8.07446 18.1575 8.01664C18.0901 7.95882 18.0118 7.91511 17.9272 7.88809Z" />
</svg>
