<svg width="30" height="30" viewBox="0 0 30 30"  xmlns="http://www.w3.org/2000/svg">
<path fill-rule="evenodd" clip-rule="evenodd" d="M15 0C6.71573 0 0 6.71573 0 15C0 23.2843 6.71573 30 15 30C23.2843 30 30 23.2843 30 15C30 6.71573 23.2843 0 15 0ZM15.9026 16.6144L15.1133 16.0186L15.0997 16.0075C14.8607 15.815 14.5442 15.5601 14.5442 15.1006C14.5442 14.6484 14.8481 14.3546 15.1253 14.0866L15.1585 14.0545C16.078 13.3509 16.9964 12.602 16.9964 11.024C16.9964 9.40129 15.9462 8.54764 15.4429 8.14268H16.8003L18.2246 7.27246H13.9089C12.7248 7.27246 11.0182 7.54487 9.76885 8.54764C8.8272 9.33752 8.36788 10.4266 8.36788 11.407C8.36788 13.0713 9.68225 14.7584 12.0035 14.7584C12.2224 14.7584 12.4622 14.7376 12.7036 14.7156C12.6925 14.7418 12.6814 14.7675 12.6704 14.793C12.5739 15.0172 12.4856 15.2223 12.4856 15.5479C12.4856 16.1811 12.8062 16.5795 13.1039 16.9495L13.1429 16.998L13.0776 17.0024H13.0775C12.0769 17.0688 10.286 17.1878 8.95838 17.9813C7.6658 18.7286 7.27246 19.8162 7.27246 20.5841C7.27246 22.1642 8.80422 23.6361 11.9811 23.6361C15.748 23.6361 17.7423 21.6096 17.7423 19.6035C17.7425 18.1297 16.8666 17.4041 15.9026 16.6144ZM13.0335 14.1606C11.149 14.1606 10.2955 11.7921 10.2955 10.363C10.2955 9.80644 10.4039 9.23214 10.7767 8.78345C11.128 8.35614 11.7399 8.07891 12.3112 8.07891C14.1279 8.07891 15.0702 10.4686 15.0702 12.0056C15.0702 12.3901 15.0266 13.0715 14.5228 13.5642C14.1703 13.9059 13.5808 14.1606 13.0335 14.1606ZM13.0551 22.742C10.7117 22.742 9.20053 21.6521 9.20053 20.1367C9.20053 18.6217 10.6017 18.1094 11.0838 17.9397C12.0035 17.6388 13.1865 17.597 13.3838 17.597C13.6026 17.597 13.7124 17.597 13.8868 17.6182C15.5525 18.7708 16.2757 19.3455 16.2757 20.4367C16.2757 21.7579 15.1583 22.742 13.0551 22.742ZM21.434 14.128V11.9944H20.3501V14.128H18.159V15.1936H20.3501V17.3404H21.434V15.1936H23.6361V14.128H21.434Z" />
</svg>
