<svg width="17" height="11" viewBox="0 0 17 11" fill="none" xmlns="http://www.w3.org/2000/svg">
<path d="M16.8885 1.03662L12.0586 5.67385L16.7693 10.2C16.9119 9.96458 16.9997 9.69473 16.9997 9.40329V1.5969C16.9997 1.39905 16.9573 1.21157 16.8885 1.03662Z" fill="#8190A6"/>
<path d="M15.3374 0H1.66347C1.38698 0 1.13002 0.0712816 0.900391 0.186397L8.16042 7.15685C8.37106 7.3591 8.73693 7.3591 8.94388 7.15685L16.1697 0.222516C15.924 0.0847028 15.642 0 15.3374 0Z" fill="#8190A6"/>
<path d="M0.139486 0.960938C0.0507012 1.1561 0 1.37071 0 1.59699V9.40338C0 9.6902 0.0854317 9.95575 0.223889 10.1886L4.98545 5.61366L0.139486 0.960938Z" fill="#8190A6"/>
<path d="M11.2715 6.42946L9.73044 7.91263C9.08312 8.5271 8.0343 8.53717 7.37631 7.91263L5.7724 6.36914L1.0625 10.888C1.24927 10.9579 1.45064 10.9998 1.66285 10.9998H15.3368C15.5438 10.9998 15.74 10.9589 15.923 10.8922L11.2715 6.42946Z" fill="#8190A6"/>
</svg>
