<svg width="15" height="16" viewBox="0 0 15 16" xmlns="http://www.w3.org/2000/svg">
<path fill-rule="evenodd" clip-rule="evenodd" d="M8.64447 15C8.64447 15.1657 8.77878 15.3 8.94447 15.3L12.5556 15.3C13.5101 15.3 14.3 14.5476 14.3 13.6L14.3 2.39999C14.3 1.45234 13.5101 0.699988 12.5556 0.699988L8.94447 0.699987C8.77879 0.699987 8.64447 0.834302 8.64447 0.999988C8.64447 1.16567 8.77879 1.29999 8.94447 1.29999L12.5556 1.29999C13.1965 1.29999 13.7 1.80124 13.7 2.39999L13.7 13.6C13.7 14.1987 13.1965 14.7 12.5556 14.7L8.94447 14.7C8.77878 14.7 8.64447 14.8343 8.64447 15Z"/>
<path fill-rule="evenodd" clip-rule="evenodd" d="M6.56242 11.0088C6.67774 11.1277 6.86766 11.1307 6.98664 11.0154L9.87553 8.2154C9.93383 8.15889 9.96673 8.08117 9.96673 7.99998C9.96673 7.91879 9.93383 7.84106 9.87553 7.78456L6.98664 4.98456C6.86766 4.86924 6.67774 4.87221 6.56243 4.99118C6.44711 5.11016 6.45008 5.30008 6.56905 5.4154L9.23568 7.99998L6.56905 10.5846C6.45008 10.6999 6.44711 10.8898 6.56242 11.0088Z"/>
<path fill-rule="evenodd" clip-rule="evenodd" d="M0.700012 8.00005C0.700012 8.16573 0.834327 8.30005 1.00001 8.30005L9.66668 8.30005C9.83237 8.30005 9.96668 8.16574 9.96668 8.00005C9.96668 7.83437 9.83237 7.70005 9.66668 7.70005L1.00001 7.70005C0.834327 7.70005 0.700012 7.83436 0.700012 8.00005Z"/>
<path fill-rule="evenodd" clip-rule="evenodd" d="M8.64447 15C8.64447 15.1657 8.77878 15.3 8.94447 15.3L12.5556 15.3C13.5101 15.3 14.3 14.5476 14.3 13.6L14.3 2.39999C14.3 1.45234 13.5101 0.699988 12.5556 0.699988L8.94447 0.699987C8.77879 0.699987 8.64447 0.834302 8.64447 0.999988C8.64447 1.16567 8.77879 1.29999 8.94447 1.29999L12.5556 1.29999C13.1965 1.29999 13.7 1.80124 13.7 2.39999L13.7 13.6C13.7 14.1987 13.1965 14.7 12.5556 14.7L8.94447 14.7C8.77878 14.7 8.64447 14.8343 8.64447 15Z"/>
<path fill-rule="evenodd" clip-rule="evenodd" d="M6.56242 11.0088C6.67774 11.1277 6.86766 11.1307 6.98664 11.0154L9.87553 8.2154C9.93383 8.15889 9.96673 8.08117 9.96673 7.99998C9.96673 7.91879 9.93383 7.84106 9.87553 7.78456L6.98664 4.98456C6.86766 4.86924 6.67774 4.87221 6.56243 4.99118C6.44711 5.11016 6.45008 5.30008 6.56905 5.4154L9.23568 7.99998L6.56905 10.5846C6.45008 10.6999 6.44711 10.8898 6.56242 11.0088Z"/>
<path fill-rule="evenodd" clip-rule="evenodd" d="M0.700012 8.00005C0.700012 8.16573 0.834327 8.30005 1.00001 8.30005L9.66668 8.30005C9.83237 8.30005 9.96668 8.16574 9.96668 8.00005C9.96668 7.83437 9.83237 7.70005 9.66668 7.70005L1.00001 7.70005C0.834327 7.70005 0.700012 7.83436 0.700012 8.00005Z"/>
</svg>
