<svg width="24" height="19" viewBox="0 0 24 19"  xmlns="http://www.w3.org/2000/svg">
<path d="M24 5.96341C24 5.26759 23.7049 4.60027 23.1796 4.10825C22.6543 3.61624 21.9418 3.33982 21.1989 3.33982H17.7983L17.437 1.98605C17.2852 1.41871 16.9354 0.915129 16.4432 0.555296C15.9509 0.195463 15.3443 1.53753e-05 14.7199 0H9.28011C8.65566 1.53753e-05 8.04912 0.195463 7.55684 0.555296C7.06456 0.915129 6.71477 1.41871 6.56303 1.98605L6.20168 3.33982H2.80112C2.05822 3.33982 1.34574 3.61624 0.820429 4.10825C0.295117 4.60027 0 5.26759 0 5.96341V16.3764C0 16.7209 0.0724531 17.0621 0.213223 17.3804C0.353992 17.6987 0.560321 17.9879 0.820429 18.2316C1.08054 18.4752 1.38933 18.6684 1.72918 18.8003C2.06903 18.9321 2.43327 19 2.80112 19H21.1989C21.5667 19 21.931 18.9321 22.2708 18.8003C22.6107 18.6684 22.9195 18.4752 23.1796 18.2316C23.4397 17.9879 23.646 17.6987 23.7868 17.3804C23.9275 17.0621 24 16.7209 24 16.3764V5.96341ZM22.8796 16.3764C22.8796 16.7939 22.7025 17.1943 22.3873 17.4895C22.0721 17.7847 21.6446 17.9506 21.1989 17.9506H2.80112C2.35538 17.9506 1.92789 17.7847 1.61271 17.4895C1.29752 17.1943 1.12045 16.7939 1.12045 16.3764V5.96341C1.12045 5.54592 1.29752 5.14553 1.61271 4.85031C1.92789 4.5551 2.35538 4.38926 2.80112 4.38926H6.63866C6.76377 4.38917 6.88525 4.34985 6.98374 4.27758C7.08222 4.2053 7.15205 4.10423 7.18207 3.99047L7.64986 2.24054C7.74101 1.90023 7.95093 1.5982 8.24629 1.3824C8.54165 1.16661 8.90552 1.04941 9.28011 1.04943H14.7199C15.0945 1.04941 15.4583 1.16661 15.7537 1.3824C16.0491 1.5982 16.259 1.90023 16.3501 2.24054L16.8179 3.99047C16.8485 4.10375 16.9185 4.20423 17.017 4.27599C17.1154 4.34775 17.2366 4.38669 17.3613 4.38663H21.1989C21.6446 4.38663 22.0721 4.55248 22.3873 4.84769C22.7025 5.1429 22.8796 5.54329 22.8796 5.96078V16.3764Z"/>
<path d="M12.0005 5.0957C10.8371 5.0957 9.69981 5.41883 8.73246 6.02423C7.76511 6.62962 7.01116 7.49009 6.56593 8.49683C6.12071 9.50356 6.00422 10.6113 6.23119 11.6801C6.45817 12.7488 7.01841 13.7305 7.84107 14.5011C8.66373 15.2716 9.71187 15.7963 10.8529 16.0089C11.994 16.2215 13.1767 16.1124 14.2516 15.6954C15.3265 15.2784 16.2452 14.5722 16.8915 13.6662C17.5379 12.7601 17.8829 11.6949 17.8829 10.6052C17.8777 9.1455 17.2563 7.74694 16.1543 6.71476C15.0522 5.68257 13.559 5.10054 12.0005 5.0957ZM12.0005 15.0889C11.0587 15.0889 10.138 14.8274 9.35495 14.3373C8.57186 13.8472 7.96151 13.1506 7.60109 12.3356C7.24068 11.5207 7.14637 10.6239 7.33011 9.75872C7.51385 8.89355 7.96738 8.09884 8.63334 7.47508C9.29931 6.85133 10.1478 6.42654 11.0715 6.25445C11.9952 6.08236 12.9527 6.17068 13.8228 6.50825C14.6929 6.84583 15.4367 7.41749 15.9599 8.15095C16.4831 8.88441 16.7624 9.74672 16.7624 10.6288C16.758 11.8105 16.2549 12.9425 15.3628 13.778C14.4707 14.6136 13.2621 15.0848 12.0005 15.0889Z"/>
</svg>
