<svg width="34" height="34" viewBox="0 0 34 34" xmlns="http://www.w3.org/2000/svg">
<path d="M29.7657 13.4356C29.7072 13.4062 29.6435 13.3887 29.5782 13.384C29.5129 13.3794 29.4473 13.3876 29.3852 13.4084L16.193 17.8061L20.5904 4.613C20.6321 4.48767 20.6224 4.35088 20.5633 4.23272C20.5043 4.11456 20.4007 4.02471 20.2754 3.98293C16.9837 2.8852 13.4178 2.93117 10.1554 4.11338C6.89312 5.29559 4.12551 7.54478 2.30105 10.4965C0.476596 13.4482 -0.297822 16.9296 0.103276 20.3764C0.504374 23.8233 2.05749 27.0338 4.51097 29.4877C6.96446 31.9415 10.1746 33.495 13.6212 33.8964C17.0678 34.2978 20.5489 33.5236 23.5006 31.6993C26.4523 29.8749 28.7015 27.1073 29.8839 23.8449C31.0663 20.5824 31.1126 17.0163 30.0152 13.7242C29.9735 13.599 29.8837 13.4955 29.7657 13.4364V13.4356ZM25.589 28.7804C23.7901 30.5798 21.5466 31.8707 19.0869 32.5217C16.6273 33.1727 14.039 33.1605 11.5855 32.4865C9.13206 31.8125 6.90085 30.5006 5.11885 28.6844C3.33684 26.8681 2.06764 24.6123 1.44032 22.1463C0.812998 19.6803 0.849948 17.0921 1.54741 14.645C2.24487 12.1979 3.57796 9.97928 5.41108 8.21464C7.24421 6.45001 9.51196 5.2024 11.9837 4.5987C14.4554 3.99501 17.0429 4.05677 19.483 4.77771L19.124 5.85395C16.8161 5.17913 14.3682 5.14402 12.0419 5.7524C9.71553 6.36077 7.59816 7.58975 5.91596 9.30806C4.23377 11.0263 3.04996 13.1694 2.491 15.5083C1.93205 17.8471 2.01895 20.2939 2.74242 22.5872C3.46589 24.8805 4.79875 26.9342 6.59861 28.5288C8.39846 30.1234 10.5977 31.1991 12.9613 31.6408C15.325 32.0826 17.7642 31.8739 20.0184 31.0371C22.2727 30.2002 24.2573 28.7666 25.7601 26.8894C25.839 26.786 25.8743 26.6558 25.8585 26.5267C25.8427 26.3977 25.7771 26.2799 25.6756 26.1985C25.5741 26.1172 25.4449 26.0788 25.3154 26.0915C25.186 26.1042 25.0667 26.167 24.983 26.2665C23.5938 28.0019 21.7596 29.3275 19.6761 30.102C17.5925 30.8765 15.3378 31.0707 13.1525 30.6639C10.9673 30.2572 8.93341 29.2647 7.26801 27.7924C5.60261 26.3201 4.36815 24.4232 3.69635 22.3042C3.02456 20.1852 2.94064 17.9236 3.45355 15.7606C3.96645 13.5976 5.05694 11.6145 6.60866 10.0228C8.16037 8.43114 10.1151 7.29064 12.2642 6.72302C14.4133 6.1554 16.6762 6.18196 18.8114 6.79986L14.9329 18.437C14.9037 18.5247 14.8995 18.6189 14.9207 18.7089C14.942 18.7989 14.9879 18.8813 15.0533 18.9467C15.1187 19.0121 15.201 19.058 15.291 19.0793C15.381 19.1005 15.4752 19.0963 15.563 19.067L27.1985 15.1875C27.647 16.7393 27.7852 18.3643 27.605 19.9696C27.4249 21.5748 26.93 23.1288 26.1487 24.5426C26.112 24.6 26.0875 24.6644 26.0766 24.7316C26.0658 24.7989 26.0688 24.8677 26.0856 24.9338C26.1025 24.9998 26.1326 25.0617 26.1743 25.1156C26.216 25.1695 26.2683 25.2143 26.328 25.2472C26.3877 25.2801 26.4535 25.3004 26.5213 25.3068C26.5892 25.3133 26.6576 25.3057 26.7224 25.2846C26.7872 25.2635 26.847 25.2294 26.8981 25.1843C26.9492 25.1392 26.9904 25.084 27.0194 25.0223C27.8683 23.4879 28.4049 21.8006 28.5983 20.0577C28.7916 18.3148 28.6379 16.5508 28.1459 14.8676L29.2221 14.5086C29.9564 16.9943 30.0066 19.6321 29.3672 22.1439C28.7278 24.6557 27.4225 26.9485 25.589 28.7804Z" />
<path d="M33.9743 9.76568C33.2134 7.49984 31.9379 5.44111 30.2479 3.75098C28.5579 2.06085 26.4993 0.785293 24.2337 0.0243528C24.1087 -0.0166802 23.9725 -0.0065818 23.8549 0.0524431C23.7373 0.111468 23.6478 0.214625 23.606 0.339389L18.8888 14.4784C18.8596 14.5662 18.8554 14.6603 18.8766 14.7504C18.8979 14.8404 18.9438 14.9227 19.0092 14.9881C19.0746 15.0535 19.1569 15.0994 19.2469 15.1207C19.3369 15.142 19.4311 15.1377 19.5189 15.1085L31.6373 11.069L33.6593 10.3933C33.7846 10.3516 33.8882 10.2617 33.9472 10.1435C34.0063 10.0254 34.016 9.88861 33.9743 9.76328V9.76568ZM31.7884 9.96957C30.8908 7.57454 29.3178 5.49138 27.2599 3.97269C27.2076 3.93095 27.1474 3.90016 27.083 3.88217C27.0186 3.86418 26.9512 3.85935 26.8848 3.86798C26.8185 3.87661 26.7546 3.89851 26.6969 3.93238C26.6392 3.96625 26.5889 4.0114 26.549 4.06513C26.5092 4.11886 26.4806 4.18007 26.4649 4.2451C26.4492 4.31014 26.4467 4.37767 26.4577 4.44367C26.4687 4.50967 26.4928 4.57278 26.5287 4.62923C26.5646 4.68569 26.6115 4.73434 26.6666 4.77228C28.561 6.17077 30.0113 8.08653 30.8433 10.2894L20.1521 13.8531L23.7148 3.15712C24.0721 3.29305 24.4247 3.44497 24.7677 3.61288C24.8865 3.67088 25.0234 3.67933 25.1484 3.63637C25.2734 3.59341 25.3762 3.50256 25.4341 3.3838C25.4921 3.26505 25.5006 3.12811 25.4576 3.00313C25.4147 2.87815 25.3238 2.77535 25.2051 2.71735C24.8229 2.52945 24.4287 2.35993 24.029 2.20961L24.388 1.13337C26.3237 1.85925 28.0816 2.99122 29.5434 4.45315C31.0052 5.91508 32.1371 7.67309 32.8629 9.60896L31.7884 9.96957Z" />
<path d="M12.7122 13.2718C12.7132 13.0505 12.6863 12.8299 12.6323 12.6153C12.5962 12.4909 12.5131 12.3854 12.4006 12.3212C12.288 12.257 12.1549 12.2392 12.0295 12.2715C11.904 12.3039 11.7961 12.3839 11.7286 12.4945C11.6611 12.6051 11.6394 12.7376 11.668 12.864C11.757 13.2099 11.7298 13.5755 11.5906 13.9044C11.4514 14.2334 11.208 14.5075 10.8977 14.6845C10.5875 14.8614 10.2277 14.9315 9.87371 14.8839C9.51973 14.8363 9.19121 14.6737 8.93874 14.421C8.68627 14.1684 8.52385 13.8397 8.47649 13.4857C8.42914 13.1316 8.49947 12.7718 8.67666 12.4617C8.85384 12.1516 9.12807 11.9083 9.45709 11.7693C9.78611 11.6303 10.1517 11.6034 10.4975 11.6926C10.6239 11.7212 10.7564 11.6995 10.867 11.632C10.9776 11.5645 11.0576 11.4566 11.0899 11.3311C11.1223 11.2057 11.1045 11.0726 11.0403 10.96C10.9761 10.8475 10.8706 10.7643 10.7462 10.7283C10.2157 10.591 9.65559 10.6231 9.14423 10.82C8.63287 11.0169 8.19586 11.3687 7.89437 11.8263C7.59288 12.2839 7.442 12.8243 7.46284 13.3719C7.48368 13.9195 7.6752 14.4469 8.0106 14.8802C8.346 15.3136 8.80849 15.6312 9.33334 15.7886C9.85819 15.9461 10.4191 15.9355 10.9376 15.7583C11.4561 15.5811 11.9063 15.2462 12.2251 14.8005C12.5438 14.3548 12.7153 13.8206 12.7154 13.2726L12.7122 13.2718Z" />
<path d="M25.0195 9.01355C25.0195 9.32256 25.1112 9.62464 25.2828 9.88157C25.4545 10.1386 25.6985 10.3388 25.9839 10.4571C26.2694 10.5753 26.5835 10.6063 26.8866 10.546C27.1896 10.4857 27.468 10.3369 27.6865 10.1184C27.905 9.89983 28.0538 9.62144 28.114 9.31836C28.1743 9.01529 28.1434 8.70114 28.0252 8.41565C27.9069 8.13017 27.7067 7.88616 27.4497 7.71448C27.1928 7.5428 26.8908 7.45117 26.5818 7.45117C26.1676 7.45159 25.7705 7.61633 25.4776 7.90925C25.1847 8.20216 25.0199 8.59931 25.0195 9.01355ZM26.5818 8.44665C26.6939 8.44665 26.8035 8.4799 26.8967 8.54219C26.9899 8.60449 27.0626 8.69302 27.1055 8.79661C27.1484 8.9002 27.1596 9.01418 27.1378 9.12415C27.1159 9.23412 27.0619 9.33514 26.9826 9.41442C26.9034 9.4937 26.8023 9.5477 26.6924 9.56957C26.5824 9.59144 26.4684 9.58021 26.3649 9.5373C26.2613 9.4944 26.1728 9.42174 26.1105 9.32851C26.0482 9.23528 26.0149 9.12568 26.0149 9.01355C26.0151 8.86334 26.075 8.71935 26.1813 8.61321C26.2875 8.50706 26.4316 8.44745 26.5818 8.44745V8.44665Z" />
<path d="M18.5987 22.8906C18.1844 22.8906 17.7794 23.0134 17.4349 23.2436C17.0904 23.4738 16.8219 23.801 16.6634 24.1838C16.5048 24.5666 16.4633 24.9878 16.5442 25.3942C16.625 25.8006 16.8245 26.1738 17.1175 26.4668C17.4104 26.7598 17.7837 26.9593 18.19 27.0401C18.5963 27.121 19.0175 27.0795 19.4003 26.9209C19.7831 26.7624 20.1102 26.4939 20.3404 26.1494C20.5706 25.8049 20.6934 25.3998 20.6934 24.9855C20.6928 24.4301 20.4719 23.8976 20.0792 23.5049C19.6865 23.1121 19.154 22.8912 18.5987 22.8906ZM18.5987 26.0841C18.3814 26.0841 18.169 26.0197 17.9883 25.899C17.8077 25.7782 17.6669 25.6067 17.5837 25.4059C17.5006 25.2052 17.4788 24.9843 17.5212 24.7712C17.5636 24.558 17.6682 24.3623 17.8219 24.2087C17.9755 24.055 18.1713 23.9504 18.3844 23.908C18.5974 23.8656 18.8183 23.8874 19.0191 23.9705C19.2198 24.0537 19.3914 24.1945 19.5121 24.3751C19.6328 24.5558 19.6972 24.7682 19.6972 24.9855C19.6957 25.2761 19.5794 25.5542 19.3736 25.7593C19.1678 25.9644 18.8892 26.0797 18.5987 26.0801V26.0841Z" />
<path d="M10.6143 20.2256C10.2 20.2256 9.79498 20.3484 9.4505 20.5786C9.10602 20.8088 8.83753 21.136 8.67898 21.5188C8.52044 21.9016 8.47895 22.3228 8.55978 22.7292C8.64061 23.1355 8.84012 23.5088 9.13307 23.8018C9.42603 24.0947 9.79928 24.2943 10.2056 24.3751C10.612 24.4559 11.0331 24.4145 11.4159 24.2559C11.7987 24.0973 12.1258 23.8288 12.356 23.4843C12.5862 23.1398 12.709 22.7348 12.709 22.3205C12.7084 21.7651 12.4875 21.2326 12.0948 20.8398C11.7021 20.4471 11.1696 20.2262 10.6143 20.2256ZM10.6143 23.4191C10.397 23.4191 10.1846 23.3546 10.004 23.2339C9.82331 23.1132 9.68251 22.9416 9.59936 22.7409C9.51622 22.5401 9.49446 22.3192 9.53685 22.1061C9.57924 21.893 9.68387 21.6972 9.8375 21.5436C9.99114 21.39 10.1869 21.2853 10.4 21.2429C10.6131 21.2006 10.8339 21.2223 11.0347 21.3055C11.2354 21.3886 11.407 21.5294 11.5277 21.7101C11.6484 21.8908 11.7128 22.1032 11.7128 22.3205C11.7124 22.6117 11.5965 22.8909 11.3906 23.0968C11.1847 23.3028 10.9055 23.4187 10.6143 23.4191Z" />
<path d="M24.9507 19.6557C24.9507 19.3466 24.8591 19.0446 24.6874 18.7876C24.5158 18.5307 24.2718 18.3304 23.9863 18.2122C23.7008 18.0939 23.3867 18.063 23.0837 18.1233C22.7806 18.1836 22.5022 18.3324 22.2837 18.5509C22.0652 18.7694 21.9165 19.0478 21.8562 19.3509C21.7959 19.6539 21.8268 19.9681 21.9451 20.2536C22.0633 20.539 22.2636 20.7831 22.5205 20.9547C22.7774 21.1264 23.0794 21.218 23.3884 21.218C23.8026 21.2176 24.1998 21.0529 24.4927 20.76C24.7855 20.467 24.9503 20.0699 24.9507 19.6557ZM23.3884 20.2226C23.2763 20.2226 23.1667 20.1893 23.0735 20.127C22.9803 20.0647 22.9076 19.9762 22.8647 19.8726C22.8218 19.769 22.8106 19.655 22.8325 19.5451C22.8543 19.4351 22.9083 19.3341 22.9876 19.2548C23.0669 19.1755 23.1679 19.1215 23.2779 19.0996C23.3878 19.0778 23.5018 19.089 23.6054 19.1319C23.7089 19.1748 23.7975 19.2475 23.8598 19.3407C23.922 19.4339 23.9553 19.5435 23.9553 19.6557C23.9557 19.7304 23.9414 19.8044 23.9131 19.8736C23.8848 19.9427 23.8431 20.0056 23.7904 20.0586C23.7377 20.1116 23.6751 20.1536 23.6061 20.1823C23.5371 20.211 23.4631 20.2258 23.3884 20.2258V20.2226Z" />
<path d="M13.8084 26.0811C13.4994 26.0811 13.1973 26.1727 12.9404 26.3444C12.6835 26.5161 12.4833 26.7601 12.365 27.0456C12.2468 27.3311 12.2158 27.6452 12.2761 27.9483C12.3364 28.2514 12.4852 28.5298 12.7037 28.7483C12.9222 28.9668 13.2005 29.1156 13.5036 29.1759C13.8066 29.2361 14.1208 29.2052 14.4062 29.087C14.6917 28.9687 14.9357 28.7684 15.1074 28.5115C15.279 28.2546 15.3707 27.9525 15.3707 27.6435C15.3702 27.2293 15.2055 26.8321 14.9126 26.5392C14.6197 26.2463 14.2226 26.0815 13.8084 26.0811ZM13.8084 28.2104C13.6963 28.2104 13.5867 28.1772 13.4934 28.1149C13.4002 28.0526 13.3276 27.964 13.2847 27.8605C13.2418 27.7569 13.2305 27.6429 13.2524 27.5329C13.2743 27.4229 13.3283 27.3219 13.4075 27.2426C13.4868 27.1633 13.5878 27.1094 13.6978 27.0875C13.8077 27.0656 13.9217 27.0768 14.0253 27.1197C14.1289 27.1627 14.2174 27.2353 14.2797 27.3285C14.342 27.4218 14.3752 27.5314 14.3752 27.6435C14.3752 27.7939 14.3155 27.938 14.2092 28.0444C14.1029 28.1507 13.9587 28.2104 13.8084 28.2104Z" />
<path d="M23.6116 9.10044C23.5531 9.07117 23.4893 9.05372 23.4241 9.0491C23.3588 9.04447 23.2933 9.05276 23.2312 9.07347C23.1691 9.09419 23.1117 9.12694 23.0623 9.16985C23.0129 9.21275 22.9724 9.26496 22.9432 9.32351L22.4107 10.3878C22.3792 10.4465 22.3599 10.5109 22.3537 10.5772C22.3476 10.6436 22.3548 10.7104 22.3749 10.7739C22.3951 10.8374 22.4278 10.8962 22.471 10.9469C22.5143 10.9975 22.5673 11.0389 22.6269 11.0687C22.6865 11.0985 22.7514 11.1161 22.8179 11.1203C22.8844 11.1246 22.9511 11.1154 23.0139 11.0935C23.0768 11.0715 23.1347 11.0371 23.184 10.9924C23.2334 10.9477 23.2733 10.8935 23.3014 10.8331L23.8339 9.76889C23.893 9.65077 23.9029 9.51399 23.8612 9.38863C23.8195 9.26327 23.7297 9.15961 23.6116 9.10044Z" />
<path d="M25.3378 5.46699L24.8053 4.93447C24.7116 4.84277 24.5854 4.79176 24.4543 4.79249C24.3232 4.79322 24.1976 4.84564 24.1049 4.93838C24.0121 5.03112 23.9597 5.15669 23.959 5.28784C23.9582 5.41898 24.0092 5.54513 24.1009 5.6389L24.6334 6.17142C24.6795 6.21853 24.7344 6.25603 24.7951 6.28175C24.8557 6.30748 24.9209 6.32091 24.9868 6.32128C25.0526 6.32164 25.118 6.30894 25.1789 6.28389C25.2398 6.25885 25.2952 6.22197 25.3418 6.17538C25.3884 6.12879 25.4252 6.07342 25.4503 6.01248C25.4753 5.95154 25.488 5.88624 25.4877 5.82036C25.4873 5.75447 25.4739 5.68932 25.4481 5.62866C25.4224 5.56801 25.3849 5.51306 25.3378 5.46699Z" />
<path d="M13.0537 9.45862L14.1179 9.99114C14.2355 10.0457 14.3697 10.0524 14.4921 10.0096C14.6145 9.96692 14.7154 9.87813 14.7733 9.76217C14.8313 9.64621 14.8418 9.51221 14.8026 9.38865C14.7633 9.26508 14.6775 9.16168 14.5632 9.1004L13.4991 8.56788C13.3815 8.51324 13.2473 8.5066 13.1249 8.54935C13.0025 8.5921 12.9016 8.68089 12.8436 8.79685C12.7856 8.91281 12.7752 9.04681 12.8144 9.17038C12.8536 9.29394 12.9395 9.39734 13.0537 9.45862Z" />
<path d="M16.4688 9.51123C16.6009 9.51123 16.7276 9.45875 16.821 9.36533C16.9144 9.27191 16.9669 9.1452 16.9669 9.01309V8.48056C16.9669 8.34845 16.9144 8.22175 16.821 8.12833C16.7276 8.03491 16.6009 7.98242 16.4688 7.98242C16.3367 7.98242 16.21 8.03491 16.1166 8.12833C16.0232 8.22175 15.9707 8.34845 15.9707 8.48056V9.01309C15.9707 9.1452 16.0232 9.27191 16.1166 9.36533C16.21 9.45875 16.3367 9.51123 16.4688 9.51123Z" />
<path d="M5.06933 16.9108L6.1335 17.4433C6.25106 17.4979 6.3853 17.5046 6.50768 17.4618C6.63007 17.4191 6.73097 17.3303 6.78894 17.2143C6.84692 17.0984 6.8574 16.9644 6.81817 16.8408C6.77894 16.7172 6.69308 16.6138 6.57884 16.5525L5.51467 16.02C5.3971 15.9654 5.26287 15.9587 5.14049 16.0015C5.0181 16.0442 4.9172 16.133 4.85923 16.249C4.80125 16.3649 4.79076 16.4989 4.83 16.6225C4.86923 16.7461 4.95509 16.8495 5.06933 16.9108Z" />
<path d="M8.51953 18.0621V18.5946C8.51953 18.7267 8.57201 18.8534 8.66543 18.9469C8.75884 19.0403 8.88553 19.0928 9.01764 19.0928C9.14974 19.0928 9.27644 19.0403 9.36986 18.9469C9.46327 18.8534 9.51574 18.7267 9.51574 18.5946V18.0621C9.51574 17.93 9.46327 17.8033 9.36986 17.7098C9.27644 17.6164 9.14974 17.564 9.01764 17.564C8.88553 17.564 8.75884 17.6164 8.66543 17.7098C8.57201 17.8033 8.51953 17.93 8.51953 18.0621Z" />
<path d="M14.375 13.2716V13.8041C14.375 13.9362 14.4275 14.0629 14.5209 14.1563C14.6143 14.2497 14.741 14.3022 14.8731 14.3022C15.0052 14.3022 15.1319 14.2497 15.2253 14.1563C15.3187 14.0629 15.3712 13.9362 15.3712 13.8041V13.2716C15.3712 13.1394 15.3187 13.0127 15.2253 12.9193C15.1319 12.8259 15.0052 12.7734 14.8731 12.7734C14.741 12.7734 14.6143 12.8259 14.5209 12.9193C14.4275 13.0127 14.375 13.1394 14.375 13.2716Z" />
<path d="M12.03 17.1776C11.9839 17.1305 11.929 17.093 11.8683 17.0673C11.8077 17.0416 11.7425 17.0281 11.6767 17.0278C11.6108 17.0274 11.5455 17.0401 11.4846 17.0651C11.4236 17.0902 11.3683 17.1271 11.3217 17.1736C11.2751 17.2202 11.2382 17.2756 11.2132 17.3365C11.1881 17.3975 11.1754 17.4628 11.1758 17.5287C11.1762 17.5946 11.1896 17.6597 11.2153 17.7204C11.241 17.781 11.2785 17.836 11.3256 17.882L11.8581 18.4146C11.9519 18.5063 12.078 18.5573 12.2091 18.5565C12.3403 18.5558 12.4658 18.5034 12.5586 18.4106C12.6513 18.3179 12.7037 18.1923 12.7045 18.0612C12.7052 17.93 12.6542 17.8039 12.5625 17.7101L12.03 17.1776Z" />
<path d="M6.17578 19.8397C6.08237 19.7463 5.95568 19.6938 5.82359 19.6938C5.69149 19.6938 5.5648 19.7463 5.47139 19.8397L4.93891 20.3722C4.89181 20.4183 4.85431 20.4732 4.82859 20.5339C4.80287 20.5946 4.78944 20.6597 4.78907 20.7256C4.7887 20.7915 4.8014 20.8568 4.82644 20.9177C4.85148 20.9787 4.88836 21.034 4.93495 21.0806C4.98153 21.1272 5.0369 21.1641 5.09783 21.1891C5.15877 21.2142 5.22407 21.2269 5.28995 21.2265C5.35583 21.2261 5.42098 21.2127 5.48163 21.187C5.54229 21.1613 5.59723 21.1238 5.64329 21.0767L6.17578 20.5441C6.26918 20.4507 6.32164 20.324 6.32164 20.1919C6.32164 20.0598 6.26918 19.9331 6.17578 19.8397Z" />
<path d="M6.88997 22.8906H6.35747C6.22537 22.8906 6.09867 22.9431 6.00526 23.0365C5.91185 23.1299 5.85938 23.2566 5.85938 23.3887C5.85938 23.5208 5.91185 23.6475 6.00526 23.7409C6.09867 23.8343 6.22537 23.8868 6.35747 23.8868H6.88997C7.02207 23.8868 7.14876 23.8343 7.24218 23.7409C7.33559 23.6475 7.38806 23.5208 7.38806 23.3887C7.38806 23.2566 7.33559 23.1299 7.24218 23.0365C7.14876 22.9431 7.02207 22.8906 6.88997 22.8906Z" />
<path d="M15.5847 20.9047L15.0522 21.4372C15.0051 21.4833 14.9676 21.5382 14.9419 21.5989C14.9161 21.6595 14.9027 21.7247 14.9023 21.7905C14.902 21.8564 14.9147 21.9217 14.9397 21.9827C14.9648 22.0436 15.0016 22.099 15.0482 22.1456C15.0948 22.1922 15.1502 22.2291 15.2111 22.2541C15.2721 22.2791 15.3373 22.2919 15.4032 22.2915C15.4691 22.2911 15.5343 22.2777 15.5949 22.252C15.6556 22.2262 15.7105 22.1887 15.7566 22.1416L16.2891 21.6091C16.3807 21.5153 16.4318 21.3892 16.431 21.258C16.4303 21.1269 16.378 21.0013 16.2852 20.9086C16.1925 20.8158 16.0669 20.7634 15.9357 20.7627C15.8046 20.762 15.6784 20.813 15.5847 20.9047Z" />
<path d="M13.8086 23.9521C13.6765 23.9521 13.5498 24.0046 13.4564 24.098C13.363 24.1914 13.3105 24.3181 13.3105 24.4502C13.3105 24.5823 13.363 24.709 13.4564 24.8024C13.5498 24.8958 13.6765 24.9483 13.8086 24.9483H14.3411C14.4732 24.9483 14.5999 24.8958 14.6933 24.8024C14.7867 24.709 14.8392 24.5823 14.8392 24.4502C14.8392 24.3181 14.7867 24.1914 14.6933 24.098C14.5999 24.0046 14.4732 23.9521 14.3411 23.9521H13.8086Z" />
<path d="M10.0841 26.0811C9.95194 26.0811 9.82524 26.1336 9.73183 26.227C9.63841 26.3204 9.58594 26.4471 9.58594 26.5793V27.1118C9.58594 27.2439 9.63841 27.3706 9.73183 27.464C9.82524 27.5574 9.95194 27.6099 10.0841 27.6099C10.2162 27.6099 10.3429 27.5574 10.4363 27.464C10.5297 27.3706 10.5822 27.2439 10.5822 27.1118V26.5793C10.5822 26.5138 10.5693 26.449 10.5443 26.3886C10.5192 26.3282 10.4825 26.2733 10.4363 26.227C10.39 26.1808 10.3351 26.1441 10.2747 26.119C10.2142 26.094 10.1495 26.0811 10.0841 26.0811Z" />
<path d="M18.0638 28.2095H17.5313C17.3992 28.2095 17.2725 28.262 17.1791 28.3554C17.0857 28.4488 17.0332 28.5755 17.0332 28.7076C17.0332 28.8397 17.0857 28.9664 17.1791 29.0598C17.2725 29.1532 17.3992 29.2057 17.5313 29.2057H18.0638C18.1959 29.2057 18.3226 29.1532 18.416 29.0598C18.5095 28.9664 18.5619 28.8397 18.5619 28.7076C18.5619 28.5755 18.5095 28.4488 18.416 28.3554C18.3226 28.262 18.1959 28.2095 18.0638 28.2095Z" />
<path d="M19.6602 21.754C19.7923 21.754 19.919 21.7015 20.0124 21.6081C20.1059 21.5147 20.1583 21.388 20.1583 21.2558V20.1916C20.1583 20.0595 20.1059 19.9328 20.0124 19.8393C19.919 19.7459 19.7923 19.6934 19.6602 19.6934C19.5281 19.6934 19.4014 19.7459 19.308 19.8393C19.2146 19.9328 19.1621 20.0595 19.1621 20.1916V21.2558C19.1621 21.388 19.2146 21.5147 19.308 21.6081C19.4014 21.7015 19.5281 21.754 19.6602 21.754Z" />
<path d="M23.2097 23.5659C23.1636 23.5188 23.1087 23.4813 23.0481 23.4556C22.9874 23.4298 22.9223 23.4164 22.8564 23.416C22.7905 23.4157 22.7252 23.4284 22.6643 23.4534C22.6033 23.4785 22.5479 23.5153 22.5014 23.5619C22.4548 23.6085 22.4179 23.6639 22.3929 23.7248C22.3678 23.7858 22.3551 23.8511 22.3555 23.917C22.3559 23.9828 22.3693 24.048 22.395 24.1087C22.4207 24.1693 22.4582 24.2243 22.5053 24.2703L23.0378 24.8029C23.1316 24.8946 23.2577 24.9456 23.3888 24.9448C23.52 24.9441 23.6455 24.8917 23.7383 24.7989C23.831 24.7062 23.8834 24.5806 23.8842 24.4495C23.8849 24.3183 23.8339 24.1922 23.7422 24.0984L23.2097 23.5659Z" />
<path d="M25.5189 21.8228H24.9864C24.8543 21.8228 24.7276 21.8753 24.6342 21.9687C24.5408 22.0621 24.4883 22.1888 24.4883 22.3209C24.4883 22.453 24.5408 22.5797 24.6342 22.6731C24.7276 22.7666 24.8543 22.819 24.9864 22.819H25.5189C25.651 22.819 25.7777 22.7666 25.8711 22.6731C25.9645 22.5797 26.017 22.453 26.017 22.3209C26.017 22.1888 25.9645 22.0621 25.8711 21.9687C25.7777 21.8753 25.651 21.8228 25.5189 21.8228Z" />
<path d="M26.549 18.0629V17.5304C26.549 17.3983 26.4965 17.2716 26.4031 17.1781C26.3097 17.0847 26.183 17.0322 26.0509 17.0322C25.9188 17.0322 25.7921 17.0847 25.6987 17.1781C25.6052 17.2716 25.5527 17.3983 25.5527 17.5304V18.0629C25.5527 18.195 25.6052 18.3217 25.6987 18.4151C25.7921 18.5086 25.9188 18.561 26.0509 18.561C26.183 18.561 26.3097 18.5086 26.4031 18.4151C26.4965 18.3217 26.549 18.195 26.549 18.0629Z" />
</svg>
