<svg width="34" height="34" viewBox="0 0 34 34" xmlns="http://www.w3.org/2000/svg">
<path d="M29.7657 13.4361C29.7072 13.4067 29.6435 13.3892 29.5782 13.3845C29.5129 13.3799 29.4473 13.3881 29.3852 13.4089L16.193 17.8066L20.5904 4.61348C20.6321 4.48815 20.6224 4.35136 20.5633 4.2332C20.5043 4.11504 20.4007 4.0252 20.2754 3.98342C16.9837 2.88569 13.4178 2.93166 10.1554 4.11387C6.89312 5.29608 4.12551 7.54526 2.30105 10.497C0.476596 13.4487 -0.297822 16.9301 0.103276 20.3769C0.504374 23.8238 2.05749 27.0343 4.51097 29.4882C6.96446 31.942 10.1746 33.4955 13.6212 33.8969C17.0678 34.2983 20.5489 33.5241 23.5006 31.6998C26.4523 29.8754 28.7015 27.1078 29.8839 23.8454C31.0663 20.5829 31.1126 17.0168 30.0152 13.7247C29.9735 13.5995 29.8837 13.496 29.7657 13.4369V13.4361ZM25.589 28.7809C23.7901 30.5803 21.5466 31.8712 19.0869 32.5222C16.6273 33.1732 14.039 33.161 11.5855 32.487C9.13206 31.813 6.90085 30.5011 5.11885 28.6849C3.33684 26.8686 2.06764 24.6128 1.44032 22.1468C0.812998 19.6808 0.849948 17.0926 1.54741 14.6455C2.24487 12.1984 3.57796 9.97977 5.41108 8.21513C7.24421 6.4505 9.51196 5.20289 11.9837 4.59919C14.4554 3.9955 17.0429 4.05726 19.483 4.7782L19.124 5.85444C16.8161 5.17962 14.3682 5.14451 12.0419 5.75289C9.71553 6.36126 7.59816 7.59024 5.91596 9.30855C4.23377 11.0268 3.04996 13.1699 2.491 15.5088C1.93205 17.8476 2.01895 20.2944 2.74242 22.5877C3.46589 24.881 4.79875 26.9347 6.59861 28.5293C8.39846 30.1239 10.5977 31.1996 12.9613 31.6413C15.325 32.0831 17.7642 31.8744 20.0184 31.0376C22.2727 30.2007 24.2573 28.7671 25.7601 26.8899C25.839 26.7865 25.8743 26.6563 25.8585 26.5272C25.8427 26.3982 25.7771 26.2804 25.6756 26.199C25.5741 26.1177 25.4449 26.0793 25.3154 26.092C25.186 26.1047 25.0667 26.1675 24.983 26.267C23.5938 28.0024 21.7596 29.328 19.6761 30.1025C17.5925 30.877 15.3378 31.0712 13.1525 30.6644C10.9673 30.2577 8.93341 29.2652 7.26801 27.7929C5.60261 26.3206 4.36815 24.4237 3.69635 22.3047C3.02456 20.1857 2.94064 17.9241 3.45355 15.7611C3.96645 13.5981 5.05694 11.615 6.60866 10.0233C8.16037 8.43163 10.1151 7.29113 12.2642 6.72351C14.4133 6.15589 16.6762 6.18245 18.8114 6.80035L14.9329 18.4375C14.9037 18.5252 14.8995 18.6194 14.9207 18.7094C14.942 18.7994 14.9879 18.8818 15.0533 18.9472C15.1187 19.0126 15.201 19.0585 15.291 19.0798C15.381 19.101 15.4752 19.0968 15.563 19.0675L27.1985 15.188C27.647 16.7398 27.7852 18.3648 27.605 19.9701C27.4249 21.5753 26.93 23.1293 26.1487 24.5431C26.112 24.6005 26.0875 24.6649 26.0766 24.7321C26.0658 24.7994 26.0688 24.8682 26.0856 24.9343C26.1025 25.0003 26.1326 25.0622 26.1743 25.1161C26.216 25.17 26.2683 25.2148 26.328 25.2477C26.3877 25.2806 26.4535 25.3009 26.5213 25.3073C26.5892 25.3138 26.6576 25.3062 26.7224 25.2851C26.7872 25.264 26.847 25.2299 26.8981 25.1848C26.9492 25.1397 26.9904 25.0845 27.0194 25.0228C27.8683 23.4884 28.4049 21.8011 28.5983 20.0582C28.7916 18.3153 28.6379 16.5513 28.1459 14.8681L29.2221 14.5091C29.9564 16.9948 30.0066 19.6326 29.3672 22.1444C28.7278 24.6562 27.4225 26.949 25.589 28.7809Z"/>
<path d="M33.9743 9.76617C33.2134 7.50033 31.9379 5.4416 30.2479 3.75147C28.5579 2.06134 26.4993 0.785781 24.2337 0.0248411C24.1087 -0.0161919 23.9725 -0.00609352 23.8549 0.0529314C23.7373 0.111956 23.6478 0.215113 23.606 0.339877L18.8888 14.4789C18.8596 14.5667 18.8554 14.6608 18.8766 14.7509C18.8979 14.8409 18.9438 14.9232 19.0092 14.9886C19.0746 15.054 19.1569 15.0999 19.2469 15.1212C19.3369 15.1425 19.4311 15.1382 19.5189 15.109L31.6373 11.0695L33.6593 10.3938C33.7846 10.3521 33.8882 10.2622 33.9472 10.144C34.0063 10.0259 34.016 9.8891 33.9743 9.76377V9.76617ZM31.7884 9.97006C30.8908 7.57503 29.3178 5.49187 27.2599 3.97318C27.2076 3.93144 27.1474 3.90065 27.083 3.88266C27.0186 3.86467 26.9512 3.85984 26.8848 3.86847C26.8185 3.8771 26.7546 3.899 26.6969 3.93287C26.6392 3.96674 26.5889 4.01189 26.549 4.06562C26.5092 4.11935 26.4806 4.18056 26.4649 4.24559C26.4492 4.31063 26.4467 4.37816 26.4577 4.44416C26.4687 4.51016 26.4928 4.57327 26.5287 4.62972C26.5646 4.68618 26.6115 4.73483 26.6666 4.77277C28.561 6.17126 30.0113 8.08702 30.8433 10.2899L20.1521 13.8536L23.7148 3.15761C24.0721 3.29354 24.4247 3.44546 24.7677 3.61337C24.8865 3.67137 25.0234 3.67982 25.1484 3.63686C25.2734 3.5939 25.3762 3.50305 25.4341 3.38429C25.4921 3.26554 25.5006 3.1286 25.4576 3.00362C25.4147 2.87864 25.3238 2.77584 25.2051 2.71784C24.8229 2.52994 24.4287 2.36042 24.029 2.2101L24.388 1.13386C26.3237 1.85974 28.0816 2.99171 29.5434 4.45364C31.0052 5.91557 32.1371 7.67358 32.8629 9.60945L31.7884 9.97006Z" />
<path d="M12.7122 13.2723C12.7132 13.051 12.6863 12.8304 12.6323 12.6158C12.5962 12.4914 12.5131 12.3859 12.4006 12.3217C12.288 12.2575 12.1549 12.2397 12.0295 12.272C11.904 12.3044 11.7961 12.3844 11.7286 12.495C11.6611 12.6056 11.6394 12.7381 11.668 12.8645C11.757 13.2104 11.7298 13.576 11.5906 13.9049C11.4514 14.2339 11.208 14.508 10.8977 14.685C10.5875 14.8619 10.2277 14.932 9.87371 14.8844C9.51973 14.8368 9.19121 14.6742 8.93874 14.4215C8.68627 14.1689 8.52385 13.8402 8.47649 13.4862C8.42914 13.1321 8.49947 12.7723 8.67666 12.4622C8.85384 12.1521 9.12807 11.9088 9.45709 11.7698C9.78611 11.6308 10.1517 11.6039 10.4975 11.6931C10.6239 11.7217 10.7564 11.7 10.867 11.6325C10.9776 11.565 11.0576 11.4571 11.0899 11.3316C11.1223 11.2062 11.1045 11.0731 11.0403 10.9605C10.9761 10.848 10.8706 10.7648 10.7462 10.7288C10.2157 10.5915 9.65559 10.6236 9.14423 10.8205C8.63287 11.0174 8.19586 11.3692 7.89437 11.8268C7.59288 12.2844 7.442 12.8248 7.46284 13.3724C7.48368 13.92 7.6752 14.4474 8.0106 14.8807C8.346 15.3141 8.80849 15.6317 9.33334 15.7891C9.85819 15.9466 10.4191 15.936 10.9376 15.7588C11.4561 15.5816 11.9063 15.2467 12.2251 14.801C12.5438 14.3553 12.7153 13.8211 12.7154 13.2731L12.7122 13.2723Z"/>
<path d="M25.0195 9.01355C25.0195 9.32256 25.1112 9.62464 25.2828 9.88157C25.4545 10.1386 25.6985 10.3388 25.9839 10.4571C26.2694 10.5753 26.5835 10.6063 26.8866 10.546C27.1896 10.4857 27.468 10.3369 27.6865 10.1184C27.905 9.89983 28.0538 9.62144 28.114 9.31836C28.1743 9.01529 28.1434 8.70114 28.0252 8.41565C27.9069 8.13017 27.7067 7.88616 27.4497 7.71448C27.1928 7.5428 26.8908 7.45117 26.5818 7.45117C26.1676 7.45159 25.7705 7.61633 25.4776 7.90925C25.1847 8.20216 25.0199 8.59931 25.0195 9.01355ZM26.5818 8.44665C26.6939 8.44665 26.8035 8.4799 26.8967 8.54219C26.9899 8.60449 27.0626 8.69302 27.1055 8.79661C27.1484 8.9002 27.1596 9.01418 27.1378 9.12415C27.1159 9.23412 27.0619 9.33514 26.9826 9.41442C26.9034 9.4937 26.8023 9.5477 26.6924 9.56957C26.5824 9.59144 26.4684 9.58021 26.3649 9.5373C26.2613 9.4944 26.1728 9.42174 26.1105 9.32851C26.0482 9.23528 26.0149 9.12568 26.0149 9.01355C26.0151 8.86334 26.075 8.71935 26.1813 8.61321C26.2875 8.50706 26.4316 8.44745 26.5818 8.44745V8.44665Z"/>
<path d="M18.5987 22.8911C18.1844 22.8911 17.7794 23.0139 17.4349 23.2441C17.0904 23.4743 16.8219 23.8015 16.6634 24.1843C16.5048 24.5671 16.4633 24.9883 16.5442 25.3947C16.625 25.8011 16.8245 26.1743 17.1175 26.4673C17.4104 26.7603 17.7837 26.9598 18.19 27.0406C18.5963 27.1215 19.0175 27.08 19.4003 26.9214C19.7831 26.7629 20.1102 26.4944 20.3404 26.1499C20.5706 25.8054 20.6934 25.4003 20.6934 24.986C20.6928 24.4306 20.4719 23.8981 20.0792 23.5054C19.6865 23.1126 19.154 22.8917 18.5987 22.8911ZM18.5987 26.0846C18.3814 26.0846 18.169 26.0202 17.9883 25.8995C17.8077 25.7787 17.6669 25.6072 17.5837 25.4064C17.5006 25.2057 17.4788 24.9848 17.5212 24.7717C17.5636 24.5585 17.6682 24.3628 17.8219 24.2092C17.9755 24.0555 18.1713 23.9509 18.3844 23.9085C18.5974 23.8661 18.8183 23.8879 19.0191 23.971C19.2198 24.0542 19.3914 24.195 19.5121 24.3756C19.6328 24.5563 19.6972 24.7687 19.6972 24.986C19.6957 25.2766 19.5794 25.5547 19.3736 25.7598C19.1678 25.9649 18.8892 26.0802 18.5987 26.0806V26.0846Z"/>
<path d="M10.6143 20.2266C10.2 20.2266 9.79498 20.3494 9.4505 20.5796C9.10602 20.8098 8.83753 21.137 8.67898 21.5198C8.52044 21.9026 8.47895 22.3238 8.55978 22.7302C8.64061 23.1365 8.84012 23.5098 9.13307 23.8028C9.42603 24.0957 9.79928 24.2953 10.2056 24.3761C10.612 24.4569 11.0331 24.4155 11.4159 24.2569C11.7987 24.0983 12.1258 23.8298 12.356 23.4853C12.5862 23.1408 12.709 22.7358 12.709 22.3215C12.7084 21.7661 12.4875 21.2336 12.0948 20.8408C11.7021 20.4481 11.1696 20.2272 10.6143 20.2266ZM10.6143 23.4201C10.397 23.4201 10.1846 23.3556 10.004 23.2349C9.82331 23.1142 9.68251 22.9426 9.59936 22.7419C9.51622 22.5411 9.49446 22.3202 9.53685 22.1071C9.57924 21.894 9.68387 21.6982 9.8375 21.5446C9.99114 21.391 10.1869 21.2863 10.4 21.2439C10.6131 21.2016 10.8339 21.2233 11.0347 21.3065C11.2354 21.3896 11.407 21.5304 11.5277 21.7111C11.6484 21.8918 11.7128 22.1042 11.7128 22.3215C11.7124 22.6127 11.5965 22.8919 11.3906 23.0978C11.1847 23.3038 10.9055 23.4197 10.6143 23.4201Z"/>
<path d="M24.9507 19.6562C24.9507 19.3471 24.8591 19.0451 24.6874 18.7881C24.5158 18.5312 24.2718 18.3309 23.9863 18.2127C23.7008 18.0944 23.3867 18.0635 23.0837 18.1238C22.7806 18.1841 22.5022 18.3329 22.2837 18.5514C22.0652 18.7699 21.9165 19.0483 21.8562 19.3514C21.7959 19.6544 21.8268 19.9686 21.9451 20.2541C22.0633 20.5395 22.2636 20.7836 22.5205 20.9552C22.7774 21.1269 23.0794 21.2185 23.3884 21.2185C23.8026 21.2181 24.1998 21.0534 24.4927 20.7605C24.7855 20.4675 24.9503 20.0704 24.9507 19.6562ZM23.3884 20.2231C23.2763 20.2231 23.1667 20.1898 23.0735 20.1275C22.9803 20.0652 22.9076 19.9767 22.8647 19.8731C22.8218 19.7695 22.8106 19.6555 22.8325 19.5456C22.8543 19.4356 22.9083 19.3346 22.9876 19.2553C23.0669 19.176 23.1679 19.122 23.2779 19.1001C23.3878 19.0783 23.5018 19.0895 23.6054 19.1324C23.7089 19.1753 23.7975 19.248 23.8598 19.3412C23.922 19.4344 23.9553 19.544 23.9553 19.6562C23.9557 19.7309 23.9414 19.8049 23.9131 19.8741C23.8848 19.9432 23.8431 20.0061 23.7904 20.0591C23.7377 20.1121 23.6751 20.1541 23.6061 20.1828C23.5371 20.2115 23.4631 20.2263 23.3884 20.2263V20.2231Z"/>
<path d="M13.8084 26.0815C13.4994 26.0815 13.1973 26.1731 12.9404 26.3448C12.6835 26.5165 12.4833 26.7605 12.365 27.046C12.2468 27.3315 12.2158 27.6456 12.2761 27.9487C12.3364 28.2518 12.4852 28.5302 12.7037 28.7487C12.9222 28.9672 13.2005 29.116 13.5036 29.1763C13.8066 29.2365 14.1208 29.2056 14.4062 29.0874C14.6917 28.9691 14.9357 28.7688 15.1074 28.5119C15.279 28.255 15.3707 27.9529 15.3707 27.6439C15.3702 27.2297 15.2055 26.8325 14.9126 26.5396C14.6197 26.2467 14.2226 26.0819 13.8084 26.0815ZM13.8084 28.2108C13.6963 28.2108 13.5867 28.1776 13.4934 28.1153C13.4002 28.053 13.3276 27.9644 13.2847 27.8609C13.2418 27.7573 13.2305 27.6433 13.2524 27.5333C13.2743 27.4233 13.3283 27.3223 13.4075 27.243C13.4868 27.1637 13.5878 27.1098 13.6978 27.0879C13.8077 27.066 13.9217 27.0772 14.0253 27.1201C14.1289 27.1631 14.2174 27.2357 14.2797 27.3289C14.342 27.4222 14.3752 27.5318 14.3752 27.6439C14.3752 27.7943 14.3155 27.9384 14.2092 28.0448C14.1029 28.1511 13.9587 28.2108 13.8084 28.2108Z"/>
<path d="M23.6116 9.10093C23.5531 9.07166 23.4893 9.05421 23.4241 9.04959C23.3588 9.04496 23.2933 9.05325 23.2312 9.07396C23.1691 9.09468 23.1117 9.12743 23.0623 9.17034C23.0129 9.21324 22.9724 9.26545 22.9432 9.324L22.4107 10.3883C22.3792 10.447 22.3599 10.5114 22.3537 10.5777C22.3476 10.6441 22.3548 10.7109 22.3749 10.7744C22.3951 10.8379 22.4278 10.8967 22.471 10.9474C22.5143 10.998 22.5673 11.0394 22.6269 11.0692C22.6865 11.099 22.7514 11.1166 22.8179 11.1208C22.8844 11.1251 22.9511 11.1159 23.0139 11.094C23.0768 11.072 23.1347 11.0376 23.184 10.9929C23.2334 10.9482 23.2733 10.894 23.3014 10.8336L23.8339 9.76938C23.893 9.65126 23.9029 9.51448 23.8612 9.38912C23.8195 9.26376 23.7297 9.1601 23.6116 9.10093Z"/>
<path d="M25.3378 5.46748L24.8053 4.93496C24.7116 4.84326 24.5854 4.79225 24.4543 4.79298C24.3232 4.79371 24.1976 4.84613 24.1049 4.93887C24.0121 5.03161 23.9597 5.15718 23.959 5.28833C23.9582 5.41947 24.0092 5.54562 24.1009 5.63939L24.6334 6.17191C24.6795 6.21902 24.7344 6.25652 24.7951 6.28224C24.8557 6.30797 24.9209 6.3214 24.9868 6.32177C25.0526 6.32213 25.118 6.30943 25.1789 6.28438C25.2398 6.25934 25.2952 6.22246 25.3418 6.17587C25.3884 6.12928 25.4252 6.07391 25.4503 6.01297C25.4753 5.95203 25.488 5.88673 25.4877 5.82085C25.4873 5.75496 25.4739 5.68981 25.4481 5.62915C25.4224 5.5685 25.3849 5.51355 25.3378 5.46748Z"/>
<path d="M13.0537 9.45911L14.1179 9.99163C14.2355 10.0462 14.3697 10.0529 14.4921 10.0101C14.6145 9.96741 14.7154 9.87862 14.7733 9.76266C14.8313 9.6467 14.8418 9.5127 14.8026 9.38914C14.7633 9.26557 14.6775 9.16217 14.5632 9.10089L13.4991 8.56837C13.3815 8.51373 13.2473 8.50709 13.1249 8.54984C13.0025 8.59259 12.9016 8.68138 12.8436 8.79734C12.7856 8.9133 12.7752 9.0473 12.8144 9.17087C12.8536 9.29443 12.9395 9.39783 13.0537 9.45911Z"/>
<path d="M16.4688 9.51172C16.6009 9.51172 16.7276 9.45924 16.821 9.36582C16.9144 9.2724 16.9669 9.14569 16.9669 9.01358V8.48105C16.9669 8.34894 16.9144 8.22224 16.821 8.12882C16.7276 8.0354 16.6009 7.98291 16.4688 7.98291C16.3367 7.98291 16.21 8.0354 16.1166 8.12882C16.0232 8.22224 15.9707 8.34894 15.9707 8.48105V9.01358C15.9707 9.14569 16.0232 9.2724 16.1166 9.36582C16.21 9.45924 16.3367 9.51172 16.4688 9.51172Z"/>
<path d="M5.06933 16.9113L6.1335 17.4438C6.25106 17.4984 6.3853 17.5051 6.50768 17.4623C6.63007 17.4196 6.73097 17.3308 6.78894 17.2148C6.84692 17.0989 6.8574 16.9649 6.81817 16.8413C6.77894 16.7177 6.69308 16.6143 6.57884 16.553L5.51467 16.0205C5.3971 15.9659 5.26287 15.9592 5.14049 16.002C5.0181 16.0447 4.9172 16.1335 4.85923 16.2495C4.80125 16.3654 4.79076 16.4994 4.83 16.623C4.86923 16.7466 4.95509 16.85 5.06933 16.9113Z"/>
<path d="M8.51953 18.0626V18.5951C8.51953 18.7272 8.57201 18.8539 8.66543 18.9474C8.75884 19.0408 8.88553 19.0933 9.01764 19.0933C9.14974 19.0933 9.27644 19.0408 9.36986 18.9474C9.46327 18.8539 9.51574 18.7272 9.51574 18.5951V18.0626C9.51574 17.9305 9.46327 17.8038 9.36986 17.7103C9.27644 17.6169 9.14974 17.5645 9.01764 17.5645C8.88553 17.5645 8.75884 17.6169 8.66543 17.7103C8.57201 17.8038 8.51953 17.9305 8.51953 18.0626Z"/>
<path d="M14.375 13.2726V13.8051C14.375 13.9372 14.4275 14.0639 14.5209 14.1573C14.6143 14.2507 14.741 14.3032 14.8731 14.3032C15.0052 14.3032 15.1319 14.2507 15.2253 14.1573C15.3187 14.0639 15.3712 13.9372 15.3712 13.8051V13.2726C15.3712 13.1404 15.3187 13.0137 15.2253 12.9203C15.1319 12.8269 15.0052 12.7744 14.8731 12.7744C14.741 12.7744 14.6143 12.8269 14.5209 12.9203C14.4275 13.0137 14.375 13.1404 14.375 13.2726Z"/>
<path d="M12.03 17.1781C11.9839 17.131 11.929 17.0935 11.8683 17.0678C11.8077 17.0421 11.7425 17.0286 11.6767 17.0283C11.6108 17.0279 11.5455 17.0406 11.4846 17.0656C11.4236 17.0907 11.3683 17.1276 11.3217 17.1741C11.2751 17.2207 11.2382 17.2761 11.2132 17.337C11.1881 17.398 11.1754 17.4633 11.1758 17.5292C11.1762 17.5951 11.1896 17.6602 11.2153 17.7209C11.241 17.7815 11.2785 17.8365 11.3256 17.8825L11.8581 18.4151C11.9519 18.5068 12.078 18.5578 12.2091 18.557C12.3403 18.5563 12.4658 18.5039 12.5586 18.4111C12.6513 18.3184 12.7037 18.1928 12.7045 18.0617C12.7052 17.9305 12.6542 17.8044 12.5625 17.7106L12.03 17.1781Z"/>
<path d="M6.17578 19.8402C6.08237 19.7468 5.95568 19.6943 5.82359 19.6943C5.69149 19.6943 5.5648 19.7468 5.47139 19.8402L4.93891 20.3727C4.89181 20.4188 4.85431 20.4737 4.82859 20.5344C4.80287 20.5951 4.78944 20.6602 4.78907 20.7261C4.7887 20.792 4.8014 20.8573 4.82644 20.9182C4.85148 20.9792 4.88836 21.0345 4.93495 21.0811C4.98153 21.1277 5.0369 21.1646 5.09783 21.1896C5.15877 21.2147 5.22407 21.2274 5.28995 21.227C5.35583 21.2266 5.42098 21.2132 5.48163 21.1875C5.54229 21.1618 5.59723 21.1243 5.64329 21.0772L6.17578 20.5446C6.26918 20.4512 6.32164 20.3245 6.32164 20.1924C6.32164 20.0603 6.26918 19.9336 6.17578 19.8402Z"/>
<path d="M6.88997 22.8911H6.35747C6.22537 22.8911 6.09867 22.9436 6.00526 23.037C5.91185 23.1304 5.85938 23.2571 5.85938 23.3892C5.85938 23.5213 5.91185 23.648 6.00526 23.7414C6.09867 23.8348 6.22537 23.8873 6.35747 23.8873H6.88997C7.02207 23.8873 7.14876 23.8348 7.24218 23.7414C7.33559 23.648 7.38806 23.5213 7.38806 23.3892C7.38806 23.2571 7.33559 23.1304 7.24218 23.037C7.14876 22.9436 7.02207 22.8911 6.88997 22.8911Z"/>
<path d="M15.5847 20.9052L15.0522 21.4377C15.0051 21.4838 14.9676 21.5387 14.9419 21.5994C14.9161 21.66 14.9027 21.7252 14.9023 21.791C14.902 21.8569 14.9147 21.9222 14.9397 21.9832C14.9648 22.0441 15.0016 22.0995 15.0482 22.1461C15.0948 22.1927 15.1502 22.2296 15.2111 22.2546C15.2721 22.2796 15.3373 22.2924 15.4032 22.292C15.4691 22.2916 15.5343 22.2782 15.5949 22.2525C15.6556 22.2267 15.7105 22.1892 15.7566 22.1421L16.2891 21.6096C16.3807 21.5158 16.4318 21.3897 16.431 21.2585C16.4303 21.1274 16.378 21.0018 16.2852 20.9091C16.1925 20.8163 16.0669 20.7639 15.9357 20.7632C15.8046 20.7625 15.6784 20.8135 15.5847 20.9052Z"/>
<path d="M13.8086 23.9521C13.6765 23.9521 13.5498 24.0046 13.4564 24.098C13.363 24.1914 13.3105 24.3181 13.3105 24.4502C13.3105 24.5823 13.363 24.709 13.4564 24.8024C13.5498 24.8958 13.6765 24.9483 13.8086 24.9483H14.3411C14.4732 24.9483 14.5999 24.8958 14.6933 24.8024C14.7867 24.709 14.8392 24.5823 14.8392 24.4502C14.8392 24.3181 14.7867 24.1914 14.6933 24.098C14.5999 24.0046 14.4732 23.9521 14.3411 23.9521H13.8086Z"/>
<path d="M10.0841 26.0815C9.95194 26.0815 9.82524 26.134 9.73183 26.2274C9.63841 26.3208 9.58594 26.4475 9.58594 26.5797V27.1122C9.58594 27.2443 9.63841 27.371 9.73183 27.4644C9.82524 27.5578 9.95194 27.6103 10.0841 27.6103C10.2162 27.6103 10.3429 27.5578 10.4363 27.4644C10.5297 27.371 10.5822 27.2443 10.5822 27.1122V26.5797C10.5822 26.5142 10.5693 26.4494 10.5443 26.389C10.5192 26.3286 10.4825 26.2737 10.4363 26.2274C10.39 26.1812 10.3351 26.1445 10.2747 26.1194C10.2142 26.0944 10.1495 26.0815 10.0841 26.0815Z"/>
<path d="M18.0638 28.21H17.5313C17.3992 28.21 17.2725 28.2625 17.1791 28.3559C17.0857 28.4493 17.0332 28.576 17.0332 28.7081C17.0332 28.8402 17.0857 28.9669 17.1791 29.0603C17.2725 29.1537 17.3992 29.2062 17.5313 29.2062H18.0638C18.1959 29.2062 18.3226 29.1537 18.416 29.0603C18.5095 28.9669 18.5619 28.8402 18.5619 28.7081C18.5619 28.576 18.5095 28.4493 18.416 28.3559C18.3226 28.2625 18.1959 28.21 18.0638 28.21Z"/>
<path d="M19.6602 21.7544C19.7923 21.7544 19.919 21.7019 20.0124 21.6085C20.1059 21.5151 20.1583 21.3884 20.1583 21.2562V20.192C20.1583 20.0599 20.1059 19.9332 20.0124 19.8397C19.919 19.7463 19.7923 19.6938 19.6602 19.6938C19.5281 19.6938 19.4014 19.7463 19.308 19.8397C19.2146 19.9332 19.1621 20.0599 19.1621 20.192V21.2562C19.1621 21.3884 19.2146 21.5151 19.308 21.6085C19.4014 21.7019 19.5281 21.7544 19.6602 21.7544Z"/>
<path d="M23.2097 23.5659C23.1636 23.5188 23.1087 23.4813 23.0481 23.4556C22.9874 23.4298 22.9223 23.4164 22.8564 23.416C22.7905 23.4157 22.7252 23.4284 22.6643 23.4534C22.6033 23.4785 22.5479 23.5153 22.5014 23.5619C22.4548 23.6085 22.4179 23.6639 22.3929 23.7248C22.3678 23.7858 22.3551 23.8511 22.3555 23.917C22.3559 23.9828 22.3693 24.048 22.395 24.1087C22.4207 24.1693 22.4582 24.2243 22.5053 24.2703L23.0378 24.8029C23.1316 24.8946 23.2577 24.9456 23.3888 24.9448C23.52 24.9441 23.6455 24.8917 23.7383 24.7989C23.831 24.7062 23.8834 24.5806 23.8842 24.4495C23.8849 24.3183 23.8339 24.1922 23.7422 24.0984L23.2097 23.5659Z"/>
<path d="M25.5189 21.8232H24.9864C24.8543 21.8232 24.7276 21.8757 24.6342 21.9691C24.5408 22.0625 24.4883 22.1892 24.4883 22.3213C24.4883 22.4534 24.5408 22.5801 24.6342 22.6735C24.7276 22.767 24.8543 22.8194 24.9864 22.8194H25.5189C25.651 22.8194 25.7777 22.767 25.8711 22.6735C25.9645 22.5801 26.017 22.4534 26.017 22.3213C26.017 22.1892 25.9645 22.0625 25.8711 21.9691C25.7777 21.8757 25.651 21.8232 25.5189 21.8232Z"/>
<path d="M26.549 18.0634V17.5309C26.549 17.3988 26.4965 17.2721 26.4031 17.1786C26.3097 17.0852 26.183 17.0327 26.0509 17.0327C25.9188 17.0327 25.7921 17.0852 25.6987 17.1786C25.6052 17.2721 25.5527 17.3988 25.5527 17.5309V18.0634C25.5527 18.1955 25.6052 18.3222 25.6987 18.4156C25.7921 18.5091 25.9188 18.5615 26.0509 18.5615C26.183 18.5615 26.3097 18.5091 26.4031 18.4156C26.4965 18.3222 26.549 18.1955 26.549 18.0634Z"/>
</svg>
