<svg width="34" height="34" viewBox="0 0 34 34" xmlns="http://www.w3.org/2000/svg">
<path d="M28.5153 13.1926V11.9592C28.5102 7.99901 27.1628 4.1575 24.693 1.06196C24.4278 0.730588 24.0915 0.46309 23.709 0.279267C23.3265 0.095443 22.9075 0 22.4831 0C22.0587 0 21.6397 0.095443 21.2572 0.279267C20.8747 0.46309 20.5384 0.730588 20.2732 1.06196C17.8027 4.1572 16.4546 7.99878 16.4493 11.9592V13.1926C14.9519 13.3311 13.56 14.0234 12.5459 15.134C11.5318 16.2445 10.9685 17.6936 10.9662 19.1975V23.0368H12.337L12.5015 22.8183C12.962 22.206 13.5582 21.7088 14.2431 21.3656C14.9281 21.0224 15.6832 20.8426 16.4493 20.8402H18.0108C18.2517 21.1718 18.5174 21.4848 18.8055 21.7764L18.9644 21.9353H20.2883V23.0774C19.8449 23.1516 19.4214 23.3162 19.0443 23.561C18.6673 23.8058 18.3445 24.1255 18.0963 24.5004C17.848 24.8752 17.6795 25.2972 17.6012 25.7399C17.523 26.1827 17.5366 26.6368 17.6413 27.074C17.2198 27.2427 16.8465 27.5128 16.5544 27.8603C16.2623 28.2079 16.0605 28.6222 15.967 29.0664H2.74155C2.30493 29.0658 1.88642 28.8918 1.57798 28.5828C1.26954 28.2737 1.09641 27.8548 1.09662 27.4181V6.03296H0V27.4181C0.000841258 28.1451 0.289953 28.842 0.803911 29.356C1.31787 29.87 2.0147 30.1591 2.74155 30.1599H15.9582C16.1015 30.8621 16.514 31.4803 17.1073 31.8821C17.7007 32.2839 18.4277 32.4374 19.1328 32.3097C19.5205 32.8341 20.0258 33.2602 20.6081 33.5539C21.1904 33.8475 21.8334 34.0005 22.4855 34.0005C23.1376 34.0005 23.7806 33.8475 24.3629 33.5539C24.9452 33.2602 25.4504 32.8341 25.8381 32.3097C25.9976 32.3406 26.1596 32.3563 26.3221 32.3566C26.9137 32.3581 27.49 32.1678 27.9645 31.8143C28.439 31.4607 28.7861 30.963 28.954 30.3956C29.1219 29.8282 29.1014 29.2216 28.8957 28.6668C28.69 28.112 28.3101 27.6388 27.8128 27.318C27.9716 26.8252 28.0114 26.3019 27.929 25.7908C27.8466 25.2796 27.6443 24.7953 27.3387 24.3774C27.0331 23.9596 26.6329 23.62 26.1708 23.3866C25.7088 23.1531 25.198 23.0325 24.6803 23.0345V21.9346H26.001L26.16 21.7756C26.4482 21.4841 26.7138 21.1712 26.9546 20.8394H28.5161C29.2821 20.8413 30.0372 21.0206 30.7223 21.3632C31.4073 21.7059 32.0038 22.2025 32.4647 22.8143L32.6292 23.0329H34V19.1951C33.9977 17.6912 33.4344 16.2422 32.4203 15.1316C31.4062 14.021 30.0143 13.3287 28.5169 13.1902L28.5153 13.1926ZM21.1298 1.7486C21.2922 1.5452 21.4984 1.38098 21.7329 1.26812C21.9675 1.15526 22.2244 1.09665 22.4847 1.09665C22.745 1.09665 23.0019 1.15526 23.2365 1.26812C23.471 1.38098 23.6771 1.5452 23.8396 1.7486C24.2638 2.28711 24.6534 2.85196 25.0061 3.43978C24.3088 4.05171 23.4128 4.38913 22.4851 4.38913C21.5574 4.38913 20.6614 4.05171 19.9641 3.43978C20.3166 2.85206 20.706 2.28721 21.1298 1.7486ZM17.5483 11.9592C17.555 9.32618 18.1958 6.7335 19.4165 4.4006C20.285 5.10177 21.3674 5.48422 22.4835 5.48422C23.5996 5.48422 24.682 5.10177 25.5505 4.4006C26.77 6.73382 27.4097 9.32646 27.4155 11.9592V16.0917C27.4137 16.5818 27.3605 17.0703 27.2566 17.5493H17.7057C17.6018 17.0703 17.5485 16.5818 17.5467 16.0917L17.5483 11.9592ZM16.4517 19.7475C15.6303 19.7494 14.8179 19.9182 14.0638 20.2436C13.3096 20.569 12.6294 21.0443 12.0644 21.6405V19.1951C12.0661 17.9817 12.5142 16.8113 13.3233 15.907C14.1325 15.0027 15.246 14.4277 16.4517 14.2917V16.0925C16.4507 17.362 16.752 18.6135 17.3306 19.7435L16.4517 19.7475ZM24.6771 24.1351C25.0164 24.1318 25.3518 24.2081 25.6562 24.3579C25.9607 24.5076 26.2258 24.7267 26.4302 24.9975C26.6347 25.2683 26.7728 25.5833 26.8335 25.9171C26.8943 26.251 26.8758 26.5944 26.7798 26.9199C26.2321 26.8154 25.6654 26.8859 25.16 27.1214C24.6545 27.3569 24.236 27.7454 23.9635 28.2319L24.9092 28.7883C25.0515 28.5396 25.257 28.333 25.5048 28.1892C25.7526 28.0455 26.034 27.9698 26.3205 27.9697C26.7565 27.9703 27.1746 28.1438 27.4829 28.4522C27.7913 28.7606 27.9648 29.1787 27.9654 29.6148C27.9695 29.8807 27.9081 30.1435 27.7868 30.3802C27.6655 30.6168 27.4879 30.82 27.2697 30.972C27.0514 31.1239 26.7992 31.2199 26.5352 31.2515C26.2712 31.2832 26.0034 31.2494 25.7555 31.1534L25.2731 30.9745L25.0633 31.4442C24.815 31.9067 24.4408 32.2895 23.984 32.5482C23.5273 32.807 23.0067 32.9312 22.4823 32.9065C20.9725 32.9065 19.7408 31.9226 19.7408 30.7131H18.6441C18.6456 30.8957 18.6648 31.0777 18.7014 31.2567C18.6823 31.2567 18.6632 31.2614 18.6441 31.2614C18.2596 31.262 17.8871 31.1276 17.5914 30.8816C17.2958 30.6357 17.0958 30.2939 17.0263 29.9156C16.9569 29.5374 17.0222 29.1468 17.2111 28.8118C17.4 28.4768 17.7005 28.2187 18.0601 28.0825C18.3564 28.5523 18.7669 28.9393 19.2533 29.2075C19.7396 29.4758 20.286 29.6164 20.8413 29.6164V28.5196C20.2596 28.5196 19.7016 28.2885 19.2902 27.8771C18.8788 27.4657 18.6477 26.9076 18.6477 26.3258C18.6477 25.744 18.8788 25.1859 19.2902 24.7745C19.7016 24.3631 20.2596 24.132 20.8413 24.132H21.3897V21.9346H23.5829V24.128L24.6771 24.1351ZM25.5417 20.845H19.4229C18.8238 20.2085 18.3509 19.4642 18.0291 18.6515H26.9387C26.6168 19.4642 26.1439 20.2084 25.5449 20.845H25.5417ZM32.9026 21.6397C32.3376 21.0435 31.6574 20.5682 30.9032 20.2428C30.1491 19.9174 29.3367 19.7486 28.5153 19.7467H27.6364C28.2151 18.6167 28.5163 17.3652 28.5153 16.0957V14.2917C29.721 14.4277 30.8345 15.0027 31.6436 15.907C32.4528 16.8113 32.9009 17.9817 32.9026 19.1951V21.6397Z" />
<path d="M8.77344 26.874H9.87014V27.9707H8.77344V26.874Z" />
<path d="M3.28906 26.874H4.38576V27.9707H3.28906V26.874Z" />
<path d="M3.28918 20.8408V25.7768H4.3858V20.8408L5.04378 21.715L5.91789 21.057L3.83431 18.2754L1.75391 21.0601L2.62803 21.7182L3.28918 20.8408Z" />
<path d="M25.2266 15.3569H26.3233V16.4536H25.2266V15.3569Z" />
<path d="M23.0312 15.3569H24.128V16.4536H23.0312V15.3569Z" />
<path d="M20.8379 15.3569H21.9346V16.4536H20.8379V15.3569Z" />
<path d="M18.6445 15.3569H19.7412V16.4536H18.6445V15.3569Z" />
<path d="M9.87017 15.3574L10.5281 16.2316L11.4023 15.5735L9.31868 12.792L7.23828 15.5767L8.1124 16.2347L8.77037 15.3605V25.777H9.86699L9.87017 15.3574Z" />
<path d="M22.4835 14.2587C23.2428 14.2587 23.9851 14.0335 24.6164 13.6116C25.2477 13.1897 25.7398 12.59 26.0303 11.8884C26.3209 11.1869 26.3968 10.4149 26.2486 9.67008C26.1004 8.92531 25.7347 8.24121 25.1978 7.7043C24.6608 7.1674 23.9767 6.8018 23.232 6.65375C22.4872 6.5057 21.7153 6.58184 21.0138 6.87255C20.3124 7.16326 19.7129 7.65548 19.2911 8.28696C18.8694 8.91843 18.6444 9.6608 18.6445 10.4202C18.6458 11.438 19.0507 12.4137 19.7704 13.1333C20.4901 13.8529 21.4658 14.2576 22.4835 14.2587ZM22.4835 7.67759C23.0257 7.67759 23.5558 7.83839 24.0066 8.13967C24.4575 8.44094 24.8089 8.86915 25.0164 9.37015C25.2239 9.87114 25.2782 10.4224 25.1724 10.9543C25.0666 11.4861 24.8055 11.9747 24.4221 12.3581C24.0387 12.7416 23.5502 13.0027 23.0183 13.1085C22.4865 13.2143 21.9353 13.16 21.4344 12.9525C20.9334 12.745 20.5052 12.3935 20.204 11.9426C19.9027 11.4918 19.7419 10.9617 19.7419 10.4194C19.7428 9.69248 20.0319 8.99559 20.5459 8.48158C21.0598 7.96758 21.7567 7.67843 22.4835 7.67759Z" />
<path d="M22.4828 12.0656C22.8081 12.0656 23.1262 11.9691 23.3967 11.7883C23.6672 11.6075 23.878 11.3506 24.0025 11.05C24.127 10.7494 24.1596 10.4186 24.0961 10.0995C24.0327 9.78042 23.876 9.4873 23.646 9.25723C23.4159 9.02716 23.1228 8.87048 22.8037 8.807C22.4846 8.74353 22.1539 8.77611 21.8533 8.90062C21.5527 9.02513 21.2958 9.23599 21.1151 9.50652C20.9344 9.77705 20.8379 10.0951 20.8379 10.4205C20.8385 10.8566 21.012 11.2746 21.3204 11.583C21.6287 11.8914 22.0467 12.0649 22.4828 12.0656ZM22.4828 9.87211C22.5913 9.87211 22.6973 9.90428 22.7874 9.96453C22.8776 10.0248 22.9479 10.1104 22.9894 10.2106C23.0309 10.3108 23.0417 10.4211 23.0206 10.5275C22.9994 10.6338 22.9472 10.7315 22.8705 10.8082C22.7938 10.8849 22.6961 10.9371 22.5898 10.9583C22.4834 10.9795 22.3732 10.9686 22.273 10.9271C22.1728 10.8856 22.0872 10.8153 22.0269 10.7251C21.9667 10.6349 21.9345 10.5289 21.9345 10.4205C21.9347 10.2751 21.9925 10.1357 22.0953 10.033C22.1981 9.93016 22.3375 9.87232 22.4828 9.87211Z" />
<path d="M3.83749 17.0045C4.27356 17.0039 4.69159 16.8304 4.99994 16.522C5.30829 16.2136 5.48179 15.7955 5.48242 15.3594C5.48128 15.115 5.42477 14.874 5.31714 14.6545L8.61574 11.3556C8.83539 11.4626 9.07628 11.5188 9.3206 11.5201C9.75666 11.5195 10.1747 11.346 10.483 11.0376C10.7914 10.7292 10.9649 10.3111 10.9655 9.87504C10.9644 9.6306 10.9079 9.38959 10.8002 9.17012L12.9998 6.96794C13.2195 7.07492 13.4604 7.13114 13.7047 7.13245C14.03 7.13245 14.3481 7.03597 14.6186 6.8552C14.8891 6.67444 15.0999 6.41751 15.2244 6.11691C15.3489 5.81631 15.3815 5.48554 15.318 5.16643C15.2545 4.84732 15.0979 4.55419 14.8678 4.32412C14.6378 4.09405 14.3447 3.93738 14.0256 3.8739C13.7065 3.81042 13.3758 3.843 13.0752 3.96751C12.7746 4.09203 12.5177 4.30288 12.337 4.57341C12.1562 4.84394 12.0598 5.162 12.0598 5.48737C12.0609 5.73181 12.1174 5.97282 12.225 6.19229L10.0231 8.39447C9.80342 8.28749 9.56252 8.23127 9.31821 8.22996C8.88214 8.23059 8.46411 8.40411 8.15577 8.71249C7.84742 9.02087 7.67391 9.43893 7.67328 9.87504C7.67443 10.1195 7.73094 10.3605 7.83857 10.58L4.54315 13.8789C4.32349 13.7719 4.0826 13.7157 3.83829 13.7144C3.40203 13.7144 2.98363 13.8877 2.67515 14.1962C2.36666 14.5047 2.19336 14.9231 2.19336 15.3594C2.19336 15.7957 2.36666 16.2142 2.67515 16.5227C2.98363 16.8312 3.40203 17.0045 3.83829 17.0045H3.83749ZM13.7087 4.93901C13.8171 4.93901 13.9231 4.97117 14.0133 5.03142C14.1035 5.09168 14.1737 5.17732 14.2152 5.27752C14.2567 5.37772 14.2676 5.48798 14.2464 5.59435C14.2253 5.70072 14.1731 5.79843 14.0964 5.87512C14.0197 5.95181 13.922 6.00403 13.8156 6.02519C13.7093 6.04635 13.599 6.03549 13.4988 5.99399C13.3986 5.95248 13.313 5.8822 13.2528 5.79202C13.1925 5.70184 13.1603 5.59582 13.1603 5.48737C13.1606 5.342 13.2184 5.20264 13.3212 5.09985C13.424 4.99706 13.5633 4.93922 13.7087 4.93901ZM9.32139 9.32589C9.42984 9.32589 9.53585 9.35805 9.62602 9.4183C9.71619 9.47856 9.78646 9.5642 9.82796 9.6644C9.86946 9.7646 9.88032 9.87485 9.85917 9.98123C9.83801 10.0876 9.78579 10.1853 9.7091 10.262C9.63242 10.3387 9.53472 10.3909 9.42836 10.4121C9.322 10.4332 9.21175 10.4224 9.11156 10.3809C9.01137 10.3394 8.92574 10.2691 8.86549 10.1789C8.80524 10.0887 8.77308 9.9827 8.77308 9.87425C8.77329 9.72888 8.83113 9.58952 8.93391 9.48673C9.03669 9.38394 9.17603 9.3261 9.32139 9.32589ZM3.83829 14.8095C3.94673 14.8095 4.05274 14.8416 4.14291 14.9019C4.23308 14.9622 4.30336 15.0478 4.34486 15.148C4.38636 15.2482 4.39722 15.3584 4.37606 15.4648C4.35491 15.5712 4.30268 15.6689 4.226 15.7456C4.14932 15.8223 4.05162 15.8745 3.94526 15.8957C3.8389 15.9168 3.72865 15.906 3.62846 15.8645C3.52827 15.823 3.44263 15.7527 3.38239 15.6625C3.32214 15.5723 3.28998 15.4663 3.28998 15.3578C3.29019 15.2126 3.34791 15.0734 3.45053 14.9706C3.55314 14.8678 3.69228 14.8099 3.83749 14.8095H3.83829Z" />
<path d="M22.6473 3.17948C22.8668 3.17948 23.0447 3.00158 23.0447 2.78212C23.0447 2.56267 22.8668 2.38477 22.6473 2.38477C22.4279 2.38477 22.25 2.56267 22.25 2.78212C22.25 3.00158 22.4279 3.17948 22.6473 3.17948Z" />
</svg>
