<svg width="34" height="34" viewBox="0 0 34 34" xmlns="http://www.w3.org/2000/svg">
<path d="M28.5153 13.1922V11.9588C28.5102 7.99853 27.1628 4.15702 24.693 1.06148C24.4278 0.730099 24.0915 0.462601 23.709 0.278778C23.3265 0.0949547 22.9075 -0.000488281 22.4831 -0.000488281C22.0587 -0.000488281 21.6397 0.0949547 21.2572 0.278778C20.8747 0.462601 20.5384 0.730099 20.2732 1.06148C17.8027 4.15672 16.4546 7.9983 16.4493 11.9588V13.1922C14.9519 13.3307 13.56 14.023 12.5459 15.1336C11.5318 16.2441 10.9685 17.6932 10.9662 19.1971V23.0364H12.337L12.5015 22.8179C12.962 22.2056 13.5582 21.7084 14.2431 21.3652C14.9281 21.022 15.6832 20.8422 16.4493 20.8398H18.0108C18.2517 21.1714 18.5174 21.4844 18.8055 21.776L18.9644 21.9349H20.2883V23.077C19.8449 23.1512 19.4214 23.3158 19.0443 23.5606C18.6673 23.8054 18.3445 24.1251 18.0963 24.5C17.848 24.8748 17.6795 25.2968 17.6012 25.7395C17.523 26.1823 17.5366 26.6364 17.6413 27.0736C17.2198 27.2423 16.8465 27.5124 16.5544 27.8599C16.2623 28.2075 16.0605 28.6218 15.967 29.066H2.74155C2.30493 29.0654 1.88642 28.8914 1.57798 28.5824C1.26954 28.2733 1.09641 27.8544 1.09662 27.4177V6.03248H0V27.4177C0.000841258 28.1447 0.289953 28.8416 0.803911 29.3556C1.31787 29.8696 2.0147 30.1587 2.74155 30.1595H15.9582C16.1015 30.8617 16.514 31.4799 17.1073 31.8817C17.7007 32.2835 18.4277 32.437 19.1328 32.3093C19.5205 32.8337 20.0258 33.2598 20.6081 33.5535C21.1904 33.8471 21.8334 34.0001 22.4855 34.0001C23.1376 34.0001 23.7806 33.8471 24.3629 33.5535C24.9452 33.2598 25.4504 32.8337 25.8381 32.3093C25.9976 32.3402 26.1596 32.3559 26.3221 32.3562C26.9137 32.3577 27.49 32.1674 27.9645 31.8139C28.439 31.4603 28.7861 30.9626 28.954 30.3952C29.1219 29.8278 29.1014 29.2212 28.8957 28.6664C28.69 28.1116 28.3101 27.6384 27.8128 27.3176C27.9716 26.8248 28.0114 26.3015 27.929 25.7904C27.8466 25.2792 27.6443 24.7949 27.3387 24.377C27.0331 23.9592 26.6329 23.6196 26.1708 23.3862C25.7088 23.1527 25.198 23.0321 24.6803 23.0341V21.9342H26.001L26.16 21.7752C26.4482 21.4837 26.7138 21.1708 26.9546 20.839H28.5161C29.2821 20.8409 30.0372 21.0202 30.7223 21.3628C31.4073 21.7055 32.0038 22.2021 32.4647 22.8139L32.6292 23.0325H34V19.1947C33.9977 17.6908 33.4344 16.2418 32.4203 15.1312C31.4062 14.0206 30.0143 13.3283 28.5169 13.1898L28.5153 13.1922ZM21.1298 1.74812C21.2922 1.54472 21.4984 1.3805 21.7329 1.26764C21.9675 1.15478 22.2244 1.09617 22.4847 1.09617C22.745 1.09617 23.0019 1.15478 23.2365 1.26764C23.471 1.3805 23.6771 1.54472 23.8396 1.74812C24.2638 2.28663 24.6534 2.85148 25.0061 3.4393C24.3088 4.05123 23.4128 4.38865 22.4851 4.38865C21.5574 4.38865 20.6614 4.05123 19.9641 3.4393C20.3166 2.85158 20.706 2.28673 21.1298 1.74812ZM17.5483 11.9588C17.555 9.3257 18.1958 6.73302 19.4165 4.40012C20.285 5.10129 21.3674 5.48374 22.4835 5.48374C23.5996 5.48374 24.682 5.10129 25.5505 4.40012C26.77 6.73334 27.4097 9.32598 27.4155 11.9588V16.0913C27.4137 16.5814 27.3605 17.0699 27.2566 17.5489H17.7057C17.6018 17.0699 17.5485 16.5814 17.5467 16.0913L17.5483 11.9588ZM16.4517 19.7471C15.6303 19.749 14.8179 19.9178 14.0638 20.2432C13.3096 20.5686 12.6294 21.0439 12.0644 21.6401V19.1947C12.0661 17.9813 12.5142 16.8109 13.3233 15.9066C14.1325 15.0023 15.246 14.4273 16.4517 14.2913V16.0921C16.4507 17.3616 16.752 18.6131 17.3306 19.7431L16.4517 19.7471ZM24.6771 24.1347C25.0164 24.1314 25.3518 24.2077 25.6562 24.3575C25.9607 24.5072 26.2258 24.7263 26.4302 24.9971C26.6347 25.2679 26.7728 25.5829 26.8335 25.9167C26.8943 26.2506 26.8758 26.594 26.7798 26.9195C26.2321 26.815 25.6654 26.8855 25.16 27.121C24.6545 27.3565 24.236 27.745 23.9635 28.2315L24.9092 28.7879C25.0515 28.5392 25.257 28.3326 25.5048 28.1888C25.7526 28.0451 26.034 27.9694 26.3205 27.9693C26.7565 27.9699 27.1746 28.1434 27.4829 28.4518C27.7913 28.7602 27.9648 29.1783 27.9654 29.6144C27.9695 29.8803 27.9081 30.1431 27.7868 30.3798C27.6655 30.6164 27.4879 30.8196 27.2697 30.9716C27.0514 31.1235 26.7992 31.2195 26.5352 31.2511C26.2712 31.2828 26.0034 31.249 25.7555 31.153L25.2731 30.9741L25.0633 31.4438C24.815 31.9063 24.4408 32.2891 23.984 32.5478C23.5273 32.8066 23.0067 32.9308 22.4823 32.9061C20.9725 32.9061 19.7408 31.9222 19.7408 30.7127H18.6441C18.6456 30.8953 18.6648 31.0773 18.7014 31.2563C18.6823 31.2563 18.6632 31.261 18.6441 31.261C18.2596 31.2616 17.8871 31.1272 17.5914 30.8812C17.2958 30.6353 17.0958 30.2935 17.0263 29.9152C16.9569 29.537 17.0222 29.1464 17.2111 28.8114C17.4 28.4764 17.7005 28.2183 18.0601 28.0821C18.3564 28.5519 18.7669 28.9389 19.2533 29.2071C19.7396 29.4754 20.286 29.616 20.8413 29.616V28.5192C20.2596 28.5192 19.7016 28.2881 19.2902 27.8767C18.8788 27.4653 18.6477 26.9072 18.6477 26.3254C18.6477 25.7436 18.8788 25.1855 19.2902 24.7741C19.7016 24.3627 20.2596 24.1316 20.8413 24.1316H21.3897V21.9342H23.5829V24.1276L24.6771 24.1347ZM25.5417 20.8446H19.4229C18.8238 20.2081 18.3509 19.4638 18.0291 18.6511H26.9387C26.6168 19.4638 26.1439 20.208 25.5449 20.8446H25.5417ZM32.9026 21.6393C32.3376 21.0431 31.6574 20.5678 30.9032 20.2424C30.1491 19.917 29.3367 19.7482 28.5153 19.7463H27.6364C28.2151 18.6163 28.5163 17.3648 28.5153 16.0953V14.2913C29.721 14.4273 30.8345 15.0023 31.6436 15.9066C32.4528 16.8109 32.9009 17.9813 32.9026 19.1947V21.6393Z" />
<path d="M8.77344 26.8735H9.87014V27.9702H8.77344V26.8735Z" />
<path d="M3.28906 26.8735H4.38576V27.9702H3.28906V26.8735Z" />
<path d="M3.28918 20.8403V25.7763H4.3858V20.8403L5.04378 21.7145L5.91789 21.0565L3.83431 18.2749L1.75391 21.0596L2.62803 21.7177L3.28918 20.8403Z" />
<path d="M25.2266 15.3564H26.3233V16.4531H25.2266V15.3564Z" />
<path d="M23.0312 15.3564H24.128V16.4531H23.0312V15.3564Z" />
<path d="M20.8379 15.3564H21.9346V16.4531H20.8379V15.3564Z" />
<path d="M18.6445 15.3564H19.7412V16.4531H18.6445V15.3564Z" />
<path d="M9.87017 15.3569L10.5281 16.2311L11.4023 15.573L9.31868 12.7915L7.23828 15.5762L8.1124 16.2342L8.77037 15.36V25.7765H9.86699L9.87017 15.3569Z" />
<path d="M22.4835 14.2582C23.2428 14.2582 23.9851 14.033 24.6164 13.6111C25.2477 13.1892 25.7398 12.5895 26.0303 11.8879C26.3209 11.1864 26.3968 10.4144 26.2486 9.6696C26.1004 8.92483 25.7347 8.24073 25.1978 7.70382C24.6608 7.16692 23.9767 6.80132 23.232 6.65327C22.4872 6.50522 21.7153 6.58136 21.0138 6.87207C20.3124 7.16278 19.7129 7.655 19.2911 8.28648C18.8694 8.91795 18.6444 9.66032 18.6445 10.4197C18.6458 11.4375 19.0507 12.4132 19.7704 13.1328C20.4901 13.8524 21.4658 14.2571 22.4835 14.2582ZM22.4835 7.67711C23.0257 7.67711 23.5558 7.83791 24.0066 8.13919C24.4575 8.44046 24.8089 8.86867 25.0164 9.36967C25.2239 9.87066 25.2782 10.4219 25.1724 10.9538C25.0666 11.4856 24.8055 11.9742 24.4221 12.3576C24.0387 12.7411 23.5502 13.0022 23.0183 13.108C22.4865 13.2138 21.9353 13.1595 21.4344 12.952C20.9334 12.7445 20.5052 12.393 20.204 11.9421C19.9027 11.4913 19.7419 10.9612 19.7419 10.4189C19.7428 9.692 20.0319 8.9951 20.5459 8.48109C21.0598 7.96709 21.7567 7.67795 22.4835 7.67711Z" />
<path d="M22.4828 12.0651C22.8081 12.0651 23.1262 11.9686 23.3967 11.7878C23.6672 11.607 23.878 11.3501 24.0025 11.0495C24.127 10.7489 24.1596 10.4181 24.0961 10.099C24.0327 9.77993 23.876 9.48681 23.646 9.25674C23.4159 9.02667 23.1228 8.86999 22.8037 8.80651C22.4846 8.74304 22.1539 8.77562 21.8533 8.90013C21.5527 9.02464 21.2958 9.2355 21.1151 9.50603C20.9344 9.77656 20.8379 10.0946 20.8379 10.42C20.8385 10.8561 21.012 11.2741 21.3204 11.5825C21.6287 11.8909 22.0467 12.0644 22.4828 12.0651ZM22.4828 9.87162C22.5913 9.87162 22.6973 9.90379 22.7874 9.96404C22.8776 10.0243 22.9479 10.1099 22.9894 10.2101C23.0309 10.3103 23.0417 10.4206 23.0206 10.527C22.9994 10.6333 22.9472 10.731 22.8705 10.8077C22.7938 10.8844 22.6961 10.9366 22.5898 10.9578C22.4834 10.979 22.3732 10.9681 22.273 10.9266C22.1728 10.8851 22.0872 10.8148 22.0269 10.7246C21.9667 10.6344 21.9345 10.5284 21.9345 10.42C21.9347 10.2746 21.9925 10.1352 22.0953 10.0325C22.1981 9.92967 22.3375 9.87183 22.4828 9.87162Z" />
<path d="M3.83749 17.004C4.27356 17.0034 4.69159 16.8299 4.99994 16.5215C5.30829 16.2131 5.48179 15.795 5.48242 15.3589C5.48128 15.1145 5.42477 14.8735 5.31714 14.654L8.61574 11.3551C8.83539 11.4621 9.07628 11.5183 9.3206 11.5196C9.75666 11.519 10.1747 11.3455 10.483 11.0371C10.7914 10.7287 10.9649 10.3106 10.9655 9.87455C10.9644 9.63011 10.9079 9.3891 10.8002 9.16963L12.9998 6.96745C13.2195 7.07443 13.4604 7.13065 13.7047 7.13196C14.03 7.13196 14.3481 7.03548 14.6186 6.85471C14.8891 6.67395 15.0999 6.41702 15.2244 6.11642C15.3489 5.81582 15.3815 5.48505 15.318 5.16594C15.2545 4.84683 15.0979 4.5537 14.8678 4.32363C14.6378 4.09356 14.3447 3.93689 14.0256 3.87341C13.7065 3.80993 13.3758 3.84251 13.0752 3.96702C12.7746 4.09154 12.5177 4.30239 12.337 4.57292C12.1562 4.84345 12.0598 5.16151 12.0598 5.48688C12.0609 5.73132 12.1174 5.97233 12.225 6.1918L10.0231 8.39398C9.80342 8.287 9.56252 8.23078 9.31821 8.22947C8.88214 8.2301 8.46411 8.40362 8.15577 8.712C7.84742 9.02038 7.67391 9.43844 7.67328 9.87455C7.67443 10.119 7.73094 10.36 7.83857 10.5795L4.54315 13.8784C4.32349 13.7714 4.0826 13.7152 3.83829 13.7139C3.40203 13.7139 2.98363 13.8872 2.67515 14.1957C2.36666 14.5042 2.19336 14.9226 2.19336 15.3589C2.19336 15.7952 2.36666 16.2137 2.67515 16.5222C2.98363 16.8307 3.40203 17.004 3.83829 17.004H3.83749ZM13.7087 4.93852C13.8171 4.93852 13.9231 4.97068 14.0133 5.03093C14.1035 5.09119 14.1737 5.17683 14.2152 5.27703C14.2567 5.37723 14.2676 5.48749 14.2464 5.59386C14.2253 5.70023 14.1731 5.79794 14.0964 5.87463C14.0197 5.95132 13.922 6.00354 13.8156 6.0247C13.7093 6.04586 13.599 6.035 13.4988 5.9935C13.3986 5.95199 13.313 5.88171 13.2528 5.79153C13.1925 5.70135 13.1603 5.59533 13.1603 5.48688C13.1606 5.34151 13.2184 5.20215 13.3212 5.09936C13.424 4.99657 13.5633 4.93873 13.7087 4.93852ZM9.32139 9.3254C9.42984 9.3254 9.53585 9.35756 9.62602 9.41781C9.71619 9.47807 9.78646 9.56371 9.82796 9.66391C9.86946 9.76411 9.88032 9.87436 9.85917 9.98074C9.83801 10.0871 9.78579 10.1848 9.7091 10.2615C9.63242 10.3382 9.53472 10.3904 9.42836 10.4116C9.322 10.4327 9.21175 10.4219 9.11156 10.3804C9.01137 10.3389 8.92574 10.2686 8.86549 10.1784C8.80524 10.0882 8.77308 9.98221 8.77308 9.87376C8.77329 9.72839 8.83113 9.58903 8.93391 9.48624C9.03669 9.38345 9.17603 9.32561 9.32139 9.3254ZM3.83829 14.809C3.94673 14.809 4.05274 14.8411 4.14291 14.9014C4.23308 14.9617 4.30336 15.0473 4.34486 15.1475C4.38636 15.2477 4.39722 15.3579 4.37606 15.4643C4.35491 15.5707 4.30268 15.6684 4.226 15.7451C4.14932 15.8218 4.05162 15.874 3.94526 15.8952C3.8389 15.9163 3.72865 15.9055 3.62846 15.864C3.52827 15.8225 3.44263 15.7522 3.38239 15.662C3.32214 15.5718 3.28998 15.4658 3.28998 15.3573C3.29019 15.2121 3.34791 15.0729 3.45053 14.9701C3.55314 14.8673 3.69228 14.8094 3.83749 14.809H3.83829Z" />
<path d="M22.6473 3.17899C22.8668 3.17899 23.0447 3.00109 23.0447 2.78163C23.0447 2.56218 22.8668 2.38428 22.6473 2.38428C22.4279 2.38428 22.25 2.56218 22.25 2.78163C22.25 3.00109 22.4279 3.17899 22.6473 3.17899Z" />
</svg>
