<svg width="13" height="13" viewBox="0 0 13 13" fill="none" xmlns="http://www.w3.org/2000/svg">
<path d="M5.72484 0C2.56825 0 0 2.56825 0 5.72484C0 8.8816 2.56825 11.4497 5.72484 11.4497C8.8816 11.4497 11.4497 8.8816 11.4497 5.72484C11.4497 2.56825 8.8816 0 5.72484 0ZM5.72484 10.3928C3.15095 10.3928 1.05689 8.29875 1.05689 5.72486C1.05689 3.15098 3.15095 1.05689 5.72484 1.05689C8.29872 1.05689 10.3928 3.15095 10.3928 5.72484C10.3928 8.29872 8.29872 10.3928 5.72484 10.3928Z" fill="#8C97A7"/>
<path d="M12.8449 12.0977L9.81516 9.06792C9.60871 8.86147 9.27437 8.86147 9.06792 9.06792C8.86147 9.27419 8.86147 9.60889 9.06792 9.81516L12.0977 12.8449C12.2009 12.9481 12.336 12.9998 12.4713 12.9998C12.6064 12.9998 12.7417 12.9481 12.8449 12.8449C13.0514 12.6387 13.0514 12.304 12.8449 12.0977Z" fill="#8C97A7"/>
</svg>
