<svg width="27" height="23" viewBox="0 0 27 23" xmlns="http://www.w3.org/2000/svg">
<path d="M1.52344 4.43311H18.9767" stroke-width="1.5" stroke-linecap="round"/>
<path d="M22.5248 8.24593C24.2903 8.24593 25.7215 6.62383 25.7215 4.62293C25.7215 2.62205 24.2903 1 22.5248 1C20.7593 1 19.3281 2.62205 19.3281 4.62293C19.3281 6.62383 20.7593 8.24593 22.5248 8.24593Z" stroke-width="1.5"/>
<path d="M25.377 18.3945H7.92383" stroke-width="1.5" stroke-linecap="round"/>
<path d="M4.43285 21.8271C6.32876 21.8271 7.86574 20.2902 7.86574 18.3943C7.86574 16.4984 6.32876 14.9614 4.43285 14.9614C2.53694 14.9614 1 16.4984 1 18.3943C1 20.2902 2.53694 21.8271 4.43285 21.8271Z" stroke-width="1.5"/>
</svg>
