<svg width="27" height="23" viewBox="0 0 27 23" xmlns="http://www.w3.org/2000/svg">
<path fill-rule="evenodd" clip-rule="evenodd" d="M0.773438 4.43262C0.773438 4.0184 1.10922 3.68262 1.52344 3.68262H18.9767C19.3909 3.68262 19.7267 4.0184 19.7267 4.43262C19.7267 4.84683 19.3909 5.18262 18.9767 5.18262H1.52344C1.10922 5.18262 0.773438 4.84683 0.773438 4.43262Z" />
<path fill-rule="evenodd" clip-rule="evenodd" d="M18.5781 4.62244C18.5781 2.29832 20.2596 0.249512 22.5248 0.249512C24.79 0.249512 26.4715 2.29832 26.4715 4.62244C26.4715 6.94656 24.79 8.99544 22.5248 8.99544C20.2596 8.99544 18.5781 6.94656 18.5781 4.62244ZM22.5248 1.74951C21.259 1.74951 20.0781 2.9448 20.0781 4.62244C20.0781 6.30012 21.259 7.49544 22.5248 7.49544C23.7906 7.49544 24.9715 6.30012 24.9715 4.62244C24.9715 2.9448 23.7906 1.74951 22.5248 1.74951Z" />
<path fill-rule="evenodd" clip-rule="evenodd" d="M7.17383 18.394C7.17383 17.9798 7.50961 17.644 7.92383 17.644H25.377C25.7912 17.644 26.127 17.9798 26.127 18.394C26.127 18.8083 25.7912 19.144 25.377 19.144H7.92383C7.50961 19.144 7.17383 18.8083 7.17383 18.394Z" />
<path fill-rule="evenodd" clip-rule="evenodd" d="M0.25 18.3938C0.25 16.0837 2.12271 14.2109 4.43285 14.2109C6.74298 14.2109 8.61574 16.0837 8.61574 18.3938C8.61574 20.704 6.74295 22.5766 4.43285 22.5766C2.12274 22.5766 0.25 20.704 0.25 18.3938ZM4.43285 15.7109C2.95117 15.7109 1.75 16.9121 1.75 18.3938C1.75 19.8755 2.95114 21.0766 4.43285 21.0766C5.91457 21.0766 7.11574 19.8755 7.11574 18.3938C7.11574 16.9121 5.91454 15.7109 4.43285 15.7109Z" />
</svg>
