<svg width="34" height="34" viewBox="0 0 34 34" xmlns="http://www.w3.org/2000/svg">
<path d="M30.823 4.73134H24.7149V2.73274C24.7176 2.66565 24.7067 2.59872 24.6828 2.53595C24.6589 2.47319 24.6225 2.41588 24.5759 2.36747C24.5292 2.31906 24.4733 2.28054 24.4113 2.25423C24.3494 2.22792 24.2827 2.21436 24.2154 2.21436C24.148 2.21436 24.0814 2.22792 24.0194 2.25423C23.9575 2.28054 23.9015 2.31906 23.8549 2.36747C23.8082 2.41588 23.7718 2.47319 23.748 2.53595C23.7241 2.59872 23.7131 2.66565 23.7158 2.73274V4.73134H21.6465C21.5175 4.73648 21.3955 4.79121 21.306 4.88405C21.2165 4.97689 21.1666 5.10065 21.1666 5.2294C21.1666 5.35815 21.2165 5.4819 21.306 5.57475C21.3955 5.66759 21.5175 5.72231 21.6465 5.72745H23.7158V7.83674H23.3413C23.0895 7.83695 22.8481 7.93676 22.67 8.11427C22.492 8.29177 22.3919 8.53246 22.3917 8.78349V14.6472C22.3919 14.8982 22.492 15.1389 22.67 15.3164C22.8481 15.4939 23.0895 15.5937 23.3413 15.5939H23.7158V19.5441C23.7131 19.6112 23.7241 19.6781 23.748 19.7409C23.7718 19.8037 23.8082 19.861 23.8549 19.9094C23.9015 19.9578 23.9575 19.9963 24.0194 20.0226C24.0814 20.0489 24.148 20.0625 24.2154 20.0625C24.2827 20.0625 24.3494 20.0489 24.4113 20.0226C24.4733 19.9963 24.5292 19.9578 24.5759 19.9094C24.6225 19.861 24.6589 19.8037 24.6828 19.7409C24.7067 19.6781 24.7176 19.6112 24.7149 19.5441V15.5931H25.0895C25.3413 15.5929 25.5827 15.4931 25.7607 15.3156C25.9388 15.1381 26.0389 14.8974 26.0391 14.6464V8.78269C26.0389 8.53166 25.9388 8.29098 25.7607 8.11347C25.5827 7.93597 25.3413 7.83615 25.0895 7.83594H24.7149V5.72745H30.823C31.4002 5.72809 31.9536 5.95698 32.3617 6.36391C32.7699 6.77084 32.9995 7.32257 33.0001 7.89805V24.9443H0.999107V7.89805C0.999742 7.32257 1.22932 6.77084 1.63747 6.36391C2.04562 5.95698 2.59901 5.72809 3.17622 5.72745H11.9334V6.69968H11.5588C11.3069 6.69968 11.0653 6.79941 10.8871 6.97693C10.7089 7.15446 10.6086 7.39527 10.6084 7.64643V13.5085C10.6086 13.7595 10.7088 14.0002 10.8868 14.1777C11.0648 14.3552 11.3062 14.455 11.558 14.4553H11.9326V18.8562C11.9377 18.9848 11.9926 19.1065 12.0858 19.1957C12.1789 19.2849 12.303 19.3347 12.4321 19.3347C12.5613 19.3347 12.6854 19.2849 12.7785 19.1957C12.8716 19.1065 12.9265 18.9848 12.9317 18.8562V14.4561H13.3063C13.4311 14.4561 13.5547 14.4315 13.67 14.3839C13.7853 14.3363 13.89 14.2665 13.9783 14.1785C14.0665 14.0905 14.1365 13.9861 14.1843 13.8711C14.2321 13.7562 14.2566 13.6329 14.2566 13.5085V7.64643C14.2564 7.3954 14.1563 7.15472 13.9783 6.97721C13.8003 6.79971 13.5588 6.6999 13.3071 6.69968H12.9325V5.72745H15.001C15.13 5.72231 15.2521 5.66759 15.3415 5.57475C15.431 5.4819 15.481 5.35815 15.481 5.2294C15.481 5.10065 15.431 4.97689 15.3415 4.88405C15.2521 4.79121 15.13 4.73648 15.001 4.73134H12.9325V4.4853C12.9352 4.41822 12.9243 4.35128 12.9004 4.28851C12.8765 4.22575 12.8401 4.16844 12.7935 4.12003C12.7468 4.07162 12.6908 4.0331 12.6289 4.00679C12.5669 3.98048 12.5003 3.96692 12.4329 3.96692C12.3656 3.96692 12.299 3.98048 12.237 4.00679C12.1751 4.0331 12.1191 4.07162 12.0724 4.12003C12.0258 4.16844 11.9894 4.22575 11.9655 4.28851C11.9416 4.35128 11.9307 4.41822 11.9334 4.4853V4.73134H3.17622C2.33409 4.73218 1.5267 5.06609 0.931227 5.65978C0.335754 6.25347 0.000845721 7.05845 0 7.89805V25.4428C0.000845721 26.2824 0.335754 27.0874 0.931227 27.6811C1.5267 28.2748 2.33409 28.6087 3.17622 28.6095H10.7809V31.1416L9.17086 33.004H8.53195C8.40291 33.0092 8.28088 33.0639 8.19141 33.1568C8.10194 33.2496 8.05197 33.3734 8.05197 33.5021C8.05197 33.6309 8.10194 33.7546 8.19141 33.8475C8.28088 33.9403 8.40291 33.995 8.53195 34.0002H25.4217C25.5542 34.0002 25.6813 33.9477 25.775 33.8543C25.8687 33.7609 25.9213 33.6342 25.9213 33.5021C25.9213 33.37 25.8687 33.2433 25.775 33.1499C25.6813 33.0565 25.5542 33.004 25.4217 33.004H24.8283L23.2191 31.1416V28.6095H30.8238C31.6659 28.6087 32.4733 28.2748 33.0688 27.6811C33.6642 27.0874 33.9992 26.2824 34 25.4428V7.89805C33.9992 7.05845 33.6642 6.25347 33.0688 5.65978C32.4733 5.06609 31.6659 4.73218 30.8238 4.73134H30.823ZM25.04 14.597H23.3868V8.83286H25.0368V14.597H25.04ZM13.2575 13.4599H11.6075V7.6958H13.2575V13.4599ZM30.823 27.6134H20.7129C20.6456 27.6107 20.5785 27.6216 20.5155 27.6454C20.4526 27.6692 20.3951 27.7055 20.3465 27.752C20.298 27.7985 20.2594 27.8543 20.233 27.9161C20.2066 27.9779 20.193 28.0443 20.193 28.1115C20.193 28.1786 20.2066 28.245 20.233 28.3068C20.2594 28.3686 20.298 28.4244 20.3465 28.4709C20.3951 28.5174 20.4526 28.5537 20.5155 28.5775C20.5785 28.6013 20.6456 28.6122 20.7129 28.6095H22.22V30.8287H20.9757C20.8432 30.8287 20.7161 30.8811 20.6224 30.9746C20.5287 31.068 20.4761 31.1946 20.4761 31.3267C20.4761 31.4588 20.5287 31.5855 20.6224 31.6789C20.7161 31.7723 20.8432 31.8248 20.9757 31.8248H22.4931L23.5122 33.004H10.4942L11.5093 31.8224H13.0267C13.1592 31.8224 13.2863 31.7699 13.38 31.6765C13.4737 31.5831 13.5263 31.4564 13.5263 31.3243C13.5263 31.1923 13.4737 31.0656 13.38 30.9722C13.2863 30.8788 13.1592 30.8263 13.0267 30.8263H11.78V28.6095H18.5845C18.7136 28.6044 18.8356 28.5496 18.9251 28.4568C19.0145 28.364 19.0645 28.2402 19.0645 28.1115C19.0645 27.9827 19.0145 27.8589 18.9251 27.7661C18.8356 27.6733 18.7136 27.6185 18.5845 27.6134H3.17622C2.68591 27.6128 2.21011 27.4475 1.82566 27.1441C1.44121 26.8406 1.17056 26.4169 1.05741 25.9413H32.9418C32.8286 26.4169 32.558 26.8406 32.1735 27.1441C31.7891 27.4475 31.3133 27.6128 30.823 27.6134Z"/>
<path d="M27.0974 13.6357C27.1285 13.6933 27.1706 13.7442 27.2215 13.7855C27.2723 13.8268 27.3308 13.8578 27.3936 13.8766C27.4564 13.8954 27.5223 13.9016 27.5876 13.895C27.6528 13.8884 27.7161 13.869 27.7739 13.8379L30.0748 12.6013L29.9094 13.0345C29.8827 13.0963 29.8689 13.1628 29.8686 13.2301C29.8684 13.2973 29.8818 13.364 29.9081 13.4259C29.9344 13.4879 29.973 13.5439 30.0216 13.5906C30.0701 13.6373 30.1277 13.6737 30.1907 13.6976C30.2538 13.7216 30.321 13.7325 30.3885 13.7298C30.4559 13.7272 30.5221 13.7109 30.583 13.6821C30.644 13.6532 30.6984 13.6124 30.7431 13.562C30.7878 13.5116 30.8218 13.4527 30.8431 13.3888L31.4021 11.9166C31.4255 11.8555 31.4366 11.7903 31.4347 11.725C31.4328 11.6596 31.418 11.5952 31.3912 11.5355C31.3643 11.4758 31.3259 11.422 31.2782 11.3771C31.2305 11.3323 31.1743 11.2972 31.113 11.274L29.5493 10.6784C29.4873 10.6518 29.4206 10.6379 29.3531 10.6377C29.2856 10.6375 29.2188 10.6509 29.1567 10.6771C29.0945 10.7033 29.0383 10.7417 28.9915 10.7902C28.9447 10.8386 28.9082 10.896 28.8842 10.9588C28.8601 11.0217 28.8492 11.0888 28.8518 11.156C28.8545 11.2232 28.8708 11.2892 28.8998 11.3499C28.9287 11.4107 28.9697 11.465 29.0202 11.5096C29.0708 11.5541 29.1298 11.588 29.1939 11.6092L29.5573 11.747L27.2995 12.9605C27.183 13.0232 27.0962 13.1294 27.0582 13.2559C27.0201 13.3823 27.034 13.5186 27.0966 13.6349L27.0974 13.6357Z"/>
<path d="M5.21675 14.5211C5.15109 14.5211 5.08608 14.534 5.02543 14.5591C4.96477 14.5841 4.90965 14.6208 4.86323 14.6671C4.8168 14.7134 4.77998 14.7684 4.75485 14.8288C4.72973 14.8893 4.7168 14.9541 4.7168 15.0196V16.2219C4.71701 16.473 4.81712 16.7136 4.99516 16.8911C5.17319 17.0686 5.41461 17.1685 5.66639 17.1687H6.04335V19.821C6.04335 19.9531 6.09598 20.0798 6.18967 20.1732C6.28335 20.2666 6.41041 20.3191 6.5429 20.3191C6.67539 20.3191 6.80246 20.2666 6.89614 20.1732C6.98983 20.0798 7.04246 19.9531 7.04246 19.821V17.1687H7.41702C7.66881 17.1685 7.91021 17.0686 8.08825 16.8911C8.26629 16.7136 8.3664 16.473 8.36661 16.2219V10.3583C8.3664 10.1073 8.26629 9.86654 8.08825 9.68903C7.91021 9.51153 7.66881 9.41172 7.41702 9.4115H7.04246V8.61525C7.04246 8.48315 6.98983 8.35647 6.89614 8.26306C6.80246 8.16966 6.67539 8.11719 6.5429 8.11719C6.41041 8.11719 6.28335 8.16966 6.18967 8.26306C6.09598 8.35647 6.04335 8.48315 6.04335 8.61525V9.4115H5.66878C5.417 9.41172 5.17559 9.51153 4.99756 9.68903C4.81952 9.86654 4.7194 10.1073 4.71919 10.3583V12.8968C4.7165 12.9638 4.72743 13.0308 4.75133 13.0935C4.77522 13.1563 4.81158 13.2136 4.85823 13.262C4.90488 13.3104 4.96086 13.349 5.02281 13.3753C5.08476 13.4016 5.15141 13.4151 5.21875 13.4151C5.28608 13.4151 5.35272 13.4016 5.41467 13.3753C5.47662 13.349 5.53261 13.3104 5.57926 13.262C5.62592 13.2136 5.66228 13.1563 5.68617 13.0935C5.71006 13.0308 5.72099 12.9638 5.7183 12.8968V10.4069H7.3683V16.171H5.7159V15.018C5.71548 14.8862 5.66273 14.7599 5.56919 14.6668C5.47565 14.5737 5.34893 14.5213 5.21675 14.5211Z"/>
<path d="M17.4496 13.4698H17.825V16.1221C17.8223 16.1892 17.8332 16.2561 17.8571 16.3189C17.881 16.3817 17.9173 16.439 17.964 16.4874C18.0106 16.5358 18.0666 16.5743 18.1286 16.6006C18.1905 16.6269 18.2572 16.6405 18.3245 16.6405C18.3918 16.6405 18.4585 16.6269 18.5204 16.6006C18.5824 16.5743 18.6384 16.5358 18.685 16.4874C18.7317 16.439 18.768 16.3817 18.7919 16.3189C18.8158 16.2561 18.8267 16.1892 18.8241 16.1221V13.4698H19.1986C19.4504 13.4696 19.6918 13.3698 19.8699 13.1923C20.0479 13.0148 20.148 12.7741 20.1482 12.523V8.61658C20.1431 8.48794 20.0882 8.36627 19.995 8.27707C19.9019 8.18786 19.7778 8.13804 19.6487 8.13804C19.5195 8.13804 19.3954 8.18786 19.3023 8.27707C19.2092 8.36627 19.1543 8.48794 19.1491 8.61658V12.4737H17.4991V3.45525H19.1491V6.49376C19.1543 6.62241 19.2092 6.74408 19.3023 6.83328C19.3954 6.92248 19.5195 6.9723 19.6487 6.9723C19.7778 6.9723 19.9019 6.92248 19.995 6.83328C20.0882 6.74408 20.1431 6.62241 20.1482 6.49376V3.40349C20.148 3.15246 20.0479 2.91178 19.8699 2.73427C19.6918 2.55677 19.4504 2.45695 19.1986 2.45674H18.8241V0.47805C18.8189 0.349402 18.764 0.227736 18.6709 0.138533C18.5778 0.0493303 18.4536 -0.000488281 18.3245 -0.000488281C18.1954 -0.000488281 18.0712 0.0493303 17.9781 0.138533C17.885 0.227736 17.8301 0.349402 17.825 0.47805V2.45913H17.4496C17.1982 2.45934 16.9572 2.55883 16.7792 2.73582C16.6012 2.9128 16.5008 3.15288 16.5 3.40349V12.5207C16.5002 12.7717 16.6003 13.0124 16.7784 13.1899C16.9564 13.3674 17.1978 13.4672 17.4496 13.4674V13.4698Z"/>
<path d="M2.95235 23.3637C2.97811 23.4238 3.01552 23.4783 3.06243 23.524C3.10934 23.5698 3.16482 23.6058 3.22572 23.6302C3.28662 23.6545 3.35173 23.6666 3.41733 23.6658C3.48293 23.6651 3.54774 23.6514 3.60804 23.6256L10.0539 20.8754L10.6401 22.4058C10.6654 22.4719 10.7047 22.532 10.7551 22.5818C10.8056 22.6317 10.8662 22.6702 10.9328 22.6949C10.9994 22.7195 11.0705 22.7297 11.1414 22.7247C11.2122 22.7198 11.2812 22.6998 11.3437 22.6661L21.9929 16.9411C22.1019 16.8744 22.1812 16.7687 22.2144 16.6456C22.2477 16.5225 22.2323 16.3914 22.1716 16.2792C22.1108 16.167 22.0093 16.0823 21.8878 16.0425C21.7663 16.0027 21.6342 16.0108 21.5185 16.0652L11.3701 21.5203L10.8022 20.0361C10.7782 19.9734 10.7417 19.9162 10.695 19.8679C10.6483 19.8197 10.5922 19.7813 10.5302 19.7551C10.4683 19.7289 10.4016 19.7155 10.3343 19.7156C10.267 19.7158 10.2004 19.7294 10.1386 19.7558L3.2143 22.7099C3.09274 22.7621 2.99689 22.8603 2.94779 22.9828C2.89868 23.1054 2.90032 23.2423 2.95235 23.3637Z"/>
</svg>
