<svg width="34" height="34" viewBox="0 0 34 34" xmlns="http://www.w3.org/2000/svg">
<path d="M30.823 4.73182H24.7149V2.73322C24.7176 2.66613 24.7067 2.5992 24.6828 2.53643C24.6589 2.47367 24.6225 2.41636 24.5759 2.36795C24.5292 2.31954 24.4733 2.28102 24.4113 2.25471C24.3494 2.2284 24.2827 2.21484 24.2154 2.21484C24.148 2.21484 24.0814 2.2284 24.0194 2.25471C23.9575 2.28102 23.9015 2.31954 23.8549 2.36795C23.8082 2.41636 23.7718 2.47367 23.748 2.53643C23.7241 2.5992 23.7131 2.66613 23.7158 2.73322V4.73182H21.6465C21.5175 4.73696 21.3955 4.79169 21.306 4.88453C21.2165 4.97737 21.1666 5.10113 21.1666 5.22988C21.1666 5.35863 21.2165 5.48238 21.306 5.57523C21.3955 5.66807 21.5175 5.72279 21.6465 5.72793H23.7158V7.83722H23.3413C23.0895 7.83743 22.8481 7.93724 22.67 8.11475C22.492 8.29225 22.3919 8.53294 22.3917 8.78397V14.6477C22.3919 14.8987 22.492 15.1394 22.67 15.3169C22.8481 15.4944 23.0895 15.5942 23.3413 15.5944H23.7158V19.5446C23.7131 19.6117 23.7241 19.6786 23.748 19.7414C23.7718 19.8042 23.8082 19.8615 23.8549 19.9099C23.9015 19.9583 23.9575 19.9968 24.0194 20.0231C24.0814 20.0494 24.148 20.063 24.2154 20.063C24.2827 20.063 24.3494 20.0494 24.4113 20.0231C24.4733 19.9968 24.5292 19.9583 24.5759 19.9099C24.6225 19.8615 24.6589 19.8042 24.6828 19.7414C24.7067 19.6786 24.7176 19.6117 24.7149 19.5446V15.5936H25.0895C25.3413 15.5934 25.5827 15.4936 25.7607 15.3161C25.9388 15.1386 26.0389 14.8979 26.0391 14.6469V8.78317C26.0389 8.53214 25.9388 8.29146 25.7607 8.11395C25.5827 7.93645 25.3413 7.83663 25.0895 7.83642H24.7149V5.72793H30.823C31.4002 5.72857 31.9536 5.95746 32.3617 6.36439C32.7699 6.77132 32.9995 7.32305 33.0001 7.89853V24.9448H0.999107V7.89853C0.999742 7.32305 1.22932 6.77132 1.63747 6.36439C2.04562 5.95746 2.59901 5.72857 3.17622 5.72793H11.9334V6.70016H11.5588C11.3069 6.70016 11.0653 6.79989 10.8871 6.97741C10.7089 7.15494 10.6086 7.39575 10.6084 7.64691V13.509C10.6086 13.76 10.7088 14.0007 10.8868 14.1782C11.0648 14.3557 11.3062 14.4555 11.558 14.4558H11.9326V18.8567C11.9377 18.9853 11.9926 19.107 12.0858 19.1962C12.1789 19.2854 12.303 19.3352 12.4321 19.3352C12.5613 19.3352 12.6854 19.2854 12.7785 19.1962C12.8716 19.107 12.9265 18.9853 12.9317 18.8567V14.4566H13.3063C13.4311 14.4566 13.5547 14.432 13.67 14.3844C13.7853 14.3368 13.89 14.267 13.9783 14.179C14.0665 14.091 14.1365 13.9866 14.1843 13.8716C14.2321 13.7567 14.2566 13.6334 14.2566 13.509V7.64691C14.2564 7.39588 14.1563 7.1552 13.9783 6.97769C13.8003 6.80019 13.5588 6.70038 13.3071 6.70016H12.9325V5.72793H15.001C15.13 5.72279 15.2521 5.66807 15.3415 5.57523C15.431 5.48238 15.481 5.35863 15.481 5.22988C15.481 5.10113 15.431 4.97737 15.3415 4.88453C15.2521 4.79169 15.13 4.73696 15.001 4.73182H12.9325V4.48578C12.9352 4.4187 12.9243 4.35176 12.9004 4.28899C12.8765 4.22623 12.8401 4.16892 12.7935 4.12051C12.7468 4.0721 12.6908 4.03358 12.6289 4.00727C12.5669 3.98096 12.5003 3.9674 12.4329 3.9674C12.3656 3.9674 12.299 3.98096 12.237 4.00727C12.1751 4.03358 12.1191 4.0721 12.0724 4.12051C12.0258 4.16892 11.9894 4.22623 11.9655 4.28899C11.9416 4.35176 11.9307 4.4187 11.9334 4.48578V4.73182H3.17622C2.33409 4.73266 1.5267 5.06657 0.931227 5.66026C0.335754 6.25395 0.000845721 7.05893 0 7.89853V25.4433C0.000845721 26.2829 0.335754 27.0879 0.931227 27.6816C1.5267 28.2753 2.33409 28.6092 3.17622 28.61H10.7809V31.1421L9.17086 33.0045H8.53195C8.40291 33.0097 8.28088 33.0644 8.19141 33.1573C8.10194 33.2501 8.05197 33.3739 8.05197 33.5026C8.05197 33.6314 8.10194 33.7551 8.19141 33.848C8.28088 33.9408 8.40291 33.9955 8.53195 34.0007H25.4217C25.5542 34.0007 25.6813 33.9482 25.775 33.8548C25.8687 33.7614 25.9213 33.6347 25.9213 33.5026C25.9213 33.3705 25.8687 33.2438 25.775 33.1504C25.6813 33.057 25.5542 33.0045 25.4217 33.0045H24.8283L23.2191 31.1421V28.61H30.8238C31.6659 28.6092 32.4733 28.2753 33.0688 27.6816C33.6642 27.0879 33.9992 26.2829 34 25.4433V7.89853C33.9992 7.05893 33.6642 6.25395 33.0688 5.66026C32.4733 5.06657 31.6659 4.73266 30.8238 4.73182H30.823ZM25.04 14.5975H23.3868V8.83334H25.0368V14.5975H25.04ZM13.2575 13.4604H11.6075V7.69628H13.2575V13.4604ZM30.823 27.6139H20.7129C20.6456 27.6112 20.5785 27.6221 20.5155 27.6459C20.4526 27.6697 20.3951 27.706 20.3465 27.7525C20.298 27.799 20.2594 27.8548 20.233 27.9166C20.2066 27.9784 20.193 28.0448 20.193 28.112C20.193 28.1791 20.2066 28.2455 20.233 28.3073C20.2594 28.3691 20.298 28.4249 20.3465 28.4714C20.3951 28.5179 20.4526 28.5542 20.5155 28.578C20.5785 28.6018 20.6456 28.6127 20.7129 28.61H22.22V30.8292H20.9757C20.8432 30.8292 20.7161 30.8816 20.6224 30.9751C20.5287 31.0685 20.4761 31.1951 20.4761 31.3272C20.4761 31.4593 20.5287 31.586 20.6224 31.6794C20.7161 31.7728 20.8432 31.8253 20.9757 31.8253H22.4931L23.5122 33.0045H10.4942L11.5093 31.8229H13.0267C13.1592 31.8229 13.2863 31.7704 13.38 31.677C13.4737 31.5836 13.5263 31.4569 13.5263 31.3248C13.5263 31.1928 13.4737 31.0661 13.38 30.9727C13.2863 30.8793 13.1592 30.8268 13.0267 30.8268H11.78V28.61H18.5845C18.7136 28.6049 18.8356 28.5501 18.9251 28.4573C19.0145 28.3645 19.0645 28.2407 19.0645 28.112C19.0645 27.9832 19.0145 27.8594 18.9251 27.7666C18.8356 27.6738 18.7136 27.619 18.5845 27.6139H3.17622C2.68591 27.6133 2.21011 27.448 1.82566 27.1446C1.44121 26.8411 1.17056 26.4174 1.05741 25.9418H32.9418C32.8286 26.4174 32.558 26.8411 32.1735 27.1446C31.7891 27.448 31.3133 27.6133 30.823 27.6139Z" />
<path d="M27.0974 13.6362C27.1285 13.6938 27.1706 13.7447 27.2215 13.786C27.2723 13.8273 27.3308 13.8583 27.3936 13.8771C27.4564 13.8959 27.5223 13.9021 27.5876 13.8955C27.6528 13.8889 27.7161 13.8695 27.7739 13.8384L30.0748 12.6018L29.9094 13.035C29.8827 13.0968 29.8689 13.1633 29.8686 13.2306C29.8684 13.2978 29.8818 13.3645 29.9081 13.4264C29.9344 13.4884 29.973 13.5444 30.0216 13.5911C30.0701 13.6378 30.1277 13.6742 30.1907 13.6981C30.2538 13.7221 30.321 13.733 30.3885 13.7303C30.4559 13.7277 30.5221 13.7114 30.583 13.6826C30.644 13.6537 30.6984 13.6129 30.7431 13.5625C30.7878 13.5121 30.8218 13.4532 30.8431 13.3893L31.4021 11.9171C31.4255 11.856 31.4366 11.7908 31.4347 11.7255C31.4328 11.6601 31.418 11.5957 31.3912 11.536C31.3643 11.4763 31.3259 11.4225 31.2782 11.3776C31.2305 11.3328 31.1743 11.2977 31.113 11.2745L29.5493 10.6789C29.4873 10.6523 29.4206 10.6384 29.3531 10.6382C29.2856 10.638 29.2188 10.6514 29.1567 10.6776C29.0945 10.7038 29.0383 10.7422 28.9915 10.7907C28.9447 10.8391 28.9082 10.8965 28.8842 10.9593C28.8601 11.0222 28.8492 11.0893 28.8518 11.1565C28.8545 11.2237 28.8708 11.2897 28.8998 11.3504C28.9287 11.4112 28.9697 11.4655 29.0202 11.5101C29.0708 11.5546 29.1298 11.5885 29.1939 11.6097L29.5573 11.7475L27.2995 12.961C27.183 13.0237 27.0962 13.1299 27.0582 13.2564C27.0201 13.3828 27.034 13.5191 27.0966 13.6354L27.0974 13.6362Z" />
<path d="M5.21675 14.522C5.15109 14.522 5.08608 14.5349 5.02543 14.56C4.96477 14.585 4.90965 14.6217 4.86323 14.668C4.8168 14.7143 4.77998 14.7693 4.75485 14.8297C4.72973 14.8902 4.7168 14.955 4.7168 15.0205V16.2228C4.71701 16.4739 4.81712 16.7145 4.99516 16.892C5.17319 17.0695 5.41461 17.1694 5.66639 17.1696H6.04335V19.8219C6.04335 19.954 6.09598 20.0807 6.18967 20.1741C6.28335 20.2675 6.41041 20.32 6.5429 20.32C6.67539 20.32 6.80246 20.2675 6.89614 20.1741C6.98983 20.0807 7.04246 19.954 7.04246 19.8219V17.1696H7.41702C7.66881 17.1694 7.91021 17.0695 8.08825 16.892C8.26629 16.7145 8.3664 16.4739 8.36661 16.2228V10.3592C8.3664 10.1082 8.26629 9.86751 8.08825 9.69C7.91021 9.5125 7.66881 9.41269 7.41702 9.41247H7.04246V8.61622C7.04246 8.48412 6.98983 8.35744 6.89614 8.26403C6.80246 8.17063 6.67539 8.11816 6.5429 8.11816C6.41041 8.11816 6.28335 8.17063 6.18967 8.26403C6.09598 8.35744 6.04335 8.48412 6.04335 8.61622V9.41247H5.66878C5.417 9.41269 5.17559 9.5125 4.99756 9.69C4.81952 9.86751 4.7194 10.1082 4.71919 10.3592V12.8977C4.7165 12.9647 4.72743 13.0317 4.75133 13.0944C4.77522 13.1572 4.81158 13.2145 4.85823 13.2629C4.90488 13.3113 4.96086 13.3499 5.02281 13.3762C5.08476 13.4025 5.15141 13.416 5.21875 13.416C5.28608 13.416 5.35272 13.4025 5.41467 13.3762C5.47662 13.3499 5.53261 13.3113 5.57926 13.2629C5.62592 13.2145 5.66228 13.1572 5.68617 13.0944C5.71006 13.0317 5.72099 12.9647 5.7183 12.8977V10.4078H7.3683V16.1719H5.7159V15.0189C5.71548 14.8871 5.66273 14.7608 5.56919 14.6677C5.47565 14.5746 5.34893 14.5222 5.21675 14.522Z" />
<path d="M17.4496 13.4703H17.825V16.1226C17.8223 16.1897 17.8332 16.2566 17.8571 16.3194C17.881 16.3822 17.9173 16.4395 17.964 16.4879C18.0106 16.5363 18.0666 16.5748 18.1286 16.6011C18.1905 16.6274 18.2572 16.641 18.3245 16.641C18.3918 16.641 18.4585 16.6274 18.5204 16.6011C18.5824 16.5748 18.6384 16.5363 18.685 16.4879C18.7317 16.4395 18.768 16.3822 18.7919 16.3194C18.8158 16.2566 18.8267 16.1897 18.8241 16.1226V13.4703H19.1986C19.4504 13.4701 19.6918 13.3703 19.8699 13.1928C20.0479 13.0153 20.148 12.7746 20.1482 12.5235V8.61707C20.1431 8.48843 20.0882 8.36676 19.995 8.27756C19.9019 8.18835 19.7778 8.13853 19.6487 8.13853C19.5195 8.13853 19.3954 8.18835 19.3023 8.27756C19.2092 8.36676 19.1543 8.48843 19.1491 8.61707V12.4742H17.4991V3.45574H19.1491V6.49425C19.1543 6.6229 19.2092 6.74457 19.3023 6.83377C19.3954 6.92297 19.5195 6.97279 19.6487 6.97279C19.7778 6.97279 19.9019 6.92297 19.995 6.83377C20.0882 6.74457 20.1431 6.6229 20.1482 6.49425V3.40398C20.148 3.15295 20.0479 2.91227 19.8699 2.73476C19.6918 2.55726 19.4504 2.45744 19.1986 2.45723H18.8241V0.478538C18.8189 0.34989 18.764 0.228224 18.6709 0.139021C18.5778 0.0498186 18.4536 0 18.3245 0C18.1954 0 18.0712 0.0498186 17.9781 0.139021C17.885 0.228224 17.8301 0.34989 17.825 0.478538V2.45962H17.4496C17.1982 2.45983 16.9572 2.55932 16.7792 2.73631C16.6012 2.91329 16.5008 3.15337 16.5 3.40398V12.5212C16.5002 12.7722 16.6003 13.0129 16.7784 13.1904C16.9564 13.3679 17.1978 13.4677 17.4496 13.4679V13.4703Z" />
<path d="M2.95235 23.3642C2.97811 23.4243 3.01552 23.4788 3.06243 23.5245C3.10934 23.5703 3.16482 23.6063 3.22572 23.6307C3.28662 23.655 3.35173 23.6671 3.41733 23.6663C3.48293 23.6656 3.54774 23.6519 3.60804 23.6261L10.0539 20.8759L10.6401 22.4063C10.6654 22.4724 10.7047 22.5325 10.7551 22.5823C10.8056 22.6322 10.8662 22.6707 10.9328 22.6954C10.9994 22.72 11.0705 22.7302 11.1414 22.7252C11.2122 22.7203 11.2812 22.7003 11.3437 22.6666L21.9929 16.9416C22.1019 16.8749 22.1812 16.7692 22.2144 16.6461C22.2477 16.523 22.2323 16.3919 22.1716 16.2797C22.1108 16.1675 22.0093 16.0828 21.8878 16.043C21.7663 16.0032 21.6342 16.0113 21.5185 16.0657L11.3701 21.5208L10.8022 20.0366C10.7782 19.9739 10.7417 19.9167 10.695 19.8684C10.6483 19.8202 10.5922 19.7818 10.5302 19.7556C10.4683 19.7294 10.4016 19.716 10.3343 19.7161C10.267 19.7163 10.2004 19.7299 10.1386 19.7563L3.2143 22.7104C3.09274 22.7626 2.99689 22.8608 2.94779 22.9833C2.89868 23.1059 2.90032 23.2428 2.95235 23.3642Z" />
</svg>
