<svg width="34" height="28" viewBox="0 0 34 28" xmlns="http://www.w3.org/2000/svg">
<path d="M0.586231 12.6377C0.386112 12.8662 0.409135 13.2137 0.637654 13.4138C0.866172 13.6139 1.21365 13.5909 1.41377 13.3623L0.586231 12.6377ZM9.2963 3.52632L9.62945 3.0887C9.39939 2.91356 9.07301 2.94645 8.88253 3.16397L9.2963 3.52632ZM21.7407 13L21.4076 13.4376C21.6319 13.6084 21.949 13.5819 22.1418 13.3763L21.7407 13ZM33.4011 1.37633C33.6089 1.15482 33.5979 0.806752 33.3763 0.598909C33.1548 0.391066 32.8068 0.402151 32.5989 0.623668L33.4011 1.37633ZM1.41377 13.3623L9.71007 3.88866L8.88253 3.16397L0.586231 12.6377L1.41377 13.3623ZM8.96315 3.96394L21.4076 13.4376L22.0739 12.5624L9.62945 3.0887L8.96315 3.96394ZM22.1418 13.3763L33.4011 1.37633L32.5989 0.623668L21.3396 12.6237L22.1418 13.3763Z" fill="#728094"/>
<path d="M2 19V27" stroke="#728094" stroke-width="1.1" stroke-linecap="round"/>
<path d="M7 15L7 27" stroke="#728094" stroke-width="1.1" stroke-linecap="round"/>
<path d="M12 11L12 27" stroke="#728094" stroke-width="1.1" stroke-linecap="round"/>
<path d="M17 17V27" stroke="#728094" stroke-width="1.1" stroke-linecap="round"/>
<path d="M22 20V27" stroke="#728094" stroke-width="1.1" stroke-linecap="round"/>
<path d="M27 18V27" stroke="#728094" stroke-width="1.1" stroke-linecap="round"/>
<path d="M32 13V27" stroke="#728094" stroke-width="1.1" stroke-linecap="round"/>
<circle cx="18" cy="9" r="9" fill="white"/>
<circle cx="18" cy="9" r="7.5" stroke="#728094"/>
<path d="M19.9431 10.6806L20.1894 10.9266L17.9999 13.1161L15.8108 10.927L16.0573 10.6812L17.558 12.1818L17.9999 12.6237L18.4419 12.1818L19.9431 10.6806ZM18.4419 5.8182L17.9999 5.37628L17.558 5.8182L16.0579 7.31821L15.8118 7.0721L17.9999 4.8839L20.189 7.07309L19.9429 7.31922L18.4419 5.8182ZM13.8839 8.99984L14.13 8.75369L14.3761 8.99977L14.13 9.24592L13.8839 8.99984ZM21.6239 9.00047L21.8701 8.75432L22.1161 9.0004L21.87 9.24655L21.6239 9.00047Z" fill="#406AFF" stroke="#728094" stroke-width="1.25"/>
<mask id="path-12-inside-1_6_469" fill="white">
<path d="M19.1449 8.99968H19.1454L17.9988 7.85303L17.1514 8.70043H17.1513L17.054 8.79783L16.8532 8.99868L16.8516 9.00023L16.8532 9.00188L17.9988 10.1475L19.1454 9.00088L19.146 9.00023L19.1449 8.99968Z"/>
</mask>
<path d="M19.1449 8.99968H19.1454L17.9988 7.85303L17.1514 8.70043H17.1513L17.054 8.79783L16.8532 8.99868L16.8516 9.00023L16.8532 9.00188L17.9988 10.1475L19.1454 9.00088L19.146 9.00023L19.1449 8.99968Z" fill="#406AFF"/>
<path d="M19.1454 8.99968V10.2497H22.1632L20.0293 8.11579L19.1454 8.99968ZM17.9988 7.85303L18.8826 6.96914L17.9988 6.08526L17.1149 6.96914L17.9988 7.85303ZM17.1514 8.70043V9.95043H17.6691L18.0352 9.58431L17.1514 8.70043ZM17.1513 8.70043V7.45043H16.6334L16.2672 7.81677L17.1513 8.70043ZM17.054 8.79783L17.938 9.6816L17.9381 9.68148L17.054 8.79783ZM16.8532 8.99868L17.7229 9.89649L17.7301 9.88953L17.7372 9.88245L16.8532 8.99868ZM16.8516 9.00023L15.9818 8.10241L15.0836 8.97257L15.9542 9.8704L16.8516 9.00023ZM16.8532 9.00188L15.9558 9.87205L15.9625 9.87895L15.9693 9.88574L16.8532 9.00188ZM17.9988 10.1475L17.1149 11.0314L17.9987 11.9153L18.8826 11.0314L17.9988 10.1475ZM19.1454 9.00088L20.0293 9.88476L20.0659 9.8482L20.0993 9.80875L19.1454 9.00088ZM19.146 9.00023L20.0998 9.8081L21.1087 8.61686L19.7257 7.89281L19.146 9.00023ZM19.1449 10.2497H19.1454V7.74968H19.1449V10.2497ZM20.0293 8.11579L18.8826 6.96914L17.1149 8.73691L18.2615 9.88356L20.0293 8.11579ZM17.1149 6.96914L16.2675 7.81654L18.0352 9.58431L18.8826 8.73691L17.1149 6.96914ZM17.1514 7.45043H17.1513V9.95043H17.1514V7.45043ZM16.2672 7.81677L16.1699 7.91417L17.9381 9.68148L18.0354 9.58408L16.2672 7.81677ZM16.17 7.91405L15.9692 8.1149L17.7372 9.88245L17.938 9.6816L16.17 7.91405ZM15.9834 8.10086L15.9818 8.10241L17.7213 9.89804L17.7229 9.89649L15.9834 8.10086ZM15.9542 9.8704L15.9558 9.87205L17.7506 8.13171L17.749 8.13006L15.9542 9.8704ZM15.9693 9.88574L17.1149 11.0314L18.8827 9.26366L17.7371 8.11801L15.9693 9.88574ZM18.8826 11.0314L20.0293 9.88476L18.2615 8.11699L17.1149 9.26364L18.8826 11.0314ZM20.0993 9.80875L20.0998 9.8081L18.1921 8.19236L18.1916 8.19301L20.0993 9.80875ZM19.7257 7.89281L19.7247 7.89226L18.5651 10.1071L18.5662 10.1076L19.7257 7.89281Z" fill="#728094" mask="url(#path-12-inside-1_6_469)"/>
</svg>
