<svg width="34" height="34" viewBox="0 0 34 34" xmlns="http://www.w3.org/2000/svg">
<path d="M32.0542 19.2033H31.5974V15.939C31.5963 15.1269 31.2419 14.3482 30.6121 13.774C29.9823 13.1998 29.1284 12.8769 28.2377 12.876H15.7339C15.7339 12.862 15.7339 12.8481 15.7339 12.8333C15.7334 12.0109 15.5089 11.2015 15.0805 10.4777C14.6522 9.75396 14.0334 9.1386 13.2798 8.68684C12.5262 8.23508 11.6613 7.96109 10.7629 7.88947C9.86446 7.81785 8.96059 7.95086 8.13245 8.27653C8.00339 8.32744 7.90178 8.42303 7.85 8.54225C7.79821 8.66149 7.80048 8.79458 7.85632 8.91228C7.91215 9.02999 8.01696 9.12264 8.14771 9.16986C8.27845 9.21708 8.42441 9.21502 8.55348 9.1641C9.22023 8.90205 9.94792 8.7951 10.6712 8.85286C11.3945 8.91062 12.0907 9.13129 12.6974 9.49504C13.304 9.85878 13.8021 10.3542 14.1469 10.9369C14.4917 11.5196 14.6724 12.1713 14.6728 12.8333C14.6728 12.8473 14.6728 12.862 14.6728 12.876H12.1757L10.7609 10.3812C10.7163 10.3022 10.6487 10.236 10.5656 10.1897C10.4825 10.1435 10.387 10.1191 10.2896 10.1191C10.1922 10.1191 10.0967 10.1435 10.0135 10.1897C9.93041 10.236 9.86284 10.3022 9.81826 10.3812L8.40689 12.8776H5.91227C5.91227 12.8636 5.91227 12.8496 5.91227 12.8349C5.90959 11.9685 6.21823 11.1252 6.79097 10.4341C6.83288 10.3834 6.86343 10.3256 6.88087 10.2641C6.8983 10.2026 6.90229 10.1386 6.8926 10.0757C6.8829 10.0128 6.85971 9.95223 6.82436 9.89754C6.78901 9.84275 6.74219 9.79496 6.68656 9.75668C6.63094 9.71851 6.5676 9.69065 6.50017 9.67474C6.43273 9.65884 6.36253 9.65521 6.29356 9.66405C6.22459 9.67289 6.1582 9.69404 6.09819 9.72628C6.03818 9.75853 5.98572 9.80117 5.9438 9.85198C5.23157 10.7104 4.84775 11.7583 4.85118 12.8349C4.85118 12.8488 4.85118 12.8636 4.85118 12.8776H3.35883C2.46836 12.8787 1.61469 13.2017 0.985026 13.7759C0.355366 14.3501 0.00112761 15.1286 0 15.9406V29.9592C0.00112761 30.7712 0.355366 31.5497 0.985026 32.1239C1.61469 32.6981 2.46836 33.0211 3.35883 33.0222H21.5465C21.6872 33.0222 21.8221 32.9712 21.9216 32.8805C22.0211 32.7897 22.077 32.6667 22.077 32.5383C22.077 32.4101 22.0211 32.287 21.9216 32.1963C21.8221 32.1056 21.6872 32.0546 21.5465 32.0546H3.35883C2.74853 32.0546 2.16322 31.8335 1.73167 31.4399C1.30012 31.0464 1.05768 30.5126 1.05768 29.9561V28.4017H4.73441C4.85982 28.402 4.98405 28.3797 5.09991 28.3358C5.21577 28.2921 5.32097 28.2278 5.40942 28.1467L6.36653 27.274H7.82052C7.93611 27.4459 8.11012 27.5787 8.31608 27.6521C8.52204 27.7257 8.74868 27.7358 8.96153 27.681C9.17438 27.6262 9.36179 27.5095 9.49526 27.3488C9.62873 27.188 9.70096 26.9918 9.70096 26.7901C9.70096 26.5884 9.62873 26.3923 9.49526 26.2314C9.36179 26.0707 9.17438 25.954 8.96153 25.8992C8.74868 25.8445 8.52204 25.8546 8.31608 25.9281C8.11012 26.0016 7.93611 26.1344 7.82052 26.3063H6.32903C6.20363 26.306 6.0794 26.3284 5.96354 26.3721C5.84767 26.4159 5.74247 26.4801 5.65403 26.5612L4.69691 27.4341H1.06109V25.139H11.187C11.3026 25.3109 11.4766 25.4437 11.6826 25.5171C11.8885 25.5906 12.1152 25.6008 12.328 25.546C12.5409 25.4912 12.7283 25.3745 12.8618 25.2138C12.9952 25.053 13.0675 24.8568 13.0675 24.6551C13.0675 24.4534 12.9952 24.2573 12.8618 24.0964C12.7283 23.9357 12.5409 23.819 12.328 23.7642C12.1152 23.7095 11.8885 23.7196 11.6826 23.7931C11.4766 23.8666 11.3026 23.9994 11.187 24.1713H1.06109V21.8467H5.7009L6.75176 22.8049C6.84021 22.886 6.94541 22.9503 7.06127 22.9941C7.17713 23.0379 7.30136 23.0602 7.42677 23.0599H14.2808C14.3964 23.2319 14.5704 23.3647 14.7764 23.4381C14.9823 23.5116 15.209 23.5217 15.4218 23.4669C15.6347 23.4122 15.8221 23.2955 15.9555 23.1347C16.089 22.9739 16.1612 22.7777 16.1612 22.576C16.1612 22.3744 16.089 22.1782 15.9555 22.0174C15.8221 21.8566 15.6347 21.7399 15.4218 21.6851C15.209 21.6305 14.9823 21.6406 14.7764 21.714C14.5704 21.7875 14.3964 21.9203 14.2808 22.0923H7.47023L6.41937 21.134C6.33092 21.0528 6.22572 20.9886 6.10986 20.9448C5.994 20.9011 5.86977 20.8788 5.74437 20.8791H1.05683V19.2181H6.13642L7.09608 20.0909C7.18453 20.172 7.28973 20.2363 7.40559 20.2801C7.52145 20.3238 7.64568 20.3461 7.77109 20.3458H9.15263C9.26823 20.5178 9.44223 20.6506 9.64819 20.7241C9.85415 20.7976 10.0808 20.8077 10.2936 20.753C10.5065 20.6982 10.6939 20.5815 10.8274 20.4207C10.9608 20.2599 11.0331 20.0637 11.0331 19.8621C11.0331 19.6604 10.9608 19.4642 10.8274 19.3034C10.6939 19.1426 10.5065 19.026 10.2936 18.9712C10.0808 18.9164 9.85415 18.9265 9.64819 19C9.44223 19.0735 9.26823 19.2063 9.15263 19.3782H7.81455L6.85744 18.5055C6.76899 18.4244 6.6638 18.36 6.54793 18.3163C6.43207 18.2725 6.30784 18.2502 6.18244 18.2505H1.06109V15.9414C1.06109 15.3849 1.30353 14.8511 1.73508 14.4575C2.16663 14.064 2.75194 13.8429 3.36224 13.8429H28.2386C28.8489 13.8429 29.4342 14.064 29.8657 14.4575C30.2973 14.8511 30.5397 15.3849 30.5397 15.9414V19.2057H21.1229C20.6073 19.2064 20.113 19.3934 19.7484 19.7259C19.3838 20.0583 19.1787 20.5091 19.178 20.9793V24.9252C19.1787 25.3954 19.3838 25.8462 19.7484 26.1787C20.113 26.5111 20.6073 26.6982 21.1229 26.6988H30.5338V29.9631C30.5338 30.5196 30.2913 31.0534 29.8598 31.4469C29.4282 31.8405 28.8429 32.0616 28.2326 32.0616H24.3403C24.1996 32.0616 24.0646 32.1126 23.9651 32.2033C23.8656 32.294 23.8097 32.4171 23.8097 32.5453C23.8097 32.6737 23.8656 32.7967 23.9651 32.8875C24.0646 32.9782 24.1996 33.0292 24.3403 33.0292H28.2386C29.1292 33.0283 29.9831 32.7054 30.6129 32.1312C31.2428 31.557 31.5971 30.7784 31.5983 29.9662V26.7019H32.0551C32.5707 26.7013 33.065 26.5142 33.4296 26.1818C33.7942 25.8493 33.9993 25.3985 34 24.9284V20.9824C33.9993 20.5121 33.7942 20.0614 33.4296 19.729C33.065 19.3965 32.5707 19.2095 32.0551 19.2088L32.0542 19.2033ZM10.293 11.6582L10.9825 12.8776H9.60349L10.293 11.6582ZM32.9389 24.9228C32.9387 25.1365 32.8455 25.3414 32.6798 25.4926C32.5141 25.6436 32.2894 25.7286 32.0551 25.7288H21.1229C20.8886 25.7286 20.6639 25.6436 20.4982 25.4926C20.3325 25.3414 20.2393 25.1365 20.2391 24.9228V20.977C20.2393 20.7633 20.3325 20.5584 20.4982 20.4072C20.6639 20.2562 20.8886 20.1712 21.1229 20.171H32.0542C32.2886 20.1712 32.5132 20.2562 32.6789 20.4072C32.8446 20.5584 32.9378 20.7633 32.9381 20.977V24.9228H32.9389Z" />
<path d="M23.7735 21.0308C23.3895 21.0308 23.0142 21.1346 22.6949 21.3292C22.3756 21.5237 22.1268 21.8002 21.9798 22.1237C21.8329 22.4472 21.7944 22.8032 21.8693 23.1466C21.9442 23.4901 22.1292 23.8056 22.4007 24.0532C22.6722 24.3008 23.0182 24.4694 23.3948 24.5377C23.7714 24.606 24.1617 24.5709 24.5165 24.437C24.8713 24.3029 25.1745 24.076 25.3878 23.7849C25.6012 23.4937 25.715 23.1514 25.715 22.8012C25.7143 22.3319 25.5096 21.8819 25.1456 21.55C24.7817 21.2182 24.2882 21.0313 23.7735 21.0308ZM23.7735 23.6041C23.5994 23.6041 23.4292 23.5571 23.2844 23.4688C23.1396 23.3806 23.0268 23.2552 22.9601 23.1085C22.8935 22.9618 22.8761 22.8003 22.91 22.6446C22.944 22.4889 23.0279 22.3458 23.151 22.2335C23.2741 22.1213 23.431 22.0447 23.6018 22.0138C23.7726 21.9829 23.9496 21.9987 24.1104 22.0595C24.2713 22.1202 24.4088 22.2232 24.5056 22.3552C24.6023 22.4872 24.6539 22.6425 24.6539 22.8012C24.6537 23.0141 24.5609 23.2182 24.3958 23.3687C24.2308 23.5193 24.0069 23.6039 23.7735 23.6041Z" />
<path d="M18.9459 9.77221C19.0812 9.80009 19.223 9.77852 19.3411 9.71221C19.4591 9.64587 19.544 9.53999 19.5774 9.41728C19.6109 9.29457 19.5902 9.16478 19.52 9.05576C19.4497 8.94674 19.3355 8.86716 19.2016 8.83408C18.5237 8.67863 17.8965 8.37757 17.3721 7.95604C16.8478 7.5345 16.4417 7.00471 16.1876 6.41089C15.9336 5.81706 15.839 5.17644 15.9117 4.54248C15.9844 3.90853 16.2224 3.29963 16.6057 2.76661C16.9891 2.2336 17.5066 1.79193 18.1153 1.47848C18.7239 1.16503 19.4059 0.98888 20.1044 0.964745C20.8029 0.94061 21.4976 1.06919 22.1305 1.33974C22.7634 1.61029 23.3161 2.01497 23.7426 2.52001C23.2179 2.76377 22.7399 3.08316 22.3269 3.46587C22.0169 3.28064 21.6544 3.18178 21.2837 3.18141H19.9013C19.8027 3.18139 19.706 3.20649 19.6221 3.25386C19.5383 3.30123 19.4705 3.36901 19.4266 3.44955L18.8854 4.44282H17.8746C17.7339 4.44282 17.599 4.4938 17.4995 4.58454C17.4 4.67527 17.3441 4.79833 17.3441 4.92664C17.3441 5.05496 17.4 5.17802 17.4995 5.26875C17.599 5.35948 17.7339 5.41045 17.8746 5.41045H18.3544L18.0476 5.97315C18.0072 6.0469 17.9882 6.12883 17.9923 6.21117C17.9964 6.29352 18.0235 6.37354 18.0711 6.44363C18.1186 6.51372 18.1851 6.57155 18.2641 6.61164C18.343 6.65173 18.432 6.67273 18.5224 6.67265H20.7724C20.7673 6.76281 20.7638 6.85297 20.7638 6.94467C20.7629 7.98379 21.1193 8.99702 21.783 9.84166C22.4467 10.6863 23.3843 11.3199 24.4636 11.6531C25.5429 11.9863 26.7096 12.0023 27.7995 11.699C28.8894 11.3958 29.8474 10.7883 30.5389 9.96241C31.2303 9.13643 31.6202 8.13349 31.6536 7.09483C31.6871 6.05616 31.3625 5.03407 30.7255 4.1725C30.0884 3.31093 29.1711 2.65327 28.1027 2.29213C27.0342 1.93098 25.8685 1.88456 24.7696 2.15937C24.272 1.4966 23.6054 0.953847 22.8271 0.577735C22.0488 0.201623 21.1821 0.00338475 20.3012 4.29633e-05C19.4204 -0.00329882 18.5519 0.188355 17.7702 0.558549C16.9885 0.928742 16.317 1.46642 15.8134 2.12539C15.3098 2.78438 14.989 3.54498 14.8788 4.3419C14.7685 5.13881 14.872 5.94824 15.1803 6.70066C15.4886 7.45307 15.9926 8.12601 16.6489 8.66168C17.3053 9.19736 18.0944 9.57976 18.9485 9.77609L18.9459 9.77221ZM19.3806 5.70424L20.2329 4.14982H21.2837C21.413 4.14957 21.5407 4.17615 21.657 4.22754C21.33 4.68042 21.0869 5.17933 20.9377 5.70424H19.3806ZM30.5889 6.94389C30.5889 7.73416 30.332 8.50668 29.8505 9.16376C29.369 9.82088 28.6847 10.333 27.8841 10.6354C27.0835 10.9378 26.2025 11.0169 25.3526 10.8627C24.5026 10.7086 23.7219 10.3281 23.1091 9.76929C22.4963 9.21045 22.079 8.49849 21.91 7.72341C21.7409 6.94833 21.8277 6.14494 22.1593 5.41483C22.4909 4.68472 23.0525 4.06068 23.7731 3.62164C24.4936 3.18259 25.3408 2.94825 26.2074 2.94825C27.369 2.94949 28.4827 3.37084 29.3041 4.11991C30.1255 4.86897 30.5876 5.88456 30.5889 6.94389Z" />
<path d="M25.29 9.1136C25.29 9.1136 26.2769 9.10972 26.5497 9.10972C26.8602 9.10995 27.1634 9.02367 27.4186 8.86243C27.6739 8.70118 27.869 8.47267 27.978 8.20749C28.0869 7.94232 28.1044 7.65313 28.0281 7.37863C27.9518 7.10414 27.7854 6.85745 27.5511 6.6716C27.6751 6.48022 27.7412 6.26231 27.7428 6.04005C27.7444 5.81779 27.6813 5.59911 27.56 5.4063C27.4388 5.21349 27.2636 5.05343 27.0524 4.94243C26.8413 4.83144 26.6016 4.77347 26.3579 4.77443H25.284C25.1434 4.77443 25.0086 4.82536 24.9092 4.91601C24.8097 5.00667 24.7539 5.12964 24.7539 5.25785V8.63017C24.7539 8.75839 24.8097 8.88135 24.9092 8.97201C25.0086 9.06267 25.1434 9.1136 25.284 9.1136H25.29ZM26.5513 8.14209H25.8201V7.29492H26.5513C26.6141 7.29248 26.6767 7.30163 26.7355 7.32182C26.7942 7.34203 26.8479 7.37286 26.8932 7.41248C26.9385 7.45208 26.9746 7.49965 26.9993 7.55231C27.0239 7.60497 27.0366 7.66164 27.0366 7.71889C27.0366 7.77615 27.0239 7.83281 26.9993 7.88547C26.9746 7.93814 26.9385 7.9857 26.8932 8.02531C26.8479 8.06492 26.7942 8.09575 26.7355 8.11596C26.6767 8.13616 26.6141 8.14531 26.5513 8.14286V8.14209ZM26.3638 5.74128C26.4488 5.74128 26.5304 5.77206 26.5905 5.82687C26.6506 5.88167 26.6843 5.956 26.6843 6.0335C26.6843 6.11101 26.6506 6.18535 26.5905 6.24015C26.5304 6.29495 26.4488 6.32574 26.3638 6.32574H25.8201V5.7405L26.3638 5.74128Z" />
</svg>
