<svg width="13" height="13" viewBox="0 0 13 13" fill="none" xmlns="http://www.w3.org/2000/svg">
<g clip-path="url(#clip0_6_17490)">
<path d="M12.8853 1.95C12.8853 0.872993 12.02 0 10.9525 0H1.93279C0.86529 0 0 0.872993 0 1.95V11.05C0 12.127 0.865333 13 1.93279 13H10.9525C12.02 13 12.8853 12.127 12.8853 11.05V1.95Z" fill="#2DC100"/>
<path d="M8.62347 8.15199C7.5835 8.09717 6.67917 7.77911 5.94496 7.06051C5.20316 6.33451 4.86453 5.44487 4.95709 4.34204C4.5506 4.39283 4.18037 4.44873 3.80803 4.48036C3.67943 4.49128 3.52683 4.47577 3.4179 4.41376C3.05634 4.20792 2.70973 3.97553 2.2989 3.71644C2.37428 4.06042 2.42307 4.36163 2.50945 4.65135C2.57297 4.86429 2.54355 4.98281 2.34911 5.12148C1.1007 6.01072 0.574463 7.34153 0.96828 8.71164C1.33263 9.97914 2.22739 10.7478 3.44316 11.1485C5.10257 11.6954 6.96746 11.1376 7.9765 9.80836C8.34094 9.32823 8.56441 8.78934 8.62347 8.15199ZM3.83715 8.57891C3.84672 8.82951 3.6315 9.05527 3.37585 9.06281C3.11411 9.07057 2.89884 8.86877 2.89119 8.60855C2.88346 8.34482 3.0834 8.13349 3.34703 8.12673C3.60839 8.12005 3.82748 8.32212 3.83715 8.57891ZM6.33436 9.06299C6.07777 9.05822 5.86095 8.83774 5.86551 8.58615C5.87019 8.32537 6.08288 8.12135 6.34673 8.12456C6.61126 8.12777 6.81189 8.33395 6.8094 8.60023C6.80721 8.86162 6.59546 9.0678 6.33436 9.06299Z" fill="white"/>
<path d="M10.9598 1.61069C10.6305 1.75863 10.3284 1.98058 10.0068 2.01447C9.68644 2.04822 9.34966 1.86176 9.01447 1.82718C7.99348 1.72179 7.0788 2.00888 6.32458 2.71257C4.89015 4.05113 5.09511 6.10357 6.75469 7.20051C8.22967 8.17543 10.3928 7.85043 11.4327 6.49769C12.3402 5.31729 12.2336 3.75036 11.1257 2.75872C10.8051 2.47172 10.6898 2.23555 10.8955 1.85721C10.9334 1.78736 10.9378 1.69892 10.9598 1.61069ZM7.2113 5.27231C7.42095 5.27209 7.59357 5.43763 7.60151 5.64654C7.60989 5.86771 7.43358 6.05322 7.21405 6.05413C6.99672 6.05513 6.81465 5.86702 6.82221 5.64914C6.82934 5.44096 7.00316 5.27257 7.2113 5.27231ZM9.62777 6.05326C9.42435 6.05469 9.25152 5.88669 9.24323 5.67934C9.23442 5.4576 9.40524 5.27552 9.62274 5.27495C9.83311 5.27426 9.99933 5.43477 10.007 5.64597C10.0151 5.86823 9.84424 6.05175 9.62777 6.05326Z" fill="white"/>
</g>
<defs>
<clipPath id="clip0_6_17490">
<rect width="12.8853" height="13" fill="white" transform="matrix(1 0 0 -1 0 13)"/>
</clipPath>
</defs>
</svg>
